<?xml version="1.0" standalone="no"?>
 <!DOCTYPE svg PUBLIC "-//W3C//DTD SVG 1.1//EN" 
 "http://www.w3.org/Graphics/SVG/1.1/DTD/svg11.dtd"> 
<svg
  xmlns:svg="http://www.w3.org/2000/svg"
  xmlns="http://www.w3.org/2000/svg"
  xmlns:xlink="http://www.w3.org/1999/xlink"
  version="1.1"
  width="69.9770mm" height="69.9770mm" viewBox="0.0000 0.0000 69.9770 69.9770">
<title>SVG Image created as AH3-Edge_Cuts.svg date 2025/01/22 23:58:44 </title>
  <desc>Image generated by PCBNEW </desc>
<g style="fill:#000000; fill-opacity:1.0000;stroke:#000000; stroke-opacity:1.0000;
stroke-linecap:round; stroke-linejoin:round;"
 transform="translate(0 0) scale(1 1)">
</g>
<g style="fill:none; 
stroke:#000000; stroke-width:0.0500; stroke-opacity:1; 
stroke-linecap:round; stroke-linejoin:round;">
<path d="M45.0000 31.6200
L44.9979 47.3850
" />
<path d="M16.0000 47.3811 A16.5005 16.5005 0.0 0 0 44.9979 47.3850" />
<path d="M16.0000 31.6200
L16.0000 47.3811
" />
<path d="M45.0000 31.6200 A16.4981 16.4981 0.0 0 0 16.0000 31.6200" />
<path style="fill:#000000; fill-opacity:1.0000; stroke:none;fill-rule:evenodd;"
d="M 31.5625,32.1000
31.5625,29.3000
34.3625,29.3000
34.3625,32.1000
Z" /> 
<path style="fill:#000000; fill-opacity:1.0000; stroke:none;fill-rule:evenodd;"
d="M 31.6625,28.3750
31.6663,28.3559
31.6771,28.3396
31.6934,28.3288
31.7125,28.3250
31.8125,28.3250
31.8316,28.3288
31.8479,28.3396
31.8587,28.3559
31.8625,28.3750
31.8625,29.0500
31.8587,29.0691
31.8479,29.0854
31.8316,29.0962
31.8125,29.1000
31.7125,29.1000
31.6934,29.0962
31.6771,29.0854
31.6663,29.0691
31.6625,29.0500
Z" /> 
<path style="fill:#000000; fill-opacity:1.0000; stroke:none;fill-rule:evenodd;"
d="M 32.0625,28.3750
32.0663,28.3559
32.0771,28.3396
32.0934,28.3288
32.1125,28.3250
32.2125,28.3250
32.2316,28.3288
32.2479,28.3396
32.2587,28.3559
32.2625,28.3750
32.2625,29.0500
32.2587,29.0691
32.2479,29.0854
32.2316,29.0962
32.2125,29.1000
32.1125,29.1000
32.0934,29.0962
32.0771,29.0854
32.0663,29.0691
32.0625,29.0500
Z" /> 
<path style="fill:#000000; fill-opacity:1.0000; stroke:none;fill-rule:evenodd;"
d="M 32.4625,28.3750
32.4663,28.3559
32.4771,28.3396
32.4934,28.3288
32.5125,28.3250
32.6125,28.3250
32.6316,28.3288
32.6479,28.3396
32.6587,28.3559
32.6625,28.3750
32.6625,29.0500
32.6587,29.0691
32.6479,29.0854
32.6316,29.0962
32.6125,29.1000
32.5125,29.1000
32.4934,29.0962
32.4771,29.0854
32.4663,29.0691
32.4625,29.0500
Z" /> 
<path style="fill:#000000; fill-opacity:1.0000; stroke:none;fill-rule:evenodd;"
d="M 32.8625,28.3750
32.8663,28.3559
32.8771,28.3396
32.8934,28.3288
32.9125,28.3250
33.0125,28.3250
33.0316,28.3288
33.0479,28.3396
33.0587,28.3559
33.0625,28.3750
33.0625,29.0500
33.0587,29.0691
33.0479,29.0854
33.0316,29.0962
33.0125,29.1000
32.9125,29.1000
32.8934,29.0962
32.8771,29.0854
32.8663,29.0691
32.8625,29.0500
Z" /> 
<path style="fill:#000000; fill-opacity:1.0000; stroke:none;fill-rule:evenodd;"
d="M 33.2625,28.3750
33.2663,28.3559
33.2771,28.3396
33.2934,28.3288
33.3125,28.3250
33.4125,28.3250
33.4316,28.3288
33.4479,28.3396
33.4587,28.3559
33.4625,28.3750
33.4625,29.0500
33.4587,29.0691
33.4479,29.0854
33.4316,29.0962
33.4125,29.1000
33.3125,29.1000
33.2934,29.0962
33.2771,29.0854
33.2663,29.0691
33.2625,29.0500
Z" /> 
<path style="fill:#000000; fill-opacity:1.0000; stroke:none;fill-rule:evenodd;"
d="M 33.6625,28.3750
33.6663,28.3559
33.6771,28.3396
33.6934,28.3288
33.7125,28.3250
33.8125,28.3250
33.8316,28.3288
33.8479,28.3396
33.8587,28.3559
33.8625,28.3750
33.8625,29.0500
33.8587,29.0691
33.8479,29.0854
33.8316,29.0962
33.8125,29.1000
33.7125,29.1000
33.6934,29.0962
33.6771,29.0854
33.6663,29.0691
33.6625,29.0500
Z" /> 
<path style="fill:#000000; fill-opacity:1.0000; stroke:none;fill-rule:evenodd;"
d="M 34.0625,28.3750
34.0663,28.3559
34.0771,28.3396
34.0934,28.3288
34.1125,28.3250
34.2125,28.3250
34.2316,28.3288
34.2479,28.3396
34.2587,28.3559
34.2625,28.3750
34.2625,29.0500
34.2587,29.0691
34.2479,29.0854
34.2316,29.0962
34.2125,29.1000
34.1125,29.1000
34.0934,29.0962
34.0771,29.0854
34.0663,29.0691
34.0625,29.0500
Z" /> 
<path style="fill:#000000; fill-opacity:1.0000; stroke:none;fill-rule:evenodd;"
d="M 34.5625,29.4500
34.5663,29.4309
34.5771,29.4146
34.5934,29.4038
34.6125,29.4000
35.2875,29.4000
35.3066,29.4038
35.3229,29.4146
35.3337,29.4309
35.3375,29.4500
35.3375,29.5500
35.3337,29.5691
35.3229,29.5854
35.3066,29.5962
35.2875,29.6000
34.6125,29.6000
34.5934,29.5962
34.5771,29.5854
34.5663,29.5691
34.5625,29.5500
Z" /> 
<path style="fill:#000000; fill-opacity:1.0000; stroke:none;fill-rule:evenodd;"
d="M 34.5625,29.8500
34.5663,29.8309
34.5771,29.8146
34.5934,29.8038
34.6125,29.8000
35.2875,29.8000
35.3066,29.8038
35.3229,29.8146
35.3337,29.8309
35.3375,29.8500
35.3375,29.9500
35.3337,29.9691
35.3229,29.9854
35.3066,29.9962
35.2875,30.0000
34.6125,30.0000
34.5934,29.9962
34.5771,29.9854
34.5663,29.9691
34.5625,29.9500
Z" /> 
<path style="fill:#000000; fill-opacity:1.0000; stroke:none;fill-rule:evenodd;"
d="M 34.5625,30.2500
34.5663,30.2309
34.5771,30.2146
34.5934,30.2038
34.6125,30.2000
35.2875,30.2000
35.3066,30.2038
35.3229,30.2146
35.3337,30.2309
35.3375,30.2500
35.3375,30.3500
35.3337,30.3691
35.3229,30.3854
35.3066,30.3962
35.2875,30.4000
34.6125,30.4000
34.5934,30.3962
34.5771,30.3854
34.5663,30.3691
34.5625,30.3500
Z" /> 
<path style="fill:#000000; fill-opacity:1.0000; stroke:none;fill-rule:evenodd;"
d="M 34.5625,30.6500
34.5663,30.6309
34.5771,30.6146
34.5934,30.6038
34.6125,30.6000
35.2875,30.6000
35.3066,30.6038
35.3229,30.6146
35.3337,30.6309
35.3375,30.6500
35.3375,30.7500
35.3337,30.7691
35.3229,30.7854
35.3066,30.7962
35.2875,30.8000
34.6125,30.8000
34.5934,30.7962
34.5771,30.7854
34.5663,30.7691
34.5625,30.7500
Z" /> 
<path style="fill:#000000; fill-opacity:1.0000; stroke:none;fill-rule:evenodd;"
d="M 34.5625,31.0500
34.5663,31.0309
34.5771,31.0146
34.5934,31.0038
34.6125,31.0000
35.2875,31.0000
35.3066,31.0038
35.3229,31.0146
35.3337,31.0309
35.3375,31.0500
35.3375,31.1500
35.3337,31.1691
35.3229,31.1854
35.3066,31.1962
35.2875,31.2000
34.6125,31.2000
34.5934,31.1962
34.5771,31.1854
34.5663,31.1691
34.5625,31.1500
Z" /> 
<path style="fill:#000000; fill-opacity:1.0000; stroke:none;fill-rule:evenodd;"
d="M 34.5625,31.4500
34.5663,31.4309
34.5771,31.4146
34.5934,31.4038
34.6125,31.4000
35.2875,31.4000
35.3066,31.4038
35.3229,31.4146
35.3337,31.4309
35.3375,31.4500
35.3375,31.5500
35.3337,31.5691
35.3229,31.5854
35.3066,31.5962
35.2875,31.6000
34.6125,31.6000
34.5934,31.5962
34.5771,31.5854
34.5663,31.5691
34.5625,31.5500
Z" /> 
<path style="fill:#000000; fill-opacity:1.0000; stroke:none;fill-rule:evenodd;"
d="M 34.5625,31.8500
34.5663,31.8309
34.5771,31.8146
34.5934,31.8038
34.6125,31.8000
35.2875,31.8000
35.3066,31.8038
35.3229,31.8146
35.3337,31.8309
35.3375,31.8500
35.3375,31.9500
35.3337,31.9691
35.3229,31.9854
35.3066,31.9962
35.2875,32.0000
34.6125,32.0000
34.5934,31.9962
34.5771,31.9854
34.5663,31.9691
34.5625,31.9500
Z" /> 
<path style="fill:#000000; fill-opacity:1.0000; stroke:none;fill-rule:evenodd;"
d="M 34.0625,32.3500
34.0663,32.3309
34.0771,32.3146
34.0934,32.3038
34.1125,32.3000
34.2125,32.3000
34.2316,32.3038
34.2479,32.3146
34.2587,32.3309
34.2625,32.3500
34.2625,33.0250
34.2587,33.0441
34.2479,33.0604
34.2316,33.0712
34.2125,33.0750
34.1125,33.0750
34.0934,33.0712
34.0771,33.0604
34.0663,33.0441
34.0625,33.0250
Z" /> 
<path style="fill:#000000; fill-opacity:1.0000; stroke:none;fill-rule:evenodd;"
d="M 33.6625,32.3500
33.6663,32.3309
33.6771,32.3146
33.6934,32.3038
33.7125,32.3000
33.8125,32.3000
33.8316,32.3038
33.8479,32.3146
33.8587,32.3309
33.8625,32.3500
33.8625,33.0250
33.8587,33.0441
33.8479,33.0604
33.8316,33.0712
33.8125,33.0750
33.7125,33.0750
33.6934,33.0712
33.6771,33.0604
33.6663,33.0441
33.6625,33.0250
Z" /> 
<path style="fill:#000000; fill-opacity:1.0000; stroke:none;fill-rule:evenodd;"
d="M 33.2625,32.3500
33.2663,32.3309
33.2771,32.3146
33.2934,32.3038
33.3125,32.3000
33.4125,32.3000
33.4316,32.3038
33.4479,32.3146
33.4587,32.3309
33.4625,32.3500
33.4625,33.0250
33.4587,33.0441
33.4479,33.0604
33.4316,33.0712
33.4125,33.0750
33.3125,33.0750
33.2934,33.0712
33.2771,33.0604
33.2663,33.0441
33.2625,33.0250
Z" /> 
<path style="fill:#000000; fill-opacity:1.0000; stroke:none;fill-rule:evenodd;"
d="M 32.8625,32.3500
32.8663,32.3309
32.8771,32.3146
32.8934,32.3038
32.9125,32.3000
33.0125,32.3000
33.0316,32.3038
33.0479,32.3146
33.0587,32.3309
33.0625,32.3500
33.0625,33.0250
33.0587,33.0441
33.0479,33.0604
33.0316,33.0712
33.0125,33.0750
32.9125,33.0750
32.8934,33.0712
32.8771,33.0604
32.8663,33.0441
32.8625,33.0250
Z" /> 
<path style="fill:#000000; fill-opacity:1.0000; stroke:none;fill-rule:evenodd;"
d="M 32.4625,32.3500
32.4663,32.3309
32.4771,32.3146
32.4934,32.3038
32.5125,32.3000
32.6125,32.3000
32.6316,32.3038
32.6479,32.3146
32.6587,32.3309
32.6625,32.3500
32.6625,33.0250
32.6587,33.0441
32.6479,33.0604
32.6316,33.0712
32.6125,33.0750
32.5125,33.0750
32.4934,33.0712
32.4771,33.0604
32.4663,33.0441
32.4625,33.0250
Z" /> 
<path style="fill:#000000; fill-opacity:1.0000; stroke:none;fill-rule:evenodd;"
d="M 32.0625,32.3500
32.0663,32.3309
32.0771,32.3146
32.0934,32.3038
32.1125,32.3000
32.2125,32.3000
32.2316,32.3038
32.2479,32.3146
32.2587,32.3309
32.2625,32.3500
32.2625,33.0250
32.2587,33.0441
32.2479,33.0604
32.2316,33.0712
32.2125,33.0750
32.1125,33.0750
32.0934,33.0712
32.0771,33.0604
32.0663,33.0441
32.0625,33.0250
Z" /> 
<path style="fill:#000000; fill-opacity:1.0000; stroke:none;fill-rule:evenodd;"
d="M 31.6625,32.3500
31.6663,32.3309
31.6771,32.3146
31.6934,32.3038
31.7125,32.3000
31.8125,32.3000
31.8316,32.3038
31.8479,32.3146
31.8587,32.3309
31.8625,32.3500
31.8625,33.0250
31.8587,33.0441
31.8479,33.0604
31.8316,33.0712
31.8125,33.0750
31.7125,33.0750
31.6934,33.0712
31.6771,33.0604
31.6663,33.0441
31.6625,33.0250
Z" /> 
<path style="fill:#000000; fill-opacity:1.0000; stroke:none;fill-rule:evenodd;"
d="M 30.5875,31.8500
30.5913,31.8309
30.6021,31.8146
30.6184,31.8038
30.6375,31.8000
31.3125,31.8000
31.3316,31.8038
31.3479,31.8146
31.3587,31.8309
31.3625,31.8500
31.3625,31.9500
31.3587,31.9691
31.3479,31.9854
31.3316,31.9962
31.3125,32.0000
30.6375,32.0000
30.6184,31.9962
30.6021,31.9854
30.5913,31.9691
30.5875,31.9500
Z" /> 
<path style="fill:#000000; fill-opacity:1.0000; stroke:none;fill-rule:evenodd;"
d="M 30.5875,31.4500
30.5913,31.4309
30.6021,31.4146
30.6184,31.4038
30.6375,31.4000
31.3125,31.4000
31.3316,31.4038
31.3479,31.4146
31.3587,31.4309
31.3625,31.4500
31.3625,31.5500
31.3587,31.5691
31.3479,31.5854
31.3316,31.5962
31.3125,31.6000
30.6375,31.6000
30.6184,31.5962
30.6021,31.5854
30.5913,31.5691
30.5875,31.5500
Z" /> 
<path style="fill:#000000; fill-opacity:1.0000; stroke:none;fill-rule:evenodd;"
d="M 30.5875,31.0500
30.5913,31.0309
30.6021,31.0146
30.6184,31.0038
30.6375,31.0000
31.3125,31.0000
31.3316,31.0038
31.3479,31.0146
31.3587,31.0309
31.3625,31.0500
31.3625,31.1500
31.3587,31.1691
31.3479,31.1854
31.3316,31.1962
31.3125,31.2000
30.6375,31.2000
30.6184,31.1962
30.6021,31.1854
30.5913,31.1691
30.5875,31.1500
Z" /> 
<path style="fill:#000000; fill-opacity:1.0000; stroke:none;fill-rule:evenodd;"
d="M 30.5875,30.6500
30.5913,30.6309
30.6021,30.6146
30.6184,30.6038
30.6375,30.6000
31.3125,30.6000
31.3316,30.6038
31.3479,30.6146
31.3587,30.6309
31.3625,30.6500
31.3625,30.7500
31.3587,30.7691
31.3479,30.7854
31.3316,30.7962
31.3125,30.8000
30.6375,30.8000
30.6184,30.7962
30.6021,30.7854
30.5913,30.7691
30.5875,30.7500
Z" /> 
<path style="fill:#000000; fill-opacity:1.0000; stroke:none;fill-rule:evenodd;"
d="M 30.5875,30.2500
30.5913,30.2309
30.6021,30.2146
30.6184,30.2038
30.6375,30.2000
31.3125,30.2000
31.3316,30.2038
31.3479,30.2146
31.3587,30.2309
31.3625,30.2500
31.3625,30.3500
31.3587,30.3691
31.3479,30.3854
31.3316,30.3962
31.3125,30.4000
30.6375,30.4000
30.6184,30.3962
30.6021,30.3854
30.5913,30.3691
30.5875,30.3500
Z" /> 
<path style="fill:#000000; fill-opacity:1.0000; stroke:none;fill-rule:evenodd;"
d="M 30.5875,29.8500
30.5913,29.8309
30.6021,29.8146
30.6184,29.8038
30.6375,29.8000
31.3125,29.8000
31.3316,29.8038
31.3479,29.8146
31.3587,29.8309
31.3625,29.8500
31.3625,29.9500
31.3587,29.9691
31.3479,29.9854
31.3316,29.9962
31.3125,30.0000
30.6375,30.0000
30.6184,29.9962
30.6021,29.9854
30.5913,29.9691
30.5875,29.9500
Z" /> 
<path style="fill:#000000; fill-opacity:1.0000; stroke:none;fill-rule:evenodd;"
d="M 30.5875,29.4500
30.5913,29.4309
30.6021,29.4146
30.6184,29.4038
30.6375,29.4000
31.3125,29.4000
31.3316,29.4038
31.3479,29.4146
31.3587,29.4309
31.3625,29.4500
31.3625,29.5500
31.3587,29.5691
31.3479,29.5854
31.3316,29.5962
31.3125,29.6000
30.6375,29.6000
30.6184,29.5962
30.6021,29.5854
30.5913,29.5691
30.5875,29.5500
Z" /> 
<path style="fill:#000000; fill-opacity:1.0000; stroke:none;fill-rule:evenodd;"
d="M 23.9200,40.4500
23.9736,40.4607
24.0190,40.4910
24.0493,40.5364
24.0600,40.5900
24.0600,40.8700
24.0493,40.9236
24.0190,40.9690
23.9736,40.9993
23.9200,41.0100
23.5800,41.0100
23.5264,40.9993
23.4810,40.9690
23.4507,40.9236
23.4400,40.8700
23.4400,40.5900
23.4507,40.5364
23.4810,40.4910
23.5264,40.4607
23.5800,40.4500
Z" /> 
<path style="fill:#000000; fill-opacity:1.0000; stroke:none;fill-rule:evenodd;"
d="M 23.9200,39.4900
23.9736,39.5007
24.0190,39.5310
24.0493,39.5764
24.0600,39.6300
24.0600,39.9100
24.0493,39.9636
24.0190,40.0090
23.9736,40.0393
23.9200,40.0500
23.5800,40.0500
23.5264,40.0393
23.4810,40.0090
23.4507,39.9636
23.4400,39.9100
23.4400,39.6300
23.4507,39.5764
23.4810,39.5310
23.5264,39.5007
23.5800,39.4900
Z" /> 
<path style="fill:#000000; fill-opacity:1.0000; stroke:none;fill-rule:evenodd;"
d="M 31.5100,48.7350
31.4997,48.7867
31.4705,48.8305
31.4267,48.8597
31.3750,48.8700
31.1050,48.8700
31.0533,48.8597
31.0095,48.8305
30.9803,48.7867
30.9700,48.7350
30.9700,48.3650
30.9803,48.3133
31.0095,48.2695
31.0533,48.2403
31.1050,48.2300
31.3750,48.2300
31.4267,48.2403
31.4705,48.2695
31.4997,48.3133
31.5100,48.3650
Z" /> 
<path style="fill:#000000; fill-opacity:1.0000; stroke:none;fill-rule:evenodd;"
d="M 32.5300,48.7350
32.5197,48.7867
32.4905,48.8305
32.4467,48.8597
32.3950,48.8700
32.1250,48.8700
32.0733,48.8597
32.0295,48.8305
32.0003,48.7867
31.9900,48.7350
31.9900,48.3650
32.0003,48.3133
32.0295,48.2695
32.0733,48.2403
32.1250,48.2300
32.3950,48.2300
32.4467,48.2403
32.4905,48.2695
32.5197,48.3133
32.5300,48.3650
Z" /> 
<path style="fill:#000000; fill-opacity:1.0000; stroke:none;fill-rule:evenodd;"
d="M 35.8250,39.1000
35.8317,39.0665
35.8506,39.0381
35.8790,39.0192
35.9125,39.0125
36.0875,39.0125
36.1210,39.0192
36.1494,39.0381
36.1683,39.0665
36.1750,39.1000
36.1750,39.3500
36.1683,39.3835
36.1494,39.4119
36.1210,39.4308
36.0875,39.4375
35.9125,39.4375
35.8790,39.4308
35.8506,39.4119
35.8317,39.3835
35.8250,39.3500
Z" /> 
<path style="fill:#000000; fill-opacity:1.0000; stroke:none;fill-rule:evenodd;"
d="M 36.3250,39.1000
36.3317,39.0665
36.3506,39.0381
36.3790,39.0192
36.4125,39.0125
36.5875,39.0125
36.6210,39.0192
36.6494,39.0381
36.6683,39.0665
36.6750,39.1000
36.6750,39.3500
36.6683,39.3835
36.6494,39.4119
36.6210,39.4308
36.5875,39.4375
36.4125,39.4375
36.3790,39.4308
36.3506,39.4119
36.3317,39.3835
36.3250,39.3500
Z" /> 
<path style="fill:#000000; fill-opacity:1.0000; stroke:none;fill-rule:evenodd;"
d="M 36.8250,39.1000
36.8317,39.0665
36.8506,39.0381
36.8790,39.0192
36.9125,39.0125
37.0875,39.0125
37.1210,39.0192
37.1494,39.0381
37.1683,39.0665
37.1750,39.1000
37.1750,39.3500
37.1683,39.3835
37.1494,39.4119
37.1210,39.4308
37.0875,39.4375
36.9125,39.4375
36.8790,39.4308
36.8506,39.4119
36.8317,39.3835
36.8250,39.3500
Z" /> 
<path style="fill:#000000; fill-opacity:1.0000; stroke:none;fill-rule:evenodd;"
d="M 37.0500,39.6500
37.0567,39.6165
37.0756,39.5881
37.1040,39.5692
37.1375,39.5625
37.3875,39.5625
37.4210,39.5692
37.4494,39.5881
37.4683,39.6165
37.4750,39.6500
37.4750,39.8250
37.4683,39.8585
37.4494,39.8869
37.4210,39.9058
37.3875,39.9125
37.1375,39.9125
37.1040,39.9058
37.0756,39.8869
37.0567,39.8585
37.0500,39.8250
Z" /> 
<path style="fill:#000000; fill-opacity:1.0000; stroke:none;fill-rule:evenodd;"
d="M 37.0500,40.1500
37.0567,40.1165
37.0756,40.0881
37.1040,40.0692
37.1375,40.0625
37.3875,40.0625
37.4210,40.0692
37.4494,40.0881
37.4683,40.1165
37.4750,40.1500
37.4750,40.3250
37.4683,40.3585
37.4494,40.3869
37.4210,40.4058
37.3875,40.4125
37.1375,40.4125
37.1040,40.4058
37.0756,40.3869
37.0567,40.3585
37.0500,40.3250
Z" /> 
<path style="fill:#000000; fill-opacity:1.0000; stroke:none;fill-rule:evenodd;"
d="M 36.8250,40.6250
36.8317,40.5915
36.8506,40.5631
36.8790,40.5442
36.9125,40.5375
37.0875,40.5375
37.1210,40.5442
37.1494,40.5631
37.1683,40.5915
37.1750,40.6250
37.1750,40.8750
37.1683,40.9085
37.1494,40.9369
37.1210,40.9558
37.0875,40.9625
36.9125,40.9625
36.8790,40.9558
36.8506,40.9369
36.8317,40.9085
36.8250,40.8750
Z" /> 
<path style="fill:#000000; fill-opacity:1.0000; stroke:none;fill-rule:evenodd;"
d="M 36.3250,40.6250
36.3317,40.5915
36.3506,40.5631
36.3790,40.5442
36.4125,40.5375
36.5875,40.5375
36.6210,40.5442
36.6494,40.5631
36.6683,40.5915
36.6750,40.6250
36.6750,40.8750
36.6683,40.9085
36.6494,40.9369
36.6210,40.9558
36.5875,40.9625
36.4125,40.9625
36.3790,40.9558
36.3506,40.9369
36.3317,40.9085
36.3250,40.8750
Z" /> 
<path style="fill:#000000; fill-opacity:1.0000; stroke:none;fill-rule:evenodd;"
d="M 35.8250,40.6250
35.8317,40.5915
35.8506,40.5631
35.8790,40.5442
35.9125,40.5375
36.0875,40.5375
36.1210,40.5442
36.1494,40.5631
36.1683,40.5915
36.1750,40.6250
36.1750,40.8750
36.1683,40.9085
36.1494,40.9369
36.1210,40.9558
36.0875,40.9625
35.9125,40.9625
35.8790,40.9558
35.8506,40.9369
35.8317,40.9085
35.8250,40.8750
Z" /> 
<path style="fill:#000000; fill-opacity:1.0000; stroke:none;fill-rule:evenodd;"
d="M 35.5250,40.1500
35.5317,40.1165
35.5506,40.0881
35.5790,40.0692
35.6125,40.0625
35.8625,40.0625
35.8960,40.0692
35.9244,40.0881
35.9433,40.1165
35.9500,40.1500
35.9500,40.3250
35.9433,40.3585
35.9244,40.3869
35.8960,40.4058
35.8625,40.4125
35.6125,40.4125
35.5790,40.4058
35.5506,40.3869
35.5317,40.3585
35.5250,40.3250
Z" /> 
<path style="fill:#000000; fill-opacity:1.0000; stroke:none;fill-rule:evenodd;"
d="M 35.5250,39.6500
35.5317,39.6165
35.5506,39.5881
35.5790,39.5692
35.6125,39.5625
35.8625,39.5625
35.8960,39.5692
35.9244,39.5881
35.9433,39.6165
35.9500,39.6500
35.9500,39.8250
35.9433,39.8585
35.9244,39.8869
35.8960,39.9058
35.8625,39.9125
35.6125,39.9125
35.5790,39.9058
35.5506,39.8869
35.5317,39.8585
35.5250,39.8250
Z" /> 
<path style="fill:#000000; fill-opacity:1.0000; stroke:none;fill-rule:evenodd;"
d="M 32.7700,26.1500
32.8236,26.1607
32.8690,26.1910
32.8993,26.2364
32.9100,26.2900
32.9100,26.5700
32.8993,26.6236
32.8690,26.6690
32.8236,26.6993
32.7700,26.7100
32.4300,26.7100
32.3764,26.6993
32.3310,26.6690
32.3007,26.6236
32.2900,26.5700
32.2900,26.2900
32.3007,26.2364
32.3310,26.1910
32.3764,26.1607
32.4300,26.1500
Z" /> 
<path style="fill:#000000; fill-opacity:1.0000; stroke:none;fill-rule:evenodd;"
d="M 32.7700,25.1900
32.8236,25.2007
32.8690,25.2310
32.8993,25.2764
32.9100,25.3300
32.9100,25.6100
32.8993,25.6636
32.8690,25.7090
32.8236,25.7393
32.7700,25.7500
32.4300,25.7500
32.3764,25.7393
32.3310,25.7090
32.3007,25.6636
32.2900,25.6100
32.2900,25.3300
32.3007,25.2764
32.3310,25.2310
32.3764,25.2007
32.4300,25.1900
Z" /> 
<path style="fill:#000000; fill-opacity:1.0000; stroke:none;fill-rule:evenodd;"
d="M 36.1200,26.2000
36.1736,26.2107
36.2190,26.2410
36.2493,26.2864
36.2600,26.3400
36.2600,26.6200
36.2493,26.6736
36.2190,26.7190
36.1736,26.7493
36.1200,26.7600
35.7800,26.7600
35.7264,26.7493
35.6810,26.7190
35.6507,26.6736
35.6400,26.6200
35.6400,26.3400
35.6507,26.2864
35.6810,26.2410
35.7264,26.2107
35.7800,26.2000
Z" /> 
<path style="fill:#000000; fill-opacity:1.0000; stroke:none;fill-rule:evenodd;"
d="M 36.1200,25.2400
36.1736,25.2507
36.2190,25.2810
36.2493,25.3264
36.2600,25.3800
36.2600,25.6600
36.2493,25.7136
36.2190,25.7590
36.1736,25.7893
36.1200,25.8000
35.7800,25.8000
35.7264,25.7893
35.6810,25.7590
35.6507,25.7136
35.6400,25.6600
35.6400,25.3800
35.6507,25.3264
35.6810,25.2810
35.7264,25.2507
35.7800,25.2400
Z" /> 
</g>
<g style="fill:#000000; fill-opacity:1.0000; stroke:none;">
<circle cx="28.1000" cy="32.2000" r="0.8500" /> 
<circle cx="25.5600" cy="32.2000" r="0.8500" /> 
<circle cx="28.1000" cy="29.6600" r="0.8500" /> 
<path style="fill:#000000; fill-opacity:1.0000; stroke:none;fill-rule:evenodd;"
d="M 24.7100,30.5100
24.7100,28.8100
26.4100,28.8100
26.4100,30.5100
Z" /> 
<path style="fill:#000000; fill-opacity:1.0000; stroke:none;fill-rule:evenodd;"
d="M 33.5850,25.7300
33.5333,25.7197
33.4895,25.6905
33.4603,25.6467
33.4500,25.5950
33.4500,25.3250
33.4603,25.2733
33.4895,25.2295
33.5333,25.2003
33.5850,25.1900
33.9550,25.1900
34.0067,25.2003
34.0505,25.2295
34.0797,25.2733
34.0900,25.3250
34.0900,25.5950
34.0797,25.6467
34.0505,25.6905
34.0067,25.7197
33.9550,25.7300
Z" /> 
<path style="fill:#000000; fill-opacity:1.0000; stroke:none;fill-rule:evenodd;"
d="M 33.5850,26.7500
33.5333,26.7397
33.4895,26.7105
33.4603,26.6667
33.4500,26.6150
33.4500,26.3450
33.4603,26.2933
33.4895,26.2495
33.5333,26.2203
33.5850,26.2100
33.9550,26.2100
34.0067,26.2203
34.0505,26.2495
34.0797,26.2933
34.0900,26.3450
34.0900,26.6150
34.0797,26.6667
34.0505,26.7105
34.0067,26.7397
33.9550,26.7500
Z" /> 
<path style="fill:#000000; fill-opacity:1.0000; stroke:none;fill-rule:evenodd;"
d="M 34.0100,48.7350
33.9997,48.7867
33.9705,48.8305
33.9267,48.8597
33.8750,48.8700
33.6050,48.8700
33.5533,48.8597
33.5095,48.8305
33.4803,48.7867
33.4700,48.7350
33.4700,48.3650
33.4803,48.3133
33.5095,48.2695
33.5533,48.2403
33.6050,48.2300
33.8750,48.2300
33.9267,48.2403
33.9705,48.2695
33.9997,48.3133
34.0100,48.3650
Z" /> 
<path style="fill:#000000; fill-opacity:1.0000; stroke:none;fill-rule:evenodd;"
d="M 35.0300,48.7350
35.0197,48.7867
34.9905,48.8305
34.9467,48.8597
34.8950,48.8700
34.6250,48.8700
34.5733,48.8597
34.5295,48.8305
34.5003,48.7867
34.4900,48.7350
34.4900,48.3650
34.5003,48.3133
34.5295,48.2695
34.5733,48.2403
34.6250,48.2300
34.8950,48.2300
34.9467,48.2403
34.9905,48.2695
35.0197,48.3133
35.0300,48.3650
Z" /> 
<path style="fill:#000000; fill-opacity:1.0000; stroke:none;fill-rule:evenodd;"
d="M 34.9200,40.4575
34.9736,40.4682
35.0190,40.4985
35.0493,40.5439
35.0600,40.5975
35.0600,40.8775
35.0493,40.9311
35.0190,40.9765
34.9736,41.0068
34.9200,41.0175
34.5800,41.0175
34.5264,41.0068
34.4810,40.9765
34.4507,40.9311
34.4400,40.8775
34.4400,40.5975
34.4507,40.5439
34.4810,40.4985
34.5264,40.4682
34.5800,40.4575
Z" /> 
<path style="fill:#000000; fill-opacity:1.0000; stroke:none;fill-rule:evenodd;"
d="M 34.9200,39.4975
34.9736,39.5082
35.0190,39.5385
35.0493,39.5839
35.0600,39.6375
35.0600,39.9175
35.0493,39.9711
35.0190,40.0165
34.9736,40.0468
34.9200,40.0575
34.5800,40.0575
34.5264,40.0468
34.4810,40.0165
34.4507,39.9711
34.4400,39.9175
34.4400,39.6375
34.4507,39.5839
34.4810,39.5385
34.5264,39.5082
34.5800,39.4975
Z" /> 
<path style="fill:#000000; fill-opacity:1.0000; stroke:none;fill-rule:evenodd;"
d="M 25.9800,25.7500
25.9264,25.7393
25.8810,25.7090
25.8507,25.6636
25.8400,25.6100
25.8400,25.3300
25.8507,25.2764
25.8810,25.2310
25.9264,25.2007
25.9800,25.1900
26.3200,25.1900
26.3736,25.2007
26.4190,25.2310
26.4493,25.2764
26.4600,25.3300
26.4600,25.6100
26.4493,25.6636
26.4190,25.7090
26.3736,25.7393
26.3200,25.7500
Z" /> 
<path style="fill:#000000; fill-opacity:1.0000; stroke:none;fill-rule:evenodd;"
d="M 25.9800,26.7100
25.9264,26.6993
25.8810,26.6690
25.8507,26.6236
25.8400,26.5700
25.8400,26.2900
25.8507,26.2364
25.8810,26.1910
25.9264,26.1607
25.9800,26.1500
26.3200,26.1500
26.3736,26.1607
26.4190,26.1910
26.4493,26.2364
26.4600,26.2900
26.4600,26.5700
26.4493,26.6236
26.4190,26.6690
26.3736,26.6993
26.3200,26.7100
Z" /> 
<path style="fill:#000000; fill-opacity:1.0000; stroke:none;fill-rule:evenodd;"
d="M 25.7200,38.0800
25.7307,38.0264
25.7610,37.9810
25.8064,37.9507
25.8600,37.9400
26.1400,37.9400
26.1936,37.9507
26.2390,37.9810
26.2693,38.0264
26.2800,38.0800
26.2800,38.4200
26.2693,38.4736
26.2390,38.5190
26.1936,38.5493
26.1400,38.5600
25.8600,38.5600
25.8064,38.5493
25.7610,38.5190
25.7307,38.4736
25.7200,38.4200
Z" /> 
<path style="fill:#000000; fill-opacity:1.0000; stroke:none;fill-rule:evenodd;"
d="M 24.7600,38.0800
24.7707,38.0264
24.8010,37.9810
24.8464,37.9507
24.9000,37.9400
25.1800,37.9400
25.2336,37.9507
25.2790,37.9810
25.3093,38.0264
25.3200,38.0800
25.3200,38.4200
25.3093,38.4736
25.2790,38.5190
25.2336,38.5493
25.1800,38.5600
24.9000,38.5600
24.8464,38.5493
24.8010,38.5190
24.7707,38.4736
24.7600,38.4200
Z" /> 
<path style="fill:#000000; fill-opacity:1.0000; stroke:none;fill-rule:evenodd;"
d="M 29.0600,48.7225
29.0488,48.7789
29.0168,48.8268
28.9689,48.8588
28.9125,48.8700
28.6175,48.8700
28.5611,48.8588
28.5132,48.8268
28.4812,48.7789
28.4700,48.7225
28.4700,48.3775
28.4812,48.3211
28.5132,48.2732
28.5611,48.2412
28.6175,48.2300
28.9125,48.2300
28.9689,48.2412
29.0168,48.2732
29.0488,48.3211
29.0600,48.3775
Z" /> 
<path style="fill:#000000; fill-opacity:1.0000; stroke:none;fill-rule:evenodd;"
d="M 30.0300,48.7225
30.0188,48.7789
29.9868,48.8268
29.9389,48.8588
29.8825,48.8700
29.5875,48.8700
29.5311,48.8588
29.4832,48.8268
29.4512,48.7789
29.4400,48.7225
29.4400,48.3775
29.4512,48.3211
29.4832,48.2732
29.5311,48.2412
29.5875,48.2300
29.8825,48.2300
29.9389,48.2412
29.9868,48.2732
30.0188,48.3211
30.0300,48.3775
Z" /> 
<path style="fill:#000000; fill-opacity:1.0000; stroke:none;fill-rule:evenodd;"
d="M 34.7650,25.7400
34.7133,25.7297
34.6695,25.7005
34.6403,25.6567
34.6300,25.6050
34.6300,25.3350
34.6403,25.2833
34.6695,25.2395
34.7133,25.2103
34.7650,25.2000
35.1350,25.2000
35.1867,25.2103
35.2305,25.2395
35.2597,25.2833
35.2700,25.3350
35.2700,25.6050
35.2597,25.6567
35.2305,25.7005
35.1867,25.7297
35.1350,25.7400
Z" /> 
<path style="fill:#000000; fill-opacity:1.0000; stroke:none;fill-rule:evenodd;"
d="M 34.7650,26.7600
34.7133,26.7497
34.6695,26.7205
34.6403,26.6767
34.6300,26.6250
34.6300,26.3550
34.6403,26.3033
34.6695,26.2595
34.7133,26.2303
34.7650,26.2200
35.1350,26.2200
35.1867,26.2303
35.2305,26.2595
35.2597,26.3033
35.2700,26.3550
35.2700,26.6250
35.2597,26.6767
35.2305,26.7205
35.1867,26.7497
35.1350,26.7600
Z" /> 
<path style="fill:#000000; fill-opacity:1.0000; stroke:none;fill-rule:evenodd;"
d="M 24.8250,39.1125
24.8317,39.0790
24.8506,39.0506
24.8790,39.0317
24.9125,39.0250
25.0875,39.0250
25.1210,39.0317
25.1494,39.0506
25.1683,39.0790
25.1750,39.1125
25.1750,39.3625
25.1683,39.3960
25.1494,39.4244
25.1210,39.4433
25.0875,39.4500
24.9125,39.4500
24.8790,39.4433
24.8506,39.4244
24.8317,39.3960
24.8250,39.3625
Z" /> 
<path style="fill:#000000; fill-opacity:1.0000; stroke:none;fill-rule:evenodd;"
d="M 25.3250,39.1125
25.3317,39.0790
25.3506,39.0506
25.3790,39.0317
25.4125,39.0250
25.5875,39.0250
25.6210,39.0317
25.6494,39.0506
25.6683,39.0790
25.6750,39.1125
25.6750,39.3625
25.6683,39.3960
25.6494,39.4244
25.6210,39.4433
25.5875,39.4500
25.4125,39.4500
25.3790,39.4433
25.3506,39.4244
25.3317,39.3960
25.3250,39.3625
Z" /> 
<path style="fill:#000000; fill-opacity:1.0000; stroke:none;fill-rule:evenodd;"
d="M 25.8250,39.1125
25.8317,39.0790
25.8506,39.0506
25.8790,39.0317
25.9125,39.0250
26.0875,39.0250
26.1210,39.0317
26.1494,39.0506
26.1683,39.0790
26.1750,39.1125
26.1750,39.3625
26.1683,39.3960
26.1494,39.4244
26.1210,39.4433
26.0875,39.4500
25.9125,39.4500
25.8790,39.4433
25.8506,39.4244
25.8317,39.3960
25.8250,39.3625
Z" /> 
<path style="fill:#000000; fill-opacity:1.0000; stroke:none;fill-rule:evenodd;"
d="M 26.0500,39.6625
26.0567,39.6290
26.0756,39.6006
26.1040,39.5817
26.1375,39.5750
26.3875,39.5750
26.4210,39.5817
26.4494,39.6006
26.4683,39.6290
26.4750,39.6625
26.4750,39.8375
26.4683,39.8710
26.4494,39.8994
26.4210,39.9183
26.3875,39.9250
26.1375,39.9250
26.1040,39.9183
26.0756,39.8994
26.0567,39.8710
26.0500,39.8375
Z" /> 
<path style="fill:#000000; fill-opacity:1.0000; stroke:none;fill-rule:evenodd;"
d="M 26.0500,40.1625
26.0567,40.1290
26.0756,40.1006
26.1040,40.0817
26.1375,40.0750
26.3875,40.0750
26.4210,40.0817
26.4494,40.1006
26.4683,40.1290
26.4750,40.1625
26.4750,40.3375
26.4683,40.3710
26.4494,40.3994
26.4210,40.4183
26.3875,40.4250
26.1375,40.4250
26.1040,40.4183
26.0756,40.3994
26.0567,40.3710
26.0500,40.3375
Z" /> 
<path style="fill:#000000; fill-opacity:1.0000; stroke:none;fill-rule:evenodd;"
d="M 25.8250,40.6375
25.8317,40.6040
25.8506,40.5756
25.8790,40.5567
25.9125,40.5500
26.0875,40.5500
26.1210,40.5567
26.1494,40.5756
26.1683,40.6040
26.1750,40.6375
26.1750,40.8875
26.1683,40.9210
26.1494,40.9494
26.1210,40.9683
26.0875,40.9750
25.9125,40.9750
25.8790,40.9683
25.8506,40.9494
25.8317,40.9210
25.8250,40.8875
Z" /> 
<path style="fill:#000000; fill-opacity:1.0000; stroke:none;fill-rule:evenodd;"
d="M 25.3250,40.6375
25.3317,40.6040
25.3506,40.5756
25.3790,40.5567
25.4125,40.5500
25.5875,40.5500
25.6210,40.5567
25.6494,40.5756
25.6683,40.6040
25.6750,40.6375
25.6750,40.8875
25.6683,40.9210
25.6494,40.9494
25.6210,40.9683
25.5875,40.9750
25.4125,40.9750
25.3790,40.9683
25.3506,40.9494
25.3317,40.9210
25.3250,40.8875
Z" /> 
<path style="fill:#000000; fill-opacity:1.0000; stroke:none;fill-rule:evenodd;"
d="M 24.8250,40.6375
24.8317,40.6040
24.8506,40.5756
24.8790,40.5567
24.9125,40.5500
25.0875,40.5500
25.1210,40.5567
25.1494,40.5756
25.1683,40.6040
25.1750,40.6375
25.1750,40.8875
25.1683,40.9210
25.1494,40.9494
25.1210,40.9683
25.0875,40.9750
24.9125,40.9750
24.8790,40.9683
24.8506,40.9494
24.8317,40.9210
24.8250,40.8875
Z" /> 
<path style="fill:#000000; fill-opacity:1.0000; stroke:none;fill-rule:evenodd;"
d="M 24.5250,40.1625
24.5317,40.1290
24.5506,40.1006
24.5790,40.0817
24.6125,40.0750
24.8625,40.0750
24.8960,40.0817
24.9244,40.1006
24.9433,40.1290
24.9500,40.1625
24.9500,40.3375
24.9433,40.3710
24.9244,40.3994
24.8960,40.4183
24.8625,40.4250
24.6125,40.4250
24.5790,40.4183
24.5506,40.3994
24.5317,40.3710
24.5250,40.3375
Z" /> 
<path style="fill:#000000; fill-opacity:1.0000; stroke:none;fill-rule:evenodd;"
d="M 24.5250,39.6625
24.5317,39.6290
24.5506,39.6006
24.5790,39.5817
24.6125,39.5750
24.8625,39.5750
24.8960,39.5817
24.9244,39.6006
24.9433,39.6290
24.9500,39.6625
24.9500,39.8375
24.9433,39.8710
24.9244,39.8994
24.8960,39.9183
24.8625,39.9250
24.6125,39.9250
24.5790,39.9183
24.5506,39.8994
24.5317,39.8710
24.5250,39.8375
Z" /> 
<path style="fill:#000000; fill-opacity:1.0000; stroke:none;fill-rule:evenodd;"
d="M 36.7200,38.0675
36.7307,38.0139
36.7610,37.9685
36.8064,37.9382
36.8600,37.9275
37.1400,37.9275
37.1936,37.9382
37.2390,37.9685
37.2693,38.0139
37.2800,38.0675
37.2800,38.4075
37.2693,38.4611
37.2390,38.5065
37.1936,38.5368
37.1400,38.5475
36.8600,38.5475
36.8064,38.5368
36.7610,38.5065
36.7307,38.4611
36.7200,38.4075
Z" /> 
<path style="fill:#000000; fill-opacity:1.0000; stroke:none;fill-rule:evenodd;"
d="M 35.7600,38.0675
35.7707,38.0139
35.8010,37.9685
35.8464,37.9382
35.9000,37.9275
36.1800,37.9275
36.2336,37.9382
36.2790,37.9685
36.3093,38.0139
36.3200,38.0675
36.3200,38.4075
36.3093,38.4611
36.2790,38.5065
36.2336,38.5368
36.1800,38.5475
35.9000,38.5475
35.8464,38.5368
35.8010,38.5065
35.7707,38.4611
35.7600,38.4075
Z" /> 
<path style="fill:#000000; fill-opacity:1.0000; stroke:none;fill-rule:evenodd;"
d="M 26.5100,48.7350
26.4997,48.7867
26.4705,48.8305
26.4267,48.8597
26.3750,48.8700
26.1050,48.8700
26.0533,48.8597
26.0095,48.8305
25.9803,48.7867
25.9700,48.7350
25.9700,48.3650
25.9803,48.3133
26.0095,48.2695
26.0533,48.2403
26.1050,48.2300
26.3750,48.2300
26.4267,48.2403
26.4705,48.2695
26.4997,48.3133
26.5100,48.3650
Z" /> 
<path style="fill:#000000; fill-opacity:1.0000; stroke:none;fill-rule:evenodd;"
d="M 27.5300,48.7350
27.5197,48.7867
27.4905,48.8305
27.4467,48.8597
27.3950,48.8700
27.1250,48.8700
27.0733,48.8597
27.0295,48.8305
27.0003,48.7867
26.9900,48.7350
26.9900,48.3650
27.0003,48.3133
27.0295,48.2695
27.0733,48.2403
27.1250,48.2300
27.3950,48.2300
27.4467,48.2403
27.4905,48.2695
27.5197,48.3133
27.5300,48.3650
Z" /> 
<path style="fill:#000000; fill-opacity:1.0000; stroke:none;fill-rule:evenodd;"
d="M 31.7700,26.1800
31.7700,27.3800
30.3700,27.3800
30.3700,26.1800
Z" /> 
<path style="fill:#000000; fill-opacity:1.0000; stroke:none;fill-rule:evenodd;"
d="M 29.5700,26.1800
29.5700,27.3800
28.1700,27.3800
28.1700,26.1800
Z" /> 
<path style="fill:#000000; fill-opacity:1.0000; stroke:none;fill-rule:evenodd;"
d="M 29.5700,24.4800
29.5700,25.6800
28.1700,25.6800
28.1700,24.4800
Z" /> 
<path style="fill:#000000; fill-opacity:1.0000; stroke:none;fill-rule:evenodd;"
d="M 31.7700,24.4800
31.7700,25.6800
30.3700,25.6800
30.3700,24.4800
Z" /> 
<path style="fill:#000000; fill-opacity:1.0000; stroke:none;fill-rule:evenodd;"
d="M 27.1800,25.7500
27.1264,25.7393
27.0810,25.7090
27.0507,25.6636
27.0400,25.6100
27.0400,25.3300
27.0507,25.2764
27.0810,25.2310
27.1264,25.2007
27.1800,25.1900
27.5200,25.1900
27.5736,25.2007
27.6190,25.2310
27.6493,25.2764
27.6600,25.3300
27.6600,25.6100
27.6493,25.6636
27.6190,25.7090
27.5736,25.7393
27.5200,25.7500
Z" /> 
<path style="fill:#000000; fill-opacity:1.0000; stroke:none;fill-rule:evenodd;"
d="M 27.1800,26.7100
27.1264,26.6993
27.0810,26.6690
27.0507,26.6236
27.0400,26.5700
27.0400,26.2900
27.0507,26.2364
27.0810,26.1910
27.1264,26.1607
27.1800,26.1500
27.5200,26.1500
27.5736,26.1607
27.6190,26.1910
27.6493,26.2364
27.6600,26.2900
27.6600,26.5700
27.6493,26.6236
27.6190,26.6690
27.5736,26.6993
27.5200,26.7100
Z" /> 
<path style="fill:#000000; fill-opacity:1.0000; stroke:none;fill-rule:evenodd;"
d="M 25.0250,25.7100
24.9733,25.6997
24.9295,25.6705
24.9003,25.6267
24.8900,25.5750
24.8900,25.3050
24.9003,25.2533
24.9295,25.2095
24.9733,25.1803
25.0250,25.1700
25.3950,25.1700
25.4467,25.1803
25.4905,25.2095
25.5197,25.2533
25.5300,25.3050
25.5300,25.5750
25.5197,25.6267
25.4905,25.6705
25.4467,25.6997
25.3950,25.7100
Z" /> 
<path style="fill:#000000; fill-opacity:1.0000; stroke:none;fill-rule:evenodd;"
d="M 25.0250,26.7300
24.9733,26.7197
24.9295,26.6905
24.9003,26.6467
24.8900,26.5950
24.8900,26.3250
24.9003,26.2733
24.9295,26.2295
24.9733,26.2003
25.0250,26.1900
25.3950,26.1900
25.4467,26.2003
25.4905,26.2295
25.5197,26.2733
25.5300,26.3250
25.5300,26.5950
25.5197,26.6467
25.4905,26.6905
25.4467,26.7197
25.3950,26.7300
Z" /> 
<circle cx="40.0459" cy="49.0459" r="2.5000" /> 
</g>
<g style="fill:#000000; fill-opacity:1.0000; stroke:none;">
<circle cx="20.9541" cy="49.0459" r="2.5000" /> 
</g>
<g style="fill:#000000; fill-opacity:1.0000; stroke:none;">
<circle cx="40.0459" cy="29.9541" r="2.5000" /> 
</g>
<g style="fill:none; 
stroke:#000000; stroke-width:1.7000; stroke-opacity:1; 
stroke-linecap:round; stroke-linejoin:round;">
<path d="M34.2500 46.5750
L34.2500 46.8250
" />
<path d="M31.7500 46.5750
L31.7500 46.8250
" />
<path d="M29.2500 46.5750
L29.2500 46.8250
" />
<path style="fill:#000000; fill-opacity:1.0000; stroke:none;fill-rule:evenodd;"
d="M 25.9000,45.9750
25.9190,45.8793
25.9732,45.7982
26.0543,45.7440
26.1500,45.7250
27.3500,45.7250
27.4457,45.7440
27.5268,45.7982
27.5810,45.8793
27.6000,45.9750
27.6000,47.4250
27.5810,47.5207
27.5268,47.6018
27.4457,47.6560
27.3500,47.6750
26.1500,47.6750
26.0543,47.6560
25.9732,47.6018
25.9190,47.5207
25.9000,47.4250
Z" /> 
</g>
<g style="fill:#000000; fill-opacity:1.0000; stroke:none;">
<circle cx="20.9541" cy="29.9541" r="2.5000" /> 
</g>
<g style="fill:none; 
stroke:#000000; stroke-width:0.1500; stroke-opacity:1; 
stroke-linecap:round; stroke-linejoin:round;">
<path d="M34.2500 41.2500
L37.7500 41.2500
" />
<path d="M30.5000 39.0000
L30.5000 40.0000
" />
<path d="M21.2500 33.7500
L39.7500 33.7500
" />
<path d="M34.2500 37.7500
L34.2500 41.2500
" />
<path d="M23.2500 41.2500
L26.7500 41.2500
" />
<path d="M21.2500 33.7500 A2.0000 2.0000 0.0 0 0 19.2500 35.7500" />
<path d="M26.7500 37.7500
L23.2500 37.7500
" />
<path d="M41.7500 35.7500 A2.0000 2.0000 0.0 0 0 39.7500 33.7500" />
<path d="M39.7500 45.2500 A2.0000 2.0000 0.0 0 0 41.7500 43.2500" />
<path d="M37.7500 41.2500
L37.7500 37.7500
" />
<path d="M39.7500 45.2500
L21.2500 45.2500
" />
<path d="M26.7500 41.2500
L26.7500 37.7500
" />
<path d="M23.2500 37.7500
L23.2500 41.2500
" />
<path d="M19.2500 43.2500 A2.0000 2.0000 0.0 0 0 21.2500 45.2500" />
<path d="M41.7500 35.7500
L41.7500 43.2500
" />
<path d="M30.0000 39.5000
L31.0000 39.5000
" />
<path d="M19.2500 43.2500
L19.2500 35.7500
" />
<path d="M37.7500 37.7500
L34.2500 37.7500
" />
</g>
<g style="fill:none; 
stroke:#000000; stroke-width:0.4000; stroke-opacity:1; 
stroke-linecap:round; stroke-linejoin:round;">
<text x="25.0000" y="44.2500"
textLength="0.9633" font-size="2.6667" lengthAdjust="spacingAndGlyphs"
text-anchor="middle" opacity="0" stroke-opacity="0">1</text>
<g class="stroked-text"><desc>1</desc>
<path style="fill:#000000; fill-opacity:1.0000; stroke:none;fill-rule:evenodd;"
d="M 25.3932,43.8309
25.3143,43.8951
25.2278,43.9534
25.2022,43.9696
25.1141,44.0223
25.0268,44.0670
24.9936,44.0800
24.9076,44.0271
24.9052,44.0238
24.8681,43.9331
24.8671,43.9164
24.8628,43.8100
24.8593,43.7116
24.8588,43.6970
24.8559,43.6404
24.8559,42.7870
24.8642,42.6942
24.8730,42.6009
24.8505,42.5134
24.8222,42.4993
24.7435,42.5276
24.6590,42.5559
24.6224,42.5335
24.6112,42.4910
24.6336,42.4460
24.7261,42.4043
24.8229,42.3554
24.9197,42.3029
24.9853,42.2658
25.0637,42.2001
25.1461,42.1417
25.2022,42.1417
25.2359,42.1417
25.2554,42.2376
25.2555,42.2482
25.2527,42.3460
25.2459,42.4538
25.2384,42.5466
25.2304,42.6500
25.2241,42.7555
25.2218,42.8446
25.2218,43.5759
25.2281,43.6779
25.2442,43.7298
25.3324,43.7832
25.3820,43.7913
Z" /> 
</g></g>
<g style="fill:none; 
stroke:#000000; stroke-width:0.4000; stroke-opacity:1; 
stroke-linecap:round; stroke-linejoin:round;">
<text x="36.0000" y="44.2500"
textLength="1.3834" font-size="2.6667" lengthAdjust="spacingAndGlyphs"
text-anchor="middle" opacity="0" stroke-opacity="0">2</text>
<g class="stroked-text"><desc>2</desc>
<path style="fill:#000000; fill-opacity:1.0000; stroke:none;fill-rule:evenodd;"
d="M 36.6028,43.6970
36.5590,43.7888
36.5009,43.8758
36.4787,43.9071
36.4176,43.9872
36.3555,44.0635
36.3156,44.1113
36.2760,44.1113
36.1731,44.1022
36.0689,44.0830
35.9699,44.0599
35.9565,44.0566
35.8563,44.0324
35.7515,44.0119
35.6492,44.0014
35.6429,44.0014
35.5514,44.0374
35.5433,44.0424
35.4544,44.0868
35.4461,44.0888
35.4094,44.0492
35.4427,43.9563
35.4936,43.8666
35.5545,43.7826
35.6189,43.7066
35.6429,43.6804
35.9809,43.3170
36.0392,43.2337
36.0920,43.1343
36.1283,43.0325
36.1482,42.9283
36.1524,42.8524
36.1438,42.7490
36.1120,42.6554
36.0367,42.5778
35.9373,42.5493
35.9077,42.5481
35.8136,42.5747
35.7322,42.6344
35.6967,42.6693
35.6252,42.7431
35.5726,42.7904
35.5389,42.7762
35.5276,42.6917
35.5421,42.5878
35.5613,42.4827
35.5818,42.3794
35.6038,42.2897
35.6935,42.2419
35.7709,42.2086
35.8646,42.1705
35.9555,42.1417
36.0652,42.1463
36.1624,42.1602
36.2599,42.1882
36.3504,42.2356
36.3957,42.2736
36.4590,42.3623
36.4978,42.4654
36.5184,42.5745
36.5261,42.6819
36.5266,42.7205
36.5192,42.8192
36.4932,42.9251
36.4485,43.0255
36.4084,43.0894
36.3434,43.1686
36.2685,43.2439
36.1855,43.3188
36.1382,43.3590
36.0609,43.4253
35.9821,43.4961
35.9057,43.5693
35.8486,43.6286
35.8598,43.6628
35.9590,43.6886
36.0670,43.7048
36.0933,43.7083
36.1902,43.7205
36.2911,43.7307
36.3551,43.7337
36.4621,43.7337
36.5458,43.6743
36.5803,43.6570
36.6028,43.6687
Z" /> 
</g></g>
<g style="fill:none; 
stroke:#000000; stroke-width:0.4000; stroke-opacity:1; 
stroke-linecap:round; stroke-linejoin:round;">
<text x="30.7000" y="53.2500"
textLength="4.6680" font-size="2.6667" lengthAdjust="spacingAndGlyphs"
text-anchor="middle" opacity="0" stroke-opacity="0">AH3</text>
<g class="stroked-text"><desc>AH3</desc>
<path style="fill:#000000; fill-opacity:1.0000; stroke:none;fill-rule:evenodd;"
d="M 29.8154,51.0865
29.8154,52.8836
29.9961,53.0644
29.6761,53.3848
29.3620,53.0707
29.3620,52.3609
28.9937,52.3609
28.9937,52.8797
29.1745,53.0644
28.8545,53.3848
28.5404,53.0707
28.5404,51.5740
28.3597,51.3933
28.3650,51.3879
28.9937,51.3879
28.9937,52.2672
29.3620,52.2672
29.3620,51.3063
29.1696,51.1700
28.9937,51.3879
28.3650,51.3879
28.6801,51.0728
28.9239,51.3161
29.3694,50.7758
Z" /> 
<path style="fill:#000000; fill-opacity:1.0000; stroke:none;fill-rule:evenodd;"
d="M 30.7679,51.0948
31.0879,50.7773
31.4020,51.0884
31.4020,52.8836
31.5827,53.0644
31.2627,53.3848
30.9486,53.0707
30.9486,52.3609
30.5803,52.3609
30.5803,52.8797
30.7611,53.0644
30.4411,53.3848
30.1270,53.0707
30.1270,51.2755
29.9463,51.0948
30.2662,50.7773
30.5803,51.0884
30.5803,52.2672
30.9486,52.2672
30.9486,51.2746
Z" /> 
<path style="fill:#000000; fill-opacity:1.0000; stroke:none;fill-rule:evenodd;"
d="M 31.5358,51.5476
31.8558,51.2277
32.1020,51.4734
32.5157,50.9302
32.8308,51.2462
32.8308,51.6922
32.6241,51.8940
32.9690,52.2393
32.9690,53.0707
32.6549,53.3790
32.3652,53.0863
32.0726,53.3790
31.7585,53.0707
31.7585,52.4718
32.2119,52.4718
32.2119,52.7937
32.4073,52.9916
32.5157,52.8836
32.5157,52.4235
32.2026,52.1133
32.3775,51.9384
32.3775,51.4333
32.3100,51.3664
32.1699,51.5530
32.1699,52.0586
31.7165,52.0586
31.7165,51.7284
Z" /> 
</g><path style="fill:#000000; fill-opacity:1.0000; 
stroke:#000000; stroke-width:0.1200; stroke-opacity:1; 
stroke-linecap:round; stroke-linejoin:round;fill-rule:evenodd;"
d="M 30.8525,28.5900
30.6125,28.2600
31.0925,28.2600
Z" /> 
</g>
<g style="fill:none; 
stroke:#000000; stroke-width:0.1200; stroke-opacity:1; 
stroke-linecap:round; stroke-linejoin:round;">
<path d="M35.0725 32.8100
L35.0725 32.2600
" />
<path d="M35.0725 28.5900
L35.0725 29.1400
" />
<path d="M34.5225 32.8100
L35.0725 32.8100
" />
<path d="M34.5225 28.5900
L35.0725 28.5900
" />
<path d="M31.4025 32.8100
L30.8525 32.8100
" />
<path d="M31.4025 28.5900
L31.1525 28.5900
" />
<path d="M30.8525 32.8100
L30.8525 32.2600
" />
<path d="M30.8525 29.1400
L30.8525 28.8300
" />
<path d="M24.1100 40.1422
L24.1100 40.3578
" />
<path d="M23.3900 40.1422
L23.3900 40.3578
" />
<path d="M31.9036 48.9300
L31.5964 48.9300
" />
<path d="M31.9036 48.1700
L31.5964 48.1700
" />
<path style="fill:#000000; fill-opacity:1.0000; 
stroke:#000000; stroke-width:0.1200; stroke-opacity:1; 
stroke-linecap:round; stroke-linejoin:round;fill-rule:evenodd;"
d="M 35.3800,38.8675
35.2400,38.6775
35.5200,38.6775
Z" /> 
</g>
<g style="fill:none; 
stroke:#000000; stroke-width:0.1200; stroke-opacity:1; 
stroke-linecap:round; stroke-linejoin:round;">
<path d="M37.6100 41.0975
L37.6100 40.6725
" />
<path d="M37.6100 38.8775
L37.6100 39.3025
" />
<path d="M37.4350 41.0975
L37.6100 41.0975
" />
<path d="M37.4350 38.8775
L37.6100 38.8775
" />
<path d="M35.5650 41.0975
L35.3900 41.0975
" />
<path d="M35.3900 41.0975
L35.3900 40.6725
" />
<path d="M35.3800 39.3025
L35.3800 39.1075
" />
<path d="M32.9600 25.8422
L32.9600 26.0578
" />
<path d="M32.2400 25.8422
L32.2400 26.0578
" />
<path d="M36.3100 25.8922
L36.3100 26.1078
" />
<path d="M35.5900 25.8922
L35.5900 26.1078
" />
<path d="M29.4300 28.3300
L29.4300 33.5300
" />
<path d="M26.8300 30.9300
L26.8300 28.3300
" />
<path d="M26.8300 28.3300
L29.4300 28.3300
" />
<path d="M24.2300 33.5300
L29.4300 33.5300
" />
<path d="M24.2300 30.9300
L26.8300 30.9300
" />
<path d="M24.2300 30.9300
L24.2300 33.5300
" />
<path d="M24.2300 29.6600
L24.2300 28.3300
" />
<path d="M24.2300 28.3300
L25.5600 28.3300
" />
<path d="M34.1500 26.1236
L34.1500 25.8164
" />
<path d="M33.3900 26.1236
L33.3900 25.8164
" />
<path d="M34.4036 48.9300
L34.0964 48.9300
" />
<path d="M34.4036 48.1700
L34.0964 48.1700
" />
<path d="M35.1100 40.1497
L35.1100 40.3653
" />
<path d="M34.3900 40.1497
L34.3900 40.3653
" />
<path d="M26.5100 26.0578
L26.5100 25.8422
" />
<path d="M25.7900 26.0578
L25.7900 25.8422
" />
<path d="M25.4122 38.6100
L25.6278 38.6100
" />
<path d="M25.4122 37.8900
L25.6278 37.8900
" />
</g>
<g style="fill:none; 
stroke:#000000; stroke-width:0.1000; stroke-opacity:1; 
stroke-linecap:round; stroke-linejoin:round;">
<circle cx="30.3400" cy="48.5500" r="0.0500" /> 
</g>
<g style="fill:none; 
stroke:#000000; stroke-width:0.1200; stroke-opacity:1; 
stroke-linecap:round; stroke-linejoin:round;">
<path d="M35.3300 26.1336
L35.3300 25.8264
" />
<path d="M34.5700 26.1336
L34.5700 25.8264
" />
<path style="fill:#000000; fill-opacity:1.0000; 
stroke:#000000; stroke-width:0.1200; stroke-opacity:1; 
stroke-linecap:round; stroke-linejoin:round;fill-rule:evenodd;"
d="M 24.3800,38.8800
24.2400,38.6900
24.5200,38.6900
Z" /> 
</g>
<g style="fill:none; 
stroke:#000000; stroke-width:0.1200; stroke-opacity:1; 
stroke-linecap:round; stroke-linejoin:round;">
<path d="M26.6100 41.1100
L26.6100 40.6850
" />
<path d="M26.6100 38.8900
L26.6100 39.3150
" />
<path d="M26.4350 41.1100
L26.6100 41.1100
" />
<path d="M26.4350 38.8900
L26.6100 38.8900
" />
<path d="M24.5650 41.1100
L24.3900 41.1100
" />
<path d="M24.3900 41.1100
L24.3900 40.6850
" />
<path d="M24.3800 39.3150
L24.3800 39.1200
" />
<path d="M36.4122 38.5975
L36.6278 38.5975
" />
<path d="M36.4122 37.8775
L36.6278 37.8775
" />
<path d="M26.9036 48.9300
L26.5964 48.9300
" />
<path d="M26.9036 48.1700
L26.5964 48.1700
" />
<path d="M31.9700 27.5800
L31.9700 24.2800
" />
<path d="M31.9700 24.2800
L27.9700 24.2800
" />
<path d="M27.7100 26.0578
L27.7100 25.8422
" />
<path d="M26.9900 26.0578
L26.9900 25.8422
" />
<path d="M25.5900 26.1036
L25.5900 25.7964
" />
<path d="M24.8300 26.1036
L24.8300 25.7964
" />
</g>
<g style="fill:none; 
stroke:#000000; stroke-width:0.0500; stroke-opacity:1; 
stroke-linecap:round; stroke-linejoin:round;">
<path d="M35.5925 33.3300
L35.5925 28.0700
" />
<path d="M35.5925 28.0700
L30.3325 28.0700
" />
<path d="M30.3325 33.3300
L35.5925 33.3300
" />
<path d="M30.3325 28.0700
L30.3325 33.3300
" />
<path d="M24.2100 41.1600
L23.2900 41.1600
" />
<path d="M24.2100 39.3400
L24.2100 41.1600
" />
<path d="M23.2900 41.1600
L23.2900 39.3400
" />
<path d="M23.2900 39.3400
L24.2100 39.3400
" />
<path d="M32.6800 49.0200
L30.8200 49.0200
" />
<path d="M32.6800 48.0800
L32.6800 49.0200
" />
<path d="M30.8200 49.0200
L30.8200 48.0800
" />
<path d="M30.8200 48.0800
L32.6800 48.0800
" />
<path d="M37.7500 41.2375
L37.7500 38.7375
" />
<path d="M37.7500 38.7375
L35.2500 38.7375
" />
<path d="M35.2500 41.2375
L37.7500 41.2375
" />
<path d="M35.2500 38.7375
L35.2500 41.2375
" />
<path d="M33.0600 26.8600
L32.1400 26.8600
" />
<path d="M33.0600 25.0400
L33.0600 26.8600
" />
<path d="M32.1400 26.8600
L32.1400 25.0400
" />
<path d="M32.1400 25.0400
L33.0600 25.0400
" />
<path d="M36.4100 26.9100
L35.4900 26.9100
" />
<path d="M36.4100 25.0900
L36.4100 26.9100
" />
<path d="M35.4900 26.9100
L35.4900 25.0900
" />
<path d="M35.4900 25.0900
L36.4100 25.0900
" />
<path d="M29.9100 34.0100
L29.9100 27.8600
" />
<path d="M29.9100 27.8600
L23.7600 27.8600
" />
<path d="M23.7600 34.0100
L29.9100 34.0100
" />
<path d="M23.7600 27.8600
L23.7600 34.0100
" />
<path d="M34.2400 26.9000
L33.3000 26.9000
" />
<path d="M34.2400 25.0400
L34.2400 26.9000
" />
<path d="M33.3000 26.9000
L33.3000 25.0400
" />
<path d="M33.3000 25.0400
L34.2400 25.0400
" />
<path d="M35.1800 49.0200
L33.3200 49.0200
" />
<path d="M35.1800 48.0800
L35.1800 49.0200
" />
<path d="M33.3200 49.0200
L33.3200 48.0800
" />
<path d="M33.3200 48.0800
L35.1800 48.0800
" />
<path d="M35.2100 41.1675
L34.2900 41.1675
" />
<path d="M35.2100 39.3475
L35.2100 41.1675
" />
<path d="M34.2900 41.1675
L34.2900 39.3475
" />
<path d="M34.2900 39.3475
L35.2100 39.3475
" />
<path d="M26.6100 26.8600
L25.6900 26.8600
" />
<path d="M26.6100 25.0400
L26.6100 26.8600
" />
<path d="M25.6900 26.8600
L25.6900 25.0400
" />
<path d="M25.6900 25.0400
L26.6100 25.0400
" />
<path d="M26.4300 38.7100
L24.6100 38.7100
" />
<path d="M26.4300 37.7900
L26.4300 38.7100
" />
<path d="M24.6100 38.7100
L24.6100 37.7900
" />
<path d="M24.6100 37.7900
L26.4300 37.7900
" />
<path d="M30.1800 49.0200
L28.3200 49.0200
" />
<path d="M30.1800 48.0800
L30.1800 49.0200
" />
<path d="M28.3200 49.0200
L28.3200 48.0800
" />
<path d="M28.3200 48.0800
L30.1800 48.0800
" />
<path d="M35.4200 26.9100
L34.4800 26.9100
" />
<path d="M35.4200 25.0500
L35.4200 26.9100
" />
<path d="M34.4800 26.9100
L34.4800 25.0500
" />
<path d="M34.4800 25.0500
L35.4200 25.0500
" />
<path d="M26.7500 41.2500
L26.7500 38.7500
" />
<path d="M26.7500 38.7500
L24.2500 38.7500
" />
<path d="M24.2500 41.2500
L26.7500 41.2500
" />
<path d="M24.2500 38.7500
L24.2500 41.2500
" />
<path d="M37.4300 38.6975
L35.6100 38.6975
" />
<path d="M37.4300 37.7775
L37.4300 38.6975
" />
<path d="M35.6100 38.6975
L35.6100 37.7775
" />
<path d="M35.6100 37.7775
L37.4300 37.7775
" />
<path d="M27.6800 49.0200
L25.8200 49.0200
" />
<path d="M27.6800 48.0800
L27.6800 49.0200
" />
<path d="M25.8200 49.0200
L25.8200 48.0800
" />
<path d="M25.8200 48.0800
L27.6800 48.0800
" />
<path d="M32.0700 27.6300
L32.0700 24.2300
" />
<path d="M32.0700 24.2300
L27.8700 24.2300
" />
<path d="M27.8700 27.6300
L32.0700 27.6300
" />
<path d="M27.8700 24.2300
L27.8700 27.6300
" />
<path d="M27.8100 26.8600
L26.8900 26.8600
" />
<path d="M27.8100 25.0400
L27.8100 26.8600
" />
<path d="M26.8900 26.8600
L26.8900 25.0400
" />
<path d="M26.8900 25.0400
L27.8100 25.0400
" />
<path d="M25.6800 26.8800
L24.7400 26.8800
" />
<path d="M25.6800 25.0200
L25.6800 26.8800
" />
<path d="M24.7400 26.8800
L24.7400 25.0200
" />
<path d="M24.7400 25.0200
L25.6800 25.0200
" />
</g>
<g style="fill:none; 
stroke:#000000; stroke-width:0.1500; stroke-opacity:1; 
stroke-linecap:round; stroke-linejoin:round;">
<g transform="rotate(-90.000000 49.8500 39.5000)">
<text x="49.8500" y="40.0000"
textLength="7.0119" font-size="1.3333" lengthAdjust="spacingAndGlyphs"
text-anchor="middle" opacity="0" stroke-opacity="0">19,1 mm</text>
</g>
<g class="stroked-text"><desc>19,1 mm</desc>
<path d="M50.3048 42.1190
L50.3048 42.6905
" />
<path d="M50.3048 42.4048
L49.3048 42.4048
" />
<path d="M49.3048 42.4048
L49.4477 42.5000
" />
<path d="M49.4477 42.5000
L49.5429 42.5952
" />
<path d="M49.5429 42.5952
L49.5905 42.6905
" />
<path d="M50.3048 41.6429
L50.3048 41.4524
" />
<path d="M50.3048 41.4524
L50.2572 41.3571
" />
<path d="M50.2572 41.3571
L50.2096 41.3095
" />
<path d="M50.2096 41.3095
L50.0667 41.2143
" />
<path d="M50.0667 41.2143
L49.8762 41.1667
" />
<path d="M49.8762 41.1667
L49.4953 41.1667
" />
<path d="M49.4953 41.1667
L49.4001 41.2143
" />
<path d="M49.4001 41.2143
L49.3524 41.2619
" />
<path d="M49.3524 41.2619
L49.3048 41.3571
" />
<path d="M49.3048 41.3571
L49.3048 41.5476
" />
<path d="M49.3048 41.5476
L49.3524 41.6429
" />
<path d="M49.3524 41.6429
L49.4001 41.6905
" />
<path d="M49.4001 41.6905
L49.4953 41.7381
" />
<path d="M49.4953 41.7381
L49.7334 41.7381
" />
<path d="M49.7334 41.7381
L49.8286 41.6905
" />
<path d="M49.8286 41.6905
L49.8762 41.6429
" />
<path d="M49.8762 41.6429
L49.9239 41.5476
" />
<path d="M49.9239 41.5476
L49.9239 41.3571
" />
<path d="M49.9239 41.3571
L49.8762 41.2619
" />
<path d="M49.8762 41.2619
L49.8286 41.2143
" />
<path d="M49.8286 41.2143
L49.7334 41.1667
" />
<path d="M50.2572 40.6905
L50.3048 40.6905
" />
<path d="M50.3048 40.6905
L50.4001 40.7381
" />
<path d="M50.4001 40.7381
L50.4477 40.7857
" />
<path d="M50.3048 39.7381
L50.3048 40.3095
" />
<path d="M50.3048 40.0238
L49.3048 40.0238
" />
<path d="M49.3048 40.0238
L49.4477 40.1190
" />
<path d="M49.4477 40.1190
L49.5429 40.2143
" />
<path d="M49.5429 40.2143
L49.5905 40.3095
" />
<path d="M50.3048 38.5476
L49.6382 38.5476
" />
<path d="M49.7334 38.5476
L49.6858 38.5000
" />
<path d="M49.6858 38.5000
L49.6382 38.4048
" />
<path d="M49.6382 38.4048
L49.6382 38.2619
" />
<path d="M49.6382 38.2619
L49.6858 38.1667
" />
<path d="M49.6858 38.1667
L49.7810 38.1190
" />
<path d="M49.7810 38.1190
L50.3048 38.1190
" />
<path d="M49.7810 38.1190
L49.6858 38.0714
" />
<path d="M49.6858 38.0714
L49.6382 37.9762
" />
<path d="M49.6382 37.9762
L49.6382 37.8333
" />
<path d="M49.6382 37.8333
L49.6858 37.7381
" />
<path d="M49.6858 37.7381
L49.7810 37.6905
" />
<path d="M49.7810 37.6905
L50.3048 37.6905
" />
<path d="M50.3048 37.2143
L49.6382 37.2143
" />
<path d="M49.7334 37.2143
L49.6858 37.1667
" />
<path d="M49.6858 37.1667
L49.6382 37.0714
" />
<path d="M49.6382 37.0714
L49.6382 36.9286
" />
<path d="M49.6382 36.9286
L49.6858 36.8333
" />
<path d="M49.6858 36.8333
L49.7810 36.7857
" />
<path d="M49.7810 36.7857
L50.3048 36.7857
" />
<path d="M49.7810 36.7857
L49.6858 36.7381
" />
<path d="M49.6858 36.7381
L49.6382 36.6429
" />
<path d="M49.6382 36.6429
L49.6382 36.5000
" />
<path d="M49.6382 36.5000
L49.6858 36.4048
" />
<path d="M49.6858 36.4048
L49.7810 36.3571
" />
<path d="M49.7810 36.3571
L50.3048 36.3571
" />
</g></g>
<g style="fill:none; 
stroke:#000000; stroke-width:0.1000; stroke-opacity:1; 
stroke-linecap:round; stroke-linejoin:round;">
<path d="M21.4541 29.9541
L51.5864 29.9541
" />
<path d="M21.4541 49.0459
L51.5864 49.0459
" />
<path d="M51.0000 29.9541
L51.0000 49.0459
" />
<path d="M51.0000 29.9541
L51.0000 49.0459
" />
<path d="M51.0000 29.9541
L51.5864 31.0806
" />
<path d="M51.0000 29.9541
L50.4136 31.0806
" />
<path d="M51.0000 49.0459
L50.4136 47.9194
" />
<path d="M51.0000 49.0459
L51.5864 47.9194
" />
</g>
<g style="fill:none; 
stroke:#000000; stroke-width:0.1500; stroke-opacity:1; 
stroke-linecap:round; stroke-linejoin:round;">
<g transform="rotate(-359.992373 30.5035 12.9367)">
<text x="30.5035" y="13.4367"
textLength="7.0119" font-size="1.3333" lengthAdjust="spacingAndGlyphs"
text-anchor="middle" opacity="0" stroke-opacity="0">29,0 mm</text>
</g>
<g class="stroked-text"><desc>29,0 mm</desc>
<path d="M27.3131 12.4863
L27.3607 12.4387
" />
<path d="M27.3607 12.4387
L27.4560 12.3911
" />
<path d="M27.4560 12.3911
L27.6941 12.3911
" />
<path d="M27.6941 12.3911
L27.7893 12.4388
" />
<path d="M27.7893 12.4388
L27.8369 12.4864
" />
<path d="M27.8369 12.4864
L27.8845 12.5816
" />
<path d="M27.8845 12.5816
L27.8845 12.6769
" />
<path d="M27.8845 12.6769
L27.8369 12.8197
" />
<path d="M27.8369 12.8197
L27.2654 13.3911
" />
<path d="M27.2654 13.3911
L27.8844 13.3912
" />
<path d="M28.3606 13.3912
L28.5511 13.3913
" />
<path d="M28.5511 13.3913
L28.6463 13.3437
" />
<path d="M28.6463 13.3437
L28.6940 13.2960
" />
<path d="M28.6940 13.2960
L28.7892 13.1532
" />
<path d="M28.7892 13.1532
L28.8369 12.9627
" />
<path d="M28.8369 12.9627
L28.8369 12.5818
" />
<path d="M28.8369 12.5818
L28.7893 12.4865
" />
<path d="M28.7893 12.4865
L28.7417 12.4389
" />
<path d="M28.7417 12.4389
L28.6465 12.3913
" />
<path d="M28.6465 12.3913
L28.4560 12.3912
" />
<path d="M28.4560 12.3912
L28.3607 12.4389
" />
<path d="M28.3607 12.4389
L28.3131 12.4865
" />
<path d="M28.3131 12.4865
L28.2655 12.5817
" />
<path d="M28.2655 12.5817
L28.2655 12.8198
" />
<path d="M28.2655 12.8198
L28.3131 12.9150
" />
<path d="M28.3131 12.9150
L28.3607 12.9627
" />
<path d="M28.3607 12.9627
L28.4559 13.0103
" />
<path d="M28.4559 13.0103
L28.6464 13.0103
" />
<path d="M28.6464 13.0103
L28.7416 12.9627
" />
<path d="M28.7416 12.9627
L28.7893 12.9151
" />
<path d="M28.7893 12.9151
L28.8369 12.8199
" />
<path d="M29.3130 13.3437
L29.3130 13.3914
" />
<path d="M29.3130 13.3914
L29.2654 13.4866
" />
<path d="M29.2654 13.4866
L29.2177 13.5342
" />
<path d="M29.9322 12.3914
L30.0274 12.3915
" />
<path d="M30.0274 12.3915
L30.1226 12.4391
" />
<path d="M30.1226 12.4391
L30.1703 12.4867
" />
<path d="M30.1703 12.4867
L30.2179 12.5820
" />
<path d="M30.2179 12.5820
L30.2655 12.7724
" />
<path d="M30.2655 12.7724
L30.2654 13.0105
" />
<path d="M30.2654 13.0105
L30.2178 13.2010
" />
<path d="M30.2178 13.2010
L30.1702 13.2962
" />
<path d="M30.1702 13.2962
L30.1225 13.3438
" />
<path d="M30.1225 13.3438
L30.0273 13.3915
" />
<path d="M30.0273 13.3915
L29.9320 13.3914
" />
<path d="M29.9320 13.3914
L29.8368 13.3438
" />
<path d="M29.8368 13.3438
L29.7892 13.2962
" />
<path d="M29.7892 13.2962
L29.7416 13.2009
" />
<path d="M29.7416 13.2009
L29.6940 13.0105
" />
<path d="M29.6940 13.0105
L29.6940 12.7724
" />
<path d="M29.6940 12.7724
L29.7417 12.5819
" />
<path d="M29.7417 12.5819
L29.7893 12.4867
" />
<path d="M29.7893 12.4867
L29.8369 12.4390
" />
<path d="M29.8369 12.4390
L29.9322 12.3914
" />
<path d="M31.4559 13.3916
L31.4559 12.7250
" />
<path d="M31.4559 12.8202
L31.5036 12.7726
" />
<path d="M31.5036 12.7726
L31.5988 12.7250
" />
<path d="M31.5988 12.7250
L31.7417 12.7250
" />
<path d="M31.7417 12.7250
L31.8369 12.7726
" />
<path d="M31.8369 12.7726
L31.8845 12.8679
" />
<path d="M31.8845 12.8679
L31.8844 13.3917
" />
<path d="M31.8845 12.8679
L31.9321 12.7727
" />
<path d="M31.9321 12.7727
L32.0274 12.7251
" />
<path d="M32.0274 12.7251
L32.1702 12.7251
" />
<path d="M32.1702 12.7251
L32.2655 12.7727
" />
<path d="M32.2655 12.7727
L32.3131 12.8680
" />
<path d="M32.3131 12.8680
L32.3130 13.3918
" />
<path d="M32.7892 13.3918
L32.7893 12.7252
" />
<path d="M32.7893 12.8204
L32.8369 12.7728
" />
<path d="M32.8369 12.7728
L32.9321 12.7252
" />
<path d="M32.9321 12.7252
L33.0750 12.7252
" />
<path d="M33.0750 12.7252
L33.1702 12.7728
" />
<path d="M33.1702 12.7728
L33.2178 12.8681
" />
<path d="M33.2178 12.8681
L33.2178 13.3919
" />
<path d="M33.2178 12.8681
L33.2655 12.7728
" />
<path d="M33.2655 12.7728
L33.3607 12.7252
" />
<path d="M33.3607 12.7252
L33.5036 12.7253
" />
<path d="M33.5036 12.7253
L33.5988 12.7729
" />
<path d="M33.5988 12.7729
L33.6464 12.8681
" />
<path d="M33.6464 12.8681
L33.6463 13.3919
" />
</g></g>
<g style="fill:none; 
stroke:#000000; stroke-width:0.1000; stroke-opacity:1; 
stroke-linecap:round; stroke-linejoin:round;">
<path d="M44.9980 46.8850
L45.0024 13.5022
" />
<path d="M16.0001 46.8811
L16.0045 13.4984
" />
<path d="M45.0023 14.0886
L16.0044 14.0848
" />
<path d="M45.0023 14.0886
L16.0044 14.0848
" />
<path d="M45.0023 14.0886
L43.8758 14.6749
" />
<path d="M45.0023 14.0886
L43.8759 13.5021
" />
<path d="M16.0044 14.0848
L17.1310 13.4985
" />
<path d="M16.0044 14.0848
L17.1309 14.6713
" />
</g>
<g style="fill:none; 
stroke:#000000; stroke-width:0.1500; stroke-opacity:1; 
stroke-linecap:round; stroke-linejoin:round;">
<text x="30.5000" y="17.8500"
textLength="7.0119" font-size="1.3333" lengthAdjust="spacingAndGlyphs"
text-anchor="middle" opacity="0" stroke-opacity="0">19,1 mm</text>
<g class="stroked-text"><desc>19,1 mm</desc>
<path d="M27.8810 17.8048
L27.3095 17.8048
" />
<path d="M27.5952 17.8048
L27.5952 16.8048
" />
<path d="M27.5952 16.8048
L27.5000 16.9477
" />
<path d="M27.5000 16.9477
L27.4048 17.0429
" />
<path d="M27.4048 17.0429
L27.3095 17.0905
" />
<path d="M28.3571 17.8048
L28.5476 17.8048
" />
<path d="M28.5476 17.8048
L28.6429 17.7572
" />
<path d="M28.6429 17.7572
L28.6905 17.7096
" />
<path d="M28.6905 17.7096
L28.7857 17.5667
" />
<path d="M28.7857 17.5667
L28.8333 17.3762
" />
<path d="M28.8333 17.3762
L28.8333 16.9953
" />
<path d="M28.8333 16.9953
L28.7857 16.9001
" />
<path d="M28.7857 16.9001
L28.7381 16.8524
" />
<path d="M28.7381 16.8524
L28.6429 16.8048
" />
<path d="M28.6429 16.8048
L28.4524 16.8048
" />
<path d="M28.4524 16.8048
L28.3571 16.8524
" />
<path d="M28.3571 16.8524
L28.3095 16.9001
" />
<path d="M28.3095 16.9001
L28.2619 16.9953
" />
<path d="M28.2619 16.9953
L28.2619 17.2334
" />
<path d="M28.2619 17.2334
L28.3095 17.3286
" />
<path d="M28.3095 17.3286
L28.3571 17.3762
" />
<path d="M28.3571 17.3762
L28.4524 17.4239
" />
<path d="M28.4524 17.4239
L28.6429 17.4239
" />
<path d="M28.6429 17.4239
L28.7381 17.3762
" />
<path d="M28.7381 17.3762
L28.7857 17.3286
" />
<path d="M28.7857 17.3286
L28.8333 17.2334
" />
<path d="M29.3095 17.7572
L29.3095 17.8048
" />
<path d="M29.3095 17.8048
L29.2619 17.9001
" />
<path d="M29.2619 17.9001
L29.2143 17.9477
" />
<path d="M30.2619 17.8048
L29.6905 17.8048
" />
<path d="M29.9762 17.8048
L29.9762 16.8048
" />
<path d="M29.9762 16.8048
L29.8810 16.9477
" />
<path d="M29.8810 16.9477
L29.7857 17.0429
" />
<path d="M29.7857 17.0429
L29.6905 17.0905
" />
<path d="M31.4524 17.8048
L31.4524 17.1382
" />
<path d="M31.4524 17.2334
L31.5000 17.1858
" />
<path d="M31.5000 17.1858
L31.5952 17.1382
" />
<path d="M31.5952 17.1382
L31.7381 17.1382
" />
<path d="M31.7381 17.1382
L31.8333 17.1858
" />
<path d="M31.8333 17.1858
L31.8810 17.2810
" />
<path d="M31.8810 17.2810
L31.8810 17.8048
" />
<path d="M31.8810 17.2810
L31.9286 17.1858
" />
<path d="M31.9286 17.1858
L32.0238 17.1382
" />
<path d="M32.0238 17.1382
L32.1667 17.1382
" />
<path d="M32.1667 17.1382
L32.2619 17.1858
" />
<path d="M32.2619 17.1858
L32.3095 17.2810
" />
<path d="M32.3095 17.2810
L32.3095 17.8048
" />
<path d="M32.7857 17.8048
L32.7857 17.1382
" />
<path d="M32.7857 17.2334
L32.8333 17.1858
" />
<path d="M32.8333 17.1858
L32.9286 17.1382
" />
<path d="M32.9286 17.1382
L33.0714 17.1382
" />
<path d="M33.0714 17.1382
L33.1667 17.1858
" />
<path d="M33.1667 17.1858
L33.2143 17.2810
" />
<path d="M33.2143 17.2810
L33.2143 17.8048
" />
<path d="M33.2143 17.2810
L33.2619 17.1858
" />
<path d="M33.2619 17.1858
L33.3571 17.1382
" />
<path d="M33.3571 17.1382
L33.5000 17.1382
" />
<path d="M33.5000 17.1382
L33.5952 17.1858
" />
<path d="M33.5952 17.1858
L33.6429 17.2810
" />
<path d="M33.6429 17.2810
L33.6429 17.8048
" />
</g></g>
<g style="fill:none; 
stroke:#000000; stroke-width:0.1000; stroke-opacity:1; 
stroke-linecap:round; stroke-linejoin:round;">
<path d="M40.0459 48.5459
L40.0459 17.9136
" />
<path d="M20.9541 48.5459
L20.9541 17.9136
" />
<path d="M40.0459 18.5000
L20.9541 18.5000
" />
<path d="M40.0459 18.5000
L20.9541 18.5000
" />
<path d="M40.0459 18.5000
L38.9194 19.0864
" />
<path d="M40.0459 18.5000
L38.9194 17.9136
" />
<path d="M20.9541 18.5000
L22.0806 17.9136
" />
<path d="M20.9541 18.5000
L22.0806 19.0864
" />
</g>
<g style="fill:none; 
stroke:#000000; stroke-width:0.1500; stroke-opacity:1; 
stroke-linecap:round; stroke-linejoin:round;">
<g transform="rotate(-90.000000 54.3500 39.4960)">
<text x="54.3500" y="39.9960"
textLength="7.0119" font-size="1.3333" lengthAdjust="spacingAndGlyphs"
text-anchor="middle" opacity="0" stroke-opacity="0">33,0 mm</text>
</g>
<g class="stroked-text"><desc>33,0 mm</desc>
<path d="M53.8048 42.7341
L53.8048 42.1150
" />
<path d="M53.8048 42.1150
L54.1858 42.4483
" />
<path d="M54.1858 42.4483
L54.1858 42.3055
" />
<path d="M54.1858 42.3055
L54.2334 42.2102
" />
<path d="M54.2334 42.2102
L54.2810 42.1626
" />
<path d="M54.2810 42.1626
L54.3762 42.1150
" />
<path d="M54.3762 42.1150
L54.6143 42.1150
" />
<path d="M54.6143 42.1150
L54.7096 42.1626
" />
<path d="M54.7096 42.1626
L54.7572 42.2102
" />
<path d="M54.7572 42.2102
L54.8048 42.3055
" />
<path d="M54.8048 42.3055
L54.8048 42.5912
" />
<path d="M54.8048 42.5912
L54.7572 42.6864
" />
<path d="M54.7572 42.6864
L54.7096 42.7341
" />
<path d="M53.8048 41.7817
L53.8048 41.1626
" />
<path d="M53.8048 41.1626
L54.1858 41.4960
" />
<path d="M54.1858 41.4960
L54.1858 41.3531
" />
<path d="M54.1858 41.3531
L54.2334 41.2579
" />
<path d="M54.2334 41.2579
L54.2810 41.2102
" />
<path d="M54.2810 41.2102
L54.3762 41.1626
" />
<path d="M54.3762 41.1626
L54.6143 41.1626
" />
<path d="M54.6143 41.1626
L54.7096 41.2102
" />
<path d="M54.7096 41.2102
L54.7572 41.2579
" />
<path d="M54.7572 41.2579
L54.8048 41.3531
" />
<path d="M54.8048 41.3531
L54.8048 41.6388
" />
<path d="M54.8048 41.6388
L54.7572 41.7341
" />
<path d="M54.7572 41.7341
L54.7096 41.7817
" />
<path d="M54.7572 40.6864
L54.8048 40.6864
" />
<path d="M54.8048 40.6864
L54.9001 40.7341
" />
<path d="M54.9001 40.7341
L54.9477 40.7817
" />
<path d="M53.8048 40.0674
L53.8048 39.9721
" />
<path d="M53.8048 39.9721
L53.8524 39.8769
" />
<path d="M53.8524 39.8769
L53.9001 39.8293
" />
<path d="M53.9001 39.8293
L53.9953 39.7817
" />
<path d="M53.9953 39.7817
L54.1858 39.7341
" />
<path d="M54.1858 39.7341
L54.4239 39.7341
" />
<path d="M54.4239 39.7341
L54.6143 39.7817
" />
<path d="M54.6143 39.7817
L54.7096 39.8293
" />
<path d="M54.7096 39.8293
L54.7572 39.8769
" />
<path d="M54.7572 39.8769
L54.8048 39.9721
" />
<path d="M54.8048 39.9721
L54.8048 40.0674
" />
<path d="M54.8048 40.0674
L54.7572 40.1626
" />
<path d="M54.7572 40.1626
L54.7096 40.2102
" />
<path d="M54.7096 40.2102
L54.6143 40.2579
" />
<path d="M54.6143 40.2579
L54.4239 40.3055
" />
<path d="M54.4239 40.3055
L54.1858 40.3055
" />
<path d="M54.1858 40.3055
L53.9953 40.2579
" />
<path d="M53.9953 40.2579
L53.9001 40.2102
" />
<path d="M53.9001 40.2102
L53.8524 40.1626
" />
<path d="M53.8524 40.1626
L53.8048 40.0674
" />
<path d="M54.8048 38.5436
L54.1382 38.5436
" />
<path d="M54.2334 38.5436
L54.1858 38.4960
" />
<path d="M54.1858 38.4960
L54.1382 38.4007
" />
<path d="M54.1382 38.4007
L54.1382 38.2579
" />
<path d="M54.1382 38.2579
L54.1858 38.1626
" />
<path d="M54.1858 38.1626
L54.2810 38.1150
" />
<path d="M54.2810 38.1150
L54.8048 38.1150
" />
<path d="M54.2810 38.1150
L54.1858 38.0674
" />
<path d="M54.1858 38.0674
L54.1382 37.9721
" />
<path d="M54.1382 37.9721
L54.1382 37.8293
" />
<path d="M54.1382 37.8293
L54.1858 37.7341
" />
<path d="M54.1858 37.7341
L54.2810 37.6864
" />
<path d="M54.2810 37.6864
L54.8048 37.6864
" />
<path d="M54.8048 37.2102
L54.1382 37.2102
" />
<path d="M54.2334 37.2102
L54.1858 37.1626
" />
<path d="M54.1858 37.1626
L54.1382 37.0674
" />
<path d="M54.1382 37.0674
L54.1382 36.9245
" />
<path d="M54.1382 36.9245
L54.1858 36.8293
" />
<path d="M54.1858 36.8293
L54.2810 36.7817
" />
<path d="M54.2810 36.7817
L54.8048 36.7817
" />
<path d="M54.2810 36.7817
L54.1858 36.7341
" />
<path d="M54.1858 36.7341
L54.1382 36.6388
" />
<path d="M54.1382 36.6388
L54.1382 36.4960
" />
<path d="M54.1382 36.4960
L54.1858 36.4007
" />
<path d="M54.1858 36.4007
L54.2810 36.3531
" />
<path d="M54.2810 36.3531
L54.8048 36.3531
" />
</g></g>
<g style="fill:none; 
stroke:#000000; stroke-width:0.1000; stroke-opacity:1; 
stroke-linecap:round; stroke-linejoin:round;">
<path d="M30.5000 22.9919
L56.0864 22.9919
" />
<path d="M30.5000 56.0000
L56.0864 56.0000
" />
<path d="M55.5000 22.9919
L55.5000 56.0000
" />
<path d="M55.5000 22.9919
L55.5000 56.0000
" />
<path d="M55.5000 22.9919
L56.0864 24.1184
" />
<path d="M55.5000 22.9919
L54.9136 24.1184
" />
<path d="M55.5000 56.0000
L54.9136 54.8735
" />
<path d="M55.5000 56.0000
L56.0864 54.8735
" />
</g> 
</svg>
