%TF.GenerationSoftware,KiCad,Pcbnew,8.0.6-8.0.6-0~ubuntu20.04.1*%
%TF.CreationDate,2024-11-07T01:45:43+05:00*%
%TF.ProjectId,AH3,4148332e-6b69-4636-9164-5f7063625858,rev?*%
%TF.SameCoordinates,Original*%
%TF.FileFunction,Copper,L2,Bot*%
%TF.FilePolarity,Positive*%
%FSLAX46Y46*%
G04 Gerber Fmt 4.6, Leading zero omitted, Abs format (unit mm)*
G04 Created by KiCad (PCBNEW 8.0.6-8.0.6-0~ubuntu20.04.1) date 2024-11-07 01:45:43*
%MOMM*%
%LPD*%
G01*
G04 APERTURE LIST*
G04 Aperture macros list*
%AMRoundRect*
0 Rectangle with rounded corners*
0 $1 Rounding radius*
0 $2 $3 $4 $5 $6 $7 $8 $9 X,Y pos of 4 corners*
0 Add a 4 corners polygon primitive as box body*
4,1,4,$2,$3,$4,$5,$6,$7,$8,$9,$2,$3,0*
0 Add four circle primitives for the rounded corners*
1,1,$1+$1,$2,$3*
1,1,$1+$1,$4,$5*
1,1,$1+$1,$6,$7*
1,1,$1+$1,$8,$9*
0 Add four rect primitives between the rounded corners*
20,1,$1+$1,$2,$3,$4,$5,0*
20,1,$1+$1,$4,$5,$6,$7,0*
20,1,$1+$1,$6,$7,$8,$9,0*
20,1,$1+$1,$8,$9,$2,$3,0*%
G04 Aperture macros list end*
%TA.AperFunction,ComponentPad*%
%ADD10R,1.700000X1.700000*%
%TD*%
%TA.AperFunction,ComponentPad*%
%ADD11O,1.700000X1.700000*%
%TD*%
%TA.AperFunction,ComponentPad*%
%ADD12C,5.000000*%
%TD*%
%TA.AperFunction,ComponentPad*%
%ADD13RoundRect,0.250000X-0.600000X-0.725000X0.600000X-0.725000X0.600000X0.725000X-0.600000X0.725000X0*%
%TD*%
%TA.AperFunction,ComponentPad*%
%ADD14O,1.700000X1.950000*%
%TD*%
%TA.AperFunction,ViaPad*%
%ADD15C,0.500000*%
%TD*%
%TA.AperFunction,Conductor*%
%ADD16C,0.250000*%
%TD*%
G04 APERTURE END LIST*
D10*
%TO.P,J1,1,Pin_1*%
%TO.N,VDD*%
X131560000Y-86660000D03*
D11*
%TO.P,J1,2,Pin_2*%
%TO.N,GND*%
X134100000Y-86660000D03*
%TO.P,J1,3,Pin_3*%
%TO.N,/SWCLK*%
X131560000Y-89200000D03*
%TO.P,J1,4,Pin_4*%
%TO.N,/SWDIO*%
X134100000Y-89200000D03*
%TD*%
D12*
%TO.P,H2,1,1*%
%TO.N,GND*%
X146045941Y-106045941D03*
%TD*%
%TO.P,H3,1,1*%
%TO.N,GND*%
X126954058Y-106045941D03*
%TD*%
%TO.P,H4,1,1*%
%TO.N,GND*%
X146045941Y-86954058D03*
%TD*%
D13*
%TO.P,J3,1,Pin_1*%
%TO.N,VDD*%
X132750000Y-103700000D03*
D14*
%TO.P,J3,2,Pin_2*%
%TO.N,GND*%
X135250000Y-103700000D03*
%TO.P,J3,3,Pin_3*%
%TO.N,/SCL*%
X137750000Y-103700000D03*
%TO.P,J3,4,Pin_4*%
%TO.N,/SDA*%
X140250000Y-103700000D03*
%TD*%
D12*
%TO.P,H1,1,1*%
%TO.N,GND*%
X126954058Y-86954058D03*
%TD*%
D15*
%TO.N,GND*%
X141800000Y-86900000D03*
%TO.N,VDD*%
X136090000Y-88521000D03*
X141450000Y-86000000D03*
%TO.N,GND*%
X131300000Y-84350000D03*
X135875000Y-82125000D03*
X138240000Y-84330000D03*
X139100000Y-84330000D03*
X133600000Y-81900004D03*
X142350000Y-84200000D03*
X132770000Y-82470000D03*
X136680000Y-84840000D03*
X132850000Y-94080000D03*
X140980000Y-94685000D03*
%TO.N,/SCK1*%
X131350000Y-97080000D03*
X136850000Y-93300000D03*
%TO.N,/INT1*%
X133400000Y-85130000D03*
X136905000Y-85465000D03*
X133225000Y-95625000D03*
X131650000Y-85130000D03*
%TO.N,/NSS1*%
X140400000Y-84449996D03*
X134100000Y-95110000D03*
X136005000Y-93205000D03*
X135730000Y-89239998D03*
%TO.N,/MOSI1*%
X133870000Y-98120000D03*
X138100000Y-93900000D03*
%TO.N,/MISO1*%
X137790000Y-93310000D03*
X133130000Y-97770000D03*
%TO.N,/MOSI2*%
X141830000Y-90060000D03*
X143850000Y-98560000D03*
%TO.N,/NSS2*%
X144370000Y-98020000D03*
X140060000Y-91770000D03*
X141100000Y-84150000D03*
%TO.N,/SCK2*%
X140800000Y-92000000D03*
X142340624Y-97024824D03*
%TO.N,/INT2*%
X144390000Y-96480000D03*
X144380000Y-93730000D03*
%TO.N,/MISO2*%
X141230000Y-90490000D03*
X143125000Y-98370000D03*
%TO.N,/SWCLK*%
X140750000Y-85750000D03*
%TO.N,/SWDIO*%
X141800000Y-88130000D03*
%TD*%
D16*
%TO.N,GND*%
X139430000Y-84330000D02*
X140250000Y-85150000D01*
X141342463Y-85150000D02*
X141975000Y-85782537D01*
X140250000Y-85150000D02*
X141342463Y-85150000D01*
X141975000Y-85782537D02*
X141975000Y-86725000D01*
X141975000Y-86725000D02*
X141800000Y-86900000D01*
%TO.N,/NSS1*%
X139880002Y-89239998D02*
X141615558Y-87504442D01*
X135730000Y-89239998D02*
X139880002Y-89239998D01*
X140625004Y-84675000D02*
X140400000Y-84449996D01*
X141403450Y-84675000D02*
X140625004Y-84675000D01*
X142429442Y-85700992D02*
X141403450Y-84675000D01*
X142429442Y-87138326D02*
X142429442Y-85700992D01*
X142063326Y-87504442D02*
X142429442Y-87138326D01*
X141615558Y-87504442D02*
X142063326Y-87504442D01*
%TO.N,GND*%
X132008112Y-81900004D02*
X133600000Y-81900004D01*
X130674058Y-83234058D02*
X132008112Y-81900004D01*
X133930004Y-81900004D02*
X133600000Y-81900004D01*
X136680000Y-84840000D02*
X136680000Y-84650000D01*
X136680000Y-84650000D02*
X133930004Y-81900004D01*
%TO.N,VDD*%
X140936476Y-86513524D02*
X141450000Y-86000000D01*
X136090000Y-88521000D02*
G75*
G03*
X140936486Y-86513534I0J6854000D01*
G01*
%TO.N,GND*%
X135150000Y-101870000D02*
X135250000Y-101970000D01*
X135250000Y-101970000D02*
X135250000Y-103700000D01*
X146045941Y-86954058D02*
X143291883Y-84200000D01*
X139100000Y-84330000D02*
X139430000Y-84330000D01*
X141750000Y-83600000D02*
X140160000Y-83600000D01*
X134100000Y-86660000D02*
X133859624Y-86660000D01*
X146045941Y-106045941D02*
X141570000Y-101570000D01*
X126954058Y-106045941D02*
X131129999Y-101870000D01*
X131782929Y-84350000D02*
X131300000Y-84350000D01*
X134100000Y-86660000D02*
X131795000Y-84355000D01*
X131795000Y-84355000D02*
X131782929Y-84350000D01*
X142350000Y-84200000D02*
X141750000Y-83600000D01*
X141570000Y-101570000D02*
X135250000Y-101570000D01*
X143291883Y-84200000D02*
X142350000Y-84200000D01*
X140160000Y-83600000D02*
X139430000Y-84330000D01*
X134100000Y-86660000D02*
X133447401Y-87312599D01*
X138240000Y-84330000D02*
X139100000Y-84330000D01*
X132450310Y-93680310D02*
X132850000Y-94080000D01*
X130750000Y-88200000D02*
X130595863Y-88354137D01*
X131129999Y-101870000D02*
X135150000Y-101870000D01*
X138240000Y-84330000D02*
X138190000Y-84330000D01*
X135250000Y-101570000D02*
X135250000Y-103700000D01*
X132150000Y-87850000D02*
X131594974Y-87850000D01*
X130674058Y-83234058D02*
X126954058Y-86954058D01*
X131795000Y-84355000D02*
X130674058Y-83234058D01*
X133447401Y-87312599D02*
G75*
G02*
X132150000Y-87850001I-1297401J1297399D01*
G01*
X130595863Y-88354137D02*
G75*
G03*
X130419996Y-88778708I424537J-424563D01*
G01*
X131594974Y-87850000D02*
G75*
G03*
X130750007Y-88200007I26J-1195000D01*
G01*
X130420000Y-88778708D02*
G75*
G03*
X132450317Y-93680303I6931900J8D01*
G01*
%TO.N,/SCK1*%
X136850000Y-93300000D02*
X133070000Y-97080000D01*
X133070000Y-97080000D02*
X133000000Y-97080000D01*
X133000000Y-97080000D02*
X131350000Y-97080000D01*
%TO.N,/INT1*%
X130000000Y-86300000D02*
X130000000Y-89655987D01*
X136814000Y-85556000D02*
X136905000Y-85465000D01*
X131650000Y-85130000D02*
X131170000Y-85130000D01*
X133225000Y-95625000D02*
X133240000Y-95640000D01*
X135448345Y-85465000D02*
X136905000Y-85465000D01*
X131940310Y-94340310D02*
X133225000Y-95625000D01*
X133400000Y-85130000D02*
X134639584Y-85130000D01*
X131660000Y-85130000D02*
X131650000Y-85130000D01*
X134639584Y-85130000D02*
G75*
G02*
X135050005Y-85299995I16J-580400D01*
G01*
X130000000Y-89655987D02*
G75*
G03*
X131940310Y-94340310I6624600J-13D01*
G01*
X135050000Y-85300000D02*
G75*
G03*
X135448345Y-85464981I398300J398300D01*
G01*
X131170000Y-85130000D02*
G75*
G03*
X130000000Y-86300000I0J-1170000D01*
G01*
%TO.N,/NSS1*%
X134100000Y-95110000D02*
X134100001Y-95109999D01*
X134100000Y-95110000D02*
X136005000Y-93205000D01*
%TO.N,/MOSI1*%
X138100000Y-93900000D02*
X138090000Y-93900000D01*
X133870000Y-98120000D02*
X138090000Y-93900000D01*
%TO.N,/MISO1*%
X133330000Y-97770000D02*
X137790000Y-93310000D01*
X133150000Y-97770000D02*
X133330000Y-97770000D01*
X137790000Y-93310000D02*
X137800000Y-93300000D01*
%TO.N,/MOSI2*%
X143850000Y-98520710D02*
X143847935Y-98430456D01*
X143835131Y-98325627D02*
X143835131Y-94900814D01*
X143847935Y-98430456D02*
X143835131Y-98325627D01*
X143850000Y-98560000D02*
X143800000Y-98510000D01*
X143850000Y-98560000D02*
X143850000Y-98520710D01*
X143835131Y-94900814D02*
G75*
G03*
X141830004Y-90059996I-6845931J14D01*
G01*
%TO.N,/NSS2*%
X142950000Y-85685563D02*
X141414437Y-84150000D01*
X141100000Y-84150000D02*
X141400001Y-84150000D01*
X144400000Y-98850000D02*
X144400000Y-98050000D01*
X140610304Y-90301840D02*
X142142884Y-88769260D01*
X140045000Y-91755000D02*
X140060000Y-91770000D01*
X143632537Y-99085000D02*
X143501724Y-99082955D01*
X144370000Y-98020000D02*
X144370000Y-98000000D01*
X140062270Y-91624911D02*
X140060000Y-91770000D01*
X144165000Y-99085000D02*
X143632537Y-99085000D01*
X144375000Y-98025000D02*
X144370000Y-98020000D01*
X140060000Y-93285521D02*
X140060000Y-91770000D01*
X143000000Y-86700000D02*
X143000000Y-85806273D01*
X141414437Y-84150000D02*
X141100000Y-84150000D01*
X142142884Y-88769260D02*
G75*
G03*
X142999993Y-86700000I-2069284J2069260D01*
G01*
X144400000Y-98050000D02*
G75*
G03*
X144370000Y-98020000I-30000J0D01*
G01*
X143358146Y-99071192D02*
G75*
G02*
X142219821Y-98499864I262554J1942792D01*
G01*
X142219843Y-98499843D02*
G75*
G02*
X140059996Y-93285521I5214357J5214343D01*
G01*
X143358146Y-99071192D02*
X143501724Y-99082955D01*
X144165000Y-99085000D02*
G75*
G03*
X144400000Y-98850000I0J235000D01*
G01*
X140065168Y-91477879D02*
G75*
G02*
X140610331Y-90301867I1887932J-160821D01*
G01*
X143000000Y-85806273D02*
G75*
G03*
X142949985Y-85685578I-170700J-27D01*
G01*
%TO.N,/SCK2*%
X141379289Y-93779289D02*
X141350000Y-93750000D01*
X142340624Y-97024824D02*
X142338024Y-97024824D01*
X142340624Y-97024824D02*
X142340624Y-96100156D01*
X140800000Y-92422183D02*
X140800000Y-92000000D01*
X141350000Y-93750000D02*
G75*
G02*
X140800007Y-92422183I1327800J1327800D01*
G01*
X142340624Y-96100156D02*
G75*
G03*
X141379272Y-93779306I-3282224J-44D01*
G01*
%TO.N,/INT2*%
X144400000Y-93750000D02*
X144380000Y-93730000D01*
X144400000Y-96490000D02*
X144400000Y-93750000D01*
%TO.N,/MISO2*%
X142997594Y-98242594D02*
X142997594Y-94784140D01*
X141230000Y-90516792D02*
X141230000Y-90490000D01*
X143125000Y-98370000D02*
X142997594Y-98242594D01*
X141230000Y-90460000D02*
X141230000Y-90490000D01*
X142997594Y-94784140D02*
G75*
G03*
X142300012Y-93099988I-2381694J40D01*
G01*
X142300000Y-93100000D02*
G75*
G02*
X141230004Y-90516792I2583200J2583200D01*
G01*
%TO.N,/SWCLK*%
X131560000Y-89200000D02*
X131904903Y-88855097D01*
X140237953Y-86262046D02*
X140750000Y-85750000D01*
X134090000Y-87950000D02*
X136162873Y-87950000D01*
X136162873Y-87950000D02*
G75*
G03*
X140237960Y-86262053I27J5763000D01*
G01*
X131904903Y-88855097D02*
G75*
G02*
X134090000Y-87950002I2185097J-2185103D01*
G01*
%TO.N,/SWDIO*%
X139880000Y-90050000D02*
X141800000Y-88130000D01*
X134100000Y-89200000D02*
X134950000Y-90050000D01*
X141800000Y-88130000D02*
X141820000Y-88110000D01*
X134950000Y-90050000D02*
X139880000Y-90050000D01*
%TD*%
%TA.AperFunction,Conductor*%
%TO.N,GND*%
G36*
X149249702Y-86836130D02*
G01*
X149271432Y-86857595D01*
X149294700Y-86887081D01*
X149298332Y-86891923D01*
X149747868Y-87522595D01*
X149751259Y-87527605D01*
X150169514Y-88179478D01*
X150172656Y-88184649D01*
X150482983Y-88724558D01*
X150499476Y-88786366D01*
X150497423Y-104218411D01*
X150480898Y-104280243D01*
X150170413Y-104819776D01*
X150167269Y-104824943D01*
X149748791Y-105476439D01*
X149745399Y-105481447D01*
X149295643Y-106111777D01*
X149292010Y-106116614D01*
X149271380Y-106142732D01*
X149214380Y-106183139D01*
X149144582Y-106186314D01*
X149084148Y-106151250D01*
X149052265Y-106089079D01*
X149050284Y-106058660D01*
X149051025Y-106045941D01*
X149051025Y-106045937D01*
X149030705Y-105697071D01*
X149030704Y-105697060D01*
X148970026Y-105352938D01*
X148970024Y-105352929D01*
X148869795Y-105018140D01*
X148731385Y-104697270D01*
X148731379Y-104697257D01*
X148556651Y-104394618D01*
X148347973Y-104114315D01*
X148339791Y-104105643D01*
X147089619Y-105355814D01*
X146999387Y-105231621D01*
X146860261Y-105092495D01*
X146736066Y-105002261D01*
X147983121Y-103755206D01*
X147983120Y-103755205D01*
X147840460Y-103635498D01*
X147548479Y-103443460D01*
X147236201Y-103286626D01*
X147236195Y-103286624D01*
X146907810Y-103167102D01*
X146907807Y-103167101D01*
X146567769Y-103086511D01*
X146220664Y-103045941D01*
X145871218Y-103045941D01*
X145524113Y-103086511D01*
X145524111Y-103086511D01*
X145184074Y-103167101D01*
X145184071Y-103167102D01*
X144855686Y-103286624D01*
X144855680Y-103286626D01*
X144543402Y-103443460D01*
X144251421Y-103635498D01*
X144108760Y-103755205D01*
X144108759Y-103755206D01*
X145355815Y-105002261D01*
X145231621Y-105092495D01*
X145092495Y-105231621D01*
X145002261Y-105355814D01*
X143752089Y-104105642D01*
X143752088Y-104105643D01*
X143743917Y-104114304D01*
X143743913Y-104114309D01*
X143535230Y-104394618D01*
X143360502Y-104697257D01*
X143360496Y-104697270D01*
X143222086Y-105018140D01*
X143121857Y-105352929D01*
X143121855Y-105352938D01*
X143061177Y-105697060D01*
X143061176Y-105697071D01*
X143040857Y-106045937D01*
X143040857Y-106045944D01*
X143061176Y-106394810D01*
X143061177Y-106394821D01*
X143121855Y-106738943D01*
X143121857Y-106738952D01*
X143222086Y-107073741D01*
X143360496Y-107394611D01*
X143360502Y-107394624D01*
X143535230Y-107697263D01*
X143743908Y-107977566D01*
X143752089Y-107986237D01*
X145002260Y-106736065D01*
X145092495Y-106860261D01*
X145231621Y-106999387D01*
X145355814Y-107089619D01*
X144108759Y-108336674D01*
X144108760Y-108336675D01*
X144251425Y-108456386D01*
X144543402Y-108648421D01*
X144855680Y-108805255D01*
X144855686Y-108805257D01*
X145184071Y-108924779D01*
X145184074Y-108924780D01*
X145524112Y-109005370D01*
X145871217Y-109045940D01*
X145871218Y-109045941D01*
X146068480Y-109045941D01*
X146135519Y-109065626D01*
X146181274Y-109118430D01*
X146191218Y-109187588D01*
X146162193Y-109251144D01*
X146144347Y-109268023D01*
X145980193Y-109394997D01*
X145975321Y-109398580D01*
X145340463Y-109841917D01*
X145335421Y-109845258D01*
X144679695Y-110257115D01*
X144674497Y-110260205D01*
X143999491Y-110639588D01*
X143994148Y-110642422D01*
X143301431Y-110988449D01*
X143295956Y-110991019D01*
X142587199Y-111302854D01*
X142581606Y-111305154D01*
X141858462Y-111582069D01*
X141852762Y-111584093D01*
X141117032Y-111825400D01*
X141111242Y-111827145D01*
X140364545Y-112032313D01*
X140358675Y-112033772D01*
X139602925Y-112202273D01*
X139596992Y-112203445D01*
X138833893Y-112334901D01*
X138827910Y-112335782D01*
X138059317Y-112429873D01*
X138053297Y-112430461D01*
X137281055Y-112486962D01*
X137275014Y-112487257D01*
X136500889Y-112506038D01*
X136494842Y-112506037D01*
X135720743Y-112487051D01*
X135714702Y-112486755D01*
X134942455Y-112430046D01*
X134936436Y-112429456D01*
X134167864Y-112335160D01*
X134161881Y-112334277D01*
X133398845Y-112202623D01*
X133392911Y-112201450D01*
X132637173Y-112032740D01*
X132631305Y-112031279D01*
X131884697Y-111825922D01*
X131878906Y-111824176D01*
X131143203Y-111582660D01*
X131137505Y-111580634D01*
X130414466Y-111303539D01*
X130408873Y-111301238D01*
X129700174Y-110989203D01*
X129694700Y-110986631D01*
X129002101Y-110640433D01*
X128996758Y-110637598D01*
X128321829Y-110258023D01*
X128316632Y-110254931D01*
X127661030Y-109842907D01*
X127655989Y-109839565D01*
X127021249Y-109396059D01*
X127016377Y-109392475D01*
X126855547Y-109268003D01*
X126814579Y-109211405D01*
X126810713Y-109141642D01*
X126845178Y-109080864D01*
X126907030Y-109048367D01*
X126931441Y-109045941D01*
X127128781Y-109045941D01*
X127128781Y-109045940D01*
X127475885Y-109005370D01*
X127475887Y-109005370D01*
X127815924Y-108924780D01*
X127815927Y-108924779D01*
X128144312Y-108805257D01*
X128144318Y-108805255D01*
X128456596Y-108648421D01*
X128748567Y-108456390D01*
X128748568Y-108456389D01*
X128891237Y-108336675D01*
X128891238Y-108336674D01*
X127644184Y-107089620D01*
X127768378Y-106999387D01*
X127907504Y-106860261D01*
X127997736Y-106736067D01*
X129247907Y-107986238D01*
X129247909Y-107986237D01*
X129256080Y-107977577D01*
X129256091Y-107977564D01*
X129464768Y-107697263D01*
X129639496Y-107394624D01*
X129639502Y-107394611D01*
X129777912Y-107073741D01*
X129878141Y-106738952D01*
X129878143Y-106738943D01*
X129938821Y-106394821D01*
X129938822Y-106394810D01*
X129959142Y-106045944D01*
X129959142Y-106045937D01*
X129938822Y-105697071D01*
X129938821Y-105697060D01*
X129878143Y-105352938D01*
X129878141Y-105352929D01*
X129777912Y-105018140D01*
X129639502Y-104697270D01*
X129639496Y-104697257D01*
X129464768Y-104394618D01*
X129256090Y-104114315D01*
X129247908Y-104105643D01*
X127997736Y-105355814D01*
X127907504Y-105231621D01*
X127768378Y-105092495D01*
X127644183Y-105002261D01*
X128891238Y-103755206D01*
X128891237Y-103755205D01*
X128748577Y-103635498D01*
X128456596Y-103443460D01*
X128144318Y-103286626D01*
X128144312Y-103286624D01*
X127815927Y-103167102D01*
X127815924Y-103167101D01*
X127475886Y-103086511D01*
X127128781Y-103045941D01*
X126779335Y-103045941D01*
X126432230Y-103086511D01*
X126432228Y-103086511D01*
X126092191Y-103167101D01*
X126092188Y-103167102D01*
X125763803Y-103286624D01*
X125763797Y-103286626D01*
X125451519Y-103443460D01*
X125159538Y-103635498D01*
X125016877Y-103755205D01*
X125016876Y-103755206D01*
X126263932Y-105002261D01*
X126139738Y-105092495D01*
X126000612Y-105231621D01*
X125910378Y-105355814D01*
X124660206Y-104105642D01*
X124660205Y-104105643D01*
X124652034Y-104114304D01*
X124652030Y-104114309D01*
X124443347Y-104394618D01*
X124268619Y-104697257D01*
X124268613Y-104697270D01*
X124130203Y-105018140D01*
X124029974Y-105352929D01*
X124029972Y-105352938D01*
X123969294Y-105697060D01*
X123969293Y-105697071D01*
X123948974Y-106045937D01*
X123948974Y-106045945D01*
X123949705Y-106058498D01*
X123933952Y-106126568D01*
X123883897Y-106175316D01*
X123815434Y-106189263D01*
X123750298Y-106163982D01*
X123728589Y-106142542D01*
X123708120Y-106116614D01*
X123705421Y-106113195D01*
X123701803Y-106108375D01*
X123252215Y-105477926D01*
X123248830Y-105472926D01*
X123042957Y-105152231D01*
X122830497Y-104821276D01*
X122827377Y-104816143D01*
X122584951Y-104394618D01*
X122517009Y-104276481D01*
X122500500Y-104214661D01*
X122500500Y-102927135D01*
X131649500Y-102927135D01*
X131649500Y-104472870D01*
X131649501Y-104472876D01*
X131655908Y-104532483D01*
X131706202Y-104667328D01*
X131706206Y-104667335D01*
X131792452Y-104782544D01*
X131792455Y-104782547D01*
X131907664Y-104868793D01*
X131907671Y-104868797D01*
X132042517Y-104919091D01*
X132042516Y-104919091D01*
X132049444Y-104919835D01*
X132102127Y-104925500D01*
X133397872Y-104925499D01*
X133457483Y-104919091D01*
X133592331Y-104868796D01*
X133707546Y-104782546D01*
X133793796Y-104667331D01*
X133844091Y-104532483D01*
X133844091Y-104532481D01*
X133845874Y-104524938D01*
X133849117Y-104525704D01*
X133870035Y-104475172D01*
X133927419Y-104435311D01*
X133997243Y-104432802D01*
X134057340Y-104468441D01*
X134077089Y-104496662D01*
X134095379Y-104532557D01*
X134220272Y-104704459D01*
X134220276Y-104704464D01*
X134370535Y-104854723D01*
X134370540Y-104854727D01*
X134542442Y-104979620D01*
X134731782Y-105076095D01*
X134933871Y-105141757D01*
X135000000Y-105152231D01*
X135000000Y-104104145D01*
X135066657Y-104142630D01*
X135187465Y-104175000D01*
X135312535Y-104175000D01*
X135433343Y-104142630D01*
X135500000Y-104104145D01*
X135500000Y-105152230D01*
X135566126Y-105141757D01*
X135566129Y-105141757D01*
X135768217Y-105076095D01*
X135957557Y-104979620D01*
X136129459Y-104854727D01*
X136129464Y-104854723D01*
X136279723Y-104704464D01*
X136279727Y-104704459D01*
X136404620Y-104532557D01*
X136501094Y-104343219D01*
X136516768Y-104294978D01*
X136556205Y-104237302D01*
X136620563Y-104210103D01*
X136689409Y-104222016D01*
X136740886Y-104269259D01*
X136745185Y-104276999D01*
X136808768Y-104401788D01*
X136910586Y-104541928D01*
X137033072Y-104664414D01*
X137173212Y-104766232D01*
X137327555Y-104844873D01*
X137492299Y-104898402D01*
X137663389Y-104925500D01*
X137663390Y-104925500D01*
X137836610Y-104925500D01*
X137836611Y-104925500D01*
X138007701Y-104898402D01*
X138172445Y-104844873D01*
X138326788Y-104766232D01*
X138466928Y-104664414D01*
X138589414Y-104541928D01*
X138691232Y-104401788D01*
X138769873Y-104247445D01*
X138823402Y-104082701D01*
X138850500Y-103911611D01*
X138850500Y-103488389D01*
X139149500Y-103488389D01*
X139149500Y-103911611D01*
X139176598Y-104082701D01*
X139230127Y-104247445D01*
X139308768Y-104401788D01*
X139410586Y-104541928D01*
X139533072Y-104664414D01*
X139673212Y-104766232D01*
X139827555Y-104844873D01*
X139992299Y-104898402D01*
X140163389Y-104925500D01*
X140163390Y-104925500D01*
X140336610Y-104925500D01*
X140336611Y-104925500D01*
X140507701Y-104898402D01*
X140672445Y-104844873D01*
X140826788Y-104766232D01*
X140966928Y-104664414D01*
X141089414Y-104541928D01*
X141191232Y-104401788D01*
X141269873Y-104247445D01*
X141323402Y-104082701D01*
X141350500Y-103911611D01*
X141350500Y-103488389D01*
X141323402Y-103317299D01*
X141269873Y-103152555D01*
X141191232Y-102998212D01*
X141089414Y-102858072D01*
X140966928Y-102735586D01*
X140826788Y-102633768D01*
X140672445Y-102555127D01*
X140507701Y-102501598D01*
X140507699Y-102501597D01*
X140507698Y-102501597D01*
X140376271Y-102480781D01*
X140336611Y-102474500D01*
X140163389Y-102474500D01*
X140123728Y-102480781D01*
X139992302Y-102501597D01*
X139827552Y-102555128D01*
X139673211Y-102633768D01*
X139593256Y-102691859D01*
X139533072Y-102735586D01*
X139533070Y-102735588D01*
X139533069Y-102735588D01*
X139410588Y-102858069D01*
X139410588Y-102858070D01*
X139410586Y-102858072D01*
X139366859Y-102918256D01*
X139308768Y-102998211D01*
X139230128Y-103152552D01*
X139176597Y-103317302D01*
X139176185Y-103319905D01*
X139149500Y-103488389D01*
X138850500Y-103488389D01*
X138823402Y-103317299D01*
X138769873Y-103152555D01*
X138691232Y-102998212D01*
X138589414Y-102858072D01*
X138466928Y-102735586D01*
X138326788Y-102633768D01*
X138172445Y-102555127D01*
X138007701Y-102501598D01*
X138007699Y-102501597D01*
X138007698Y-102501597D01*
X137876271Y-102480781D01*
X137836611Y-102474500D01*
X137663389Y-102474500D01*
X137623728Y-102480781D01*
X137492302Y-102501597D01*
X137327552Y-102555128D01*
X137173211Y-102633768D01*
X137093256Y-102691859D01*
X137033072Y-102735586D01*
X137033070Y-102735588D01*
X137033069Y-102735588D01*
X136910588Y-102858069D01*
X136910588Y-102858070D01*
X136910586Y-102858072D01*
X136866859Y-102918256D01*
X136808768Y-102998211D01*
X136745185Y-103123000D01*
X136697210Y-103173796D01*
X136629389Y-103190591D01*
X136563254Y-103168053D01*
X136519803Y-103113338D01*
X136516768Y-103105022D01*
X136501093Y-103056778D01*
X136404620Y-102867442D01*
X136279727Y-102695540D01*
X136279723Y-102695535D01*
X136129464Y-102545276D01*
X136129459Y-102545272D01*
X135957557Y-102420379D01*
X135768215Y-102323903D01*
X135566124Y-102258241D01*
X135500000Y-102247768D01*
X135500000Y-103295854D01*
X135433343Y-103257370D01*
X135312535Y-103225000D01*
X135187465Y-103225000D01*
X135066657Y-103257370D01*
X135000000Y-103295854D01*
X135000000Y-102247768D01*
X134999999Y-102247768D01*
X134933875Y-102258241D01*
X134731784Y-102323903D01*
X134542442Y-102420379D01*
X134370540Y-102545272D01*
X134370535Y-102545276D01*
X134220276Y-102695535D01*
X134220272Y-102695540D01*
X134095377Y-102867444D01*
X134077087Y-102903339D01*
X134029112Y-102954133D01*
X133961290Y-102970927D01*
X133895156Y-102948388D01*
X133851706Y-102893672D01*
X133846976Y-102874807D01*
X133845876Y-102875068D01*
X133844092Y-102867520D01*
X133840567Y-102858070D01*
X133793796Y-102732669D01*
X133793795Y-102732668D01*
X133793793Y-102732664D01*
X133707547Y-102617455D01*
X133707544Y-102617452D01*
X133592335Y-102531206D01*
X133592328Y-102531202D01*
X133457482Y-102480908D01*
X133457483Y-102480908D01*
X133397883Y-102474501D01*
X133397881Y-102474500D01*
X133397873Y-102474500D01*
X133397864Y-102474500D01*
X132102129Y-102474500D01*
X132102123Y-102474501D01*
X132042516Y-102480908D01*
X131907671Y-102531202D01*
X131907664Y-102531206D01*
X131792455Y-102617452D01*
X131792452Y-102617455D01*
X131706206Y-102732664D01*
X131706202Y-102732671D01*
X131655908Y-102867517D01*
X131649501Y-102927116D01*
X131649500Y-102927135D01*
X122500500Y-102927135D01*
X122500500Y-88786391D01*
X122516993Y-88724599D01*
X122524577Y-88711404D01*
X122827349Y-88184638D01*
X122830485Y-88179478D01*
X122834463Y-88173279D01*
X123248745Y-87527596D01*
X123252131Y-87522595D01*
X123523603Y-87141736D01*
X123701675Y-86891912D01*
X123705279Y-86887106D01*
X123728565Y-86857596D01*
X123785547Y-86817163D01*
X123855343Y-86813955D01*
X123915794Y-86848991D01*
X123947706Y-86911147D01*
X123949698Y-86941620D01*
X123948974Y-86954052D01*
X123948974Y-86954061D01*
X123969293Y-87302927D01*
X123969294Y-87302938D01*
X124029972Y-87647060D01*
X124029974Y-87647069D01*
X124130203Y-87981858D01*
X124268613Y-88302728D01*
X124268619Y-88302741D01*
X124443347Y-88605380D01*
X124652025Y-88885683D01*
X124660206Y-88894354D01*
X125910378Y-87644183D01*
X126000612Y-87768378D01*
X126139738Y-87907504D01*
X126263931Y-87997736D01*
X125016876Y-89244791D01*
X125016877Y-89244792D01*
X125159542Y-89364503D01*
X125451519Y-89556538D01*
X125763797Y-89713372D01*
X125763803Y-89713374D01*
X126092188Y-89832896D01*
X126092191Y-89832897D01*
X126432229Y-89913487D01*
X126779334Y-89954057D01*
X126779335Y-89954058D01*
X127128781Y-89954058D01*
X127128781Y-89954057D01*
X127475885Y-89913487D01*
X127475887Y-89913487D01*
X127815924Y-89832897D01*
X127815927Y-89832896D01*
X128144312Y-89713374D01*
X128144318Y-89713372D01*
X128456596Y-89556538D01*
X128748567Y-89364507D01*
X128748568Y-89364506D01*
X128891237Y-89244792D01*
X128891238Y-89244791D01*
X127644184Y-87997736D01*
X127768378Y-87907504D01*
X127907504Y-87768378D01*
X127997736Y-87644184D01*
X129247907Y-88894355D01*
X129247909Y-88894354D01*
X129256080Y-88885694D01*
X129256091Y-88885681D01*
X129401037Y-88690986D01*
X129456859Y-88648967D01*
X129526537Y-88643798D01*
X129587949Y-88677121D01*
X129621596Y-88738355D01*
X129624500Y-88765034D01*
X129624500Y-89905999D01*
X129660170Y-90404744D01*
X129731330Y-90899681D01*
X129837613Y-91388261D01*
X129837616Y-91388271D01*
X129882182Y-91540047D01*
X129978488Y-91868036D01*
X130151140Y-92330934D01*
X130153233Y-92336544D01*
X130360937Y-92791354D01*
X130360941Y-92791361D01*
X130600577Y-93230221D01*
X130600585Y-93230234D01*
X130870896Y-93650848D01*
X130870904Y-93650858D01*
X130870908Y-93650863D01*
X130870911Y-93650868D01*
X131170563Y-94051155D01*
X131498008Y-94429045D01*
X131498022Y-94429059D01*
X132694432Y-95625469D01*
X132727917Y-95686792D01*
X132729489Y-95695502D01*
X132739834Y-95767454D01*
X132739835Y-95767457D01*
X132799623Y-95898373D01*
X132893872Y-96007143D01*
X133014947Y-96084953D01*
X133014950Y-96084954D01*
X133014949Y-96084954D01*
X133153036Y-96125499D01*
X133153038Y-96125500D01*
X133194101Y-96125500D01*
X133261140Y-96145185D01*
X133306895Y-96197989D01*
X133316839Y-96267147D01*
X133287814Y-96330703D01*
X133281782Y-96337181D01*
X132950782Y-96668181D01*
X132889459Y-96701666D01*
X132863101Y-96704500D01*
X131727874Y-96704500D01*
X131660835Y-96684815D01*
X131660834Y-96684815D01*
X131560051Y-96620046D01*
X131560050Y-96620045D01*
X131421963Y-96579500D01*
X131421961Y-96579500D01*
X131278039Y-96579500D01*
X131278036Y-96579500D01*
X131139949Y-96620045D01*
X131018873Y-96697856D01*
X130924623Y-96806626D01*
X130924622Y-96806628D01*
X130864834Y-96937543D01*
X130844353Y-97080000D01*
X130864834Y-97222456D01*
X130924622Y-97353371D01*
X130924623Y-97353373D01*
X131018872Y-97462143D01*
X131139947Y-97539953D01*
X131139950Y-97539954D01*
X131139949Y-97539954D01*
X131278036Y-97580499D01*
X131278038Y-97580500D01*
X131278039Y-97580500D01*
X131421962Y-97580500D01*
X131421962Y-97580499D01*
X131529121Y-97549035D01*
X131560050Y-97539954D01*
X131560050Y-97539953D01*
X131560053Y-97539953D01*
X131660834Y-97475184D01*
X131727874Y-97455500D01*
X132530457Y-97455500D01*
X132597496Y-97475185D01*
X132643251Y-97527989D01*
X132653195Y-97597147D01*
X132646812Y-97618883D01*
X132647333Y-97619036D01*
X132644834Y-97627542D01*
X132624353Y-97770000D01*
X132644834Y-97912456D01*
X132654899Y-97934494D01*
X132704623Y-98043373D01*
X132798872Y-98152143D01*
X132919947Y-98229953D01*
X132919950Y-98229954D01*
X132919949Y-98229954D01*
X133058036Y-98270499D01*
X133058038Y-98270500D01*
X133058039Y-98270500D01*
X133201962Y-98270500D01*
X133201962Y-98270499D01*
X133229374Y-98262451D01*
X133263358Y-98252473D01*
X133333227Y-98252473D01*
X133392005Y-98290248D01*
X133411085Y-98319937D01*
X133444623Y-98393373D01*
X133538872Y-98502143D01*
X133659947Y-98579953D01*
X133659950Y-98579954D01*
X133659949Y-98579954D01*
X133798036Y-98620499D01*
X133798038Y-98620500D01*
X133798039Y-98620500D01*
X133941962Y-98620500D01*
X133941962Y-98620499D01*
X134080053Y-98579953D01*
X134201128Y-98502143D01*
X134295377Y-98393373D01*
X134355165Y-98262457D01*
X134365509Y-98190502D01*
X134394533Y-98126949D01*
X134400552Y-98120483D01*
X138084218Y-94436819D01*
X138145541Y-94403334D01*
X138171899Y-94400500D01*
X138171962Y-94400500D01*
X138171962Y-94400499D01*
X138310053Y-94359953D01*
X138431128Y-94282143D01*
X138525377Y-94173373D01*
X138585165Y-94042457D01*
X138605647Y-93900000D01*
X138585165Y-93757543D01*
X138525377Y-93626627D01*
X138431128Y-93517857D01*
X138346788Y-93463655D01*
X138301034Y-93410852D01*
X138291090Y-93341693D01*
X138293153Y-93327343D01*
X138295647Y-93310000D01*
X138275165Y-93167543D01*
X138215377Y-93036627D01*
X138121128Y-92927857D01*
X138000053Y-92850047D01*
X138000051Y-92850046D01*
X138000049Y-92850045D01*
X138000050Y-92850045D01*
X137861963Y-92809500D01*
X137861961Y-92809500D01*
X137718039Y-92809500D01*
X137718036Y-92809500D01*
X137579949Y-92850045D01*
X137458872Y-92927857D01*
X137458869Y-92927859D01*
X137418044Y-92974974D01*
X137359266Y-93012748D01*
X137289396Y-93012748D01*
X137230619Y-92974973D01*
X137181129Y-92917858D01*
X137181128Y-92917857D01*
X137060053Y-92840047D01*
X137060051Y-92840046D01*
X137060049Y-92840045D01*
X137060050Y-92840045D01*
X136921963Y-92799500D01*
X136921961Y-92799500D01*
X136778039Y-92799500D01*
X136778036Y-92799500D01*
X136639949Y-92840045D01*
X136639946Y-92840046D01*
X136544754Y-92901222D01*
X136477715Y-92920906D01*
X136410676Y-92901221D01*
X136384003Y-92878108D01*
X136336129Y-92822858D01*
X136336128Y-92822857D01*
X136215053Y-92745047D01*
X136215051Y-92745046D01*
X136215049Y-92745045D01*
X136215050Y-92745045D01*
X136076963Y-92704500D01*
X136076961Y-92704500D01*
X135933039Y-92704500D01*
X135933036Y-92704500D01*
X135794949Y-92745045D01*
X135673873Y-92822856D01*
X135579623Y-92931626D01*
X135579622Y-92931628D01*
X135519835Y-93062541D01*
X135519834Y-93062546D01*
X135509489Y-93134495D01*
X135480463Y-93198051D01*
X135474432Y-93204528D01*
X134105602Y-94573360D01*
X134044279Y-94606845D01*
X134035571Y-94608416D01*
X134028041Y-94609498D01*
X133889949Y-94650045D01*
X133768873Y-94727856D01*
X133674623Y-94836626D01*
X133674622Y-94836628D01*
X133614834Y-94967543D01*
X133600672Y-95066049D01*
X133571647Y-95129605D01*
X133512869Y-95167379D01*
X133443000Y-95167379D01*
X133296965Y-95124500D01*
X133289429Y-95123417D01*
X133225874Y-95094391D01*
X133219397Y-95088360D01*
X132207416Y-94076379D01*
X132204342Y-94073194D01*
X132173284Y-94039836D01*
X131904862Y-93751531D01*
X131899067Y-93744842D01*
X131876435Y-93716758D01*
X131674652Y-93466361D01*
X131624725Y-93404405D01*
X131619420Y-93397319D01*
X131370056Y-93038168D01*
X131365270Y-93030722D01*
X131340805Y-92989489D01*
X131142153Y-92654679D01*
X131137914Y-92646915D01*
X131136371Y-92643833D01*
X130982553Y-92336544D01*
X130942200Y-92255929D01*
X130938523Y-92247877D01*
X130771199Y-91843921D01*
X130768106Y-91835627D01*
X130667307Y-91532772D01*
X130630029Y-91420770D01*
X130627537Y-91412283D01*
X130625072Y-91402627D01*
X130519404Y-90988625D01*
X130517524Y-90979982D01*
X130503036Y-90899681D01*
X130439892Y-90549690D01*
X130438633Y-90540934D01*
X130428339Y-90445185D01*
X130391891Y-90106174D01*
X130391263Y-90097380D01*
X130381872Y-89834419D01*
X130399151Y-89766722D01*
X130450289Y-89719112D01*
X130519048Y-89706707D01*
X130583600Y-89733445D01*
X130616793Y-89774723D01*
X130620328Y-89781823D01*
X130743237Y-89944581D01*
X130893958Y-90081980D01*
X130893960Y-90081982D01*
X130918800Y-90097362D01*
X131067363Y-90189348D01*
X131257544Y-90263024D01*
X131458024Y-90300500D01*
X131458026Y-90300500D01*
X131661974Y-90300500D01*
X131661976Y-90300500D01*
X131862456Y-90263024D01*
X132052637Y-90189348D01*
X132226041Y-90081981D01*
X132376764Y-89944579D01*
X132499673Y-89781821D01*
X132590582Y-89599250D01*
X132646397Y-89403083D01*
X132665215Y-89200000D01*
X132646397Y-88996917D01*
X132610498Y-88870746D01*
X132611084Y-88800881D01*
X132649351Y-88742422D01*
X132669778Y-88728288D01*
X132906059Y-88597701D01*
X132918566Y-88591678D01*
X132933606Y-88585448D01*
X133003074Y-88577980D01*
X133065553Y-88609255D01*
X133101205Y-88669344D01*
X133098711Y-88739169D01*
X133092058Y-88755280D01*
X133069423Y-88800738D01*
X133069417Y-88800752D01*
X133013602Y-88996917D01*
X132994785Y-89199999D01*
X132994785Y-89200000D01*
X133013602Y-89403082D01*
X133069417Y-89599247D01*
X133069422Y-89599260D01*
X133160327Y-89781821D01*
X133283237Y-89944581D01*
X133433958Y-90081980D01*
X133433960Y-90081982D01*
X133458800Y-90097362D01*
X133607363Y-90189348D01*
X133797544Y-90263024D01*
X133998024Y-90300500D01*
X133998026Y-90300500D01*
X134201974Y-90300500D01*
X134201976Y-90300500D01*
X134402456Y-90263024D01*
X134492556Y-90228118D01*
X134562174Y-90222256D01*
X134623914Y-90254965D01*
X134625027Y-90256064D01*
X134719438Y-90350475D01*
X134805063Y-90399911D01*
X134900564Y-90425500D01*
X134900565Y-90425500D01*
X134900566Y-90425500D01*
X139819001Y-90425500D01*
X139886040Y-90445185D01*
X139931795Y-90497989D01*
X139941739Y-90567147D01*
X139931501Y-90601651D01*
X139837766Y-90803852D01*
X139755142Y-91055101D01*
X139702250Y-91314235D01*
X139702248Y-91314250D01*
X139695814Y-91389767D01*
X139670510Y-91454893D01*
X139665977Y-91460440D01*
X139634625Y-91496623D01*
X139634622Y-91496628D01*
X139574834Y-91627543D01*
X139554353Y-91770000D01*
X139574834Y-91912456D01*
X139634622Y-92043371D01*
X139634623Y-92043373D01*
X139654212Y-92065980D01*
X139683238Y-92129534D01*
X139684500Y-92147183D01*
X139684500Y-93234156D01*
X139684496Y-93234169D01*
X139684496Y-93539225D01*
X139717681Y-94045520D01*
X139717681Y-94045522D01*
X139783911Y-94548581D01*
X139783913Y-94548592D01*
X139882899Y-95046220D01*
X139882901Y-95046230D01*
X140014225Y-95536336D01*
X140014227Y-95536343D01*
X140177322Y-96016800D01*
X140177326Y-96016811D01*
X140371496Y-96485578D01*
X140595909Y-96940644D01*
X140849602Y-97380052D01*
X140849618Y-97380077D01*
X141131502Y-97801946D01*
X141431689Y-98193158D01*
X141440384Y-98204489D01*
X141769657Y-98579954D01*
X141774937Y-98585974D01*
X141950436Y-98761473D01*
X141951359Y-98762406D01*
X142041695Y-98854675D01*
X142041699Y-98854678D01*
X142041702Y-98854681D01*
X142241282Y-99017973D01*
X142457621Y-99158308D01*
X142688091Y-99273981D01*
X142929891Y-99363587D01*
X143180085Y-99426037D01*
X143250041Y-99435492D01*
X143265152Y-99439361D01*
X143265212Y-99439100D01*
X143273853Y-99441069D01*
X143273854Y-99441069D01*
X143273857Y-99441070D01*
X143314471Y-99444378D01*
X143320989Y-99445083D01*
X143361359Y-99450539D01*
X143361366Y-99450537D01*
X143370232Y-99450463D01*
X143370234Y-99450745D01*
X143385805Y-99450202D01*
X143388192Y-99450397D01*
X143422133Y-99453178D01*
X143445981Y-99457509D01*
X143446426Y-99457636D01*
X143479231Y-99458148D01*
X143487449Y-99458551D01*
X143524687Y-99461620D01*
X143524693Y-99461618D01*
X143527763Y-99461433D01*
X143550754Y-99459266D01*
X143569684Y-99459562D01*
X143582435Y-99460500D01*
X143583102Y-99460500D01*
X143628620Y-99460500D01*
X143630558Y-99460515D01*
X143634091Y-99460570D01*
X143676097Y-99461227D01*
X143676097Y-99461226D01*
X143676753Y-99461237D01*
X143689531Y-99460500D01*
X144233787Y-99460500D01*
X144367911Y-99429887D01*
X144491861Y-99370196D01*
X144599420Y-99284420D01*
X144685196Y-99176861D01*
X144744887Y-99052911D01*
X144775500Y-98918787D01*
X144775500Y-98850000D01*
X144775500Y-98796011D01*
X144775500Y-98360711D01*
X144792760Y-98301927D01*
X144791693Y-98301440D01*
X144795084Y-98294012D01*
X144795185Y-98293672D01*
X144795188Y-98293666D01*
X144795372Y-98293378D01*
X144795377Y-98293373D01*
X144855165Y-98162457D01*
X144875647Y-98020000D01*
X144855165Y-97877543D01*
X144795377Y-97746627D01*
X144701128Y-97637857D01*
X144580053Y-97560047D01*
X144580051Y-97560046D01*
X144580049Y-97560045D01*
X144580050Y-97560045D01*
X144441963Y-97519500D01*
X144441961Y-97519500D01*
X144334631Y-97519500D01*
X144267592Y-97499815D01*
X144221837Y-97447011D01*
X144210631Y-97395500D01*
X144210631Y-97104500D01*
X144230316Y-97037461D01*
X144283120Y-96991706D01*
X144334631Y-96980500D01*
X144461962Y-96980500D01*
X144461962Y-96980499D01*
X144600053Y-96939953D01*
X144721128Y-96862143D01*
X144815377Y-96753373D01*
X144875165Y-96622457D01*
X144895647Y-96480000D01*
X144875165Y-96337543D01*
X144815377Y-96206627D01*
X144805785Y-96195557D01*
X144776762Y-96132000D01*
X144775500Y-96114356D01*
X144775500Y-94084102D01*
X144795185Y-94017063D01*
X144805034Y-94003904D01*
X144805371Y-94003378D01*
X144805377Y-94003373D01*
X144865165Y-93872457D01*
X144885647Y-93730000D01*
X144865165Y-93587543D01*
X144805377Y-93456627D01*
X144711128Y-93347857D01*
X144590053Y-93270047D01*
X144590051Y-93270046D01*
X144590049Y-93270045D01*
X144590050Y-93270045D01*
X144451963Y-93229500D01*
X144451961Y-93229500D01*
X144308039Y-93229500D01*
X144308036Y-93229500D01*
X144161437Y-93272545D01*
X144160445Y-93269167D01*
X144107889Y-93276663D01*
X144044366Y-93247566D01*
X144006658Y-93188745D01*
X144005915Y-93186092D01*
X143903378Y-92803417D01*
X143903375Y-92803407D01*
X143903375Y-92803406D01*
X143751402Y-92355708D01*
X143751394Y-92355688D01*
X143743980Y-92337789D01*
X143570462Y-91918877D01*
X143513720Y-91803816D01*
X143361343Y-91494824D01*
X143124943Y-91085366D01*
X143124927Y-91085341D01*
X142862257Y-90692228D01*
X142574434Y-90317129D01*
X142526984Y-90263023D01*
X142357310Y-90069547D01*
X142327908Y-90006166D01*
X142327801Y-90005435D01*
X142315165Y-89917543D01*
X142276508Y-89832896D01*
X142255379Y-89786630D01*
X142255376Y-89786626D01*
X142251214Y-89781823D01*
X142161128Y-89677857D01*
X142049621Y-89606196D01*
X142003867Y-89553393D01*
X141993923Y-89484234D01*
X142022948Y-89420679D01*
X142028966Y-89414214D01*
X142372080Y-89071101D01*
X142372102Y-89071088D01*
X142408408Y-89034781D01*
X142408409Y-89034782D01*
X142523109Y-88920081D01*
X142728919Y-88669299D01*
X142909156Y-88399552D01*
X143060742Y-88115952D01*
X143109703Y-88066110D01*
X143177841Y-88050649D01*
X143243520Y-88074480D01*
X143283958Y-88125293D01*
X143360496Y-88302728D01*
X143360502Y-88302741D01*
X143535230Y-88605380D01*
X143743908Y-88885683D01*
X143752089Y-88894354D01*
X145002260Y-87644182D01*
X145092495Y-87768378D01*
X145231621Y-87907504D01*
X145355814Y-87997736D01*
X144108759Y-89244791D01*
X144108760Y-89244792D01*
X144251425Y-89364503D01*
X144543402Y-89556538D01*
X144855680Y-89713372D01*
X144855686Y-89713374D01*
X145184071Y-89832896D01*
X145184074Y-89832897D01*
X145524112Y-89913487D01*
X145871217Y-89954057D01*
X145871218Y-89954058D01*
X146220664Y-89954058D01*
X146220664Y-89954057D01*
X146567768Y-89913487D01*
X146567770Y-89913487D01*
X146907807Y-89832897D01*
X146907810Y-89832896D01*
X147236195Y-89713374D01*
X147236201Y-89713372D01*
X147548479Y-89556538D01*
X147840450Y-89364507D01*
X147840451Y-89364506D01*
X147983120Y-89244792D01*
X147983121Y-89244791D01*
X146736067Y-87997736D01*
X146860261Y-87907504D01*
X146999387Y-87768378D01*
X147089620Y-87644184D01*
X148339791Y-88894355D01*
X148339792Y-88894354D01*
X148347963Y-88885694D01*
X148347974Y-88885681D01*
X148556651Y-88605380D01*
X148731379Y-88302741D01*
X148731385Y-88302728D01*
X148869795Y-87981858D01*
X148970024Y-87647069D01*
X148970026Y-87647060D01*
X149030704Y-87302938D01*
X149030705Y-87302927D01*
X149051024Y-86954062D01*
X149050300Y-86941626D01*
X149066050Y-86873555D01*
X149116102Y-86824804D01*
X149184565Y-86810853D01*
X149249702Y-86836130D01*
G37*
%TD.AperFunction*%
%TA.AperFunction,Conductor*%
G36*
X140645761Y-93423611D02*
G01*
X140679675Y-93466361D01*
X140702553Y-93513868D01*
X140773455Y-93626708D01*
X140837205Y-93728166D01*
X140980268Y-93907562D01*
X140995002Y-93926038D01*
X141045185Y-93976221D01*
X141045206Y-93976244D01*
X141067039Y-93998077D01*
X141067043Y-93998082D01*
X141108799Y-94039836D01*
X141111605Y-94042642D01*
X141115786Y-94047032D01*
X141230296Y-94173373D01*
X141301246Y-94251653D01*
X141308965Y-94261060D01*
X141471627Y-94480382D01*
X141478388Y-94490499D01*
X141618782Y-94724726D01*
X141624518Y-94735458D01*
X141741270Y-94982305D01*
X141745927Y-94993547D01*
X141837921Y-95250644D01*
X141841454Y-95262289D01*
X141907809Y-95527182D01*
X141910183Y-95539117D01*
X141950253Y-95809226D01*
X141951446Y-95821336D01*
X141964975Y-96096639D01*
X141965124Y-96102725D01*
X141965124Y-96647639D01*
X141945439Y-96714678D01*
X141934839Y-96728840D01*
X141915247Y-96751451D01*
X141915246Y-96751452D01*
X141855458Y-96882367D01*
X141834977Y-97024824D01*
X141843695Y-97085462D01*
X141833751Y-97154620D01*
X141787996Y-97207424D01*
X141720956Y-97227108D01*
X141653917Y-97207423D01*
X141619101Y-97173828D01*
X141570966Y-97104500D01*
X141549044Y-97072926D01*
X141544259Y-97065482D01*
X141293837Y-96643418D01*
X141289598Y-96635654D01*
X141261489Y-96579500D01*
X141069937Y-96196826D01*
X141066263Y-96188781D01*
X141042743Y-96132000D01*
X140878460Y-95735386D01*
X140875368Y-95727094D01*
X140812803Y-95539117D01*
X140720392Y-95261469D01*
X140717900Y-95252983D01*
X140717303Y-95250644D01*
X140596532Y-94777470D01*
X140594659Y-94768862D01*
X140507517Y-94285873D01*
X140506260Y-94277119D01*
X140504533Y-94261060D01*
X140453802Y-93789205D01*
X140453171Y-93780381D01*
X140452355Y-93757543D01*
X140444034Y-93524586D01*
X140461313Y-93456890D01*
X140512450Y-93409279D01*
X140581209Y-93396873D01*
X140645761Y-93423611D01*
G37*
%TD.AperFunction*%
%TA.AperFunction,Conductor*%
G36*
X142023655Y-86318552D02*
G01*
X142052680Y-86382108D01*
X142053942Y-86399755D01*
X142053942Y-86931427D01*
X142034257Y-86998466D01*
X142017623Y-87019108D01*
X141944108Y-87092623D01*
X141882785Y-87126108D01*
X141856427Y-87128942D01*
X141566122Y-87128942D01*
X141518370Y-87141737D01*
X141518369Y-87141736D01*
X141470624Y-87154530D01*
X141470617Y-87154533D01*
X141446684Y-87168350D01*
X141427808Y-87179249D01*
X141417726Y-87185070D01*
X141384998Y-87203964D01*
X141384993Y-87203968D01*
X139760784Y-88828179D01*
X139699461Y-88861664D01*
X139673103Y-88864498D01*
X138103036Y-88864498D01*
X138035997Y-88844813D01*
X137990242Y-88792009D01*
X137980298Y-88722851D01*
X138009323Y-88659295D01*
X138068101Y-88621521D01*
X138070943Y-88620723D01*
X138113742Y-88609255D01*
X138189720Y-88588897D01*
X138189729Y-88588894D01*
X138189730Y-88588894D01*
X138637924Y-88436753D01*
X138637922Y-88436753D01*
X138637936Y-88436749D01*
X139075240Y-88255613D01*
X139499762Y-88046264D01*
X139909683Y-87809598D01*
X140303247Y-87546628D01*
X140678770Y-87258482D01*
X141034643Y-86946392D01*
X141201993Y-86779044D01*
X141240169Y-86740868D01*
X141444399Y-86536637D01*
X141505720Y-86503154D01*
X141514436Y-86501581D01*
X141521954Y-86500500D01*
X141521961Y-86500500D01*
X141521968Y-86500498D01*
X141660050Y-86459954D01*
X141660050Y-86459953D01*
X141660053Y-86459953D01*
X141781128Y-86382143D01*
X141836230Y-86318551D01*
X141895007Y-86280778D01*
X141964877Y-86280778D01*
X142023655Y-86318552D01*
G37*
%TD.AperFunction*%
%TA.AperFunction,Conductor*%
G36*
X130568385Y-87716650D02*
G01*
X130612260Y-87745966D01*
X130612262Y-87745966D01*
X130612263Y-87745967D01*
X130685321Y-87760499D01*
X130685324Y-87760500D01*
X132378874Y-87760500D01*
X132445913Y-87780185D01*
X132491668Y-87832989D01*
X132501612Y-87902147D01*
X132472587Y-87965703D01*
X132437327Y-87993858D01*
X132306140Y-88063978D01*
X132306127Y-88063986D01*
X132127738Y-88183181D01*
X132061061Y-88204058D01*
X132014054Y-88195705D01*
X131985515Y-88184649D01*
X131862456Y-88136976D01*
X131661976Y-88099500D01*
X131458024Y-88099500D01*
X131257544Y-88136976D01*
X131257541Y-88136976D01*
X131257541Y-88136977D01*
X131067364Y-88210651D01*
X131067357Y-88210655D01*
X130893960Y-88318017D01*
X130893958Y-88318019D01*
X130743237Y-88455418D01*
X130620327Y-88618178D01*
X130610500Y-88637914D01*
X130562997Y-88689151D01*
X130495334Y-88706572D01*
X130428993Y-88684646D01*
X130385039Y-88630334D01*
X130375500Y-88582642D01*
X130375500Y-87819755D01*
X130395185Y-87752716D01*
X130447989Y-87706961D01*
X130517147Y-87697017D01*
X130568385Y-87716650D01*
G37*
%TD.AperFunction*%
%TA.AperFunction,Conductor*%
G36*
X132865703Y-87232968D02*
G01*
X132896882Y-87274277D01*
X132926398Y-87337575D01*
X132926399Y-87337577D01*
X133061894Y-87531082D01*
X133068555Y-87537743D01*
X133102040Y-87599066D01*
X133097056Y-87668758D01*
X133055184Y-87724691D01*
X133016870Y-87744084D01*
X132921039Y-87773154D01*
X132765535Y-87837566D01*
X132696065Y-87845035D01*
X132633586Y-87813760D01*
X132597934Y-87753671D01*
X132600428Y-87683846D01*
X132614980Y-87654114D01*
X132645966Y-87607740D01*
X132660500Y-87534674D01*
X132660500Y-87326681D01*
X132680185Y-87259642D01*
X132732989Y-87213887D01*
X132802147Y-87203943D01*
X132865703Y-87232968D01*
G37*
%TD.AperFunction*%
%TA.AperFunction,Conductor*%
G36*
X137277297Y-80511382D02*
G01*
X137283332Y-80511676D01*
X138055794Y-80568318D01*
X138061781Y-80568905D01*
X138830531Y-80663154D01*
X138836498Y-80664033D01*
X139599795Y-80795678D01*
X139605670Y-80796841D01*
X140361600Y-80965552D01*
X140367434Y-80967004D01*
X141114233Y-81172387D01*
X141120021Y-81174131D01*
X141855911Y-81415696D01*
X141861604Y-81417721D01*
X142584806Y-81694881D01*
X142590399Y-81697182D01*
X143299253Y-82009303D01*
X143304720Y-82011872D01*
X143997466Y-82358178D01*
X144002810Y-82361014D01*
X144677886Y-82740723D01*
X144683051Y-82743797D01*
X145338801Y-83155983D01*
X145343804Y-83159300D01*
X145978659Y-83602974D01*
X145983516Y-83606547D01*
X146145583Y-83732006D01*
X146186544Y-83788607D01*
X146190402Y-83858370D01*
X146155930Y-83919144D01*
X146094074Y-83951634D01*
X146069677Y-83954058D01*
X145871218Y-83954058D01*
X145524113Y-83994628D01*
X145524111Y-83994628D01*
X145184074Y-84075218D01*
X145184071Y-84075219D01*
X144855686Y-84194741D01*
X144855680Y-84194743D01*
X144543402Y-84351577D01*
X144251421Y-84543615D01*
X144108760Y-84663322D01*
X144108759Y-84663323D01*
X145355814Y-85910378D01*
X145231621Y-86000612D01*
X145092495Y-86139738D01*
X145002261Y-86263931D01*
X143752089Y-85013759D01*
X143752088Y-85013760D01*
X143743917Y-85022421D01*
X143743913Y-85022426D01*
X143535233Y-85302732D01*
X143455838Y-85440247D01*
X143405271Y-85488462D01*
X143336663Y-85501684D01*
X143271799Y-85475716D01*
X143257986Y-85462190D01*
X143257832Y-85462345D01*
X143217424Y-85421949D01*
X143217424Y-85421948D01*
X143217410Y-85421936D01*
X141645000Y-83849526D01*
X141644999Y-83849525D01*
X141559375Y-83800090D01*
X141511623Y-83787295D01*
X141511621Y-83787294D01*
X141511619Y-83787293D01*
X141463870Y-83774499D01*
X141463192Y-83774410D01*
X141462252Y-83774065D01*
X141456024Y-83772397D01*
X141456173Y-83771839D01*
X141412348Y-83755788D01*
X141375341Y-83732005D01*
X141310053Y-83690047D01*
X141310051Y-83690046D01*
X141310049Y-83690045D01*
X141310050Y-83690045D01*
X141171963Y-83649500D01*
X141171961Y-83649500D01*
X141028039Y-83649500D01*
X141028036Y-83649500D01*
X140889949Y-83690045D01*
X140768873Y-83767856D01*
X140674623Y-83876626D01*
X140674621Y-83876630D01*
X140665950Y-83895616D01*
X140620194Y-83948419D01*
X140553154Y-83968102D01*
X140518223Y-83963079D01*
X140471963Y-83949496D01*
X140471961Y-83949496D01*
X140328039Y-83949496D01*
X140328036Y-83949496D01*
X140189949Y-83990041D01*
X140068873Y-84067852D01*
X139974623Y-84176622D01*
X139974622Y-84176624D01*
X139914834Y-84307539D01*
X139894353Y-84449996D01*
X139914834Y-84592452D01*
X139950270Y-84670045D01*
X139974623Y-84723369D01*
X140068872Y-84832139D01*
X140189947Y-84909949D01*
X140189950Y-84909950D01*
X140189949Y-84909950D01*
X140292548Y-84940075D01*
X140328039Y-84950496D01*
X140328043Y-84950496D01*
X140336816Y-84951758D01*
X140336300Y-84955342D01*
X140386835Y-84970181D01*
X140394016Y-84975230D01*
X140404497Y-84981281D01*
X140480067Y-85024911D01*
X140556873Y-85045490D01*
X140616533Y-85081855D01*
X140647062Y-85144701D01*
X140638768Y-85214077D01*
X140594283Y-85267955D01*
X140559715Y-85284242D01*
X140539948Y-85290046D01*
X140418873Y-85367856D01*
X140324623Y-85476626D01*
X140324622Y-85476628D01*
X140264835Y-85607541D01*
X140264834Y-85607546D01*
X140254489Y-85679495D01*
X140225463Y-85743051D01*
X140219432Y-85749528D01*
X139974172Y-85994789D01*
X139970662Y-85998164D01*
X139665374Y-86280369D01*
X139657971Y-86286692D01*
X139333412Y-86542555D01*
X139325535Y-86548278D01*
X138981908Y-86777882D01*
X138973606Y-86782970D01*
X138613012Y-86984912D01*
X138604337Y-86989332D01*
X138229016Y-87162357D01*
X138220020Y-87166083D01*
X137832287Y-87309124D01*
X137823027Y-87312133D01*
X137425248Y-87424317D01*
X137415781Y-87426589D01*
X137010459Y-87507211D01*
X137000842Y-87508735D01*
X136590402Y-87557312D01*
X136580696Y-87558075D01*
X136165054Y-87574404D01*
X136160186Y-87574500D01*
X135345908Y-87574500D01*
X135278869Y-87554815D01*
X135233114Y-87502011D01*
X135223170Y-87432853D01*
X135244333Y-87379377D01*
X135273597Y-87337583D01*
X135273599Y-87337579D01*
X135373429Y-87123492D01*
X135373432Y-87123486D01*
X135430636Y-86910000D01*
X134533012Y-86910000D01*
X134565925Y-86852993D01*
X134600000Y-86725826D01*
X134600000Y-86594174D01*
X134565925Y-86467007D01*
X134533012Y-86410000D01*
X135430636Y-86410000D01*
X135430635Y-86409999D01*
X135373432Y-86196513D01*
X135373429Y-86196507D01*
X135289681Y-86016907D01*
X135279189Y-85947829D01*
X135307709Y-85884045D01*
X135366185Y-85845806D01*
X135402050Y-85840503D01*
X135448369Y-85840500D01*
X135448378Y-85840500D01*
X136522543Y-85840500D01*
X136584540Y-85857111D01*
X136589894Y-85860202D01*
X136629648Y-85883153D01*
X136634639Y-85886195D01*
X136694947Y-85924953D01*
X136833036Y-85965499D01*
X136833038Y-85965500D01*
X136833039Y-85965500D01*
X136976962Y-85965500D01*
X136976962Y-85965499D01*
X137115053Y-85924953D01*
X137236128Y-85847143D01*
X137330377Y-85738373D01*
X137390165Y-85607457D01*
X137410647Y-85465000D01*
X137390165Y-85322543D01*
X137330377Y-85191627D01*
X137236128Y-85082857D01*
X137115053Y-85005047D01*
X137115051Y-85005046D01*
X137115049Y-85005045D01*
X137115050Y-85005045D01*
X136976963Y-84964500D01*
X136976961Y-84964500D01*
X136833039Y-84964500D01*
X136833036Y-84964500D01*
X136694949Y-85005045D01*
X136694948Y-85005046D01*
X136594166Y-85069815D01*
X136527126Y-85089500D01*
X135510974Y-85089500D01*
X135510901Y-85089495D01*
X135456441Y-85089499D01*
X135440253Y-85088439D01*
X135433553Y-85087557D01*
X135415885Y-85085232D01*
X135384624Y-85076857D01*
X135369495Y-85070592D01*
X135341452Y-85054404D01*
X135322109Y-85039562D01*
X135309912Y-85028865D01*
X135262329Y-84981281D01*
X135262327Y-84981280D01*
X135262326Y-84981279D01*
X135262325Y-84981278D01*
X135140594Y-84892837D01*
X135140590Y-84892835D01*
X135140586Y-84892832D01*
X135006524Y-84824527D01*
X134869091Y-84779875D01*
X134863422Y-84778033D01*
X134863420Y-84778032D01*
X134863421Y-84778032D01*
X134714807Y-84754498D01*
X134639574Y-84754500D01*
X133777874Y-84754500D01*
X133710835Y-84734815D01*
X133710834Y-84734815D01*
X133693024Y-84723369D01*
X133610053Y-84670047D01*
X133610052Y-84670046D01*
X133610051Y-84670046D01*
X133610050Y-84670045D01*
X133471963Y-84629500D01*
X133471961Y-84629500D01*
X133328039Y-84629500D01*
X133328036Y-84629500D01*
X133189949Y-84670045D01*
X133068873Y-84747856D01*
X132974623Y-84856626D01*
X132974622Y-84856628D01*
X132914834Y-84987543D01*
X132894353Y-85130000D01*
X132914834Y-85272456D01*
X132965770Y-85383988D01*
X132974623Y-85403373D01*
X133068872Y-85512143D01*
X133103667Y-85534504D01*
X133149422Y-85587308D01*
X133159366Y-85656466D01*
X133130341Y-85720022D01*
X133124311Y-85726500D01*
X133061887Y-85788925D01*
X133061886Y-85788926D01*
X132926400Y-85982420D01*
X132926399Y-85982422D01*
X132896882Y-86045723D01*
X132850710Y-86098162D01*
X132783516Y-86117314D01*
X132716635Y-86097098D01*
X132671300Y-86043933D01*
X132660500Y-85993318D01*
X132660500Y-85785323D01*
X132660499Y-85785321D01*
X132645967Y-85712264D01*
X132645966Y-85712260D01*
X132590601Y-85629399D01*
X132527606Y-85587308D01*
X132507739Y-85574033D01*
X132507735Y-85574032D01*
X132434677Y-85559500D01*
X132434674Y-85559500D01*
X132197024Y-85559500D01*
X132129985Y-85539815D01*
X132084230Y-85487011D01*
X132074286Y-85417853D01*
X132084230Y-85383988D01*
X132121337Y-85302735D01*
X132135165Y-85272457D01*
X132155647Y-85130000D01*
X132135165Y-84987543D01*
X132075377Y-84856627D01*
X131981128Y-84747857D01*
X131860053Y-84670047D01*
X131860051Y-84670046D01*
X131860049Y-84670045D01*
X131860050Y-84670045D01*
X131721963Y-84629500D01*
X131721961Y-84629500D01*
X131578039Y-84629500D01*
X131578036Y-84629500D01*
X131439949Y-84670045D01*
X131439948Y-84670046D01*
X131339166Y-84734815D01*
X131272126Y-84754500D01*
X131223989Y-84754500D01*
X131170000Y-84754500D01*
X131059464Y-84754500D01*
X131028003Y-84759023D01*
X130840642Y-84785961D01*
X130628517Y-84848246D01*
X130427440Y-84940075D01*
X130427417Y-84940088D01*
X130241456Y-85059598D01*
X130241450Y-85059602D01*
X130074374Y-85204374D01*
X129929602Y-85371450D01*
X129815626Y-85548801D01*
X129762822Y-85594555D01*
X129693664Y-85604499D01*
X129630108Y-85575474D01*
X129603924Y-85543761D01*
X129464768Y-85302735D01*
X129256090Y-85022432D01*
X129247908Y-85013760D01*
X127997736Y-86263931D01*
X127907504Y-86139738D01*
X127768378Y-86000612D01*
X127644183Y-85910378D01*
X128891238Y-84663323D01*
X128891237Y-84663322D01*
X128748577Y-84543615D01*
X128456596Y-84351577D01*
X128144318Y-84194743D01*
X128144312Y-84194741D01*
X127815927Y-84075219D01*
X127815924Y-84075218D01*
X127475886Y-83994628D01*
X127128781Y-83954058D01*
X126930324Y-83954058D01*
X126863285Y-83934373D01*
X126817530Y-83881569D01*
X126807586Y-83812411D01*
X126836611Y-83748855D01*
X126854419Y-83732005D01*
X126963575Y-83647504D01*
X127016487Y-83606544D01*
X127021320Y-83602988D01*
X127656195Y-83159300D01*
X127661179Y-83155995D01*
X128316966Y-82743786D01*
X128322094Y-82740733D01*
X128997198Y-82361009D01*
X129002524Y-82358182D01*
X129695303Y-82011860D01*
X129700730Y-82009310D01*
X130409614Y-81697176D01*
X130415177Y-81694887D01*
X131138415Y-81417713D01*
X131144075Y-81415701D01*
X131879989Y-81174128D01*
X131885750Y-81172391D01*
X132632574Y-80967001D01*
X132638389Y-80965554D01*
X133394336Y-80796839D01*
X133400196Y-80795680D01*
X134163507Y-80664032D01*
X134169462Y-80663155D01*
X134938222Y-80568904D01*
X134944201Y-80568319D01*
X135716669Y-80511676D01*
X135722700Y-80511382D01*
X136497009Y-80492487D01*
X136502991Y-80492487D01*
X137277297Y-80511382D01*
G37*
%TD.AperFunction*%
%TA.AperFunction,Conductor*%
G36*
X141263590Y-85070185D02*
G01*
X141284232Y-85086819D01*
X141485232Y-85287819D01*
X141518717Y-85349142D01*
X141513733Y-85418834D01*
X141471861Y-85474767D01*
X141406397Y-85499184D01*
X141397551Y-85499500D01*
X141378039Y-85499500D01*
X141336768Y-85511617D01*
X141308742Y-85519847D01*
X141238872Y-85519846D01*
X141180095Y-85482072D01*
X141175376Y-85476626D01*
X141081128Y-85367857D01*
X140960053Y-85290047D01*
X140960052Y-85290046D01*
X140960051Y-85290046D01*
X140954023Y-85287293D01*
X140901221Y-85241536D01*
X140881538Y-85174496D01*
X140901224Y-85107458D01*
X140954030Y-85061704D01*
X141005538Y-85050500D01*
X141196551Y-85050500D01*
X141263590Y-85070185D01*
G37*
%TD.AperFunction*%
%TD*%
M02*
