M48
; DRILL file {KiCad 8.0.6-8.0.6-0~ubuntu20.04.1} date 2024-11-07T01:45:45+0500
; FORMAT={-:-/ absolute / metric / decimal}
; #@! TF.CreationDate,2024-11-07T01:45:45+05:00
; #@! TF.GenerationSoftware,Kicad,Pcbnew,8.0.6-8.0.6-0~ubuntu20.04.1
; #@! TF.FileFunction,Plated,1,2,PTH
FMAT,2
METRIC
; #@! TA.AperFunction,Plated,PTH,ViaDrill
T1C0.300
; #@! TA.AperFunction,Plated,PTH,ComponentDrill
T2C0.950
; #@! TA.AperFunction,Plated,PTH,ComponentDrill
T3C1.000
; #@! TA.AperFunction,Plated,PTH,ComponentDrill
T4C2.500
%
G90
G05
T1
X131.3Y-84.35
X131.35Y-97.08
X131.65Y-85.13
X132.77Y-82.47
X132.85Y-94.08
X133.13Y-97.77
X133.225Y-95.625
X133.4Y-85.13
X133.6Y-81.9
X133.87Y-98.12
X134.1Y-95.11
X135.73Y-89.24
X135.875Y-82.125
X136.005Y-93.205
X136.09Y-88.521
X136.68Y-84.84
X136.85Y-93.3
X136.905Y-85.465
X137.79Y-93.31
X138.1Y-93.9
X138.24Y-84.33
X139.1Y-84.33
X140.06Y-91.77
X140.4Y-84.45
X140.75Y-85.75
X140.8Y-92.0
X140.98Y-94.685
X141.1Y-84.15
X141.23Y-90.49
X141.45Y-86.0
X141.8Y-86.9
X141.8Y-88.13
X141.83Y-90.06
X142.341Y-97.025
X142.35Y-84.2
X143.125Y-98.37
X143.85Y-98.56
X144.37Y-98.02
X144.38Y-93.73
X144.39Y-96.48
T2
X132.75Y-103.7
X135.25Y-103.7
X137.75Y-103.7
X140.25Y-103.7
T3
X131.56Y-86.66
X131.56Y-89.2
X134.1Y-86.66
X134.1Y-89.2
T4
X126.954Y-86.954
X126.954Y-106.046
X146.046Y-86.954
X146.046Y-106.046
M30
