%TF.GenerationSoftware,KiCad,Pcbnew,8.0.6-8.0.6-0~ubuntu20.04.1*%
%TF.CreationDate,2024-11-07T01:45:43+05:00*%
%TF.ProjectId,AH3,4148332e-6b69-4636-9164-5f7063625858,rev?*%
%TF.SameCoordinates,Original*%
%TF.FileFunction,Legend,Top*%
%TF.FilePolarity,Positive*%
%FSLAX46Y46*%
G04 Gerber Fmt 4.6, Leading zero omitted, Abs format (unit mm)*
G04 Created by KiCad (PCBNEW 8.0.6-8.0.6-0~ubuntu20.04.1) date 2024-11-07 01:45:43*
%MOMM*%
%LPD*%
G01*
G04 APERTURE LIST*
%ADD10C,0.150000*%
%ADD11C,0.400000*%
%ADD12C,0.120000*%
%ADD13C,0.100000*%
G04 APERTURE END LIST*
D10*
X140250000Y-98250000D02*
X143750000Y-98250000D01*
X136500000Y-96000000D02*
X136500000Y-97000000D01*
X127250000Y-90750000D02*
X145750000Y-90750000D01*
X140250000Y-94750000D02*
X140250000Y-98250000D01*
X129250000Y-98250000D02*
X132750000Y-98250000D01*
X125250000Y-92750000D02*
G75*
G02*
X127250000Y-90750000I2000000J0D01*
G01*
X132750000Y-94750000D02*
X129250000Y-94750000D01*
X145750000Y-90750000D02*
G75*
G02*
X147750000Y-92750000I0J-2000000D01*
G01*
X147750000Y-100250000D02*
G75*
G02*
X145750000Y-102250000I-2000000J0D01*
G01*
X143750000Y-98250000D02*
X143750000Y-94750000D01*
X145750000Y-102250000D02*
X127250000Y-102250000D01*
X132750000Y-98250000D02*
X132750000Y-94750000D01*
X129250000Y-94750000D02*
X129250000Y-98250000D01*
X127250000Y-102250000D02*
G75*
G02*
X125250000Y-100250000I0J2000000D01*
G01*
X147750000Y-92750000D02*
X147750000Y-100250000D01*
X136000000Y-96500000D02*
X137000000Y-96500000D01*
X125250000Y-100250000D02*
X125250000Y-92750000D01*
X143750000Y-94750000D02*
X140250000Y-94750000D01*
D11*
G36*
X131393231Y-100830872D02*
G01*
X131314268Y-100895084D01*
X131227817Y-100953359D01*
X131202233Y-100969602D01*
X131114114Y-101022317D01*
X131026839Y-101067037D01*
X130993650Y-101080000D01*
X130907627Y-101027102D01*
X130905234Y-101023824D01*
X130868063Y-100933148D01*
X130867132Y-100916357D01*
X130862842Y-100809963D01*
X130859339Y-100711556D01*
X130858828Y-100697027D01*
X130855897Y-100640362D01*
X130855897Y-99786978D01*
X130864201Y-99694166D01*
X130872994Y-99600865D01*
X130850524Y-99513426D01*
X130822192Y-99499260D01*
X130743545Y-99527592D01*
X130659037Y-99555924D01*
X130622401Y-99533454D01*
X130611166Y-99490956D01*
X130633636Y-99446015D01*
X130726124Y-99404274D01*
X130822904Y-99355369D01*
X130919701Y-99302879D01*
X130985346Y-99265764D01*
X131063683Y-99200106D01*
X131146058Y-99141688D01*
X131202233Y-99141688D01*
X131235939Y-99141688D01*
X131255402Y-99237573D01*
X131255478Y-99248178D01*
X131252657Y-99345982D01*
X131245861Y-99453800D01*
X131238381Y-99546643D01*
X131230353Y-99650001D01*
X131224108Y-99755547D01*
X131221773Y-99844619D01*
X131221773Y-100575882D01*
X131228115Y-100677942D01*
X131244243Y-100729755D01*
X131332354Y-100783244D01*
X131381996Y-100791304D01*
X131393231Y-100830872D01*
G37*
G36*
X142602792Y-100697027D02*
G01*
X142559050Y-100788751D01*
X142500890Y-100875763D01*
X142478716Y-100907076D01*
X142417565Y-100987218D01*
X142355530Y-101063452D01*
X142315562Y-101111263D01*
X142275995Y-101111263D01*
X142173075Y-101102233D01*
X142068890Y-101082999D01*
X141969880Y-101059918D01*
X141956525Y-101056552D01*
X141856324Y-101032403D01*
X141751510Y-101011919D01*
X141649198Y-101001407D01*
X141642917Y-101001353D01*
X141551383Y-101037417D01*
X141543266Y-101042386D01*
X141454415Y-101086785D01*
X141446057Y-101088792D01*
X141409421Y-101049225D01*
X141442703Y-100956261D01*
X141493567Y-100866556D01*
X141554501Y-100782603D01*
X141618936Y-100706588D01*
X141642917Y-100680418D01*
X141980949Y-100316985D01*
X142039218Y-100233677D01*
X142091962Y-100134271D01*
X142128296Y-100032480D01*
X142148222Y-99928305D01*
X142152408Y-99852435D01*
X142143804Y-99749011D01*
X142112018Y-99655395D01*
X142036734Y-99577828D01*
X141937312Y-99549297D01*
X141907676Y-99548108D01*
X141813624Y-99574727D01*
X141732199Y-99634353D01*
X141696651Y-99669253D01*
X141625164Y-99743075D01*
X141572575Y-99790397D01*
X141538870Y-99776231D01*
X141527635Y-99691723D01*
X141542150Y-99587799D01*
X141561340Y-99482651D01*
X141581789Y-99379409D01*
X141603838Y-99289699D01*
X141693500Y-99241884D01*
X141770900Y-99208611D01*
X141864567Y-99170509D01*
X141955548Y-99141688D01*
X142065234Y-99146325D01*
X142162384Y-99160235D01*
X142259880Y-99188185D01*
X142350410Y-99235583D01*
X142395674Y-99273579D01*
X142458957Y-99362258D01*
X142497823Y-99465413D01*
X142518406Y-99574456D01*
X142526076Y-99681875D01*
X142526588Y-99720544D01*
X142519199Y-99819248D01*
X142493225Y-99925109D01*
X142448548Y-100025483D01*
X142408374Y-100089351D01*
X142343396Y-100168597D01*
X142268507Y-100243910D01*
X142185526Y-100318771D01*
X142138242Y-100358995D01*
X142060935Y-100425326D01*
X141982143Y-100496095D01*
X141905692Y-100569288D01*
X141848570Y-100628639D01*
X141859805Y-100662833D01*
X141959029Y-100688593D01*
X142067030Y-100704764D01*
X142093301Y-100708262D01*
X142190244Y-100720541D01*
X142291132Y-100730662D01*
X142355129Y-100733663D01*
X142462108Y-100733663D01*
X142545780Y-100674332D01*
X142580321Y-100656971D01*
X142602792Y-100668695D01*
X142602792Y-100697027D01*
G37*
G36*
X135815353Y-108086489D02*
G01*
X135815353Y-109883628D01*
X135996092Y-110064368D01*
X135676134Y-110384815D01*
X135362038Y-110070718D01*
X135362038Y-109360949D01*
X134993720Y-109360949D01*
X134993720Y-109879720D01*
X135174459Y-110064368D01*
X134854501Y-110384815D01*
X134540405Y-110070718D01*
X134540405Y-108573998D01*
X134359665Y-108393258D01*
X134365038Y-108387885D01*
X134993720Y-108387885D01*
X134993720Y-109267159D01*
X135362038Y-109267159D01*
X135362038Y-108306308D01*
X135169574Y-108170020D01*
X134993720Y-108387885D01*
X134365038Y-108387885D01*
X134680112Y-108072812D01*
X134923866Y-108316078D01*
X135369365Y-107775812D01*
X135815353Y-108086489D01*
G37*
G36*
X136767900Y-108094794D02*
G01*
X137087858Y-107777278D01*
X137401954Y-108088443D01*
X137401954Y-109883628D01*
X137582694Y-110064368D01*
X137262736Y-110384815D01*
X136948639Y-110070718D01*
X136948639Y-109360949D01*
X136580321Y-109360949D01*
X136580321Y-109879720D01*
X136761061Y-110064368D01*
X136441103Y-110384815D01*
X136127006Y-110070718D01*
X136127006Y-108275533D01*
X135946267Y-108094794D01*
X136266225Y-107777278D01*
X136580321Y-108088443D01*
X136580321Y-109267159D01*
X136948639Y-109267159D01*
X136948639Y-108274556D01*
X136767900Y-108094794D01*
G37*
G36*
X137535799Y-108547620D02*
G01*
X137855757Y-108227662D01*
X138101954Y-108473370D01*
X138515701Y-107930174D01*
X138830775Y-108246224D01*
X138830775Y-108692212D01*
X138624145Y-108893956D01*
X138969016Y-109239316D01*
X138969016Y-110070718D01*
X138654920Y-110378953D01*
X138365248Y-110086350D01*
X138072645Y-110378953D01*
X137758549Y-110070718D01*
X137758549Y-109471835D01*
X138211863Y-109471835D01*
X138211863Y-109793747D01*
X138407258Y-109991584D01*
X138515701Y-109883628D01*
X138515701Y-109423475D01*
X138202582Y-109113286D01*
X138377460Y-108938408D01*
X138377460Y-108433314D01*
X138310049Y-108366392D01*
X138169854Y-108552993D01*
X138169854Y-109058576D01*
X137716539Y-109058576D01*
X137716539Y-108728360D01*
X137535799Y-108547620D01*
G37*
D12*
%TO.C,U3*%
X136852500Y-86140000D02*
X136852500Y-85830000D01*
X136852500Y-89810000D02*
X136852500Y-89260000D01*
X137402500Y-85590000D02*
X137152500Y-85590000D01*
X137402500Y-89810000D02*
X136852500Y-89810000D01*
X140522500Y-85590000D02*
X141072500Y-85590000D01*
X140522500Y-89810000D02*
X141072500Y-89810000D01*
X141072500Y-85590000D02*
X141072500Y-86140000D01*
X141072500Y-89810000D02*
X141072500Y-89260000D01*
X136852500Y-85590000D02*
X136612500Y-85260000D01*
X137092500Y-85260000D01*
X136852500Y-85590000D01*
G36*
X136852500Y-85590000D02*
G01*
X136612500Y-85260000D01*
X137092500Y-85260000D01*
X136852500Y-85590000D01*
G37*
%TO.C,C1*%
X129390000Y-97142164D02*
X129390000Y-97357836D01*
X130110000Y-97142164D02*
X130110000Y-97357836D01*
%TO.C,R9*%
X137903641Y-105170000D02*
X137596359Y-105170000D01*
X137903641Y-105930000D02*
X137596359Y-105930000D01*
%TO.C,U2*%
X141380000Y-96302500D02*
X141380000Y-96107500D01*
X141390000Y-98097500D02*
X141390000Y-97672500D01*
X141565000Y-98097500D02*
X141390000Y-98097500D01*
X143435000Y-95877500D02*
X143610000Y-95877500D01*
X143435000Y-98097500D02*
X143610000Y-98097500D01*
X143610000Y-95877500D02*
X143610000Y-96302500D01*
X143610000Y-98097500D02*
X143610000Y-97672500D01*
X141380000Y-95867500D02*
X141240000Y-95677500D01*
X141520000Y-95677500D01*
X141380000Y-95867500D01*
G36*
X141380000Y-95867500D02*
G01*
X141240000Y-95677500D01*
X141520000Y-95677500D01*
X141380000Y-95867500D01*
G37*
%TO.C,C5*%
X138240000Y-82842164D02*
X138240000Y-83057836D01*
X138960000Y-82842164D02*
X138960000Y-83057836D01*
%TO.C,C8*%
X141590000Y-82892164D02*
X141590000Y-83107836D01*
X142310000Y-82892164D02*
X142310000Y-83107836D01*
%TO.C,J1*%
X130230000Y-85330000D02*
X131560000Y-85330000D01*
X130230000Y-86660000D02*
X130230000Y-85330000D01*
X130230000Y-87930000D02*
X130230000Y-90530000D01*
X130230000Y-87930000D02*
X132830000Y-87930000D01*
X130230000Y-90530000D02*
X135430000Y-90530000D01*
X132830000Y-85330000D02*
X135430000Y-85330000D01*
X132830000Y-87930000D02*
X132830000Y-85330000D01*
X135430000Y-85330000D02*
X135430000Y-90530000D01*
%TO.C,R1*%
X139390000Y-83123641D02*
X139390000Y-82816359D01*
X140150000Y-83123641D02*
X140150000Y-82816359D01*
%TO.C,R10*%
X140403641Y-105170000D02*
X140096359Y-105170000D01*
X140403641Y-105930000D02*
X140096359Y-105930000D01*
%TO.C,C3*%
X140390000Y-97149664D02*
X140390000Y-97365336D01*
X141110000Y-97149664D02*
X141110000Y-97365336D01*
%TO.C,C7*%
X131790000Y-83057836D02*
X131790000Y-82842164D01*
X132510000Y-83057836D02*
X132510000Y-82842164D01*
%TO.C,C2*%
X131412164Y-94890000D02*
X131627836Y-94890000D01*
X131412164Y-95610000D02*
X131627836Y-95610000D01*
D13*
%TO.C,D1*%
X136390000Y-105550000D02*
G75*
G02*
X136290000Y-105550000I-50000J0D01*
G01*
X136290000Y-105550000D02*
G75*
G02*
X136390000Y-105550000I50000J0D01*
G01*
D12*
%TO.C,R2*%
X140570000Y-83133641D02*
X140570000Y-82826359D01*
X141330000Y-83133641D02*
X141330000Y-82826359D01*
%TO.C,U1*%
X130380000Y-96315000D02*
X130380000Y-96120000D01*
X130390000Y-98110000D02*
X130390000Y-97685000D01*
X130565000Y-98110000D02*
X130390000Y-98110000D01*
X132435000Y-95890000D02*
X132610000Y-95890000D01*
X132435000Y-98110000D02*
X132610000Y-98110000D01*
X132610000Y-95890000D02*
X132610000Y-96315000D01*
X132610000Y-98110000D02*
X132610000Y-97685000D01*
X130380000Y-95880000D02*
X130240000Y-95690000D01*
X130520000Y-95690000D01*
X130380000Y-95880000D01*
G36*
X130380000Y-95880000D02*
G01*
X130240000Y-95690000D01*
X130520000Y-95690000D01*
X130380000Y-95880000D01*
G37*
%TO.C,C4*%
X142412164Y-94877500D02*
X142627836Y-94877500D01*
X142412164Y-95597500D02*
X142627836Y-95597500D01*
%TO.C,R8*%
X132903641Y-105170000D02*
X132596359Y-105170000D01*
X132903641Y-105930000D02*
X132596359Y-105930000D01*
%TO.C,Y1*%
X137970000Y-81280000D02*
X133970000Y-81280000D01*
X137970000Y-84580000D02*
X137970000Y-81280000D01*
%TO.C,C6*%
X132990000Y-83057836D02*
X132990000Y-82842164D01*
X133710000Y-83057836D02*
X133710000Y-82842164D01*
%TO.C,R7*%
X130830000Y-83103641D02*
X130830000Y-82796359D01*
X131590000Y-83103641D02*
X131590000Y-82796359D01*
%TD*%
M02*
