%TF.GenerationSoftware,KiCad,Pcbnew,8.0.6-8.0.6-0~ubuntu20.04.1*%
%TF.CreationDate,2024-11-07T01:45:43+05:00*%
%TF.ProjectId,AH3,4148332e-6b69-4636-9164-5f7063625858,rev?*%
%TF.SameCoordinates,Original*%
%TF.FileFunction,Copper,L1,Top*%
%TF.FilePolarity,Positive*%
%FSLAX46Y46*%
G04 Gerber Fmt 4.6, Leading zero omitted, Abs format (unit mm)*
G04 Created by KiCad (PCBNEW 8.0.6-8.0.6-0~ubuntu20.04.1) date 2024-11-07 01:45:43*
%MOMM*%
%LPD*%
G01*
G04 APERTURE LIST*
G04 Aperture macros list*
%AMRoundRect*
0 Rectangle with rounded corners*
0 $1 Rounding radius*
0 $2 $3 $4 $5 $6 $7 $8 $9 X,Y pos of 4 corners*
0 Add a 4 corners polygon primitive as box body*
4,1,4,$2,$3,$4,$5,$6,$7,$8,$9,$2,$3,0*
0 Add four circle primitives for the rounded corners*
1,1,$1+$1,$2,$3*
1,1,$1+$1,$4,$5*
1,1,$1+$1,$6,$7*
1,1,$1+$1,$8,$9*
0 Add four rect primitives between the rounded corners*
20,1,$1+$1,$2,$3,$4,$5,0*
20,1,$1+$1,$4,$5,$6,$7,0*
20,1,$1+$1,$6,$7,$8,$9,0*
20,1,$1+$1,$8,$9,$2,$3,0*%
G04 Aperture macros list end*
%TA.AperFunction,SMDPad,CuDef*%
%ADD10RoundRect,0.050000X-0.337500X-0.050000X0.337500X-0.050000X0.337500X0.050000X-0.337500X0.050000X0*%
%TD*%
%TA.AperFunction,SMDPad,CuDef*%
%ADD11RoundRect,0.050000X-0.050000X-0.337500X0.050000X-0.337500X0.050000X0.337500X-0.050000X0.337500X0*%
%TD*%
%TA.AperFunction,HeatsinkPad*%
%ADD12R,2.800000X2.800000*%
%TD*%
%TA.AperFunction,SMDPad,CuDef*%
%ADD13RoundRect,0.140000X-0.170000X0.140000X-0.170000X-0.140000X0.170000X-0.140000X0.170000X0.140000X0*%
%TD*%
%TA.AperFunction,SMDPad,CuDef*%
%ADD14RoundRect,0.135000X0.135000X0.185000X-0.135000X0.185000X-0.135000X-0.185000X0.135000X-0.185000X0*%
%TD*%
%TA.AperFunction,SMDPad,CuDef*%
%ADD15RoundRect,0.087500X-0.125000X-0.087500X0.125000X-0.087500X0.125000X0.087500X-0.125000X0.087500X0*%
%TD*%
%TA.AperFunction,SMDPad,CuDef*%
%ADD16RoundRect,0.087500X-0.087500X-0.125000X0.087500X-0.125000X0.087500X0.125000X-0.087500X0.125000X0*%
%TD*%
%TA.AperFunction,ComponentPad*%
%ADD17R,1.700000X1.700000*%
%TD*%
%TA.AperFunction,ComponentPad*%
%ADD18O,1.700000X1.700000*%
%TD*%
%TA.AperFunction,SMDPad,CuDef*%
%ADD19RoundRect,0.135000X0.185000X-0.135000X0.185000X0.135000X-0.185000X0.135000X-0.185000X-0.135000X0*%
%TD*%
%TA.AperFunction,SMDPad,CuDef*%
%ADD20RoundRect,0.140000X0.170000X-0.140000X0.170000X0.140000X-0.170000X0.140000X-0.170000X-0.140000X0*%
%TD*%
%TA.AperFunction,SMDPad,CuDef*%
%ADD21RoundRect,0.140000X-0.140000X-0.170000X0.140000X-0.170000X0.140000X0.170000X-0.140000X0.170000X0*%
%TD*%
%TA.AperFunction,SMDPad,CuDef*%
%ADD22RoundRect,0.147500X0.147500X0.172500X-0.147500X0.172500X-0.147500X-0.172500X0.147500X-0.172500X0*%
%TD*%
%TA.AperFunction,SMDPad,CuDef*%
%ADD23R,1.400000X1.200000*%
%TD*%
%TA.AperFunction,ComponentPad*%
%ADD24C,5.000000*%
%TD*%
%TA.AperFunction,ComponentPad*%
%ADD25RoundRect,0.250000X-0.600000X-0.725000X0.600000X-0.725000X0.600000X0.725000X-0.600000X0.725000X0*%
%TD*%
%TA.AperFunction,ComponentPad*%
%ADD26O,1.700000X1.950000*%
%TD*%
%TA.AperFunction,ViaPad*%
%ADD27C,0.500000*%
%TD*%
%TA.AperFunction,Conductor*%
%ADD28C,0.250000*%
%TD*%
%TA.AperFunction,Conductor*%
%ADD29C,0.300000*%
%TD*%
G04 APERTURE END LIST*
D10*
%TO.P,U3,1,OCS_IN/PD0*%
%TO.N,Net-(U3-OCS_IN{slash}PD0)*%
X136975000Y-86500000D03*
%TO.P,U3,2,OCS_OUT/PD1*%
%TO.N,Net-(U3-OCS_OUT{slash}PD1)*%
X136975000Y-86900000D03*
%TO.P,U3,3,NRST*%
%TO.N,Net-(U3-NRST)*%
X136975000Y-87300000D03*
%TO.P,U3,4,PC2/UART7TX*%
%TO.N,unconnected-(U3-PC2{slash}UART7TX-Pad4)*%
X136975000Y-87700000D03*
%TO.P,U3,5,PC3/UART7RX*%
%TO.N,unconnected-(U3-PC3{slash}UART7RX-Pad5)*%
X136975000Y-88100000D03*
%TO.P,U3,6,VIO*%
%TO.N,VDD*%
X136975000Y-88500000D03*
%TO.P,U3,7,PA4/SPI1NSS/SPI3NSS1/PA1*%
%TO.N,/NSS1*%
X136975000Y-88900000D03*
D11*
%TO.P,U3,8,PA5/SPI1SCK*%
%TO.N,/SCK1*%
X137762500Y-89687500D03*
%TO.P,U3,9,PA6/SPI1MISO*%
%TO.N,/MISO1*%
X138162500Y-89687500D03*
%TO.P,U3,10,PA7/SPI1MOSI*%
%TO.N,/MOSI1*%
X138562500Y-89687500D03*
%TO.P,U3,11,PB10/UART3TX/I2C2SCL*%
%TO.N,/SCL*%
X138962500Y-89687500D03*
%TO.P,U3,12,PB11/UART3RX/I2C2SDA*%
%TO.N,/SDA*%
X139362500Y-89687500D03*
%TO.P,U3,13,PB12/SPI2NSS/CAN2RX*%
%TO.N,/NSS2*%
X139762500Y-89687500D03*
%TO.P,U3,14,PB13/SPI2SCK/UART3CTS/CAN2TX*%
%TO.N,/SCK2*%
X140162500Y-89687500D03*
D10*
%TO.P,U3,15,PB14/SPI2MISO/UART3RTS*%
%TO.N,/MISO2*%
X140950000Y-88900000D03*
%TO.P,U3,16,PB15/SPI2MOSI/UART1TX2*%
%TO.N,/MOSI2*%
X140950000Y-88500000D03*
%TO.P,U3,17,PC8/SD_D0*%
%TO.N,unconnected-(U3-PC8{slash}SD_D0-Pad17)*%
X140950000Y-88100000D03*
%TO.P,U3,18,PA8/UART1RX2/PC9/SD_D1*%
%TO.N,unconnected-(U3-PA8{slash}UART1RX2{slash}PC9{slash}SD_D1-Pad18)*%
X140950000Y-87700000D03*
%TO.P,U3,19,PA13/SWDIO/UART3TX2*%
%TO.N,/SWDIO*%
X140950000Y-87300000D03*
%TO.P,U3,20,VSS/GND*%
%TO.N,GND*%
X140950000Y-86900000D03*
%TO.P,U3,21,VDD*%
%TO.N,VDD*%
X140950000Y-86500000D03*
D11*
%TO.P,U3,22,PA14/SWCLK/UART3RX2*%
%TO.N,/SWCLK*%
X140162500Y-85712500D03*
%TO.P,U3,23,PC10/UART4TX/SPI3SCK1/SD_D2*%
%TO.N,/INT2*%
X139762500Y-85712500D03*
%TO.P,U3,24,PC11/UART4RX/SPI3MISO1/SD_D3*%
%TO.N,unconnected-(U3-PC11{slash}UART4RX{slash}SPI3MISO1{slash}SD_D3-Pad24)*%
X139362500Y-85712500D03*
%TO.P,U3,25,PC12/UART5TX/SPI3MOSI1/SD_CK*%
%TO.N,unconnected-(U3-PC12{slash}UART5TX{slash}SPI3MOSI1{slash}SD_CK-Pad25)*%
X138962500Y-85712500D03*
%TO.P,U3,26,PD2/UART5RX/SD_CMD*%
%TO.N,/INT1*%
X138562500Y-85712500D03*
%TO.P,U3,27,PB6/USB2DM/UART1TX1*%
%TO.N,unconnected-(U3-PB6{slash}USB2DM{slash}UART1TX1-Pad27)*%
X138162500Y-85712500D03*
%TO.P,U3,28,PB7/USB2DP/UART1RX1*%
%TO.N,unconnected-(U3-PB7{slash}USB2DP{slash}UART1RX1-Pad28)*%
X137762500Y-85712500D03*
D12*
%TO.P,U3,29,PAD*%
%TO.N,GND*%
X138962500Y-87700000D03*
%TD*%
D13*
%TO.P,C1,1*%
%TO.N,VDD*%
X129750000Y-96770000D03*
%TO.P,C1,2*%
%TO.N,GND*%
X129750000Y-97730000D03*
%TD*%
D14*
%TO.P,R9,1*%
%TO.N,/SCL*%
X138260000Y-105550000D03*
%TO.P,R9,2*%
%TO.N,VDD*%
X137240000Y-105550000D03*
%TD*%
D15*
%TO.P,U2,1,VDDIO*%
%TO.N,VDD*%
X141737500Y-96737500D03*
%TO.P,U2,2,SCK/SCL*%
%TO.N,/SCK2*%
X141737500Y-97237500D03*
D16*
%TO.P,U2,3,VSS*%
%TO.N,GND*%
X142000000Y-97750000D03*
%TO.P,U2,4,SDI/SDA*%
%TO.N,/MOSI2*%
X142500000Y-97750000D03*
%TO.P,U2,5,SDO*%
%TO.N,/MISO2*%
X143000000Y-97750000D03*
D15*
%TO.P,U2,6,CSB*%
%TO.N,/NSS2*%
X143262500Y-97237500D03*
%TO.P,U2,7,INT*%
%TO.N,/INT2*%
X143262500Y-96737500D03*
D16*
%TO.P,U2,8,VSS*%
%TO.N,GND*%
X143000000Y-96225000D03*
%TO.P,U2,9,VSS*%
X142500000Y-96225000D03*
%TO.P,U2,10,VDD*%
%TO.N,VDD*%
X142000000Y-96225000D03*
%TD*%
D13*
%TO.P,C5,1*%
%TO.N,Net-(U3-OCS_IN{slash}PD0)*%
X138600000Y-82470000D03*
%TO.P,C5,2*%
%TO.N,GND*%
X138600000Y-83430000D03*
%TD*%
%TO.P,C8,1*%
%TO.N,VDD*%
X141950000Y-82520000D03*
%TO.P,C8,2*%
%TO.N,GND*%
X141950000Y-83480000D03*
%TD*%
D17*
%TO.P,J1,1,Pin_1*%
%TO.N,VDD*%
X131560000Y-86660000D03*
D18*
%TO.P,J1,2,Pin_2*%
%TO.N,GND*%
X134100000Y-86660000D03*
%TO.P,J1,3,Pin_3*%
%TO.N,/SWCLK*%
X131560000Y-89200000D03*
%TO.P,J1,4,Pin_4*%
%TO.N,/SWDIO*%
X134100000Y-89200000D03*
%TD*%
D19*
%TO.P,R1,1*%
%TO.N,/NSS1*%
X139770000Y-83480000D03*
%TO.P,R1,2*%
%TO.N,VDD*%
X139770000Y-82460000D03*
%TD*%
D14*
%TO.P,R10,1*%
%TO.N,/SDA*%
X140760000Y-105550000D03*
%TO.P,R10,2*%
%TO.N,VDD*%
X139740000Y-105550000D03*
%TD*%
D13*
%TO.P,C3,1*%
%TO.N,VDD*%
X140750000Y-96777500D03*
%TO.P,C3,2*%
%TO.N,GND*%
X140750000Y-97737500D03*
%TD*%
D20*
%TO.P,C7,1*%
%TO.N,Net-(U3-NRST)*%
X132150000Y-83430000D03*
%TO.P,C7,2*%
%TO.N,GND*%
X132150000Y-82470000D03*
%TD*%
D21*
%TO.P,C2,1*%
%TO.N,VDD*%
X131040000Y-95250000D03*
%TO.P,C2,2*%
%TO.N,GND*%
X132000000Y-95250000D03*
%TD*%
D22*
%TO.P,D1,1,K*%
%TO.N,GND*%
X135735000Y-105550000D03*
%TO.P,D1,2,A*%
%TO.N,Net-(D1-A)*%
X134765000Y-105550000D03*
%TD*%
D19*
%TO.P,R2,1*%
%TO.N,/NSS2*%
X140950000Y-83490000D03*
%TO.P,R2,2*%
%TO.N,VDD*%
X140950000Y-82470000D03*
%TD*%
D15*
%TO.P,U1,1,VDDIO*%
%TO.N,VDD*%
X130737500Y-96750000D03*
%TO.P,U1,2,SCK/SCL*%
%TO.N,/SCK1*%
X130737500Y-97250000D03*
D16*
%TO.P,U1,3,VSS*%
%TO.N,GND*%
X131000000Y-97762500D03*
%TO.P,U1,4,SDI/SDA*%
%TO.N,/MOSI1*%
X131500000Y-97762500D03*
%TO.P,U1,5,SDO*%
%TO.N,/MISO1*%
X132000000Y-97762500D03*
D15*
%TO.P,U1,6,CSB*%
%TO.N,/NSS1*%
X132262500Y-97250000D03*
%TO.P,U1,7,INT*%
%TO.N,/INT1*%
X132262500Y-96750000D03*
D16*
%TO.P,U1,8,VSS*%
%TO.N,GND*%
X132000000Y-96237500D03*
%TO.P,U1,9,VSS*%
X131500000Y-96237500D03*
%TO.P,U1,10,VDD*%
%TO.N,VDD*%
X131000000Y-96237500D03*
%TD*%
D21*
%TO.P,C4,1*%
%TO.N,VDD*%
X142040000Y-95237500D03*
%TO.P,C4,2*%
%TO.N,GND*%
X143000000Y-95237500D03*
%TD*%
D14*
%TO.P,R8,1*%
%TO.N,Net-(D1-A)*%
X133260000Y-105550000D03*
%TO.P,R8,2*%
%TO.N,VDD*%
X132240000Y-105550000D03*
%TD*%
D23*
%TO.P,Y1,1,1*%
%TO.N,Net-(U3-OCS_IN{slash}PD0)*%
X137070000Y-82080000D03*
%TO.P,Y1,2,2*%
%TO.N,GND*%
X134870000Y-82080000D03*
%TO.P,Y1,3,3*%
%TO.N,Net-(U3-OCS_OUT{slash}PD1)*%
X134870000Y-83780000D03*
%TO.P,Y1,4,4*%
%TO.N,GND*%
X137070000Y-83780000D03*
%TD*%
D20*
%TO.P,C6,1*%
%TO.N,Net-(U3-OCS_OUT{slash}PD1)*%
X133350000Y-83430000D03*
%TO.P,C6,2*%
%TO.N,GND*%
X133350000Y-82470000D03*
%TD*%
D19*
%TO.P,R7,1*%
%TO.N,Net-(U3-NRST)*%
X131210000Y-83460000D03*
%TO.P,R7,2*%
%TO.N,VDD*%
X131210000Y-82440000D03*
%TD*%
D24*
%TO.P,H2,1,1*%
%TO.N,GND*%
X146045941Y-106045941D03*
%TD*%
%TO.P,H3,1,1*%
%TO.N,GND*%
X126954058Y-106045941D03*
%TD*%
%TO.P,H4,1,1*%
%TO.N,GND*%
X146045941Y-86954058D03*
%TD*%
D25*
%TO.P,J3,1,Pin_1*%
%TO.N,VDD*%
X132750000Y-103700000D03*
D26*
%TO.P,J3,2,Pin_2*%
%TO.N,GND*%
X135250000Y-103700000D03*
%TO.P,J3,3,Pin_3*%
%TO.N,/SCL*%
X137750000Y-103700000D03*
%TO.P,J3,4,Pin_4*%
%TO.N,/SDA*%
X140250000Y-103700000D03*
%TD*%
D24*
%TO.P,H1,1,1*%
%TO.N,GND*%
X126954058Y-86954058D03*
%TD*%
D27*
%TO.N,GND*%
X141800000Y-86900000D03*
%TO.N,VDD*%
X136090000Y-88521000D03*
X141450000Y-86000000D03*
%TO.N,GND*%
X131300000Y-84350000D03*
X135875000Y-82125000D03*
X138240000Y-84330000D03*
X139100000Y-84330000D03*
X133600000Y-81900004D03*
X142350000Y-84200000D03*
X132770000Y-82470000D03*
X136680000Y-84840000D03*
X132850000Y-94080000D03*
X140980000Y-94685000D03*
%TO.N,/SCK1*%
X131350000Y-97080000D03*
X136850000Y-93300000D03*
%TO.N,/INT1*%
X133400000Y-85130000D03*
X136905000Y-85465000D03*
X133225000Y-95625000D03*
X131650000Y-85130000D03*
%TO.N,/NSS1*%
X140400000Y-84449996D03*
X134100000Y-95110000D03*
X136005000Y-93205000D03*
X135730000Y-89239998D03*
%TO.N,/MOSI1*%
X133870000Y-98120000D03*
X138100000Y-93900000D03*
%TO.N,/MISO1*%
X137790000Y-93310000D03*
X133130000Y-97770000D03*
%TO.N,/MOSI2*%
X141830000Y-90060000D03*
X143850000Y-98560000D03*
%TO.N,/NSS2*%
X144370000Y-98020000D03*
X140060000Y-91770000D03*
X141100000Y-84150000D03*
%TO.N,/SCK2*%
X140800000Y-92000000D03*
X142340624Y-97024824D03*
%TO.N,/INT2*%
X144390000Y-96480000D03*
X144380000Y-93730000D03*
%TO.N,/MISO2*%
X141230000Y-90490000D03*
X143125000Y-98370000D03*
%TO.N,/SWCLK*%
X140750000Y-85750000D03*
%TO.N,/SWDIO*%
X141800000Y-88130000D03*
%TD*%
D28*
%TO.N,/MISO2*%
X140900000Y-88900000D02*
X140900000Y-90200000D01*
X140900000Y-90200000D02*
X141160000Y-90460000D01*
X141160000Y-90460000D02*
X141230000Y-90460000D01*
%TO.N,/NSS1*%
X135730000Y-89239998D02*
X135799883Y-89239998D01*
X135799883Y-89239998D02*
G75*
G03*
X136500005Y-88950005I17J990098D01*
G01*
X136500000Y-88950000D02*
G75*
G02*
X136620710Y-88900004I120700J-120700D01*
G01*
X136620710Y-88900000D02*
X136975000Y-88900000D01*
X137022359Y-90937927D02*
G75*
G02*
X136005015Y-93205015I-3498059J207927D01*
G01*
X136975000Y-88900000D02*
X137022359Y-88947359D01*
X137022359Y-88947359D02*
X137022359Y-90937927D01*
%TO.N,VDD*%
X142359365Y-87095095D02*
G75*
G03*
X141991941Y-86208059I-1254465J-5D01*
G01*
%TO.N,GND*%
X139067928Y-87594571D02*
G75*
G02*
X140721649Y-86909544I1653772J-1653729D01*
G01*
X140732071Y-86900000D02*
X141783884Y-86900000D01*
%TO.N,VDD*%
X140950000Y-86500000D02*
X141300000Y-86500000D01*
X141300000Y-86500000D02*
X141450000Y-86350000D01*
%TO.N,/SWDIO*%
X140900000Y-87300000D02*
X141341116Y-87300000D01*
%TO.N,GND*%
X138962500Y-87700000D02*
X139067928Y-87594571D01*
%TO.N,/SWDIO*%
X141820000Y-87620000D02*
X141820000Y-88110000D01*
X141704442Y-87504442D02*
X141820000Y-87620000D01*
X141573248Y-87504442D02*
X141704442Y-87504442D01*
X141414806Y-87346000D02*
X141573248Y-87504442D01*
%TO.N,GND*%
X140721649Y-86909578D02*
X140732071Y-86900000D01*
%TO.N,/SWDIO*%
X141387116Y-87346000D02*
X141414806Y-87346000D01*
X141341116Y-87300000D02*
X141387116Y-87346000D01*
%TO.N,VDD*%
X141450000Y-86350000D02*
X141450000Y-86000000D01*
D29*
X142040000Y-96185000D02*
X142000000Y-96225000D01*
D28*
X139770000Y-82460000D02*
X140940000Y-82460000D01*
X129000000Y-97450000D02*
X129000000Y-97600000D01*
X138250022Y-81316546D02*
X138400875Y-81373909D01*
X131993890Y-81713952D02*
X132152985Y-81605109D01*
X130500000Y-83750000D02*
X130500000Y-84100934D01*
D29*
X130914277Y-96323224D02*
X131000000Y-96237500D01*
D28*
X131560000Y-86660000D02*
X131560000Y-86040000D01*
X131040000Y-95250000D02*
X129750000Y-95250000D01*
X133276904Y-81180596D02*
X133627397Y-81147962D01*
X130661701Y-101611701D02*
X132750000Y-103700000D01*
X137024699Y-88521000D02*
X136140000Y-88521000D01*
X133300000Y-106200000D02*
X135670762Y-106200000D01*
X131210000Y-82440000D02*
X131439339Y-82210661D01*
D29*
X140790000Y-96737500D02*
X140750000Y-96777500D01*
X142040000Y-95237500D02*
X142040000Y-96185000D01*
D28*
X131210000Y-82440000D02*
X130924265Y-82725735D01*
D29*
X131040000Y-95250000D02*
X131040000Y-96140932D01*
D28*
X137025000Y-88520274D02*
X137024699Y-88521000D01*
X132061680Y-87161680D02*
X131560000Y-86660000D01*
X132932733Y-81254470D02*
X133276904Y-81180596D01*
X137550086Y-105860086D02*
X137240000Y-105550000D01*
X137035787Y-81150000D02*
X137227380Y-81152586D01*
X139740000Y-105550000D02*
X139451127Y-105838873D01*
X131855228Y-81820890D02*
X131993890Y-81713952D01*
X139752930Y-82452929D02*
X139770000Y-82460000D01*
D29*
X141737500Y-96737500D02*
X140790000Y-96737500D01*
D28*
X129750000Y-96770000D02*
X129750000Y-95250000D01*
X137393367Y-81154826D02*
X137572894Y-81167413D01*
X139019935Y-81719934D02*
X139752930Y-82452929D01*
X132440045Y-81442624D02*
X132599721Y-81368546D01*
X140940000Y-82460000D02*
X140950000Y-82470000D01*
X137736625Y-81188565D02*
X137915250Y-81222068D01*
X129750000Y-96770000D02*
X129680000Y-96770000D01*
X136090000Y-88521000D02*
X135991531Y-88521000D01*
X129750000Y-95250000D02*
X129750000Y-91029726D01*
X137025000Y-88500000D02*
X137025000Y-88520274D01*
X137572894Y-81167413D02*
X137736625Y-81188565D01*
X132152985Y-81605109D02*
X132301818Y-81515705D01*
X138700000Y-106150000D02*
X138250000Y-106150000D01*
X137915250Y-81222068D02*
X138074075Y-81261686D01*
X132240000Y-105550000D02*
X132600086Y-105910086D01*
X131584973Y-82068906D02*
X131711143Y-81946096D01*
X132301818Y-81515705D02*
X132440045Y-81442624D01*
X134895080Y-81147962D02*
X134900000Y-81150000D01*
D29*
X141914277Y-96310724D02*
X142000000Y-96225000D01*
D28*
X141950000Y-82520000D02*
X141000000Y-82520000D01*
X134900000Y-81150000D02*
X137035787Y-81150000D01*
X138074075Y-81261686D02*
X138250022Y-81316546D01*
X132750000Y-103700000D02*
X132750000Y-104318752D01*
X138572810Y-81451075D02*
X138711846Y-81524401D01*
X131439339Y-82210661D02*
X131584973Y-82068906D01*
X134468163Y-87890000D02*
X133820000Y-87890000D01*
X139000486Y-81711878D02*
X139019935Y-81719934D01*
X132599721Y-81368546D02*
X132932733Y-81254470D01*
D29*
X129750000Y-96770000D02*
X130689216Y-96770000D01*
D28*
X138400875Y-81373909D02*
X138572810Y-81451075D01*
X136140000Y-88521000D02*
X136090000Y-88521000D01*
X137227380Y-81152586D02*
X137393367Y-81154826D01*
X138879865Y-81626664D02*
X139000486Y-81711878D01*
X141000000Y-82520000D02*
X140950000Y-82470000D01*
X133627397Y-81147962D02*
X134895080Y-81147962D01*
X140926777Y-96350724D02*
X142040000Y-95237500D01*
X138711846Y-81524401D02*
X138879865Y-81626664D01*
X131711143Y-81946096D02*
X131855228Y-81820890D01*
X129000000Y-97600000D02*
G75*
G03*
X130661701Y-101611701I5673400J0D01*
G01*
D29*
X141737500Y-96737500D02*
G75*
G02*
X141914267Y-96310714I603600J0D01*
G01*
D28*
X132600086Y-105910086D02*
G75*
G03*
X133300000Y-106200008I699914J699886D01*
G01*
X129680000Y-96770000D02*
G75*
G03*
X129000000Y-97450000I0J-680000D01*
G01*
D29*
X130689216Y-96770000D02*
G75*
G03*
X130737495Y-96749995I-16J68300D01*
G01*
D28*
X138250000Y-106150000D02*
G75*
G02*
X137550092Y-105860080I0J989800D01*
G01*
X129750000Y-91029726D02*
G75*
G02*
X131559992Y-86659992I6179700J26D01*
G01*
X139451127Y-105838873D02*
G75*
G02*
X138700000Y-106149987I-751127J751173D01*
G01*
X130924265Y-82725735D02*
G75*
G03*
X130499992Y-83750000I1024235J-1024265D01*
G01*
X135670762Y-106200000D02*
G75*
G03*
X137240011Y-105550011I38J2219200D01*
G01*
X130500000Y-84100934D02*
G75*
G03*
X131560010Y-86659990I3619100J34D01*
G01*
D29*
X131040000Y-96140932D02*
G75*
G02*
X130999991Y-96237491I-136600J32D01*
G01*
D28*
X140750000Y-96777500D02*
G75*
G02*
X140926767Y-96350714I603600J0D01*
G01*
X135120000Y-88160000D02*
G75*
G03*
X134468163Y-87890016I-651800J-651800D01*
G01*
D29*
X130737500Y-96750000D02*
G75*
G02*
X130914267Y-96323214I603600J0D01*
G01*
D28*
X135991531Y-88521000D02*
G75*
G02*
X135119991Y-88160009I-31J1232500D01*
G01*
X132750000Y-104318752D02*
G75*
G02*
X132240014Y-105550014I-1741200J-48D01*
G01*
X133820000Y-87890000D02*
G75*
G02*
X132061688Y-87161672I0J2486600D01*
G01*
%TO.N,GND*%
X141950000Y-83800000D02*
X142350000Y-84200000D01*
D29*
X129750000Y-97730000D02*
X130921539Y-97730000D01*
D28*
X133330000Y-94230000D02*
X133160000Y-94400000D01*
D29*
X142500000Y-96225000D02*
X143000000Y-96225000D01*
X131500000Y-96237500D02*
X132000000Y-96237500D01*
D28*
X132800000Y-99500000D02*
X132050000Y-99500000D01*
X135250000Y-101950000D02*
X132800000Y-99500000D01*
X141950000Y-83480000D02*
X141950000Y-83800000D01*
X135250000Y-103700000D02*
X135250000Y-95070000D01*
X146045941Y-106045941D02*
X141380000Y-101380000D01*
X145200000Y-94510000D02*
X145645000Y-94065000D01*
X132850000Y-94080000D02*
X132850000Y-94090000D01*
X141380000Y-98367500D02*
X140750000Y-97737500D01*
X141380000Y-101380000D02*
X141380000Y-98367500D01*
X135250000Y-103700000D02*
X135250000Y-101950000D01*
X135250000Y-103700000D02*
X135250000Y-104379107D01*
D29*
X138600000Y-83430000D02*
X137914974Y-83430000D01*
D28*
X148870000Y-90840000D02*
X148870000Y-89778117D01*
X132150000Y-82470000D02*
X132770000Y-82470000D01*
X148870000Y-89778117D02*
X146045941Y-86954058D01*
X137070000Y-84450000D02*
X136680000Y-84840000D01*
X149170000Y-102921882D02*
X149170000Y-97590000D01*
X134110000Y-82080000D02*
X133710000Y-81680000D01*
X132290000Y-95250000D02*
X132000000Y-95250000D01*
X132050000Y-99500000D02*
X132050000Y-99046366D01*
X137070000Y-83780000D02*
X137070000Y-84450000D01*
D29*
X133350000Y-82470000D02*
X133928457Y-82470000D01*
D28*
X131000000Y-97996366D02*
X131000000Y-97762500D01*
X137640000Y-83780000D02*
X138190000Y-84330000D01*
X146045941Y-106045941D02*
X149170000Y-102921882D01*
X132850000Y-94090000D02*
X133160000Y-94400000D01*
D29*
X132000000Y-96237500D02*
X132000000Y-95250000D01*
D28*
X135250000Y-95070000D02*
X134410000Y-94230000D01*
X132770000Y-82470000D02*
X133350000Y-82470000D01*
X133160000Y-94400000D02*
X132300000Y-95260000D01*
X134410000Y-94230000D02*
X133330000Y-94230000D01*
X132050000Y-99046366D02*
X131000000Y-97996366D01*
X137070000Y-83780000D02*
X137640000Y-83780000D01*
X143000000Y-94510000D02*
X145200000Y-94510000D01*
D29*
X143000000Y-95237500D02*
X143000000Y-96225000D01*
X140750000Y-97737500D02*
X141969823Y-97737500D01*
D28*
X134870000Y-82080000D02*
X134110000Y-82080000D01*
X132300000Y-95260000D02*
X132290000Y-95250000D01*
X145645000Y-94065000D02*
X148870000Y-90840000D01*
X149170000Y-97590000D02*
X145645000Y-94065000D01*
X143000000Y-95237500D02*
X143000000Y-94510000D01*
D29*
X133928457Y-82470000D02*
G75*
G03*
X134870013Y-82080013I43J1331500D01*
G01*
X141969823Y-97737500D02*
G75*
G02*
X141999993Y-97750007I-23J-42700D01*
G01*
X130921539Y-97730000D02*
G75*
G02*
X130999989Y-97762511I-39J-111000D01*
G01*
D28*
X135250000Y-104379107D02*
G75*
G03*
X135735002Y-105549998I1655900J7D01*
G01*
D29*
X137914974Y-83430000D02*
G75*
G03*
X137070007Y-83780007I26J-1195000D01*
G01*
D28*
%TO.N,/SCK1*%
X137772001Y-89647975D02*
X137782812Y-89674073D01*
X130737500Y-97250000D02*
X130939584Y-97250000D01*
X137762500Y-89637500D02*
X137760614Y-89700977D01*
X137762500Y-89637500D02*
X137772001Y-89647975D01*
X137782812Y-89674073D02*
X137782812Y-91047993D01*
X137782812Y-91047993D02*
G75*
G02*
X136850002Y-93300002I-3184812J-7D01*
G01*
X130939584Y-97250000D02*
G75*
G03*
X131350005Y-97080005I16J580400D01*
G01*
%TO.N,/INT1*%
X138562500Y-85167500D02*
X138562500Y-85762500D01*
X136905000Y-85465000D02*
X137370000Y-85000000D01*
X133240000Y-95772500D02*
X132262500Y-96750000D01*
X133400000Y-85130000D02*
X131660000Y-85130000D01*
X133240000Y-95640000D02*
X133240000Y-95772500D01*
X137370000Y-85000000D02*
X138395000Y-85000000D01*
X138395000Y-85000000D02*
X138562500Y-85167500D01*
%TO.N,/NSS1*%
X133180070Y-96869930D02*
X133506030Y-96543970D01*
X139770000Y-83819996D02*
X140400000Y-84449996D01*
X139770000Y-83480000D02*
X139770000Y-83819996D01*
X132262500Y-97250000D02*
X132297730Y-97217602D01*
X133506030Y-96543970D02*
G75*
G03*
X134100012Y-95110000I-1433930J1433970D01*
G01*
X132262500Y-97250000D02*
G75*
G03*
X133180062Y-96869922I0J1297600D01*
G01*
%TO.N,/MOSI1*%
X138555880Y-89644700D02*
X138555880Y-92799409D01*
X132058423Y-98425290D02*
X133132965Y-98425290D01*
X131500000Y-97762500D02*
X131532398Y-97797730D01*
X131913771Y-98350976D02*
X131976083Y-98387542D01*
X131571000Y-97986715D02*
X131571000Y-98031380D01*
X131532398Y-97797730D02*
X131534416Y-97859457D01*
X131566374Y-97978703D02*
X131571000Y-97986715D01*
X131571000Y-98031380D02*
X131768620Y-98229000D01*
X131844112Y-98299719D02*
X131913771Y-98350976D01*
X131976083Y-98387542D02*
X132058423Y-98425290D01*
X131534416Y-97859457D02*
X131566374Y-97978703D01*
X131768620Y-98229000D02*
X131844112Y-98299719D01*
X138562500Y-89637500D02*
X138555880Y-89644700D01*
X133132965Y-98425290D02*
G75*
G03*
X133870010Y-98120010I35J1042290D01*
G01*
X138555880Y-92799409D02*
G75*
G02*
X138099998Y-93899998I-1556480J9D01*
G01*
%TO.N,/MISO1*%
X138168989Y-89643989D02*
X138168989Y-92395040D01*
X132018106Y-97770000D02*
X132000000Y-97762500D01*
X133130000Y-97770000D02*
X132018106Y-97770000D01*
X138162500Y-89637500D02*
X138168989Y-89643989D01*
X133150000Y-97770000D02*
X133130000Y-97770000D01*
X138168989Y-92395040D02*
G75*
G02*
X137789988Y-93309988I-1293989J40D01*
G01*
%TO.N,/MOSI2*%
X142500000Y-97750000D02*
X142500000Y-98437868D01*
X142650000Y-98800000D02*
X142714644Y-98864644D01*
X140900000Y-88500000D02*
X141415000Y-88500000D01*
X141415000Y-88500000D02*
X141830000Y-88915000D01*
X142920711Y-98950000D02*
X143200000Y-98950000D01*
X141830000Y-88915000D02*
X141830000Y-90060000D01*
X143200000Y-98950000D02*
X143247625Y-98948006D01*
X143613576Y-98796424D02*
X143850000Y-98560000D01*
X142500000Y-98437868D02*
G75*
G03*
X142649991Y-98800009I512100J-32D01*
G01*
X142714644Y-98864644D02*
G75*
G03*
X142920711Y-98949999I206056J206044D01*
G01*
X143247625Y-98948006D02*
G75*
G03*
X143613558Y-98796406I-25J517506D01*
G01*
%TO.N,/NSS2*%
X140950000Y-83490000D02*
X140950000Y-84000000D01*
X140950000Y-84000000D02*
X141100000Y-84150000D01*
X139762500Y-89637500D02*
X139762500Y-90715620D01*
X144370000Y-98000000D02*
X143851452Y-97481452D01*
X140060000Y-91433847D02*
X140060000Y-91770000D01*
X143851452Y-97481452D02*
G75*
G03*
X143262500Y-97237499I-588952J-588948D01*
G01*
X139762500Y-90715620D02*
G75*
G03*
X139930006Y-91119994I571900J20D01*
G01*
X139930000Y-91120000D02*
G75*
G02*
X140059980Y-91433847I-313800J-313800D01*
G01*
%TO.N,/SCK2*%
X140162500Y-89637500D02*
X140162500Y-90086208D01*
X142299392Y-97024824D02*
X142340624Y-97024824D01*
X141737500Y-97237500D02*
X141827193Y-97237500D01*
X142170519Y-97153697D02*
X142299392Y-97024824D01*
X140800000Y-91625269D02*
X140800000Y-92000000D01*
X140570000Y-91070000D02*
G75*
G02*
X140800013Y-91625269I-555300J-555300D01*
G01*
X141827193Y-97237500D02*
G75*
G03*
X142170529Y-97153716I-4693J764600D01*
G01*
X140162500Y-90086208D02*
G75*
G03*
X140570002Y-91069998I1391300J8D01*
G01*
%TO.N,/INT2*%
X141210173Y-84990000D02*
X140066194Y-84990000D01*
X139762500Y-85293694D02*
X139762500Y-85712500D01*
X140066194Y-84990000D02*
X139762500Y-85293694D01*
X144390000Y-96480000D02*
X144400000Y-96490000D01*
X144072500Y-96737500D02*
X144350000Y-96460000D01*
X144370000Y-96460000D02*
X144390000Y-96480000D01*
X144350000Y-96460000D02*
X144370000Y-96460000D01*
X143262500Y-96737500D02*
X144072500Y-96737500D01*
X142880000Y-90108680D02*
X142880000Y-87041665D01*
X142200000Y-85400000D02*
G75*
G03*
X141210173Y-84990011I-989800J-989800D01*
G01*
X144380000Y-93730000D02*
G75*
G02*
X142880008Y-90108680I3621300J3621300D01*
G01*
X142880000Y-87041665D02*
G75*
G03*
X142199990Y-85400010I-2321700J-35D01*
G01*
%TO.N,/MISO2*%
X143000000Y-97750000D02*
X143000000Y-98245000D01*
X143000000Y-98245000D02*
X143125000Y-98370000D01*
%TO.N,/SCL*%
X137750997Y-103723812D02*
X137750997Y-104321159D01*
X138983500Y-89641771D02*
X138983500Y-100722068D01*
X137750000Y-103700000D02*
X137750997Y-103723812D01*
X137750997Y-104321159D02*
G75*
G03*
X138259988Y-105550012I1737803J-41D01*
G01*
X138983500Y-100722068D02*
G75*
G02*
X137750009Y-103700009I-4211400J-32D01*
G01*
%TO.N,Net-(U3-NRST)*%
X136411943Y-87266521D02*
X136365797Y-87253982D01*
X136979001Y-87279000D02*
X136542170Y-87279000D01*
X132824810Y-84122815D02*
X132932695Y-84230700D01*
X133433309Y-84372909D02*
X133580200Y-84519800D01*
X132164142Y-83464142D02*
X132800000Y-84100000D01*
X136474683Y-87276992D02*
X136411943Y-87266521D01*
X136332022Y-87241741D02*
X136268532Y-87208133D01*
X137002208Y-87288613D02*
X136979001Y-87279000D01*
X137025000Y-87300000D02*
X137021678Y-87296678D01*
X132150000Y-83430000D02*
X131240000Y-83430000D01*
X133100000Y-84300000D02*
X133257291Y-84300000D01*
X137021678Y-87296678D02*
X137002208Y-87288613D01*
X131240000Y-83430000D02*
X131210000Y-83460000D01*
X136268532Y-87208133D02*
X133580200Y-84519800D01*
X136365797Y-87253982D02*
X136332022Y-87241741D01*
X132800000Y-84100000D02*
X132824810Y-84122815D01*
X136542170Y-87279000D02*
X136474683Y-87276992D01*
X133257291Y-84300000D02*
G75*
G02*
X133433308Y-84372910I9J-248900D01*
G01*
X132150000Y-83430000D02*
G75*
G03*
X132164139Y-83464145I48300J0D01*
G01*
X132932695Y-84230700D02*
G75*
G03*
X133100000Y-84300001I167305J167300D01*
G01*
%TO.N,/SDA*%
X140250000Y-103700000D02*
X140250000Y-104318752D01*
X139362500Y-89637500D02*
X139362500Y-101557386D01*
X139362500Y-101557386D02*
G75*
G03*
X140249996Y-103700004I3030100J-14D01*
G01*
X140250000Y-104318752D02*
G75*
G03*
X140760015Y-105549985I1741300J52D01*
G01*
%TO.N,/SWCLK*%
X140162500Y-85762500D02*
X140719823Y-85762500D01*
X140719823Y-85762500D02*
G75*
G03*
X140749993Y-85749993I-23J42700D01*
G01*
%TO.N,Net-(U3-OCS_IN{slash}PD0)*%
X136020000Y-84560000D02*
X136020000Y-83306568D01*
X136144852Y-83005147D02*
X137070000Y-82080000D01*
X137025000Y-86500000D02*
X136681145Y-86156145D01*
D29*
X138600000Y-82470000D02*
X138011543Y-82470000D01*
D28*
X136681145Y-86156145D02*
G75*
G02*
X136020003Y-84560000I1596155J1596145D01*
G01*
D29*
X138011543Y-82470000D02*
G75*
G02*
X137069987Y-82080013I-43J1331500D01*
G01*
D28*
X136020000Y-83306568D02*
G75*
G02*
X136144863Y-83005158I426300J-32D01*
G01*
%TO.N,Net-(U3-OCS_OUT{slash}PD1)*%
X136160000Y-86550000D02*
X135916518Y-86306518D01*
D29*
X133350000Y-83430000D02*
X134025026Y-83430000D01*
D28*
X136452930Y-86842929D02*
X136160000Y-86550000D01*
X137025000Y-86900000D02*
X136590710Y-86900000D01*
D29*
X134025026Y-83430000D02*
G75*
G02*
X134869993Y-83780007I-26J-1195000D01*
G01*
D28*
X135916518Y-86306518D02*
G75*
G02*
X134869989Y-83780000I2526482J2526518D01*
G01*
X136590710Y-86900000D02*
G75*
G02*
X136452935Y-86842924I-10J194800D01*
G01*
%TO.N,Net-(D1-A)*%
X134765000Y-105550000D02*
X133260000Y-105550000D01*
%TO.N,VDD*%
X142040000Y-95237500D02*
X142112890Y-95160949D01*
X142340020Y-94731408D02*
X142353043Y-94668693D01*
X142112890Y-95160949D02*
X142170428Y-95088317D01*
X142170428Y-95088317D02*
X142229839Y-94997741D01*
X142229839Y-94997741D02*
X142272072Y-94917749D01*
X142272072Y-94917749D02*
X142315566Y-94813070D01*
X141450000Y-86000000D02*
X141489646Y-86000000D01*
X142315566Y-94813070D02*
X142340020Y-94731408D01*
X142353043Y-94668693D02*
X142359365Y-94621009D01*
X142359365Y-94621009D02*
X142359365Y-87095095D01*
X141489646Y-86000000D02*
G75*
G02*
X141991929Y-86208071I-46J-710400D01*
G01*
%TD*%
%TA.AperFunction,Conductor*%
%TO.N,GND*%
G36*
X131662277Y-81321889D02*
G01*
X131693294Y-81384496D01*
X131685540Y-81453934D01*
X131650293Y-81497305D01*
X131652374Y-81499700D01*
X131619941Y-81527881D01*
X131614341Y-81532467D01*
X131586765Y-81553735D01*
X131583032Y-81557487D01*
X131570469Y-81570871D01*
X131503675Y-81628912D01*
X131490542Y-81638145D01*
X131484648Y-81642543D01*
X131459335Y-81667181D01*
X131454189Y-81671915D01*
X131427530Y-81695083D01*
X131422687Y-81700555D01*
X131412363Y-81712904D01*
X131358487Y-81765346D01*
X131358486Y-81765346D01*
X131236220Y-81884356D01*
X131174451Y-81917011D01*
X131149730Y-81919500D01*
X130988418Y-81919500D01*
X130913482Y-81930418D01*
X130913480Y-81930418D01*
X130913478Y-81930419D01*
X130797900Y-81986921D01*
X130797897Y-81986923D01*
X130706923Y-82077897D01*
X130706921Y-82077900D01*
X130650419Y-82193478D01*
X130650418Y-82193480D01*
X130650418Y-82193482D01*
X130639500Y-82268418D01*
X130639500Y-82268423D01*
X130639500Y-82428110D01*
X130619815Y-82495149D01*
X130603180Y-82515793D01*
X130574218Y-82544753D01*
X130500567Y-82640735D01*
X130429015Y-82733982D01*
X130428654Y-82734452D01*
X130401101Y-82782175D01*
X130309101Y-82941520D01*
X130309100Y-82941523D01*
X130309098Y-82941525D01*
X130217597Y-83162425D01*
X130155709Y-83393388D01*
X130124500Y-83630438D01*
X130124500Y-84049562D01*
X130124487Y-84049606D01*
X130124487Y-84275346D01*
X130154892Y-84622832D01*
X130208767Y-84928360D01*
X130215465Y-84966343D01*
X130302190Y-85289997D01*
X130305749Y-85303276D01*
X130425048Y-85631041D01*
X130453557Y-85692179D01*
X130464048Y-85761257D01*
X130462792Y-85768771D01*
X130459500Y-85785323D01*
X130459500Y-87380217D01*
X130439816Y-87447256D01*
X130288532Y-87682659D01*
X130064133Y-88093615D01*
X129909002Y-88433309D01*
X129869619Y-88519547D01*
X129809472Y-88680808D01*
X129705980Y-88958281D01*
X129574068Y-89407538D01*
X129574065Y-89407548D01*
X129474538Y-89865075D01*
X129407902Y-90328558D01*
X129374500Y-90795605D01*
X129374500Y-96231887D01*
X129354815Y-96298926D01*
X129338181Y-96319568D01*
X129260141Y-96397607D01*
X129221944Y-96472572D01*
X129173969Y-96523367D01*
X129173461Y-96523663D01*
X129072275Y-96582083D01*
X129072274Y-96582084D01*
X128930798Y-96700798D01*
X128812084Y-96842274D01*
X128812080Y-96842280D01*
X128719740Y-97002217D01*
X128719737Y-97002224D01*
X128656570Y-97175773D01*
X128624500Y-97357653D01*
X128624500Y-97816039D01*
X128655323Y-98247010D01*
X128716814Y-98674693D01*
X128808655Y-99096879D01*
X128808658Y-99096889D01*
X128876083Y-99326516D01*
X128930387Y-99511459D01*
X128975288Y-99631844D01*
X129081387Y-99916304D01*
X129260865Y-100309307D01*
X129260869Y-100309314D01*
X129467939Y-100688534D01*
X129467943Y-100688541D01*
X129491229Y-100724774D01*
X129701536Y-101052020D01*
X129960478Y-101397925D01*
X130098654Y-101557388D01*
X130243421Y-101724458D01*
X130361225Y-101842262D01*
X130378739Y-101859776D01*
X130378744Y-101859783D01*
X130414796Y-101895833D01*
X131613181Y-103094218D01*
X131646666Y-103155541D01*
X131649500Y-103181899D01*
X131649500Y-104472870D01*
X131649501Y-104472876D01*
X131655908Y-104532483D01*
X131706202Y-104667328D01*
X131706206Y-104667335D01*
X131771969Y-104755182D01*
X131792454Y-104782546D01*
X131879158Y-104847453D01*
X131921028Y-104903385D01*
X131926012Y-104973077D01*
X131892527Y-105034400D01*
X131878765Y-105046055D01*
X131786923Y-105137897D01*
X131786921Y-105137900D01*
X131730419Y-105253478D01*
X131730418Y-105253480D01*
X131730418Y-105253482D01*
X131719500Y-105328418D01*
X131719500Y-105771582D01*
X131730418Y-105846518D01*
X131730418Y-105846519D01*
X131730419Y-105846521D01*
X131786921Y-105962099D01*
X131786923Y-105962102D01*
X131877897Y-106053076D01*
X131877900Y-106053078D01*
X131988656Y-106107222D01*
X131993482Y-106109582D01*
X132068418Y-106120500D01*
X132228101Y-106120500D01*
X132295140Y-106140185D01*
X132315777Y-106156814D01*
X132347828Y-106188865D01*
X132375137Y-106216174D01*
X132375220Y-106216247D01*
X132397845Y-106238872D01*
X132532681Y-106342339D01*
X132539836Y-106347829D01*
X132694833Y-106437320D01*
X132694844Y-106437324D01*
X132694845Y-106437325D01*
X132860181Y-106505812D01*
X132860183Y-106505812D01*
X132860186Y-106505814D01*
X133033065Y-106552138D01*
X133210511Y-106575499D01*
X133240563Y-106575499D01*
X133240575Y-106575500D01*
X133250565Y-106575500D01*
X135728651Y-106575500D01*
X135728891Y-106575483D01*
X135816473Y-106575485D01*
X136106076Y-106542859D01*
X136106086Y-106542856D01*
X136106092Y-106542856D01*
X136339618Y-106489557D01*
X136390205Y-106478012D01*
X136665286Y-106381760D01*
X136927861Y-106255313D01*
X137112168Y-106139506D01*
X137178140Y-106120500D01*
X137228099Y-106120500D01*
X137295138Y-106140185D01*
X137315780Y-106156819D01*
X137325590Y-106166629D01*
X137325681Y-106166708D01*
X137334289Y-106175316D01*
X137347845Y-106188872D01*
X137347848Y-106188874D01*
X137347850Y-106188876D01*
X137489827Y-106297823D01*
X137489831Y-106297825D01*
X137489836Y-106297829D01*
X137644833Y-106387320D01*
X137644844Y-106387324D01*
X137644845Y-106387325D01*
X137810181Y-106455812D01*
X137810183Y-106455812D01*
X137810186Y-106455814D01*
X137983065Y-106502138D01*
X138160511Y-106525499D01*
X138190563Y-106525499D01*
X138190575Y-106525500D01*
X138200565Y-106525500D01*
X138757493Y-106525500D01*
X138757706Y-106525486D01*
X138794235Y-106525486D01*
X138825376Y-106521386D01*
X138981089Y-106500887D01*
X139084572Y-106473159D01*
X139163129Y-106452112D01*
X139163131Y-106452110D01*
X139163135Y-106452110D01*
X139337258Y-106379989D01*
X139500478Y-106285759D01*
X139650002Y-106171031D01*
X139664214Y-106156819D01*
X139725537Y-106123334D01*
X139751895Y-106120500D01*
X139911577Y-106120500D01*
X139911582Y-106120500D01*
X139986518Y-106109582D01*
X140044310Y-106081329D01*
X140102099Y-106053078D01*
X140102102Y-106053076D01*
X140162319Y-105992860D01*
X140223642Y-105959375D01*
X140293334Y-105964359D01*
X140337681Y-105992860D01*
X140397897Y-106053076D01*
X140397900Y-106053078D01*
X140508656Y-106107222D01*
X140513482Y-106109582D01*
X140588418Y-106120500D01*
X140588423Y-106120500D01*
X140931577Y-106120500D01*
X140931582Y-106120500D01*
X141006518Y-106109582D01*
X141064310Y-106081329D01*
X141122099Y-106053078D01*
X141122102Y-106053076D01*
X141213076Y-105962102D01*
X141213078Y-105962099D01*
X141241329Y-105904310D01*
X141269582Y-105846518D01*
X141280500Y-105771582D01*
X141280500Y-105328418D01*
X141269582Y-105253482D01*
X141258895Y-105231621D01*
X141213078Y-105137900D01*
X141213076Y-105137897D01*
X141122102Y-105046923D01*
X141122099Y-105046921D01*
X141006521Y-104990419D01*
X141006519Y-104990418D01*
X141006518Y-104990418D01*
X140931582Y-104979500D01*
X140931577Y-104979500D01*
X140914883Y-104979500D01*
X140847844Y-104959815D01*
X140802089Y-104907011D01*
X140792145Y-104837853D01*
X140821170Y-104774297D01*
X140841997Y-104755182D01*
X140843147Y-104754345D01*
X140966928Y-104664414D01*
X141089414Y-104541928D01*
X141191232Y-104401788D01*
X141269873Y-104247445D01*
X141323402Y-104082701D01*
X141350500Y-103911611D01*
X141350500Y-103488389D01*
X141323402Y-103317299D01*
X141269873Y-103152555D01*
X141191232Y-102998212D01*
X141089414Y-102858072D01*
X140966928Y-102735586D01*
X140826788Y-102633768D01*
X140672445Y-102555127D01*
X140507701Y-102501598D01*
X140507699Y-102501597D01*
X140507698Y-102501597D01*
X140365168Y-102479023D01*
X140336611Y-102474500D01*
X140163389Y-102474500D01*
X140018370Y-102497468D01*
X139949077Y-102488513D01*
X139895625Y-102443517D01*
X139879819Y-102409322D01*
X139855210Y-102323903D01*
X139806487Y-102154781D01*
X139803394Y-102141227D01*
X139786033Y-102039044D01*
X139755861Y-101861464D01*
X139754307Y-101847669D01*
X139738195Y-101560735D01*
X139738000Y-101553783D01*
X139738000Y-92362727D01*
X139757685Y-92295688D01*
X139810489Y-92249933D01*
X139879647Y-92239989D01*
X139896934Y-92243750D01*
X139988036Y-92270499D01*
X139988038Y-92270500D01*
X139988039Y-92270500D01*
X140131961Y-92270500D01*
X140246959Y-92236734D01*
X140316828Y-92236734D01*
X140375606Y-92274508D01*
X140393959Y-92295688D01*
X140468872Y-92382143D01*
X140589947Y-92459953D01*
X140589950Y-92459954D01*
X140589949Y-92459954D01*
X140728036Y-92500499D01*
X140728038Y-92500500D01*
X140728039Y-92500500D01*
X140871962Y-92500500D01*
X140871962Y-92500499D01*
X141010053Y-92459953D01*
X141131128Y-92382143D01*
X141225377Y-92273373D01*
X141285165Y-92142457D01*
X141305647Y-92000000D01*
X141285165Y-91857543D01*
X141225377Y-91726627D01*
X141205797Y-91704031D01*
X141176773Y-91640476D01*
X141175511Y-91622845D01*
X141175508Y-91533901D01*
X141146921Y-91353445D01*
X141146921Y-91353443D01*
X141090458Y-91179683D01*
X141085929Y-91170795D01*
X141073033Y-91102126D01*
X141099309Y-91037385D01*
X141156416Y-90997128D01*
X141196414Y-90990500D01*
X141301962Y-90990500D01*
X141301962Y-90990499D01*
X141440053Y-90949953D01*
X141561128Y-90872143D01*
X141655377Y-90763373D01*
X141693796Y-90679248D01*
X141714923Y-90632988D01*
X141760678Y-90580184D01*
X141827717Y-90560500D01*
X141859865Y-90560500D01*
X141926904Y-90580185D01*
X141972659Y-90632989D01*
X141983865Y-90684500D01*
X141983865Y-94553357D01*
X141964180Y-94620396D01*
X141911376Y-94666151D01*
X141874013Y-94675830D01*
X141874078Y-94676238D01*
X141869860Y-94676905D01*
X141869594Y-94676975D01*
X141869257Y-94677001D01*
X141777829Y-94691481D01*
X141777828Y-94691481D01*
X141667607Y-94747642D01*
X141667603Y-94747645D01*
X141580145Y-94835103D01*
X141580142Y-94835108D01*
X141580141Y-94835109D01*
X141579368Y-94836627D01*
X141523981Y-94945327D01*
X141523981Y-94945328D01*
X141509500Y-95036764D01*
X141509500Y-95185600D01*
X141489815Y-95252639D01*
X141473181Y-95273281D01*
X140703760Y-96042701D01*
X140703728Y-96042730D01*
X140697560Y-96048898D01*
X140697522Y-96048918D01*
X140606751Y-96139695D01*
X140606747Y-96139700D01*
X140556326Y-96209106D01*
X140500998Y-96251774D01*
X140475405Y-96258698D01*
X140457828Y-96261482D01*
X140457826Y-96261482D01*
X140457825Y-96261483D01*
X140362533Y-96310037D01*
X140347607Y-96317642D01*
X140347603Y-96317645D01*
X140260145Y-96405103D01*
X140260142Y-96405108D01*
X140260141Y-96405109D01*
X140242959Y-96438830D01*
X140203981Y-96515327D01*
X140203981Y-96515328D01*
X140189500Y-96606764D01*
X140189500Y-96948239D01*
X140203981Y-97039670D01*
X140203981Y-97039671D01*
X140203982Y-97039674D01*
X140203983Y-97039675D01*
X140259527Y-97148686D01*
X140260142Y-97149892D01*
X140260145Y-97149896D01*
X140347603Y-97237354D01*
X140347605Y-97237355D01*
X140347609Y-97237359D01*
X140457825Y-97293517D01*
X140457826Y-97293517D01*
X140457828Y-97293518D01*
X140492947Y-97299079D01*
X140549265Y-97308000D01*
X140950734Y-97307999D01*
X140950739Y-97307999D01*
X140950739Y-97307998D01*
X140998096Y-97300498D01*
X141042170Y-97293518D01*
X141042171Y-97293517D01*
X141042175Y-97293517D01*
X141094795Y-97266705D01*
X141163461Y-97253809D01*
X141228202Y-97280084D01*
X141268459Y-97337190D01*
X141274027Y-97361006D01*
X141280980Y-97413826D01*
X141280982Y-97413833D01*
X141330256Y-97519500D01*
X141331356Y-97521859D01*
X141415641Y-97606144D01*
X141523670Y-97656519D01*
X141572897Y-97663000D01*
X141902102Y-97662999D01*
X141934317Y-97658758D01*
X142003350Y-97669524D01*
X142055606Y-97715903D01*
X142074500Y-97781696D01*
X142074500Y-97914604D01*
X142080980Y-97963825D01*
X142080982Y-97963833D01*
X142112882Y-98032241D01*
X142124500Y-98084646D01*
X142124500Y-98495359D01*
X142124510Y-98495520D01*
X142124510Y-98498845D01*
X142124510Y-98507705D01*
X142145898Y-98642791D01*
X142146359Y-98645699D01*
X142146362Y-98645715D01*
X142189528Y-98778582D01*
X142189532Y-98778593D01*
X142231055Y-98860091D01*
X142252959Y-98903082D01*
X142252961Y-98903086D01*
X142252963Y-98903088D01*
X142335084Y-99016121D01*
X142335085Y-99016122D01*
X142345184Y-99026220D01*
X142345201Y-99026239D01*
X142367039Y-99048077D01*
X142367043Y-99048082D01*
X142410927Y-99091965D01*
X142410942Y-99091979D01*
X142412797Y-99093834D01*
X142412799Y-99093837D01*
X142495561Y-99176603D01*
X142495566Y-99176607D01*
X142604797Y-99249595D01*
X142604806Y-99249600D01*
X142726174Y-99299872D01*
X142726178Y-99299872D01*
X142726181Y-99299874D01*
X142855036Y-99325502D01*
X142920724Y-99325500D01*
X142920726Y-99325500D01*
X143144844Y-99325500D01*
X143158174Y-99326972D01*
X143158215Y-99326516D01*
X143166316Y-99327239D01*
X143205247Y-99325609D01*
X143210434Y-99325500D01*
X143249433Y-99325500D01*
X143249435Y-99325500D01*
X143249436Y-99325499D01*
X143256334Y-99324591D01*
X143272519Y-99323529D01*
X143317910Y-99323527D01*
X143317930Y-99323527D01*
X143373463Y-99314728D01*
X143456767Y-99301530D01*
X143479073Y-99294280D01*
X143590449Y-99258085D01*
X143590451Y-99258083D01*
X143590454Y-99258083D01*
X143715699Y-99194258D01*
X143829417Y-99111626D01*
X143844396Y-99096644D01*
X143905716Y-99063155D01*
X143914443Y-99061580D01*
X143921954Y-99060500D01*
X143921961Y-99060500D01*
X143921968Y-99060498D01*
X144060050Y-99019954D01*
X144060050Y-99019953D01*
X144060053Y-99019953D01*
X144181128Y-98942143D01*
X144275377Y-98833373D01*
X144335165Y-98702457D01*
X144346431Y-98624098D01*
X144375456Y-98560544D01*
X144434234Y-98522769D01*
X144434235Y-98522769D01*
X144580050Y-98479954D01*
X144580050Y-98479953D01*
X144580053Y-98479953D01*
X144701128Y-98402143D01*
X144795377Y-98293373D01*
X144855165Y-98162457D01*
X144875647Y-98020000D01*
X144855165Y-97877543D01*
X144795377Y-97746627D01*
X144701128Y-97637857D01*
X144666581Y-97615655D01*
X144580051Y-97560045D01*
X144441997Y-97519510D01*
X144389251Y-97488214D01*
X144186531Y-97285494D01*
X144153046Y-97224171D01*
X144158030Y-97154479D01*
X144199902Y-97098546D01*
X144212213Y-97090426D01*
X144217435Y-97087410D01*
X144217438Y-97087410D01*
X144303062Y-97037975D01*
X144324218Y-97016819D01*
X144385541Y-96983334D01*
X144411899Y-96980500D01*
X144461962Y-96980500D01*
X144461962Y-96980499D01*
X144600053Y-96939953D01*
X144721128Y-96862143D01*
X144815377Y-96753373D01*
X144875165Y-96622457D01*
X144895647Y-96480000D01*
X144875165Y-96337543D01*
X144815377Y-96206627D01*
X144721128Y-96097857D01*
X144600053Y-96020047D01*
X144600051Y-96020046D01*
X144600049Y-96020045D01*
X144600050Y-96020045D01*
X144461963Y-95979500D01*
X144461961Y-95979500D01*
X144318039Y-95979500D01*
X144318036Y-95979500D01*
X144179949Y-96020045D01*
X144058873Y-96097856D01*
X143964623Y-96206626D01*
X143964622Y-96206628D01*
X143926770Y-96289512D01*
X143881015Y-96342316D01*
X143813976Y-96362000D01*
X143597146Y-96362000D01*
X143544741Y-96350382D01*
X143543525Y-96349815D01*
X143476330Y-96318481D01*
X143476328Y-96318480D01*
X143427113Y-96312001D01*
X143427108Y-96312000D01*
X143427103Y-96312000D01*
X143427096Y-96312000D01*
X143097895Y-96312000D01*
X143048674Y-96318480D01*
X143048666Y-96318482D01*
X142940640Y-96368856D01*
X142856356Y-96453140D01*
X142805781Y-96561598D01*
X142759608Y-96614037D01*
X142692414Y-96633189D01*
X142626360Y-96613509D01*
X142550675Y-96564869D01*
X142509804Y-96552869D01*
X142451026Y-96515094D01*
X142422001Y-96451539D01*
X142421800Y-96417706D01*
X142423459Y-96405109D01*
X142425500Y-96389603D01*
X142425499Y-96310035D01*
X142429725Y-96277939D01*
X142435003Y-96258245D01*
X142440501Y-96237727D01*
X142440501Y-96132273D01*
X142440501Y-96124678D01*
X142440500Y-96124660D01*
X142440500Y-95750612D01*
X142460185Y-95683573D01*
X142476815Y-95662934D01*
X142499859Y-95639891D01*
X142556017Y-95529675D01*
X142556017Y-95529673D01*
X142556018Y-95529672D01*
X142556018Y-95529671D01*
X142565433Y-95470224D01*
X142570500Y-95438235D01*
X142570499Y-95187825D01*
X142590183Y-95120787D01*
X142596213Y-95112223D01*
X142599862Y-95107479D01*
X142599861Y-95107479D01*
X142599863Y-95107478D01*
X142610011Y-95083050D01*
X142614866Y-95072734D01*
X142627211Y-95049353D01*
X142627213Y-95049350D01*
X142628749Y-95042602D01*
X142635142Y-95022568D01*
X142647061Y-94993881D01*
X142656035Y-94976359D01*
X142661102Y-94968146D01*
X142667910Y-94945409D01*
X142672180Y-94933428D01*
X142681293Y-94911497D01*
X142682563Y-94901929D01*
X142686714Y-94882615D01*
X142687143Y-94881185D01*
X142695167Y-94861037D01*
X142697626Y-94856156D01*
X142703298Y-94828834D01*
X142705922Y-94818471D01*
X142713919Y-94791769D01*
X142713919Y-94791767D01*
X142715215Y-94783744D01*
X142715922Y-94783858D01*
X142717914Y-94770301D01*
X142718784Y-94767059D01*
X142718788Y-94767052D01*
X142722890Y-94736113D01*
X142724405Y-94727196D01*
X142730750Y-94696643D01*
X142730995Y-94693330D01*
X142734839Y-94670643D01*
X142734865Y-94670447D01*
X142734865Y-94653975D01*
X142735941Y-94637674D01*
X142738105Y-94621355D01*
X142735911Y-94604570D01*
X142734865Y-94588499D01*
X142734865Y-92381598D01*
X142754550Y-92314559D01*
X142807354Y-92268804D01*
X142876512Y-92258860D01*
X142940068Y-92287885D01*
X142973425Y-92334145D01*
X143005571Y-92411752D01*
X143155499Y-92706003D01*
X143201675Y-92796628D01*
X143201678Y-92796634D01*
X143411041Y-93138282D01*
X143427356Y-93164905D01*
X143503746Y-93270047D01*
X143681238Y-93514345D01*
X143681248Y-93514359D01*
X143852825Y-93715248D01*
X143881273Y-93778133D01*
X143894834Y-93872453D01*
X143894835Y-93872458D01*
X143954622Y-94003371D01*
X143954623Y-94003373D01*
X144048872Y-94112143D01*
X144169947Y-94189953D01*
X144169950Y-94189954D01*
X144169949Y-94189954D01*
X144308036Y-94230499D01*
X144308038Y-94230500D01*
X144308039Y-94230500D01*
X144451962Y-94230500D01*
X144451962Y-94230499D01*
X144590053Y-94189953D01*
X144711128Y-94112143D01*
X144805377Y-94003373D01*
X144865165Y-93872457D01*
X144885647Y-93730000D01*
X144865165Y-93587543D01*
X144805377Y-93456627D01*
X144711128Y-93347857D01*
X144676581Y-93325655D01*
X144590051Y-93270045D01*
X144452359Y-93229616D01*
X144396278Y-93194854D01*
X144395904Y-93194448D01*
X144389556Y-93187019D01*
X144188220Y-92931626D01*
X144164885Y-92902026D01*
X144159165Y-92894152D01*
X144111527Y-92822857D01*
X143957553Y-92592417D01*
X143952467Y-92584118D01*
X143882932Y-92459954D01*
X143775139Y-92267475D01*
X143770731Y-92258823D01*
X143618789Y-91929236D01*
X143615074Y-91920265D01*
X143489464Y-91579783D01*
X143486459Y-91570533D01*
X143483492Y-91560012D01*
X143387948Y-91221234D01*
X143385683Y-91211796D01*
X143314885Y-90855869D01*
X143313363Y-90846262D01*
X143303552Y-90763371D01*
X143270707Y-90485853D01*
X143269945Y-90476154D01*
X143255596Y-90110884D01*
X143255500Y-90106017D01*
X143255500Y-88583646D01*
X143275185Y-88516607D01*
X143327989Y-88470852D01*
X143397147Y-88460908D01*
X143460703Y-88489933D01*
X143486887Y-88521646D01*
X143535230Y-88605380D01*
X143743908Y-88885683D01*
X143752089Y-88894354D01*
X145002260Y-87644182D01*
X145092495Y-87768378D01*
X145231621Y-87907504D01*
X145355814Y-87997736D01*
X144108759Y-89244791D01*
X144108760Y-89244792D01*
X144251425Y-89364503D01*
X144543402Y-89556538D01*
X144855680Y-89713372D01*
X144855686Y-89713374D01*
X145184071Y-89832896D01*
X145184074Y-89832897D01*
X145524112Y-89913487D01*
X145871217Y-89954057D01*
X145871218Y-89954058D01*
X146220664Y-89954058D01*
X146220664Y-89954057D01*
X146567768Y-89913487D01*
X146567770Y-89913487D01*
X146907807Y-89832897D01*
X146907810Y-89832896D01*
X147236195Y-89713374D01*
X147236201Y-89713372D01*
X147548479Y-89556538D01*
X147840450Y-89364507D01*
X147840451Y-89364506D01*
X147983120Y-89244792D01*
X147983121Y-89244791D01*
X146736067Y-87997736D01*
X146860261Y-87907504D01*
X146999387Y-87768378D01*
X147089620Y-87644184D01*
X148339791Y-88894355D01*
X148339792Y-88894354D01*
X148347963Y-88885694D01*
X148347974Y-88885681D01*
X148556651Y-88605380D01*
X148731379Y-88302741D01*
X148731385Y-88302728D01*
X148869795Y-87981858D01*
X148970024Y-87647069D01*
X148970026Y-87647060D01*
X149030704Y-87302938D01*
X149030705Y-87302927D01*
X149051024Y-86954062D01*
X149050300Y-86941626D01*
X149066050Y-86873555D01*
X149116102Y-86824804D01*
X149184565Y-86810853D01*
X149249702Y-86836130D01*
X149271432Y-86857595D01*
X149294700Y-86887081D01*
X149298332Y-86891923D01*
X149747868Y-87522595D01*
X149751259Y-87527605D01*
X150169514Y-88179478D01*
X150172656Y-88184649D01*
X150482983Y-88724558D01*
X150499476Y-88786366D01*
X150497423Y-104218411D01*
X150480898Y-104280243D01*
X150170413Y-104819776D01*
X150167269Y-104824943D01*
X149748791Y-105476439D01*
X149745399Y-105481447D01*
X149295643Y-106111777D01*
X149292010Y-106116614D01*
X149271380Y-106142732D01*
X149214380Y-106183139D01*
X149144582Y-106186314D01*
X149084148Y-106151250D01*
X149052265Y-106089079D01*
X149050284Y-106058660D01*
X149051025Y-106045941D01*
X149051025Y-106045937D01*
X149030705Y-105697071D01*
X149030704Y-105697060D01*
X148970026Y-105352938D01*
X148970024Y-105352929D01*
X148869795Y-105018140D01*
X148731385Y-104697270D01*
X148731379Y-104697257D01*
X148556651Y-104394618D01*
X148347973Y-104114315D01*
X148339791Y-104105643D01*
X147089619Y-105355814D01*
X146999387Y-105231621D01*
X146860261Y-105092495D01*
X146736066Y-105002261D01*
X147983121Y-103755206D01*
X147983120Y-103755205D01*
X147840460Y-103635498D01*
X147548479Y-103443460D01*
X147236201Y-103286626D01*
X147236195Y-103286624D01*
X146907810Y-103167102D01*
X146907807Y-103167101D01*
X146567769Y-103086511D01*
X146220664Y-103045941D01*
X145871218Y-103045941D01*
X145524113Y-103086511D01*
X145524111Y-103086511D01*
X145184074Y-103167101D01*
X145184071Y-103167102D01*
X144855686Y-103286624D01*
X144855680Y-103286626D01*
X144543402Y-103443460D01*
X144251421Y-103635498D01*
X144108760Y-103755205D01*
X144108759Y-103755206D01*
X145355815Y-105002261D01*
X145231621Y-105092495D01*
X145092495Y-105231621D01*
X145002261Y-105355814D01*
X143752089Y-104105642D01*
X143752088Y-104105643D01*
X143743917Y-104114304D01*
X143743913Y-104114309D01*
X143535230Y-104394618D01*
X143360502Y-104697257D01*
X143360496Y-104697270D01*
X143222086Y-105018140D01*
X143121857Y-105352929D01*
X143121855Y-105352938D01*
X143061177Y-105697060D01*
X143061176Y-105697071D01*
X143040857Y-106045937D01*
X143040857Y-106045944D01*
X143061176Y-106394810D01*
X143061177Y-106394821D01*
X143121855Y-106738943D01*
X143121857Y-106738952D01*
X143222086Y-107073741D01*
X143360496Y-107394611D01*
X143360502Y-107394624D01*
X143535230Y-107697263D01*
X143743908Y-107977566D01*
X143752089Y-107986237D01*
X145002260Y-106736065D01*
X145092495Y-106860261D01*
X145231621Y-106999387D01*
X145355814Y-107089619D01*
X144108759Y-108336674D01*
X144108760Y-108336675D01*
X144251425Y-108456386D01*
X144543402Y-108648421D01*
X144855680Y-108805255D01*
X144855686Y-108805257D01*
X145184071Y-108924779D01*
X145184074Y-108924780D01*
X145524112Y-109005370D01*
X145871217Y-109045940D01*
X145871218Y-109045941D01*
X146068480Y-109045941D01*
X146135519Y-109065626D01*
X146181274Y-109118430D01*
X146191218Y-109187588D01*
X146162193Y-109251144D01*
X146144347Y-109268023D01*
X145980193Y-109394997D01*
X145975321Y-109398580D01*
X145340463Y-109841917D01*
X145335421Y-109845258D01*
X144679695Y-110257115D01*
X144674497Y-110260205D01*
X143999491Y-110639588D01*
X143994148Y-110642422D01*
X143301431Y-110988449D01*
X143295956Y-110991019D01*
X142587199Y-111302854D01*
X142581606Y-111305154D01*
X141858462Y-111582069D01*
X141852762Y-111584093D01*
X141117032Y-111825400D01*
X141111242Y-111827145D01*
X140364545Y-112032313D01*
X140358675Y-112033772D01*
X139602925Y-112202273D01*
X139596992Y-112203445D01*
X138833893Y-112334901D01*
X138827910Y-112335782D01*
X138059317Y-112429873D01*
X138053297Y-112430461D01*
X137281055Y-112486962D01*
X137275014Y-112487257D01*
X136500889Y-112506038D01*
X136494842Y-112506037D01*
X135720743Y-112487051D01*
X135714702Y-112486755D01*
X134942455Y-112430046D01*
X134936436Y-112429456D01*
X134167864Y-112335160D01*
X134161881Y-112334277D01*
X133398845Y-112202623D01*
X133392911Y-112201450D01*
X132637173Y-112032740D01*
X132631305Y-112031279D01*
X131884697Y-111825922D01*
X131878906Y-111824176D01*
X131143203Y-111582660D01*
X131137505Y-111580634D01*
X130414466Y-111303539D01*
X130408873Y-111301238D01*
X129700174Y-110989203D01*
X129694700Y-110986631D01*
X129002101Y-110640433D01*
X128996758Y-110637598D01*
X128321829Y-110258023D01*
X128316632Y-110254931D01*
X127661030Y-109842907D01*
X127655989Y-109839565D01*
X127021249Y-109396059D01*
X127016377Y-109392475D01*
X126855547Y-109268003D01*
X126814579Y-109211405D01*
X126810713Y-109141642D01*
X126845178Y-109080864D01*
X126907030Y-109048367D01*
X126931441Y-109045941D01*
X127128781Y-109045941D01*
X127128781Y-109045940D01*
X127475885Y-109005370D01*
X127475887Y-109005370D01*
X127815924Y-108924780D01*
X127815927Y-108924779D01*
X128144312Y-108805257D01*
X128144318Y-108805255D01*
X128456596Y-108648421D01*
X128748567Y-108456390D01*
X128748568Y-108456389D01*
X128891237Y-108336675D01*
X128891238Y-108336674D01*
X127644184Y-107089620D01*
X127768378Y-106999387D01*
X127907504Y-106860261D01*
X127997736Y-106736067D01*
X129247907Y-107986238D01*
X129247909Y-107986237D01*
X129256080Y-107977577D01*
X129256091Y-107977564D01*
X129464768Y-107697263D01*
X129639496Y-107394624D01*
X129639502Y-107394611D01*
X129777912Y-107073741D01*
X129878141Y-106738952D01*
X129878143Y-106738943D01*
X129938821Y-106394821D01*
X129938822Y-106394810D01*
X129959142Y-106045944D01*
X129959142Y-106045937D01*
X129938822Y-105697071D01*
X129938821Y-105697060D01*
X129878143Y-105352938D01*
X129878141Y-105352929D01*
X129777912Y-105018140D01*
X129639502Y-104697270D01*
X129639496Y-104697257D01*
X129464768Y-104394618D01*
X129256090Y-104114315D01*
X129247908Y-104105643D01*
X127997736Y-105355814D01*
X127907504Y-105231621D01*
X127768378Y-105092495D01*
X127644183Y-105002261D01*
X128891238Y-103755206D01*
X128891237Y-103755205D01*
X128748577Y-103635498D01*
X128456596Y-103443460D01*
X128144318Y-103286626D01*
X128144312Y-103286624D01*
X127815927Y-103167102D01*
X127815924Y-103167101D01*
X127475886Y-103086511D01*
X127128781Y-103045941D01*
X126779335Y-103045941D01*
X126432230Y-103086511D01*
X126432228Y-103086511D01*
X126092191Y-103167101D01*
X126092188Y-103167102D01*
X125763803Y-103286624D01*
X125763797Y-103286626D01*
X125451519Y-103443460D01*
X125159538Y-103635498D01*
X125016877Y-103755205D01*
X125016876Y-103755206D01*
X126263932Y-105002261D01*
X126139738Y-105092495D01*
X126000612Y-105231621D01*
X125910378Y-105355814D01*
X124660206Y-104105642D01*
X124660205Y-104105643D01*
X124652034Y-104114304D01*
X124652030Y-104114309D01*
X124443347Y-104394618D01*
X124268619Y-104697257D01*
X124268613Y-104697270D01*
X124130203Y-105018140D01*
X124029974Y-105352929D01*
X124029972Y-105352938D01*
X123969294Y-105697060D01*
X123969293Y-105697071D01*
X123948974Y-106045937D01*
X123948974Y-106045945D01*
X123949705Y-106058498D01*
X123933952Y-106126568D01*
X123883897Y-106175316D01*
X123815434Y-106189263D01*
X123750298Y-106163982D01*
X123728589Y-106142542D01*
X123708120Y-106116614D01*
X123705421Y-106113195D01*
X123701803Y-106108375D01*
X123252215Y-105477926D01*
X123248830Y-105472926D01*
X122830497Y-104821276D01*
X122827377Y-104816143D01*
X122584951Y-104394618D01*
X122517009Y-104276481D01*
X122500500Y-104214661D01*
X122500500Y-88786391D01*
X122516993Y-88724599D01*
X122572299Y-88628377D01*
X122827349Y-88184638D01*
X122830485Y-88179478D01*
X122834463Y-88173279D01*
X123248745Y-87527596D01*
X123252131Y-87522595D01*
X123496321Y-87180011D01*
X123701675Y-86891912D01*
X123705279Y-86887106D01*
X123728565Y-86857596D01*
X123785547Y-86817163D01*
X123855343Y-86813955D01*
X123915794Y-86848991D01*
X123947706Y-86911147D01*
X123949698Y-86941620D01*
X123948974Y-86954052D01*
X123948974Y-86954061D01*
X123969293Y-87302927D01*
X123969294Y-87302938D01*
X124029972Y-87647060D01*
X124029974Y-87647069D01*
X124130203Y-87981858D01*
X124268613Y-88302728D01*
X124268619Y-88302741D01*
X124443347Y-88605380D01*
X124652025Y-88885683D01*
X124660206Y-88894354D01*
X125910378Y-87644183D01*
X126000612Y-87768378D01*
X126139738Y-87907504D01*
X126263931Y-87997736D01*
X125016876Y-89244791D01*
X125016877Y-89244792D01*
X125159542Y-89364503D01*
X125451519Y-89556538D01*
X125763797Y-89713372D01*
X125763803Y-89713374D01*
X126092188Y-89832896D01*
X126092191Y-89832897D01*
X126432229Y-89913487D01*
X126779334Y-89954057D01*
X126779335Y-89954058D01*
X127128781Y-89954058D01*
X127128781Y-89954057D01*
X127475885Y-89913487D01*
X127475887Y-89913487D01*
X127815924Y-89832897D01*
X127815927Y-89832896D01*
X128144312Y-89713374D01*
X128144318Y-89713372D01*
X128456596Y-89556538D01*
X128748567Y-89364507D01*
X128748568Y-89364506D01*
X128891237Y-89244792D01*
X128891238Y-89244791D01*
X127644184Y-87997736D01*
X127768378Y-87907504D01*
X127907504Y-87768378D01*
X127997736Y-87644184D01*
X129247907Y-88894355D01*
X129247909Y-88894354D01*
X129256080Y-88885694D01*
X129256091Y-88885681D01*
X129464768Y-88605380D01*
X129639496Y-88302741D01*
X129639502Y-88302728D01*
X129777912Y-87981858D01*
X129878141Y-87647069D01*
X129878143Y-87647060D01*
X129938821Y-87302938D01*
X129938822Y-87302927D01*
X129959142Y-86954061D01*
X129959142Y-86954054D01*
X129938822Y-86605188D01*
X129938821Y-86605177D01*
X129878143Y-86261055D01*
X129878141Y-86261046D01*
X129777912Y-85926257D01*
X129639502Y-85605387D01*
X129639496Y-85605374D01*
X129464768Y-85302735D01*
X129256090Y-85022432D01*
X129247908Y-85013760D01*
X127997736Y-86263931D01*
X127907504Y-86139738D01*
X127768378Y-86000612D01*
X127644183Y-85910378D01*
X128891238Y-84663323D01*
X128891237Y-84663322D01*
X128748577Y-84543615D01*
X128456596Y-84351577D01*
X128144318Y-84194743D01*
X128144312Y-84194741D01*
X127815927Y-84075219D01*
X127815924Y-84075218D01*
X127475886Y-83994628D01*
X127128781Y-83954058D01*
X126930324Y-83954058D01*
X126863285Y-83934373D01*
X126817530Y-83881569D01*
X126807586Y-83812411D01*
X126836611Y-83748855D01*
X126854419Y-83732005D01*
X126963575Y-83647504D01*
X127016487Y-83606544D01*
X127021320Y-83602988D01*
X127656195Y-83159300D01*
X127661179Y-83155995D01*
X128316966Y-82743786D01*
X128322094Y-82740733D01*
X128997198Y-82361009D01*
X129002524Y-82358182D01*
X129695303Y-82011860D01*
X129700730Y-82009310D01*
X130409614Y-81697176D01*
X130415177Y-81694887D01*
X131138415Y-81417713D01*
X131144075Y-81415701D01*
X131532503Y-81288194D01*
X131602336Y-81285989D01*
X131662277Y-81321889D01*
G37*
%TD.AperFunction*%
%TA.AperFunction,Conductor*%
G36*
X136689409Y-104222016D02*
G01*
X136740886Y-104269259D01*
X136745185Y-104276999D01*
X136808768Y-104401788D01*
X136910586Y-104541928D01*
X137033072Y-104664414D01*
X137154865Y-104752902D01*
X137158003Y-104755182D01*
X137200668Y-104810512D01*
X137206647Y-104880126D01*
X137174041Y-104941921D01*
X137113202Y-104976278D01*
X137085117Y-104979500D01*
X137068418Y-104979500D01*
X136993482Y-104990418D01*
X136993480Y-104990418D01*
X136993478Y-104990419D01*
X136877900Y-105046921D01*
X136877897Y-105046923D01*
X136786923Y-105137897D01*
X136786921Y-105137900D01*
X136730419Y-105253478D01*
X136730418Y-105253480D01*
X136730418Y-105253482D01*
X136719500Y-105328418D01*
X136719500Y-105328423D01*
X136719500Y-105426433D01*
X136699815Y-105493472D01*
X136664389Y-105529536D01*
X136599394Y-105572963D01*
X136585348Y-105581073D01*
X136383620Y-105680552D01*
X136368635Y-105686759D01*
X136155658Y-105759053D01*
X136139989Y-105763251D01*
X135919393Y-105807127D01*
X135903312Y-105809244D01*
X135674563Y-105824234D01*
X135666455Y-105824499D01*
X135606792Y-105824499D01*
X135606780Y-105824500D01*
X135434500Y-105824500D01*
X135367461Y-105804815D01*
X135321706Y-105752011D01*
X135310500Y-105700500D01*
X135310499Y-105346175D01*
X135307686Y-105328418D01*
X135304568Y-105308729D01*
X135313522Y-105239438D01*
X135358518Y-105185985D01*
X135407643Y-105166859D01*
X135566127Y-105141757D01*
X135566130Y-105141757D01*
X135768217Y-105076095D01*
X135957557Y-104979620D01*
X136129459Y-104854727D01*
X136129464Y-104854723D01*
X136279723Y-104704464D01*
X136279727Y-104704459D01*
X136404620Y-104532557D01*
X136501094Y-104343219D01*
X136516768Y-104294978D01*
X136556205Y-104237302D01*
X136620563Y-104210103D01*
X136689409Y-104222016D01*
G37*
%TD.AperFunction*%
%TA.AperFunction,Conductor*%
G36*
X132225430Y-87780185D02*
G01*
X132227264Y-87781386D01*
X132346793Y-87861254D01*
X132594802Y-87993820D01*
X132814420Y-88084791D01*
X132854618Y-88101442D01*
X133085196Y-88171387D01*
X133123718Y-88183073D01*
X133259159Y-88210014D01*
X133321069Y-88242399D01*
X133355644Y-88303115D01*
X133351904Y-88372884D01*
X133318506Y-88423268D01*
X133283235Y-88455421D01*
X133160327Y-88618178D01*
X133069422Y-88800739D01*
X133069417Y-88800752D01*
X133013602Y-88996917D01*
X132994785Y-89199999D01*
X132994785Y-89200000D01*
X133013602Y-89403082D01*
X133069417Y-89599247D01*
X133069422Y-89599260D01*
X133160327Y-89781821D01*
X133283237Y-89944581D01*
X133433958Y-90081980D01*
X133433960Y-90081982D01*
X133477081Y-90108681D01*
X133607363Y-90189348D01*
X133797544Y-90263024D01*
X133998024Y-90300500D01*
X133998026Y-90300500D01*
X134201974Y-90300500D01*
X134201976Y-90300500D01*
X134402456Y-90263024D01*
X134592637Y-90189348D01*
X134766041Y-90081981D01*
X134916764Y-89944579D01*
X135039673Y-89781821D01*
X135130582Y-89599250D01*
X135130585Y-89599239D01*
X135132648Y-89593914D01*
X135135044Y-89594842D01*
X135166395Y-89545016D01*
X135229669Y-89515383D01*
X135298920Y-89524663D01*
X135342204Y-89556742D01*
X135398872Y-89622141D01*
X135519947Y-89699951D01*
X135519950Y-89699952D01*
X135519949Y-89699952D01*
X135658036Y-89740497D01*
X135658038Y-89740498D01*
X135658039Y-89740498D01*
X135801962Y-89740498D01*
X135801962Y-89740497D01*
X135940053Y-89699951D01*
X136061128Y-89622141D01*
X136068363Y-89613790D01*
X136127138Y-89576015D01*
X136129987Y-89575215D01*
X136170956Y-89564238D01*
X136239783Y-89545797D01*
X136405172Y-89477293D01*
X136460860Y-89445141D01*
X136528759Y-89428669D01*
X136594786Y-89451521D01*
X136637977Y-89506443D01*
X136646859Y-89552529D01*
X136646859Y-90914668D01*
X136646094Y-90928422D01*
X136612312Y-91231110D01*
X136610230Y-91243775D01*
X136543970Y-91547630D01*
X136540590Y-91560012D01*
X136443276Y-91855392D01*
X136438634Y-91867358D01*
X136311311Y-92151090D01*
X136305458Y-92162512D01*
X136189393Y-92362727D01*
X136149482Y-92431573D01*
X136142479Y-92442327D01*
X135981679Y-92663370D01*
X135926325Y-92706003D01*
X135916341Y-92709402D01*
X135794949Y-92745045D01*
X135673873Y-92822856D01*
X135579623Y-92931626D01*
X135579622Y-92931628D01*
X135519834Y-93062543D01*
X135499353Y-93205000D01*
X135519834Y-93347456D01*
X135569691Y-93456626D01*
X135579623Y-93478373D01*
X135673872Y-93587143D01*
X135794947Y-93664953D01*
X135794950Y-93664954D01*
X135794949Y-93664954D01*
X135933036Y-93705499D01*
X135933038Y-93705500D01*
X135933039Y-93705500D01*
X136076962Y-93705500D01*
X136076962Y-93705499D01*
X136215050Y-93664954D01*
X136215051Y-93664954D01*
X136261619Y-93635027D01*
X136310243Y-93603777D01*
X136377283Y-93584093D01*
X136444322Y-93603777D01*
X136470996Y-93626891D01*
X136518872Y-93682143D01*
X136639947Y-93759953D01*
X136639950Y-93759954D01*
X136639949Y-93759954D01*
X136778036Y-93800499D01*
X136778038Y-93800500D01*
X136778039Y-93800500D01*
X136921962Y-93800500D01*
X136921962Y-93800499D01*
X137060053Y-93759953D01*
X137181128Y-93682143D01*
X137221955Y-93635025D01*
X137280731Y-93597251D01*
X137350600Y-93597250D01*
X137409377Y-93635023D01*
X137458872Y-93692143D01*
X137543211Y-93746344D01*
X137588965Y-93799147D01*
X137598909Y-93868303D01*
X137594353Y-93899996D01*
X137594353Y-93899999D01*
X137614834Y-94042456D01*
X137646660Y-94112143D01*
X137674623Y-94173373D01*
X137768872Y-94282143D01*
X137889947Y-94359953D01*
X137889950Y-94359954D01*
X137889949Y-94359954D01*
X138028036Y-94400499D01*
X138028038Y-94400500D01*
X138028039Y-94400500D01*
X138171962Y-94400500D01*
X138171962Y-94400499D01*
X138310050Y-94359954D01*
X138310051Y-94359954D01*
X138416960Y-94291248D01*
X138484000Y-94271563D01*
X138551039Y-94291247D01*
X138596794Y-94344051D01*
X138608000Y-94395563D01*
X138608000Y-100719366D01*
X138607882Y-100724774D01*
X138593642Y-101050988D01*
X138592699Y-101061765D01*
X138550435Y-101382803D01*
X138548557Y-101393456D01*
X138478471Y-101709602D01*
X138475671Y-101720051D01*
X138378298Y-102028879D01*
X138374598Y-102039044D01*
X138250684Y-102338206D01*
X138246112Y-102348011D01*
X138191707Y-102452522D01*
X138143292Y-102502897D01*
X138075327Y-102519100D01*
X138043402Y-102513197D01*
X138007702Y-102501598D01*
X137922156Y-102488049D01*
X137836611Y-102474500D01*
X137663389Y-102474500D01*
X137634832Y-102479023D01*
X137492302Y-102501597D01*
X137327552Y-102555128D01*
X137173211Y-102633768D01*
X137093256Y-102691859D01*
X137033072Y-102735586D01*
X137033070Y-102735588D01*
X137033069Y-102735588D01*
X136910588Y-102858069D01*
X136910588Y-102858070D01*
X136910586Y-102858072D01*
X136866859Y-102918256D01*
X136808768Y-102998211D01*
X136745185Y-103123000D01*
X136697210Y-103173796D01*
X136629389Y-103190591D01*
X136563254Y-103168053D01*
X136519803Y-103113338D01*
X136516768Y-103105022D01*
X136501093Y-103056778D01*
X136404620Y-102867442D01*
X136279727Y-102695540D01*
X136279723Y-102695535D01*
X136129464Y-102545276D01*
X136129459Y-102545272D01*
X135957557Y-102420379D01*
X135768215Y-102323903D01*
X135566124Y-102258241D01*
X135500000Y-102247768D01*
X135500000Y-103295854D01*
X135433343Y-103257370D01*
X135312535Y-103225000D01*
X135187465Y-103225000D01*
X135066657Y-103257370D01*
X135000000Y-103295854D01*
X135000000Y-102247768D01*
X134999999Y-102247768D01*
X134933875Y-102258241D01*
X134731784Y-102323903D01*
X134542442Y-102420379D01*
X134370540Y-102545272D01*
X134370535Y-102545276D01*
X134220276Y-102695535D01*
X134220272Y-102695540D01*
X134095377Y-102867444D01*
X134077087Y-102903339D01*
X134029112Y-102954133D01*
X133961290Y-102970927D01*
X133895156Y-102948388D01*
X133851706Y-102893672D01*
X133846976Y-102874807D01*
X133845876Y-102875068D01*
X133844092Y-102867520D01*
X133840567Y-102858070D01*
X133793796Y-102732669D01*
X133793795Y-102732668D01*
X133793793Y-102732664D01*
X133707547Y-102617455D01*
X133707544Y-102617452D01*
X133592335Y-102531206D01*
X133592328Y-102531202D01*
X133457482Y-102480908D01*
X133457483Y-102480908D01*
X133397883Y-102474501D01*
X133397881Y-102474500D01*
X133397873Y-102474500D01*
X133397865Y-102474500D01*
X132106899Y-102474500D01*
X132039860Y-102454815D01*
X132019218Y-102438181D01*
X130962175Y-101381138D01*
X130928919Y-101347881D01*
X130925570Y-101344397D01*
X130659343Y-101056395D01*
X130648149Y-101044285D01*
X130641831Y-101036888D01*
X130393649Y-100722071D01*
X130390322Y-100717851D01*
X130384602Y-100709977D01*
X130158908Y-100372201D01*
X130153821Y-100363899D01*
X129955317Y-100009446D01*
X129950902Y-100000783D01*
X129780819Y-99631844D01*
X129777093Y-99622849D01*
X129636481Y-99241704D01*
X129633473Y-99232444D01*
X129523202Y-98841455D01*
X129520930Y-98831991D01*
X129515316Y-98803769D01*
X129441675Y-98433546D01*
X129440153Y-98423935D01*
X129436536Y-98393373D01*
X129392402Y-98020489D01*
X129391641Y-98010819D01*
X129375596Y-97602443D01*
X129375500Y-97597575D01*
X129375500Y-97459755D01*
X129377027Y-97440358D01*
X129381228Y-97413833D01*
X129383453Y-97399783D01*
X129413382Y-97336649D01*
X129472693Y-97299717D01*
X129525324Y-97296708D01*
X129549265Y-97300500D01*
X129950734Y-97300499D01*
X129950739Y-97300499D01*
X129950739Y-97300498D01*
X130022507Y-97289132D01*
X130042170Y-97286018D01*
X130042171Y-97286017D01*
X130042175Y-97286017D01*
X130094206Y-97259505D01*
X130162873Y-97246609D01*
X130227614Y-97272885D01*
X130267872Y-97329991D01*
X130274500Y-97369979D01*
X130274500Y-97377101D01*
X130280980Y-97426325D01*
X130280982Y-97426333D01*
X130296567Y-97459755D01*
X130331356Y-97534359D01*
X130415641Y-97618644D01*
X130523670Y-97669019D01*
X130572897Y-97675500D01*
X130902102Y-97675499D01*
X130934317Y-97671258D01*
X131003350Y-97682024D01*
X131055606Y-97728403D01*
X131074500Y-97794196D01*
X131074500Y-97927104D01*
X131080980Y-97976325D01*
X131080982Y-97976333D01*
X131131356Y-98084359D01*
X131206506Y-98159509D01*
X131226210Y-98185187D01*
X131270525Y-98261942D01*
X131270526Y-98261943D01*
X131270527Y-98261944D01*
X131462454Y-98453872D01*
X131470069Y-98463457D01*
X131470673Y-98462962D01*
X131475827Y-98469243D01*
X131475828Y-98469244D01*
X131503878Y-98495520D01*
X131505941Y-98497452D01*
X131508850Y-98500268D01*
X131529082Y-98520500D01*
X131538057Y-98529475D01*
X131538063Y-98529478D01*
X131544504Y-98534421D01*
X131543995Y-98535083D01*
X131553858Y-98542340D01*
X131561216Y-98549233D01*
X131573276Y-98562274D01*
X131581747Y-98572865D01*
X131597724Y-98584621D01*
X131609006Y-98594001D01*
X131623474Y-98607555D01*
X131635428Y-98613946D01*
X131650453Y-98623422D01*
X131659351Y-98629969D01*
X131674163Y-98642788D01*
X131681089Y-98649813D01*
X131701373Y-98661715D01*
X131712099Y-98668782D01*
X131731041Y-98682720D01*
X131731044Y-98682721D01*
X131736609Y-98684896D01*
X131770558Y-98704883D01*
X131774661Y-98708281D01*
X131796699Y-98718384D01*
X131807776Y-98724155D01*
X131828670Y-98736416D01*
X131828671Y-98736416D01*
X131828674Y-98736418D01*
X131837486Y-98738846D01*
X131856215Y-98745668D01*
X131880652Y-98756871D01*
X131890947Y-98762187D01*
X131913485Y-98775200D01*
X131920603Y-98777107D01*
X131940174Y-98784158D01*
X131946876Y-98787231D01*
X131964226Y-98790174D01*
X131972518Y-98791581D01*
X131983859Y-98794056D01*
X132008988Y-98800790D01*
X132016352Y-98800790D01*
X132037092Y-98802536D01*
X132044356Y-98803769D01*
X132070241Y-98801334D01*
X132081850Y-98800790D01*
X133190782Y-98800790D01*
X133190975Y-98800776D01*
X133225882Y-98800778D01*
X133410153Y-98776523D01*
X133589680Y-98728423D01*
X133761393Y-98657301D01*
X133796362Y-98637111D01*
X133858361Y-98620500D01*
X133941962Y-98620500D01*
X133941962Y-98620499D01*
X134080053Y-98579953D01*
X134201128Y-98502143D01*
X134295377Y-98393373D01*
X134355165Y-98262457D01*
X134375647Y-98120000D01*
X134355165Y-97977543D01*
X134295377Y-97846627D01*
X134201128Y-97737857D01*
X134080053Y-97660047D01*
X134080051Y-97660046D01*
X134080049Y-97660045D01*
X134080050Y-97660045D01*
X133941963Y-97619500D01*
X133941961Y-97619500D01*
X133798039Y-97619500D01*
X133736641Y-97637527D01*
X133666771Y-97637526D01*
X133607994Y-97599750D01*
X133588914Y-97570061D01*
X133555377Y-97496628D01*
X133555376Y-97496626D01*
X133523427Y-97459755D01*
X133461128Y-97387857D01*
X133427457Y-97366218D01*
X133381703Y-97313415D01*
X133371759Y-97244257D01*
X133400784Y-97180701D01*
X133406816Y-97174222D01*
X133432348Y-97148689D01*
X133432347Y-97148689D01*
X133432351Y-97148686D01*
X133806504Y-96774533D01*
X133806504Y-96774532D01*
X133812810Y-96768227D01*
X133812914Y-96768105D01*
X133866979Y-96714044D01*
X134035292Y-96502992D01*
X134178916Y-96274421D01*
X134296044Y-96031206D01*
X134385204Y-95776406D01*
X134445275Y-95513226D01*
X134445811Y-95508466D01*
X134472875Y-95444052D01*
X134475320Y-95441142D01*
X134525374Y-95383377D01*
X134525374Y-95383375D01*
X134525377Y-95383373D01*
X134585165Y-95252457D01*
X134605647Y-95110000D01*
X134585165Y-94967543D01*
X134525377Y-94836627D01*
X134431128Y-94727857D01*
X134310053Y-94650047D01*
X134310051Y-94650046D01*
X134310049Y-94650045D01*
X134310050Y-94650045D01*
X134171963Y-94609500D01*
X134171961Y-94609500D01*
X134028039Y-94609500D01*
X134028036Y-94609500D01*
X133889949Y-94650045D01*
X133768873Y-94727856D01*
X133674623Y-94836626D01*
X133674622Y-94836628D01*
X133614834Y-94967543D01*
X133600672Y-95066049D01*
X133571647Y-95129605D01*
X133512869Y-95167379D01*
X133443000Y-95167379D01*
X133296964Y-95124500D01*
X133296961Y-95124500D01*
X133153039Y-95124500D01*
X133153036Y-95124500D01*
X133014949Y-95165045D01*
X132893873Y-95242856D01*
X132893872Y-95242856D01*
X132893872Y-95242857D01*
X132885554Y-95252457D01*
X132799623Y-95351626D01*
X132799622Y-95351628D01*
X132739834Y-95482543D01*
X132719353Y-95625000D01*
X132719353Y-95625002D01*
X132727754Y-95683438D01*
X132717810Y-95752596D01*
X132692697Y-95788764D01*
X132193279Y-96288181D01*
X132131956Y-96321666D01*
X132105609Y-96324500D01*
X132097898Y-96324500D01*
X132048674Y-96330980D01*
X132048666Y-96330982D01*
X131940640Y-96381356D01*
X131856356Y-96465640D01*
X131805980Y-96573672D01*
X131803325Y-96582781D01*
X131800637Y-96581997D01*
X131778411Y-96632230D01*
X131720083Y-96670696D01*
X131650218Y-96671522D01*
X131616705Y-96656455D01*
X131579010Y-96632230D01*
X131560053Y-96620047D01*
X131560052Y-96620046D01*
X131503579Y-96603464D01*
X131444801Y-96565689D01*
X131415776Y-96502134D01*
X131418689Y-96460855D01*
X131417781Y-96460736D01*
X131420665Y-96438830D01*
X131425500Y-96402103D01*
X131425499Y-96281422D01*
X131427886Y-96257209D01*
X131439772Y-96197511D01*
X131440414Y-96194799D01*
X131440500Y-96194064D01*
X131440500Y-96139696D01*
X131440503Y-96124660D01*
X131440513Y-96083443D01*
X131440512Y-96083440D01*
X131440514Y-96074839D01*
X131440500Y-96074625D01*
X131440500Y-95763112D01*
X131460185Y-95696073D01*
X131476815Y-95675434D01*
X131499859Y-95652391D01*
X131556017Y-95542175D01*
X131556017Y-95542173D01*
X131556018Y-95542172D01*
X131556018Y-95542171D01*
X131561356Y-95508467D01*
X131570500Y-95450735D01*
X131570499Y-95049266D01*
X131570499Y-95049260D01*
X131556018Y-94957829D01*
X131556018Y-94957828D01*
X131556017Y-94957826D01*
X131556017Y-94957825D01*
X131499859Y-94847609D01*
X131499857Y-94847607D01*
X131499854Y-94847603D01*
X131412396Y-94760145D01*
X131412393Y-94760143D01*
X131412391Y-94760141D01*
X131302175Y-94703983D01*
X131302174Y-94703982D01*
X131302171Y-94703981D01*
X131210735Y-94689500D01*
X130869260Y-94689500D01*
X130869260Y-94689501D01*
X130777829Y-94703981D01*
X130777828Y-94703981D01*
X130667607Y-94760142D01*
X130667603Y-94760145D01*
X130589568Y-94838181D01*
X130528245Y-94871666D01*
X130501887Y-94874500D01*
X130249500Y-94874500D01*
X130182461Y-94854815D01*
X130136706Y-94802011D01*
X130125500Y-94750500D01*
X130125500Y-91032148D01*
X130125596Y-91027280D01*
X130128634Y-90949953D01*
X130143199Y-90579198D01*
X130143962Y-90569502D01*
X130144333Y-90566370D01*
X130196386Y-90126551D01*
X130197904Y-90116971D01*
X130284918Y-89679520D01*
X130287187Y-89670073D01*
X130300345Y-89623418D01*
X130337487Y-89564238D01*
X130400728Y-89534534D01*
X130469989Y-89543736D01*
X130523280Y-89588923D01*
X130530689Y-89601804D01*
X130620327Y-89781821D01*
X130743237Y-89944581D01*
X130893958Y-90081980D01*
X130893960Y-90081982D01*
X130937081Y-90108681D01*
X131067363Y-90189348D01*
X131257544Y-90263024D01*
X131458024Y-90300500D01*
X131458026Y-90300500D01*
X131661974Y-90300500D01*
X131661976Y-90300500D01*
X131862456Y-90263024D01*
X132052637Y-90189348D01*
X132226041Y-90081981D01*
X132376764Y-89944579D01*
X132499673Y-89781821D01*
X132590582Y-89599250D01*
X132646397Y-89403083D01*
X132665215Y-89200000D01*
X132646397Y-88996917D01*
X132590582Y-88800750D01*
X132583432Y-88786391D01*
X132530858Y-88680808D01*
X132499673Y-88618179D01*
X132425188Y-88519545D01*
X132376762Y-88455418D01*
X132226041Y-88318019D01*
X132226039Y-88318017D01*
X132052642Y-88210655D01*
X132052635Y-88210651D01*
X131925267Y-88161309D01*
X131862456Y-88136976D01*
X131661976Y-88099500D01*
X131458024Y-88099500D01*
X131257544Y-88136976D01*
X131257539Y-88136977D01*
X131125428Y-88188157D01*
X131055805Y-88194019D01*
X130994065Y-88161309D01*
X130959810Y-88100412D01*
X130963917Y-88030663D01*
X130972449Y-88011935D01*
X130978428Y-88001260D01*
X130983512Y-87992964D01*
X131047035Y-87897896D01*
X131102017Y-87815608D01*
X131155629Y-87770804D01*
X131205119Y-87760500D01*
X132158391Y-87760500D01*
X132225430Y-87780185D01*
G37*
%TD.AperFunction*%
%TA.AperFunction,Conductor*%
G36*
X140012586Y-86334373D02*
G01*
X140042507Y-86347584D01*
X140042509Y-86347585D01*
X140067635Y-86350500D01*
X140188000Y-86350499D01*
X140255039Y-86370183D01*
X140300794Y-86422987D01*
X140312000Y-86474498D01*
X140312000Y-86594856D01*
X140312002Y-86594881D01*
X140314914Y-86619988D01*
X140314915Y-86619991D01*
X140360293Y-86722764D01*
X140447860Y-86810331D01*
X140445442Y-86812748D01*
X140477342Y-86851829D01*
X140485247Y-86921250D01*
X140454365Y-86983924D01*
X140447801Y-86989610D01*
X140447860Y-86989669D01*
X140360294Y-87077234D01*
X140314915Y-87180006D01*
X140314915Y-87180008D01*
X140312000Y-87205131D01*
X140312000Y-87394857D01*
X140312002Y-87394881D01*
X140314913Y-87419985D01*
X140314913Y-87419986D01*
X140314914Y-87419990D01*
X140314915Y-87419991D01*
X140328126Y-87449912D01*
X140328128Y-87449915D01*
X140337197Y-87519194D01*
X140328128Y-87550083D01*
X140314915Y-87580008D01*
X140312000Y-87605131D01*
X140312000Y-87794857D01*
X140312002Y-87794881D01*
X140314913Y-87819985D01*
X140314913Y-87819986D01*
X140314914Y-87819990D01*
X140314915Y-87819991D01*
X140328126Y-87849912D01*
X140328128Y-87849915D01*
X140337197Y-87919194D01*
X140328128Y-87950083D01*
X140314915Y-87980008D01*
X140312000Y-88005131D01*
X140312000Y-88194857D01*
X140312002Y-88194881D01*
X140314913Y-88219985D01*
X140314913Y-88219986D01*
X140314914Y-88219990D01*
X140314915Y-88219991D01*
X140328126Y-88249912D01*
X140328128Y-88249915D01*
X140337197Y-88319194D01*
X140328128Y-88350083D01*
X140314915Y-88380008D01*
X140312000Y-88405131D01*
X140312000Y-88594857D01*
X140312002Y-88594881D01*
X140314913Y-88619985D01*
X140314913Y-88619986D01*
X140314914Y-88619990D01*
X140314915Y-88619991D01*
X140328126Y-88649912D01*
X140328128Y-88649915D01*
X140337197Y-88719194D01*
X140328128Y-88750083D01*
X140314915Y-88780008D01*
X140312000Y-88805131D01*
X140312000Y-88925500D01*
X140292315Y-88992539D01*
X140239511Y-89038294D01*
X140188001Y-89049500D01*
X140067643Y-89049500D01*
X140067618Y-89049502D01*
X140042514Y-89052413D01*
X140042510Y-89052414D01*
X140012583Y-89065628D01*
X139943304Y-89074697D01*
X139912415Y-89065627D01*
X139882492Y-89052415D01*
X139857365Y-89049500D01*
X139667642Y-89049500D01*
X139667618Y-89049502D01*
X139642514Y-89052413D01*
X139642510Y-89052414D01*
X139612583Y-89065628D01*
X139543304Y-89074697D01*
X139512415Y-89065627D01*
X139482492Y-89052415D01*
X139457365Y-89049500D01*
X139267642Y-89049500D01*
X139267618Y-89049502D01*
X139242514Y-89052413D01*
X139242510Y-89052414D01*
X139212583Y-89065628D01*
X139143304Y-89074697D01*
X139112415Y-89065627D01*
X139082492Y-89052415D01*
X139057365Y-89049500D01*
X138867642Y-89049500D01*
X138867618Y-89049502D01*
X138842514Y-89052413D01*
X138842510Y-89052414D01*
X138812583Y-89065628D01*
X138743304Y-89074697D01*
X138712415Y-89065627D01*
X138682492Y-89052415D01*
X138657365Y-89049500D01*
X138467642Y-89049500D01*
X138467618Y-89049502D01*
X138442514Y-89052413D01*
X138442510Y-89052414D01*
X138412583Y-89065628D01*
X138343304Y-89074697D01*
X138312415Y-89065627D01*
X138282492Y-89052415D01*
X138257365Y-89049500D01*
X138067642Y-89049500D01*
X138067618Y-89049502D01*
X138042514Y-89052413D01*
X138042510Y-89052414D01*
X138012583Y-89065628D01*
X137943304Y-89074697D01*
X137912415Y-89065627D01*
X137882492Y-89052415D01*
X137857368Y-89049500D01*
X137736999Y-89049500D01*
X137669960Y-89029815D01*
X137624205Y-88977011D01*
X137612999Y-88925502D01*
X137612999Y-88805136D01*
X137610085Y-88780009D01*
X137598289Y-88753294D01*
X137596873Y-88750086D01*
X137587801Y-88680808D01*
X137596874Y-88649912D01*
X137610084Y-88619995D01*
X137610084Y-88619994D01*
X137610084Y-88619993D01*
X137610085Y-88619991D01*
X137613000Y-88594865D01*
X137612999Y-88405136D01*
X137610085Y-88380009D01*
X137603181Y-88364374D01*
X137596873Y-88350086D01*
X137587801Y-88280808D01*
X137596874Y-88249912D01*
X137610084Y-88219995D01*
X137610084Y-88219994D01*
X137610084Y-88219993D01*
X137610085Y-88219991D01*
X137613000Y-88194865D01*
X137612999Y-88005136D01*
X137612549Y-88001260D01*
X137610085Y-87980011D01*
X137610085Y-87980009D01*
X137602380Y-87962558D01*
X137596873Y-87950086D01*
X137587801Y-87880808D01*
X137596874Y-87849912D01*
X137610084Y-87819995D01*
X137610084Y-87819994D01*
X137610084Y-87819993D01*
X137610085Y-87819991D01*
X137613000Y-87794865D01*
X137612999Y-87605136D01*
X137610085Y-87580009D01*
X137600385Y-87558040D01*
X137596873Y-87550086D01*
X137587801Y-87480808D01*
X137596874Y-87449912D01*
X137610084Y-87419995D01*
X137610084Y-87419994D01*
X137610084Y-87419993D01*
X137610085Y-87419991D01*
X137613000Y-87394865D01*
X137612999Y-87205136D01*
X137612863Y-87203967D01*
X137610085Y-87180011D01*
X137610085Y-87180009D01*
X137597356Y-87151181D01*
X137596873Y-87150086D01*
X137587801Y-87080808D01*
X137596874Y-87049912D01*
X137610084Y-87019995D01*
X137610084Y-87019994D01*
X137610084Y-87019993D01*
X137610085Y-87019991D01*
X137613000Y-86994865D01*
X137612999Y-86805136D01*
X137610085Y-86780009D01*
X137603181Y-86764374D01*
X137596873Y-86750086D01*
X137587801Y-86680808D01*
X137596874Y-86649912D01*
X137610084Y-86619995D01*
X137610084Y-86619994D01*
X137610084Y-86619993D01*
X137610085Y-86619991D01*
X137613000Y-86594865D01*
X137612999Y-86474498D01*
X137632683Y-86407460D01*
X137685487Y-86361705D01*
X137736996Y-86350499D01*
X137857364Y-86350499D01*
X137882491Y-86347585D01*
X137912413Y-86334372D01*
X137981690Y-86325301D01*
X138012586Y-86334373D01*
X138042507Y-86347584D01*
X138042509Y-86347585D01*
X138067635Y-86350500D01*
X138257364Y-86350499D01*
X138282491Y-86347585D01*
X138312413Y-86334372D01*
X138381690Y-86325301D01*
X138412586Y-86334373D01*
X138442507Y-86347584D01*
X138442509Y-86347585D01*
X138467635Y-86350500D01*
X138657364Y-86350499D01*
X138682491Y-86347585D01*
X138712413Y-86334372D01*
X138781690Y-86325301D01*
X138812586Y-86334373D01*
X138842507Y-86347584D01*
X138842509Y-86347585D01*
X138867635Y-86350500D01*
X139057364Y-86350499D01*
X139082491Y-86347585D01*
X139112413Y-86334372D01*
X139181690Y-86325301D01*
X139212586Y-86334373D01*
X139242507Y-86347584D01*
X139242509Y-86347585D01*
X139267635Y-86350500D01*
X139457364Y-86350499D01*
X139482491Y-86347585D01*
X139512413Y-86334372D01*
X139581690Y-86325301D01*
X139612586Y-86334373D01*
X139642507Y-86347584D01*
X139642509Y-86347585D01*
X139667635Y-86350500D01*
X139857364Y-86350499D01*
X139882491Y-86347585D01*
X139912413Y-86334372D01*
X139981690Y-86325301D01*
X140012586Y-86334373D01*
G37*
%TD.AperFunction*%
%TA.AperFunction,Conductor*%
G36*
X141811694Y-86621857D02*
G01*
X141867627Y-86663729D01*
X141874083Y-86673242D01*
X141882965Y-86687736D01*
X141891797Y-86705070D01*
X141910444Y-86750086D01*
X141936899Y-86813955D01*
X141937111Y-86814465D01*
X141943124Y-86832972D01*
X141970765Y-86948107D01*
X141973809Y-86967323D01*
X141977775Y-87017706D01*
X141963412Y-87086084D01*
X141914361Y-87135841D01*
X141846196Y-87151181D01*
X141822065Y-87147212D01*
X141793659Y-87139601D01*
X141793656Y-87139600D01*
X141751691Y-87128355D01*
X141696105Y-87096262D01*
X141645370Y-87045527D01*
X141645364Y-87045522D01*
X141593989Y-87015861D01*
X141578506Y-87003980D01*
X141578128Y-87004474D01*
X141571683Y-86999529D01*
X141571680Y-86999527D01*
X141571679Y-86999526D01*
X141571678Y-86999525D01*
X141559365Y-86992416D01*
X141511152Y-86941852D01*
X141497928Y-86873245D01*
X141523896Y-86808380D01*
X141533670Y-86797366D01*
X141600475Y-86730562D01*
X141680679Y-86650358D01*
X141742002Y-86616873D01*
X141811694Y-86621857D01*
G37*
%TD.AperFunction*%
%TA.AperFunction,Conductor*%
G36*
X137277297Y-80511382D02*
G01*
X137283332Y-80511676D01*
X138055794Y-80568318D01*
X138061781Y-80568905D01*
X138830531Y-80663154D01*
X138836498Y-80664033D01*
X139599795Y-80795678D01*
X139605670Y-80796841D01*
X140361600Y-80965552D01*
X140367434Y-80967004D01*
X140983245Y-81136363D01*
X141114233Y-81172387D01*
X141120021Y-81174131D01*
X141855911Y-81415696D01*
X141861597Y-81417718D01*
X142518897Y-81669622D01*
X142584806Y-81694881D01*
X142590399Y-81697182D01*
X143299253Y-82009303D01*
X143304712Y-82011868D01*
X143651093Y-82185025D01*
X143997466Y-82358178D01*
X144002810Y-82361014D01*
X144677886Y-82740723D01*
X144683051Y-82743797D01*
X145338801Y-83155983D01*
X145343804Y-83159300D01*
X145978659Y-83602974D01*
X145983516Y-83606547D01*
X146145583Y-83732006D01*
X146186544Y-83788607D01*
X146190402Y-83858370D01*
X146155930Y-83919144D01*
X146094074Y-83951634D01*
X146069677Y-83954058D01*
X145871218Y-83954058D01*
X145524113Y-83994628D01*
X145524111Y-83994628D01*
X145184074Y-84075218D01*
X145184071Y-84075219D01*
X144855686Y-84194741D01*
X144855680Y-84194743D01*
X144543402Y-84351577D01*
X144251421Y-84543615D01*
X144108760Y-84663322D01*
X144108759Y-84663323D01*
X145355814Y-85910378D01*
X145231621Y-86000612D01*
X145092495Y-86139738D01*
X145002261Y-86263931D01*
X143752089Y-85013759D01*
X143752088Y-85013760D01*
X143743917Y-85022421D01*
X143743913Y-85022426D01*
X143535230Y-85302735D01*
X143360502Y-85605374D01*
X143360496Y-85605387D01*
X143231802Y-85903732D01*
X143187174Y-85957492D01*
X143120566Y-85978590D01*
X143053125Y-85960328D01*
X143006265Y-85908506D01*
X142922678Y-85734938D01*
X142761503Y-85478433D01*
X142572624Y-85241587D01*
X142503694Y-85172658D01*
X142503694Y-85172657D01*
X142501821Y-85170784D01*
X142501801Y-85170747D01*
X142465526Y-85134473D01*
X142465527Y-85134473D01*
X142383246Y-85052193D01*
X142383241Y-85052189D01*
X142383239Y-85052187D01*
X142198614Y-84910520D01*
X142030740Y-84813600D01*
X141997067Y-84794159D01*
X141928194Y-84765632D01*
X141782051Y-84705099D01*
X141566964Y-84647470D01*
X141507303Y-84611106D01*
X141476773Y-84548259D01*
X141485067Y-84478884D01*
X141505341Y-84446494D01*
X141525377Y-84423373D01*
X141585165Y-84292457D01*
X141605647Y-84150000D01*
X141585165Y-84007543D01*
X141525377Y-83876627D01*
X141525199Y-83876422D01*
X141525087Y-83876177D01*
X141520582Y-83869166D01*
X141521589Y-83868518D01*
X141496173Y-83812869D01*
X141506114Y-83743710D01*
X141507513Y-83740750D01*
X141509582Y-83736518D01*
X141520500Y-83661582D01*
X141520500Y-83318418D01*
X141509582Y-83243482D01*
X141504693Y-83233482D01*
X141488353Y-83200057D01*
X141476593Y-83131184D01*
X141503937Y-83066886D01*
X141561701Y-83027579D01*
X141631546Y-83025741D01*
X141656045Y-83035110D01*
X141657825Y-83036017D01*
X141657826Y-83036017D01*
X141657828Y-83036018D01*
X141692947Y-83041579D01*
X141749265Y-83050500D01*
X142150734Y-83050499D01*
X142150739Y-83050499D01*
X142150739Y-83050498D01*
X142196454Y-83043258D01*
X142242170Y-83036018D01*
X142242171Y-83036018D01*
X142242172Y-83036017D01*
X142242175Y-83036017D01*
X142352391Y-82979859D01*
X142439859Y-82892391D01*
X142496017Y-82782175D01*
X142496017Y-82782173D01*
X142496018Y-82782172D01*
X142496018Y-82782171D01*
X142502094Y-82743807D01*
X142510500Y-82690735D01*
X142510499Y-82349266D01*
X142510499Y-82349260D01*
X142496018Y-82257829D01*
X142496018Y-82257828D01*
X142496017Y-82257826D01*
X142496017Y-82257825D01*
X142439859Y-82147609D01*
X142439857Y-82147607D01*
X142439854Y-82147603D01*
X142352396Y-82060145D01*
X142352393Y-82060143D01*
X142352391Y-82060141D01*
X142242175Y-82003983D01*
X142242174Y-82003982D01*
X142242171Y-82003981D01*
X142150735Y-81989500D01*
X141749260Y-81989500D01*
X141749260Y-81989501D01*
X141657829Y-82003981D01*
X141657828Y-82003981D01*
X141630666Y-82017821D01*
X141547609Y-82060141D01*
X141547607Y-82060142D01*
X141538914Y-82064572D01*
X141537821Y-82062428D01*
X141485049Y-82081248D01*
X141416997Y-82065411D01*
X141390309Y-82045130D01*
X141362102Y-82016923D01*
X141362099Y-82016921D01*
X141246521Y-81960419D01*
X141246519Y-81960418D01*
X141246518Y-81960418D01*
X141171582Y-81949500D01*
X140728418Y-81949500D01*
X140653482Y-81960418D01*
X140653480Y-81960418D01*
X140653478Y-81960419D01*
X140537900Y-82016921D01*
X140537897Y-82016923D01*
X140506642Y-82048180D01*
X140445320Y-82081666D01*
X140418960Y-82084500D01*
X140311040Y-82084500D01*
X140244001Y-82064815D01*
X140223358Y-82048180D01*
X140182102Y-82006923D01*
X140182099Y-82006921D01*
X140066521Y-81950419D01*
X140066519Y-81950418D01*
X140066518Y-81950418D01*
X139991582Y-81939500D01*
X139991577Y-81939500D01*
X139821900Y-81939500D01*
X139754861Y-81919815D01*
X139734219Y-81903181D01*
X139308605Y-81477567D01*
X139297912Y-81465375D01*
X139296740Y-81463849D01*
X139287744Y-81452124D01*
X139274493Y-81441956D01*
X139262306Y-81431268D01*
X139250498Y-81419460D01*
X139236035Y-81411109D01*
X139222556Y-81402103D01*
X139209304Y-81391935D01*
X139209301Y-81391933D01*
X139209293Y-81391929D01*
X139195698Y-81386298D01*
X139171607Y-81373016D01*
X139136115Y-81347942D01*
X139117981Y-81332298D01*
X139117325Y-81331611D01*
X139117323Y-81331610D01*
X139117320Y-81331606D01*
X139117316Y-81331603D01*
X139117313Y-81331601D01*
X139089664Y-81314772D01*
X139082591Y-81310129D01*
X139056153Y-81291452D01*
X139055580Y-81291241D01*
X139055249Y-81291119D01*
X139033679Y-81280699D01*
X138949960Y-81229744D01*
X138932786Y-81216772D01*
X138930736Y-81215320D01*
X138900580Y-81199415D01*
X138893960Y-81195660D01*
X138882140Y-81188466D01*
X138864845Y-81177940D01*
X138864843Y-81177939D01*
X138864841Y-81177938D01*
X138862571Y-81176935D01*
X138842602Y-81168839D01*
X138791935Y-81142118D01*
X138772380Y-81129180D01*
X138771664Y-81128738D01*
X138741026Y-81114987D01*
X138733959Y-81111542D01*
X138704243Y-81095870D01*
X138703499Y-81095595D01*
X138681222Y-81088146D01*
X138601108Y-81052190D01*
X138585188Y-81042999D01*
X138580545Y-81040497D01*
X138547997Y-81028120D01*
X138541303Y-81025348D01*
X138509528Y-81011088D01*
X138504508Y-81009585D01*
X138486716Y-81004818D01*
X138430485Y-80983436D01*
X138411519Y-80973952D01*
X138408988Y-80972781D01*
X138376364Y-80962609D01*
X138369217Y-80960138D01*
X138337278Y-80947994D01*
X138337276Y-80947993D01*
X138337274Y-80947993D01*
X138334586Y-80947356D01*
X138313791Y-80943099D01*
X138234651Y-80918423D01*
X138218487Y-80911508D01*
X138212915Y-80909312D01*
X138178962Y-80900842D01*
X138172070Y-80898910D01*
X138138657Y-80888492D01*
X138132780Y-80887476D01*
X138115342Y-80884974D01*
X138055428Y-80870028D01*
X138037546Y-80863586D01*
X138033054Y-80862115D01*
X137998981Y-80855724D01*
X137991835Y-80854164D01*
X137958170Y-80845767D01*
X137953511Y-80845236D01*
X137934535Y-80843636D01*
X137856307Y-80828964D01*
X137840432Y-80824263D01*
X137833760Y-80822493D01*
X137798848Y-80817983D01*
X137791878Y-80816880D01*
X137757260Y-80810387D01*
X137750429Y-80810014D01*
X137733809Y-80809580D01*
X137671536Y-80801535D01*
X137653620Y-80797338D01*
X137648466Y-80796289D01*
X137613726Y-80793853D01*
X137606515Y-80793135D01*
X137571982Y-80788674D01*
X137571977Y-80788674D01*
X137571976Y-80788674D01*
X137566700Y-80788687D01*
X137548329Y-80789268D01*
X137470953Y-80783843D01*
X137455098Y-80781078D01*
X137447865Y-80780027D01*
X137412532Y-80779550D01*
X137405533Y-80779257D01*
X137370321Y-80776788D01*
X137370318Y-80776788D01*
X137370316Y-80776788D01*
X137370313Y-80776788D01*
X137363009Y-80777234D01*
X137346991Y-80778665D01*
X137281879Y-80777787D01*
X137281878Y-80777786D01*
X137281878Y-80777787D01*
X137097857Y-80775302D01*
X137086747Y-80774500D01*
X137085222Y-80774500D01*
X137039183Y-80774500D01*
X137037511Y-80774489D01*
X136989889Y-80773846D01*
X136978772Y-80774500D01*
X135519055Y-80774500D01*
X135452016Y-80754815D01*
X135406261Y-80702011D01*
X135396317Y-80632853D01*
X135425342Y-80569297D01*
X135484120Y-80531523D01*
X135509987Y-80526832D01*
X135544392Y-80524309D01*
X135716669Y-80511676D01*
X135722700Y-80511382D01*
X136497009Y-80492487D01*
X136502991Y-80492487D01*
X137277297Y-80511382D01*
G37*
%TD.AperFunction*%
%TA.AperFunction,Conductor*%
G36*
X139274298Y-82829495D02*
G01*
X139275568Y-82830747D01*
X139327140Y-82882319D01*
X139360625Y-82943642D01*
X139355641Y-83013334D01*
X139327140Y-83057681D01*
X139266923Y-83117897D01*
X139266921Y-83117900D01*
X139210419Y-83233478D01*
X139210418Y-83233480D01*
X139210418Y-83233482D01*
X139199500Y-83308418D01*
X139199500Y-83651582D01*
X139210418Y-83726518D01*
X139210418Y-83726519D01*
X139210419Y-83726521D01*
X139266921Y-83842099D01*
X139266923Y-83842102D01*
X139357896Y-83933075D01*
X139357895Y-83933075D01*
X139384916Y-83946284D01*
X139436499Y-83993411D01*
X139437823Y-83995649D01*
X139469525Y-84050558D01*
X139469526Y-84050559D01*
X139469527Y-84050560D01*
X139869432Y-84450465D01*
X139902917Y-84511788D01*
X139904489Y-84520499D01*
X139909707Y-84556791D01*
X139899763Y-84625949D01*
X139854008Y-84678753D01*
X139848971Y-84681824D01*
X139835630Y-84689526D01*
X139531938Y-84993219D01*
X139531937Y-84993220D01*
X139486974Y-85038182D01*
X139425651Y-85071667D01*
X139399295Y-85074500D01*
X139267643Y-85074500D01*
X139267618Y-85074502D01*
X139242514Y-85077413D01*
X139242510Y-85077414D01*
X139212583Y-85090628D01*
X139143304Y-85099697D01*
X139112415Y-85090627D01*
X139082492Y-85077415D01*
X139057368Y-85074500D01*
X139057365Y-85074500D01*
X139013988Y-85074500D01*
X138946949Y-85054815D01*
X138906601Y-85012500D01*
X138862975Y-84936937D01*
X138625563Y-84699526D01*
X138625562Y-84699525D01*
X138562857Y-84663322D01*
X138539937Y-84650089D01*
X138485250Y-84635435D01*
X138485250Y-84635436D01*
X138444436Y-84624500D01*
X138444435Y-84624500D01*
X137419436Y-84624500D01*
X137320564Y-84624500D01*
X137320563Y-84624500D01*
X137279750Y-84635436D01*
X137279749Y-84635435D01*
X137225063Y-84650089D01*
X137225062Y-84650089D01*
X137139435Y-84699527D01*
X136910602Y-84928360D01*
X136849279Y-84961845D01*
X136840571Y-84963416D01*
X136833041Y-84964498D01*
X136694949Y-85005045D01*
X136632031Y-85045480D01*
X136564991Y-85065164D01*
X136497952Y-85045479D01*
X136452197Y-84992674D01*
X136443375Y-84965355D01*
X136443205Y-84964498D01*
X136413187Y-84813589D01*
X136411072Y-84797531D01*
X136395764Y-84563980D01*
X136395500Y-84555874D01*
X136395500Y-83336898D01*
X136415185Y-83269859D01*
X136431819Y-83249217D01*
X136714218Y-82966819D01*
X136775541Y-82933334D01*
X136801899Y-82930500D01*
X137794676Y-82930500D01*
X137794677Y-82930499D01*
X137867740Y-82915966D01*
X137904508Y-82891398D01*
X137971183Y-82870521D01*
X137973393Y-82870501D01*
X138011556Y-82870500D01*
X138086887Y-82870500D01*
X138153926Y-82890185D01*
X138174568Y-82906819D01*
X138197603Y-82929854D01*
X138197605Y-82929855D01*
X138197609Y-82929859D01*
X138307825Y-82986017D01*
X138307826Y-82986017D01*
X138307828Y-82986018D01*
X138342947Y-82991579D01*
X138399265Y-83000500D01*
X138800734Y-83000499D01*
X138800739Y-83000499D01*
X138800739Y-83000498D01*
X138846941Y-82993181D01*
X138892170Y-82986018D01*
X138892171Y-82986018D01*
X138892172Y-82986017D01*
X138892175Y-82986017D01*
X139002391Y-82929859D01*
X139045904Y-82886346D01*
X139096760Y-82835491D01*
X139098435Y-82837166D01*
X139142887Y-82802881D01*
X139212500Y-82796895D01*
X139274298Y-82829495D01*
G37*
%TD.AperFunction*%
%TA.AperFunction,Conductor*%
G36*
X131747112Y-83890519D02*
G01*
X131760108Y-83896227D01*
X131857825Y-83946017D01*
X131857826Y-83946017D01*
X131857828Y-83946018D01*
X131892947Y-83951579D01*
X131949265Y-83960500D01*
X132078099Y-83960499D01*
X132145139Y-83980183D01*
X132165781Y-83996818D01*
X132495482Y-84326519D01*
X132503876Y-84336995D01*
X132504226Y-84336703D01*
X132509435Y-84342933D01*
X132538141Y-84369331D01*
X132541887Y-84372924D01*
X132569437Y-84400474D01*
X132571560Y-84402103D01*
X132583757Y-84412799D01*
X132641320Y-84470362D01*
X132641322Y-84470365D01*
X132713775Y-84542821D01*
X132747259Y-84604144D01*
X132742273Y-84673836D01*
X132700400Y-84729769D01*
X132634935Y-84754184D01*
X132626092Y-84754500D01*
X132027874Y-84754500D01*
X131960835Y-84734815D01*
X131960834Y-84734815D01*
X131918882Y-84707854D01*
X131860053Y-84670047D01*
X131860052Y-84670046D01*
X131860051Y-84670046D01*
X131860050Y-84670045D01*
X131721963Y-84629500D01*
X131721961Y-84629500D01*
X131578039Y-84629500D01*
X131578036Y-84629500D01*
X131439949Y-84670045D01*
X131318873Y-84747856D01*
X131224623Y-84856626D01*
X131206349Y-84896641D01*
X131160593Y-84949444D01*
X131093554Y-84969128D01*
X131026514Y-84949443D01*
X130980760Y-84896638D01*
X130973271Y-84875258D01*
X130939297Y-84739629D01*
X130936923Y-84727695D01*
X130934030Y-84708196D01*
X130892002Y-84424882D01*
X130890809Y-84412771D01*
X130887378Y-84342937D01*
X130875961Y-84110583D01*
X130892332Y-84042661D01*
X130942827Y-83994370D01*
X130999812Y-83980500D01*
X131431577Y-83980500D01*
X131431582Y-83980500D01*
X131506518Y-83969582D01*
X131581194Y-83933075D01*
X131622099Y-83913078D01*
X131630463Y-83907107D01*
X131632577Y-83910068D01*
X131677418Y-83885561D01*
X131747112Y-83890519D01*
G37*
%TD.AperFunction*%
%TA.AperFunction,Conductor*%
G36*
X134843147Y-81524523D02*
G01*
X134850563Y-81525499D01*
X134850565Y-81525500D01*
X134867260Y-81525500D01*
X134883447Y-81526561D01*
X134899996Y-81528740D01*
X134916548Y-81526560D01*
X134932733Y-81525500D01*
X135995500Y-81525500D01*
X136062539Y-81545185D01*
X136108294Y-81597989D01*
X136119500Y-81649500D01*
X136119500Y-82448099D01*
X136099815Y-82515138D01*
X136083181Y-82535780D01*
X135839031Y-82779929D01*
X135838874Y-82780107D01*
X135834728Y-82784253D01*
X135758866Y-82888664D01*
X135703535Y-82931328D01*
X135634359Y-82937393D01*
X135594678Y-82929500D01*
X135594674Y-82929500D01*
X134145326Y-82929500D01*
X134145323Y-82929500D01*
X134072264Y-82944032D01*
X134072260Y-82944034D01*
X133979244Y-83006184D01*
X133977254Y-83003206D01*
X133934293Y-83026666D01*
X133907935Y-83029500D01*
X133863113Y-83029500D01*
X133796074Y-83009815D01*
X133775432Y-82993181D01*
X133752396Y-82970145D01*
X133752393Y-82970143D01*
X133752391Y-82970141D01*
X133642175Y-82913983D01*
X133642174Y-82913982D01*
X133642171Y-82913981D01*
X133550735Y-82899500D01*
X133149260Y-82899500D01*
X133149260Y-82899501D01*
X133057829Y-82913981D01*
X133057828Y-82913981D01*
X132947607Y-82970142D01*
X132947603Y-82970145D01*
X132860145Y-83057603D01*
X132854408Y-83065501D01*
X132853215Y-83064634D01*
X132812498Y-83107738D01*
X132744675Y-83124526D01*
X132678543Y-83101981D01*
X132646418Y-83064900D01*
X132645592Y-83065501D01*
X132639860Y-83057611D01*
X132639859Y-83057609D01*
X132639856Y-83057606D01*
X132639854Y-83057603D01*
X132552396Y-82970145D01*
X132552393Y-82970143D01*
X132552391Y-82970141D01*
X132442175Y-82913983D01*
X132442174Y-82913982D01*
X132442171Y-82913981D01*
X132350735Y-82899500D01*
X131949265Y-82899500D01*
X131877173Y-82910918D01*
X131807879Y-82901962D01*
X131754428Y-82856964D01*
X131733790Y-82790212D01*
X131746376Y-82733986D01*
X131769582Y-82686518D01*
X131780500Y-82611582D01*
X131780500Y-82454945D01*
X131800185Y-82387906D01*
X131818010Y-82366088D01*
X131823223Y-82361014D01*
X131882308Y-82303503D01*
X131882307Y-82303503D01*
X131962939Y-82225018D01*
X131968075Y-82220293D01*
X132090539Y-82113875D01*
X132096083Y-82109335D01*
X132211967Y-82019964D01*
X132217648Y-82015836D01*
X132352851Y-81923338D01*
X132358986Y-81919403D01*
X132483506Y-81844604D01*
X132489341Y-81841311D01*
X132604111Y-81780632D01*
X132609817Y-81777803D01*
X132734094Y-81720147D01*
X132746075Y-81715332D01*
X133026383Y-81619309D01*
X133040517Y-81615386D01*
X133326719Y-81553955D01*
X133341236Y-81551729D01*
X133622953Y-81525500D01*
X133639107Y-81523996D01*
X133650602Y-81523462D01*
X134826960Y-81523462D01*
X134843147Y-81524523D01*
G37*
%TD.AperFunction*%
%TD*%
M02*
