%TF.GenerationSoftware,KiCad,Pcbnew,8.0.6-8.0.6-0~ubuntu20.04.1*%
%TF.CreationDate,2024-11-07T01:45:43+05:00*%
%TF.ProjectId,AH3,4148332e-6b69-4636-9164-5f7063625858,rev?*%
%TF.SameCoordinates,Original*%
%TF.FileFunction,AssemblyDrawing,Top*%
%FSLAX46Y46*%
G04 Gerber Fmt 4.6, Leading zero omitted, Abs format (unit mm)*
G04 Created by KiCad (PCBNEW 8.0.6-8.0.6-0~ubuntu20.04.1) date 2024-11-07 01:45:43*
%MOMM*%
%LPD*%
G01*
G04 APERTURE LIST*
%ADD10C,0.150000*%
%ADD11C,0.040000*%
%ADD12C,0.080000*%
%ADD13C,0.105000*%
%ADD14C,0.100000*%
G04 APERTURE END LIST*
D10*
X133938690Y-91389580D02*
X133891071Y-91437200D01*
X133891071Y-91437200D02*
X133748214Y-91484819D01*
X133748214Y-91484819D02*
X133652976Y-91484819D01*
X133652976Y-91484819D02*
X133510119Y-91437200D01*
X133510119Y-91437200D02*
X133414881Y-91341961D01*
X133414881Y-91341961D02*
X133367262Y-91246723D01*
X133367262Y-91246723D02*
X133319643Y-91056247D01*
X133319643Y-91056247D02*
X133319643Y-90913390D01*
X133319643Y-90913390D02*
X133367262Y-90722914D01*
X133367262Y-90722914D02*
X133414881Y-90627676D01*
X133414881Y-90627676D02*
X133510119Y-90532438D01*
X133510119Y-90532438D02*
X133652976Y-90484819D01*
X133652976Y-90484819D02*
X133748214Y-90484819D01*
X133748214Y-90484819D02*
X133891071Y-90532438D01*
X133891071Y-90532438D02*
X133938690Y-90580057D01*
X134367262Y-91484819D02*
X134367262Y-90484819D01*
X134367262Y-90961009D02*
X134938690Y-90961009D01*
X134938690Y-91484819D02*
X134938690Y-90484819D01*
X135319643Y-90484819D02*
X135938690Y-90484819D01*
X135938690Y-90484819D02*
X135605357Y-90865771D01*
X135605357Y-90865771D02*
X135748214Y-90865771D01*
X135748214Y-90865771D02*
X135843452Y-90913390D01*
X135843452Y-90913390D02*
X135891071Y-90961009D01*
X135891071Y-90961009D02*
X135938690Y-91056247D01*
X135938690Y-91056247D02*
X135938690Y-91294342D01*
X135938690Y-91294342D02*
X135891071Y-91389580D01*
X135891071Y-91389580D02*
X135843452Y-91437200D01*
X135843452Y-91437200D02*
X135748214Y-91484819D01*
X135748214Y-91484819D02*
X135462500Y-91484819D01*
X135462500Y-91484819D02*
X135367262Y-91437200D01*
X135367262Y-91437200D02*
X135319643Y-91389580D01*
X136319643Y-90580057D02*
X136367262Y-90532438D01*
X136367262Y-90532438D02*
X136462500Y-90484819D01*
X136462500Y-90484819D02*
X136700595Y-90484819D01*
X136700595Y-90484819D02*
X136795833Y-90532438D01*
X136795833Y-90532438D02*
X136843452Y-90580057D01*
X136843452Y-90580057D02*
X136891071Y-90675295D01*
X136891071Y-90675295D02*
X136891071Y-90770533D01*
X136891071Y-90770533D02*
X136843452Y-90913390D01*
X136843452Y-90913390D02*
X136272024Y-91484819D01*
X136272024Y-91484819D02*
X136891071Y-91484819D01*
X137176786Y-90484819D02*
X137510119Y-91484819D01*
X137510119Y-91484819D02*
X137843452Y-90484819D01*
X138081548Y-90484819D02*
X138700595Y-90484819D01*
X138700595Y-90484819D02*
X138367262Y-90865771D01*
X138367262Y-90865771D02*
X138510119Y-90865771D01*
X138510119Y-90865771D02*
X138605357Y-90913390D01*
X138605357Y-90913390D02*
X138652976Y-90961009D01*
X138652976Y-90961009D02*
X138700595Y-91056247D01*
X138700595Y-91056247D02*
X138700595Y-91294342D01*
X138700595Y-91294342D02*
X138652976Y-91389580D01*
X138652976Y-91389580D02*
X138605357Y-91437200D01*
X138605357Y-91437200D02*
X138510119Y-91484819D01*
X138510119Y-91484819D02*
X138224405Y-91484819D01*
X138224405Y-91484819D02*
X138129167Y-91437200D01*
X138129167Y-91437200D02*
X138081548Y-91389580D01*
X139319643Y-90484819D02*
X139414881Y-90484819D01*
X139414881Y-90484819D02*
X139510119Y-90532438D01*
X139510119Y-90532438D02*
X139557738Y-90580057D01*
X139557738Y-90580057D02*
X139605357Y-90675295D01*
X139605357Y-90675295D02*
X139652976Y-90865771D01*
X139652976Y-90865771D02*
X139652976Y-91103866D01*
X139652976Y-91103866D02*
X139605357Y-91294342D01*
X139605357Y-91294342D02*
X139557738Y-91389580D01*
X139557738Y-91389580D02*
X139510119Y-91437200D01*
X139510119Y-91437200D02*
X139414881Y-91484819D01*
X139414881Y-91484819D02*
X139319643Y-91484819D01*
X139319643Y-91484819D02*
X139224405Y-91437200D01*
X139224405Y-91437200D02*
X139176786Y-91389580D01*
X139176786Y-91389580D02*
X139129167Y-91294342D01*
X139129167Y-91294342D02*
X139081548Y-91103866D01*
X139081548Y-91103866D02*
X139081548Y-90865771D01*
X139081548Y-90865771D02*
X139129167Y-90675295D01*
X139129167Y-90675295D02*
X139176786Y-90580057D01*
X139176786Y-90580057D02*
X139224405Y-90532438D01*
X139224405Y-90532438D02*
X139319643Y-90484819D01*
X140557738Y-90484819D02*
X140081548Y-90484819D01*
X140081548Y-90484819D02*
X140033929Y-90961009D01*
X140033929Y-90961009D02*
X140081548Y-90913390D01*
X140081548Y-90913390D02*
X140176786Y-90865771D01*
X140176786Y-90865771D02*
X140414881Y-90865771D01*
X140414881Y-90865771D02*
X140510119Y-90913390D01*
X140510119Y-90913390D02*
X140557738Y-90961009D01*
X140557738Y-90961009D02*
X140605357Y-91056247D01*
X140605357Y-91056247D02*
X140605357Y-91294342D01*
X140605357Y-91294342D02*
X140557738Y-91389580D01*
X140557738Y-91389580D02*
X140510119Y-91437200D01*
X140510119Y-91437200D02*
X140414881Y-91484819D01*
X140414881Y-91484819D02*
X140176786Y-91484819D01*
X140176786Y-91484819D02*
X140081548Y-91437200D01*
X140081548Y-91437200D02*
X140033929Y-91389580D01*
X141557738Y-90532438D02*
X141462500Y-90484819D01*
X141462500Y-90484819D02*
X141319643Y-90484819D01*
X141319643Y-90484819D02*
X141176786Y-90532438D01*
X141176786Y-90532438D02*
X141081548Y-90627676D01*
X141081548Y-90627676D02*
X141033929Y-90722914D01*
X141033929Y-90722914D02*
X140986310Y-90913390D01*
X140986310Y-90913390D02*
X140986310Y-91056247D01*
X140986310Y-91056247D02*
X141033929Y-91246723D01*
X141033929Y-91246723D02*
X141081548Y-91341961D01*
X141081548Y-91341961D02*
X141176786Y-91437200D01*
X141176786Y-91437200D02*
X141319643Y-91484819D01*
X141319643Y-91484819D02*
X141414881Y-91484819D01*
X141414881Y-91484819D02*
X141557738Y-91437200D01*
X141557738Y-91437200D02*
X141605357Y-91389580D01*
X141605357Y-91389580D02*
X141605357Y-91056247D01*
X141605357Y-91056247D02*
X141414881Y-91056247D01*
X142367262Y-90961009D02*
X142510119Y-91008628D01*
X142510119Y-91008628D02*
X142557738Y-91056247D01*
X142557738Y-91056247D02*
X142605357Y-91151485D01*
X142605357Y-91151485D02*
X142605357Y-91294342D01*
X142605357Y-91294342D02*
X142557738Y-91389580D01*
X142557738Y-91389580D02*
X142510119Y-91437200D01*
X142510119Y-91437200D02*
X142414881Y-91484819D01*
X142414881Y-91484819D02*
X142033929Y-91484819D01*
X142033929Y-91484819D02*
X142033929Y-90484819D01*
X142033929Y-90484819D02*
X142367262Y-90484819D01*
X142367262Y-90484819D02*
X142462500Y-90532438D01*
X142462500Y-90532438D02*
X142510119Y-90580057D01*
X142510119Y-90580057D02*
X142557738Y-90675295D01*
X142557738Y-90675295D02*
X142557738Y-90770533D01*
X142557738Y-90770533D02*
X142510119Y-90865771D01*
X142510119Y-90865771D02*
X142462500Y-90913390D01*
X142462500Y-90913390D02*
X142367262Y-90961009D01*
X142367262Y-90961009D02*
X142033929Y-90961009D01*
X143033929Y-90484819D02*
X143033929Y-91294342D01*
X143033929Y-91294342D02*
X143081548Y-91389580D01*
X143081548Y-91389580D02*
X143129167Y-91437200D01*
X143129167Y-91437200D02*
X143224405Y-91484819D01*
X143224405Y-91484819D02*
X143414881Y-91484819D01*
X143414881Y-91484819D02*
X143510119Y-91437200D01*
X143510119Y-91437200D02*
X143557738Y-91389580D01*
X143557738Y-91389580D02*
X143605357Y-91294342D01*
X143605357Y-91294342D02*
X143605357Y-90484819D01*
X144510119Y-90484819D02*
X144319643Y-90484819D01*
X144319643Y-90484819D02*
X144224405Y-90532438D01*
X144224405Y-90532438D02*
X144176786Y-90580057D01*
X144176786Y-90580057D02*
X144081548Y-90722914D01*
X144081548Y-90722914D02*
X144033929Y-90913390D01*
X144033929Y-90913390D02*
X144033929Y-91294342D01*
X144033929Y-91294342D02*
X144081548Y-91389580D01*
X144081548Y-91389580D02*
X144129167Y-91437200D01*
X144129167Y-91437200D02*
X144224405Y-91484819D01*
X144224405Y-91484819D02*
X144414881Y-91484819D01*
X144414881Y-91484819D02*
X144510119Y-91437200D01*
X144510119Y-91437200D02*
X144557738Y-91389580D01*
X144557738Y-91389580D02*
X144605357Y-91294342D01*
X144605357Y-91294342D02*
X144605357Y-91056247D01*
X144605357Y-91056247D02*
X144557738Y-90961009D01*
X144557738Y-90961009D02*
X144510119Y-90913390D01*
X144510119Y-90913390D02*
X144414881Y-90865771D01*
X144414881Y-90865771D02*
X144224405Y-90865771D01*
X144224405Y-90865771D02*
X144129167Y-90913390D01*
X144129167Y-90913390D02*
X144081548Y-90961009D01*
X144081548Y-90961009D02*
X144033929Y-91056247D01*
X138200595Y-87154819D02*
X138200595Y-87964342D01*
X138200595Y-87964342D02*
X138248214Y-88059580D01*
X138248214Y-88059580D02*
X138295833Y-88107200D01*
X138295833Y-88107200D02*
X138391071Y-88154819D01*
X138391071Y-88154819D02*
X138581547Y-88154819D01*
X138581547Y-88154819D02*
X138676785Y-88107200D01*
X138676785Y-88107200D02*
X138724404Y-88059580D01*
X138724404Y-88059580D02*
X138772023Y-87964342D01*
X138772023Y-87964342D02*
X138772023Y-87154819D01*
X139152976Y-87154819D02*
X139772023Y-87154819D01*
X139772023Y-87154819D02*
X139438690Y-87535771D01*
X139438690Y-87535771D02*
X139581547Y-87535771D01*
X139581547Y-87535771D02*
X139676785Y-87583390D01*
X139676785Y-87583390D02*
X139724404Y-87631009D01*
X139724404Y-87631009D02*
X139772023Y-87726247D01*
X139772023Y-87726247D02*
X139772023Y-87964342D01*
X139772023Y-87964342D02*
X139724404Y-88059580D01*
X139724404Y-88059580D02*
X139676785Y-88107200D01*
X139676785Y-88107200D02*
X139581547Y-88154819D01*
X139581547Y-88154819D02*
X139295833Y-88154819D01*
X139295833Y-88154819D02*
X139200595Y-88107200D01*
X139200595Y-88107200D02*
X139152976Y-88059580D01*
D11*
X129839765Y-97291666D02*
X129851670Y-97303570D01*
X129851670Y-97303570D02*
X129863574Y-97339285D01*
X129863574Y-97339285D02*
X129863574Y-97363094D01*
X129863574Y-97363094D02*
X129851670Y-97398808D01*
X129851670Y-97398808D02*
X129827860Y-97422618D01*
X129827860Y-97422618D02*
X129804050Y-97434523D01*
X129804050Y-97434523D02*
X129756431Y-97446427D01*
X129756431Y-97446427D02*
X129720717Y-97446427D01*
X129720717Y-97446427D02*
X129673098Y-97434523D01*
X129673098Y-97434523D02*
X129649289Y-97422618D01*
X129649289Y-97422618D02*
X129625479Y-97398808D01*
X129625479Y-97398808D02*
X129613574Y-97363094D01*
X129613574Y-97363094D02*
X129613574Y-97339285D01*
X129613574Y-97339285D02*
X129625479Y-97303570D01*
X129625479Y-97303570D02*
X129637384Y-97291666D01*
X129863574Y-97053570D02*
X129863574Y-97196427D01*
X129863574Y-97124999D02*
X129613574Y-97124999D01*
X129613574Y-97124999D02*
X129649289Y-97148808D01*
X129649289Y-97148808D02*
X129673098Y-97172618D01*
X129673098Y-97172618D02*
X129685003Y-97196427D01*
X137706667Y-105668200D02*
X137620000Y-105544391D01*
X137558095Y-105668200D02*
X137558095Y-105408200D01*
X137558095Y-105408200D02*
X137657143Y-105408200D01*
X137657143Y-105408200D02*
X137681905Y-105420581D01*
X137681905Y-105420581D02*
X137694286Y-105432962D01*
X137694286Y-105432962D02*
X137706667Y-105457724D01*
X137706667Y-105457724D02*
X137706667Y-105494867D01*
X137706667Y-105494867D02*
X137694286Y-105519629D01*
X137694286Y-105519629D02*
X137681905Y-105532010D01*
X137681905Y-105532010D02*
X137657143Y-105544391D01*
X137657143Y-105544391D02*
X137558095Y-105544391D01*
X137830476Y-105668200D02*
X137880000Y-105668200D01*
X137880000Y-105668200D02*
X137904762Y-105655820D01*
X137904762Y-105655820D02*
X137917143Y-105643439D01*
X137917143Y-105643439D02*
X137941905Y-105606296D01*
X137941905Y-105606296D02*
X137954286Y-105556772D01*
X137954286Y-105556772D02*
X137954286Y-105457724D01*
X137954286Y-105457724D02*
X137941905Y-105432962D01*
X137941905Y-105432962D02*
X137929524Y-105420581D01*
X137929524Y-105420581D02*
X137904762Y-105408200D01*
X137904762Y-105408200D02*
X137855238Y-105408200D01*
X137855238Y-105408200D02*
X137830476Y-105420581D01*
X137830476Y-105420581D02*
X137818095Y-105432962D01*
X137818095Y-105432962D02*
X137805714Y-105457724D01*
X137805714Y-105457724D02*
X137805714Y-105519629D01*
X137805714Y-105519629D02*
X137818095Y-105544391D01*
X137818095Y-105544391D02*
X137830476Y-105556772D01*
X137830476Y-105556772D02*
X137855238Y-105569153D01*
X137855238Y-105569153D02*
X137904762Y-105569153D01*
X137904762Y-105569153D02*
X137929524Y-105556772D01*
X137929524Y-105556772D02*
X137941905Y-105544391D01*
X137941905Y-105544391D02*
X137954286Y-105519629D01*
D10*
X140071428Y-98868509D02*
X140214285Y-98916128D01*
X140214285Y-98916128D02*
X140261904Y-98963747D01*
X140261904Y-98963747D02*
X140309523Y-99058985D01*
X140309523Y-99058985D02*
X140309523Y-99201842D01*
X140309523Y-99201842D02*
X140261904Y-99297080D01*
X140261904Y-99297080D02*
X140214285Y-99344700D01*
X140214285Y-99344700D02*
X140119047Y-99392319D01*
X140119047Y-99392319D02*
X139738095Y-99392319D01*
X139738095Y-99392319D02*
X139738095Y-98392319D01*
X139738095Y-98392319D02*
X140071428Y-98392319D01*
X140071428Y-98392319D02*
X140166666Y-98439938D01*
X140166666Y-98439938D02*
X140214285Y-98487557D01*
X140214285Y-98487557D02*
X140261904Y-98582795D01*
X140261904Y-98582795D02*
X140261904Y-98678033D01*
X140261904Y-98678033D02*
X140214285Y-98773271D01*
X140214285Y-98773271D02*
X140166666Y-98820890D01*
X140166666Y-98820890D02*
X140071428Y-98868509D01*
X140071428Y-98868509D02*
X139738095Y-98868509D01*
X140738095Y-99392319D02*
X140738095Y-98392319D01*
X140738095Y-98392319D02*
X141071428Y-99106604D01*
X141071428Y-99106604D02*
X141404761Y-98392319D01*
X141404761Y-98392319D02*
X141404761Y-99392319D01*
X141880952Y-99392319D02*
X141880952Y-98392319D01*
X141880952Y-98392319D02*
X142261904Y-98392319D01*
X142261904Y-98392319D02*
X142357142Y-98439938D01*
X142357142Y-98439938D02*
X142404761Y-98487557D01*
X142404761Y-98487557D02*
X142452380Y-98582795D01*
X142452380Y-98582795D02*
X142452380Y-98725652D01*
X142452380Y-98725652D02*
X142404761Y-98820890D01*
X142404761Y-98820890D02*
X142357142Y-98868509D01*
X142357142Y-98868509D02*
X142261904Y-98916128D01*
X142261904Y-98916128D02*
X141880952Y-98916128D01*
X142785714Y-98392319D02*
X143404761Y-98392319D01*
X143404761Y-98392319D02*
X143071428Y-98773271D01*
X143071428Y-98773271D02*
X143214285Y-98773271D01*
X143214285Y-98773271D02*
X143309523Y-98820890D01*
X143309523Y-98820890D02*
X143357142Y-98868509D01*
X143357142Y-98868509D02*
X143404761Y-98963747D01*
X143404761Y-98963747D02*
X143404761Y-99201842D01*
X143404761Y-99201842D02*
X143357142Y-99297080D01*
X143357142Y-99297080D02*
X143309523Y-99344700D01*
X143309523Y-99344700D02*
X143214285Y-99392319D01*
X143214285Y-99392319D02*
X142928571Y-99392319D01*
X142928571Y-99392319D02*
X142833333Y-99344700D01*
X142833333Y-99344700D02*
X142785714Y-99297080D01*
X143976190Y-98820890D02*
X143880952Y-98773271D01*
X143880952Y-98773271D02*
X143833333Y-98725652D01*
X143833333Y-98725652D02*
X143785714Y-98630414D01*
X143785714Y-98630414D02*
X143785714Y-98582795D01*
X143785714Y-98582795D02*
X143833333Y-98487557D01*
X143833333Y-98487557D02*
X143880952Y-98439938D01*
X143880952Y-98439938D02*
X143976190Y-98392319D01*
X143976190Y-98392319D02*
X144166666Y-98392319D01*
X144166666Y-98392319D02*
X144261904Y-98439938D01*
X144261904Y-98439938D02*
X144309523Y-98487557D01*
X144309523Y-98487557D02*
X144357142Y-98582795D01*
X144357142Y-98582795D02*
X144357142Y-98630414D01*
X144357142Y-98630414D02*
X144309523Y-98725652D01*
X144309523Y-98725652D02*
X144261904Y-98773271D01*
X144261904Y-98773271D02*
X144166666Y-98820890D01*
X144166666Y-98820890D02*
X143976190Y-98820890D01*
X143976190Y-98820890D02*
X143880952Y-98868509D01*
X143880952Y-98868509D02*
X143833333Y-98916128D01*
X143833333Y-98916128D02*
X143785714Y-99011366D01*
X143785714Y-99011366D02*
X143785714Y-99201842D01*
X143785714Y-99201842D02*
X143833333Y-99297080D01*
X143833333Y-99297080D02*
X143880952Y-99344700D01*
X143880952Y-99344700D02*
X143976190Y-99392319D01*
X143976190Y-99392319D02*
X144166666Y-99392319D01*
X144166666Y-99392319D02*
X144261904Y-99344700D01*
X144261904Y-99344700D02*
X144309523Y-99297080D01*
X144309523Y-99297080D02*
X144357142Y-99201842D01*
X144357142Y-99201842D02*
X144357142Y-99011366D01*
X144357142Y-99011366D02*
X144309523Y-98916128D01*
X144309523Y-98916128D02*
X144261904Y-98868509D01*
X144261904Y-98868509D02*
X144166666Y-98820890D01*
X144928571Y-98820890D02*
X144833333Y-98773271D01*
X144833333Y-98773271D02*
X144785714Y-98725652D01*
X144785714Y-98725652D02*
X144738095Y-98630414D01*
X144738095Y-98630414D02*
X144738095Y-98582795D01*
X144738095Y-98582795D02*
X144785714Y-98487557D01*
X144785714Y-98487557D02*
X144833333Y-98439938D01*
X144833333Y-98439938D02*
X144928571Y-98392319D01*
X144928571Y-98392319D02*
X145119047Y-98392319D01*
X145119047Y-98392319D02*
X145214285Y-98439938D01*
X145214285Y-98439938D02*
X145261904Y-98487557D01*
X145261904Y-98487557D02*
X145309523Y-98582795D01*
X145309523Y-98582795D02*
X145309523Y-98630414D01*
X145309523Y-98630414D02*
X145261904Y-98725652D01*
X145261904Y-98725652D02*
X145214285Y-98773271D01*
X145214285Y-98773271D02*
X145119047Y-98820890D01*
X145119047Y-98820890D02*
X144928571Y-98820890D01*
X144928571Y-98820890D02*
X144833333Y-98868509D01*
X144833333Y-98868509D02*
X144785714Y-98916128D01*
X144785714Y-98916128D02*
X144738095Y-99011366D01*
X144738095Y-99011366D02*
X144738095Y-99201842D01*
X144738095Y-99201842D02*
X144785714Y-99297080D01*
X144785714Y-99297080D02*
X144833333Y-99344700D01*
X144833333Y-99344700D02*
X144928571Y-99392319D01*
X144928571Y-99392319D02*
X145119047Y-99392319D01*
X145119047Y-99392319D02*
X145214285Y-99344700D01*
X145214285Y-99344700D02*
X145261904Y-99297080D01*
X145261904Y-99297080D02*
X145309523Y-99201842D01*
X145309523Y-99201842D02*
X145309523Y-99011366D01*
X145309523Y-99011366D02*
X145261904Y-98916128D01*
X145261904Y-98916128D02*
X145214285Y-98868509D01*
X145214285Y-98868509D02*
X145119047Y-98820890D01*
D12*
X142119047Y-96714649D02*
X142119047Y-97119411D01*
X142119047Y-97119411D02*
X142142857Y-97167030D01*
X142142857Y-97167030D02*
X142166666Y-97190840D01*
X142166666Y-97190840D02*
X142214285Y-97214649D01*
X142214285Y-97214649D02*
X142309523Y-97214649D01*
X142309523Y-97214649D02*
X142357142Y-97190840D01*
X142357142Y-97190840D02*
X142380952Y-97167030D01*
X142380952Y-97167030D02*
X142404761Y-97119411D01*
X142404761Y-97119411D02*
X142404761Y-96714649D01*
X142619048Y-96762268D02*
X142642857Y-96738459D01*
X142642857Y-96738459D02*
X142690476Y-96714649D01*
X142690476Y-96714649D02*
X142809524Y-96714649D01*
X142809524Y-96714649D02*
X142857143Y-96738459D01*
X142857143Y-96738459D02*
X142880952Y-96762268D01*
X142880952Y-96762268D02*
X142904762Y-96809887D01*
X142904762Y-96809887D02*
X142904762Y-96857506D01*
X142904762Y-96857506D02*
X142880952Y-96928935D01*
X142880952Y-96928935D02*
X142595238Y-97214649D01*
X142595238Y-97214649D02*
X142904762Y-97214649D01*
D11*
X138689765Y-82991666D02*
X138701670Y-83003570D01*
X138701670Y-83003570D02*
X138713574Y-83039285D01*
X138713574Y-83039285D02*
X138713574Y-83063094D01*
X138713574Y-83063094D02*
X138701670Y-83098808D01*
X138701670Y-83098808D02*
X138677860Y-83122618D01*
X138677860Y-83122618D02*
X138654050Y-83134523D01*
X138654050Y-83134523D02*
X138606431Y-83146427D01*
X138606431Y-83146427D02*
X138570717Y-83146427D01*
X138570717Y-83146427D02*
X138523098Y-83134523D01*
X138523098Y-83134523D02*
X138499289Y-83122618D01*
X138499289Y-83122618D02*
X138475479Y-83098808D01*
X138475479Y-83098808D02*
X138463574Y-83063094D01*
X138463574Y-83063094D02*
X138463574Y-83039285D01*
X138463574Y-83039285D02*
X138475479Y-83003570D01*
X138475479Y-83003570D02*
X138487384Y-82991666D01*
X138463574Y-82765475D02*
X138463574Y-82884523D01*
X138463574Y-82884523D02*
X138582622Y-82896427D01*
X138582622Y-82896427D02*
X138570717Y-82884523D01*
X138570717Y-82884523D02*
X138558812Y-82860713D01*
X138558812Y-82860713D02*
X138558812Y-82801189D01*
X138558812Y-82801189D02*
X138570717Y-82777380D01*
X138570717Y-82777380D02*
X138582622Y-82765475D01*
X138582622Y-82765475D02*
X138606431Y-82753570D01*
X138606431Y-82753570D02*
X138665955Y-82753570D01*
X138665955Y-82753570D02*
X138689765Y-82765475D01*
X138689765Y-82765475D02*
X138701670Y-82777380D01*
X138701670Y-82777380D02*
X138713574Y-82801189D01*
X138713574Y-82801189D02*
X138713574Y-82860713D01*
X138713574Y-82860713D02*
X138701670Y-82884523D01*
X138701670Y-82884523D02*
X138689765Y-82896427D01*
X142039765Y-83041666D02*
X142051670Y-83053570D01*
X142051670Y-83053570D02*
X142063574Y-83089285D01*
X142063574Y-83089285D02*
X142063574Y-83113094D01*
X142063574Y-83113094D02*
X142051670Y-83148808D01*
X142051670Y-83148808D02*
X142027860Y-83172618D01*
X142027860Y-83172618D02*
X142004050Y-83184523D01*
X142004050Y-83184523D02*
X141956431Y-83196427D01*
X141956431Y-83196427D02*
X141920717Y-83196427D01*
X141920717Y-83196427D02*
X141873098Y-83184523D01*
X141873098Y-83184523D02*
X141849289Y-83172618D01*
X141849289Y-83172618D02*
X141825479Y-83148808D01*
X141825479Y-83148808D02*
X141813574Y-83113094D01*
X141813574Y-83113094D02*
X141813574Y-83089285D01*
X141813574Y-83089285D02*
X141825479Y-83053570D01*
X141825479Y-83053570D02*
X141837384Y-83041666D01*
X141920717Y-82898808D02*
X141908812Y-82922618D01*
X141908812Y-82922618D02*
X141896908Y-82934523D01*
X141896908Y-82934523D02*
X141873098Y-82946427D01*
X141873098Y-82946427D02*
X141861193Y-82946427D01*
X141861193Y-82946427D02*
X141837384Y-82934523D01*
X141837384Y-82934523D02*
X141825479Y-82922618D01*
X141825479Y-82922618D02*
X141813574Y-82898808D01*
X141813574Y-82898808D02*
X141813574Y-82851189D01*
X141813574Y-82851189D02*
X141825479Y-82827380D01*
X141825479Y-82827380D02*
X141837384Y-82815475D01*
X141837384Y-82815475D02*
X141861193Y-82803570D01*
X141861193Y-82803570D02*
X141873098Y-82803570D01*
X141873098Y-82803570D02*
X141896908Y-82815475D01*
X141896908Y-82815475D02*
X141908812Y-82827380D01*
X141908812Y-82827380D02*
X141920717Y-82851189D01*
X141920717Y-82851189D02*
X141920717Y-82898808D01*
X141920717Y-82898808D02*
X141932622Y-82922618D01*
X141932622Y-82922618D02*
X141944527Y-82934523D01*
X141944527Y-82934523D02*
X141968336Y-82946427D01*
X141968336Y-82946427D02*
X142015955Y-82946427D01*
X142015955Y-82946427D02*
X142039765Y-82934523D01*
X142039765Y-82934523D02*
X142051670Y-82922618D01*
X142051670Y-82922618D02*
X142063574Y-82898808D01*
X142063574Y-82898808D02*
X142063574Y-82851189D01*
X142063574Y-82851189D02*
X142051670Y-82827380D01*
X142051670Y-82827380D02*
X142039765Y-82815475D01*
X142039765Y-82815475D02*
X142015955Y-82803570D01*
X142015955Y-82803570D02*
X141968336Y-82803570D01*
X141968336Y-82803570D02*
X141944527Y-82815475D01*
X141944527Y-82815475D02*
X141932622Y-82827380D01*
X141932622Y-82827380D02*
X141920717Y-82851189D01*
D10*
X132284819Y-88263333D02*
X132999104Y-88263333D01*
X132999104Y-88263333D02*
X133141961Y-88310952D01*
X133141961Y-88310952D02*
X133237200Y-88406190D01*
X133237200Y-88406190D02*
X133284819Y-88549047D01*
X133284819Y-88549047D02*
X133284819Y-88644285D01*
X133284819Y-87263333D02*
X133284819Y-87834761D01*
X133284819Y-87549047D02*
X132284819Y-87549047D01*
X132284819Y-87549047D02*
X132427676Y-87644285D01*
X132427676Y-87644285D02*
X132522914Y-87739523D01*
X132522914Y-87739523D02*
X132570533Y-87834761D01*
D11*
X139888200Y-83013332D02*
X139764391Y-83099999D01*
X139888200Y-83161904D02*
X139628200Y-83161904D01*
X139628200Y-83161904D02*
X139628200Y-83062856D01*
X139628200Y-83062856D02*
X139640581Y-83038094D01*
X139640581Y-83038094D02*
X139652962Y-83025713D01*
X139652962Y-83025713D02*
X139677724Y-83013332D01*
X139677724Y-83013332D02*
X139714867Y-83013332D01*
X139714867Y-83013332D02*
X139739629Y-83025713D01*
X139739629Y-83025713D02*
X139752010Y-83038094D01*
X139752010Y-83038094D02*
X139764391Y-83062856D01*
X139764391Y-83062856D02*
X139764391Y-83161904D01*
X139888200Y-82765713D02*
X139888200Y-82914285D01*
X139888200Y-82839999D02*
X139628200Y-82839999D01*
X139628200Y-82839999D02*
X139665343Y-82864761D01*
X139665343Y-82864761D02*
X139690105Y-82889523D01*
X139690105Y-82889523D02*
X139702486Y-82914285D01*
X140082857Y-105668200D02*
X139996190Y-105544391D01*
X139934285Y-105668200D02*
X139934285Y-105408200D01*
X139934285Y-105408200D02*
X140033333Y-105408200D01*
X140033333Y-105408200D02*
X140058095Y-105420581D01*
X140058095Y-105420581D02*
X140070476Y-105432962D01*
X140070476Y-105432962D02*
X140082857Y-105457724D01*
X140082857Y-105457724D02*
X140082857Y-105494867D01*
X140082857Y-105494867D02*
X140070476Y-105519629D01*
X140070476Y-105519629D02*
X140058095Y-105532010D01*
X140058095Y-105532010D02*
X140033333Y-105544391D01*
X140033333Y-105544391D02*
X139934285Y-105544391D01*
X140330476Y-105668200D02*
X140181904Y-105668200D01*
X140256190Y-105668200D02*
X140256190Y-105408200D01*
X140256190Y-105408200D02*
X140231428Y-105445343D01*
X140231428Y-105445343D02*
X140206666Y-105470105D01*
X140206666Y-105470105D02*
X140181904Y-105482486D01*
X140491428Y-105408200D02*
X140516190Y-105408200D01*
X140516190Y-105408200D02*
X140540952Y-105420581D01*
X140540952Y-105420581D02*
X140553333Y-105432962D01*
X140553333Y-105432962D02*
X140565714Y-105457724D01*
X140565714Y-105457724D02*
X140578095Y-105507248D01*
X140578095Y-105507248D02*
X140578095Y-105569153D01*
X140578095Y-105569153D02*
X140565714Y-105618677D01*
X140565714Y-105618677D02*
X140553333Y-105643439D01*
X140553333Y-105643439D02*
X140540952Y-105655820D01*
X140540952Y-105655820D02*
X140516190Y-105668200D01*
X140516190Y-105668200D02*
X140491428Y-105668200D01*
X140491428Y-105668200D02*
X140466666Y-105655820D01*
X140466666Y-105655820D02*
X140454285Y-105643439D01*
X140454285Y-105643439D02*
X140441904Y-105618677D01*
X140441904Y-105618677D02*
X140429523Y-105569153D01*
X140429523Y-105569153D02*
X140429523Y-105507248D01*
X140429523Y-105507248D02*
X140441904Y-105457724D01*
X140441904Y-105457724D02*
X140454285Y-105432962D01*
X140454285Y-105432962D02*
X140466666Y-105420581D01*
X140466666Y-105420581D02*
X140491428Y-105408200D01*
X140839765Y-97299166D02*
X140851670Y-97311070D01*
X140851670Y-97311070D02*
X140863574Y-97346785D01*
X140863574Y-97346785D02*
X140863574Y-97370594D01*
X140863574Y-97370594D02*
X140851670Y-97406308D01*
X140851670Y-97406308D02*
X140827860Y-97430118D01*
X140827860Y-97430118D02*
X140804050Y-97442023D01*
X140804050Y-97442023D02*
X140756431Y-97453927D01*
X140756431Y-97453927D02*
X140720717Y-97453927D01*
X140720717Y-97453927D02*
X140673098Y-97442023D01*
X140673098Y-97442023D02*
X140649289Y-97430118D01*
X140649289Y-97430118D02*
X140625479Y-97406308D01*
X140625479Y-97406308D02*
X140613574Y-97370594D01*
X140613574Y-97370594D02*
X140613574Y-97346785D01*
X140613574Y-97346785D02*
X140625479Y-97311070D01*
X140625479Y-97311070D02*
X140637384Y-97299166D01*
X140613574Y-97215832D02*
X140613574Y-97061070D01*
X140613574Y-97061070D02*
X140708812Y-97144404D01*
X140708812Y-97144404D02*
X140708812Y-97108689D01*
X140708812Y-97108689D02*
X140720717Y-97084880D01*
X140720717Y-97084880D02*
X140732622Y-97072975D01*
X140732622Y-97072975D02*
X140756431Y-97061070D01*
X140756431Y-97061070D02*
X140815955Y-97061070D01*
X140815955Y-97061070D02*
X140839765Y-97072975D01*
X140839765Y-97072975D02*
X140851670Y-97084880D01*
X140851670Y-97084880D02*
X140863574Y-97108689D01*
X140863574Y-97108689D02*
X140863574Y-97180118D01*
X140863574Y-97180118D02*
X140851670Y-97203927D01*
X140851670Y-97203927D02*
X140839765Y-97215832D01*
X132239765Y-82991666D02*
X132251670Y-83003570D01*
X132251670Y-83003570D02*
X132263574Y-83039285D01*
X132263574Y-83039285D02*
X132263574Y-83063094D01*
X132263574Y-83063094D02*
X132251670Y-83098808D01*
X132251670Y-83098808D02*
X132227860Y-83122618D01*
X132227860Y-83122618D02*
X132204050Y-83134523D01*
X132204050Y-83134523D02*
X132156431Y-83146427D01*
X132156431Y-83146427D02*
X132120717Y-83146427D01*
X132120717Y-83146427D02*
X132073098Y-83134523D01*
X132073098Y-83134523D02*
X132049289Y-83122618D01*
X132049289Y-83122618D02*
X132025479Y-83098808D01*
X132025479Y-83098808D02*
X132013574Y-83063094D01*
X132013574Y-83063094D02*
X132013574Y-83039285D01*
X132013574Y-83039285D02*
X132025479Y-83003570D01*
X132025479Y-83003570D02*
X132037384Y-82991666D01*
X132013574Y-82908332D02*
X132013574Y-82741666D01*
X132013574Y-82741666D02*
X132263574Y-82848808D01*
X131478333Y-95339765D02*
X131466429Y-95351670D01*
X131466429Y-95351670D02*
X131430714Y-95363574D01*
X131430714Y-95363574D02*
X131406905Y-95363574D01*
X131406905Y-95363574D02*
X131371191Y-95351670D01*
X131371191Y-95351670D02*
X131347381Y-95327860D01*
X131347381Y-95327860D02*
X131335476Y-95304050D01*
X131335476Y-95304050D02*
X131323572Y-95256431D01*
X131323572Y-95256431D02*
X131323572Y-95220717D01*
X131323572Y-95220717D02*
X131335476Y-95173098D01*
X131335476Y-95173098D02*
X131347381Y-95149289D01*
X131347381Y-95149289D02*
X131371191Y-95125479D01*
X131371191Y-95125479D02*
X131406905Y-95113574D01*
X131406905Y-95113574D02*
X131430714Y-95113574D01*
X131430714Y-95113574D02*
X131466429Y-95125479D01*
X131466429Y-95125479D02*
X131478333Y-95137384D01*
X131573572Y-95137384D02*
X131585476Y-95125479D01*
X131585476Y-95125479D02*
X131609286Y-95113574D01*
X131609286Y-95113574D02*
X131668810Y-95113574D01*
X131668810Y-95113574D02*
X131692619Y-95125479D01*
X131692619Y-95125479D02*
X131704524Y-95137384D01*
X131704524Y-95137384D02*
X131716429Y-95161193D01*
X131716429Y-95161193D02*
X131716429Y-95185003D01*
X131716429Y-95185003D02*
X131704524Y-95220717D01*
X131704524Y-95220717D02*
X131561667Y-95363574D01*
X131561667Y-95363574D02*
X131716429Y-95363574D01*
X135065476Y-105663574D02*
X135065476Y-105413574D01*
X135065476Y-105413574D02*
X135125000Y-105413574D01*
X135125000Y-105413574D02*
X135160714Y-105425479D01*
X135160714Y-105425479D02*
X135184524Y-105449289D01*
X135184524Y-105449289D02*
X135196429Y-105473098D01*
X135196429Y-105473098D02*
X135208333Y-105520717D01*
X135208333Y-105520717D02*
X135208333Y-105556431D01*
X135208333Y-105556431D02*
X135196429Y-105604050D01*
X135196429Y-105604050D02*
X135184524Y-105627860D01*
X135184524Y-105627860D02*
X135160714Y-105651670D01*
X135160714Y-105651670D02*
X135125000Y-105663574D01*
X135125000Y-105663574D02*
X135065476Y-105663574D01*
X135446429Y-105663574D02*
X135303572Y-105663574D01*
X135375000Y-105663574D02*
X135375000Y-105413574D01*
X135375000Y-105413574D02*
X135351191Y-105449289D01*
X135351191Y-105449289D02*
X135327381Y-105473098D01*
X135327381Y-105473098D02*
X135303572Y-105485003D01*
X141068200Y-83023332D02*
X140944391Y-83109999D01*
X141068200Y-83171904D02*
X140808200Y-83171904D01*
X140808200Y-83171904D02*
X140808200Y-83072856D01*
X140808200Y-83072856D02*
X140820581Y-83048094D01*
X140820581Y-83048094D02*
X140832962Y-83035713D01*
X140832962Y-83035713D02*
X140857724Y-83023332D01*
X140857724Y-83023332D02*
X140894867Y-83023332D01*
X140894867Y-83023332D02*
X140919629Y-83035713D01*
X140919629Y-83035713D02*
X140932010Y-83048094D01*
X140932010Y-83048094D02*
X140944391Y-83072856D01*
X140944391Y-83072856D02*
X140944391Y-83171904D01*
X140832962Y-82924285D02*
X140820581Y-82911904D01*
X140820581Y-82911904D02*
X140808200Y-82887142D01*
X140808200Y-82887142D02*
X140808200Y-82825237D01*
X140808200Y-82825237D02*
X140820581Y-82800475D01*
X140820581Y-82800475D02*
X140832962Y-82788094D01*
X140832962Y-82788094D02*
X140857724Y-82775713D01*
X140857724Y-82775713D02*
X140882486Y-82775713D01*
X140882486Y-82775713D02*
X140919629Y-82788094D01*
X140919629Y-82788094D02*
X141068200Y-82936666D01*
X141068200Y-82936666D02*
X141068200Y-82775713D01*
D10*
X129071428Y-98881009D02*
X129214285Y-98928628D01*
X129214285Y-98928628D02*
X129261904Y-98976247D01*
X129261904Y-98976247D02*
X129309523Y-99071485D01*
X129309523Y-99071485D02*
X129309523Y-99214342D01*
X129309523Y-99214342D02*
X129261904Y-99309580D01*
X129261904Y-99309580D02*
X129214285Y-99357200D01*
X129214285Y-99357200D02*
X129119047Y-99404819D01*
X129119047Y-99404819D02*
X128738095Y-99404819D01*
X128738095Y-99404819D02*
X128738095Y-98404819D01*
X128738095Y-98404819D02*
X129071428Y-98404819D01*
X129071428Y-98404819D02*
X129166666Y-98452438D01*
X129166666Y-98452438D02*
X129214285Y-98500057D01*
X129214285Y-98500057D02*
X129261904Y-98595295D01*
X129261904Y-98595295D02*
X129261904Y-98690533D01*
X129261904Y-98690533D02*
X129214285Y-98785771D01*
X129214285Y-98785771D02*
X129166666Y-98833390D01*
X129166666Y-98833390D02*
X129071428Y-98881009D01*
X129071428Y-98881009D02*
X128738095Y-98881009D01*
X129738095Y-99404819D02*
X129738095Y-98404819D01*
X129738095Y-98404819D02*
X130071428Y-99119104D01*
X130071428Y-99119104D02*
X130404761Y-98404819D01*
X130404761Y-98404819D02*
X130404761Y-99404819D01*
X130880952Y-99404819D02*
X130880952Y-98404819D01*
X130880952Y-98404819D02*
X131261904Y-98404819D01*
X131261904Y-98404819D02*
X131357142Y-98452438D01*
X131357142Y-98452438D02*
X131404761Y-98500057D01*
X131404761Y-98500057D02*
X131452380Y-98595295D01*
X131452380Y-98595295D02*
X131452380Y-98738152D01*
X131452380Y-98738152D02*
X131404761Y-98833390D01*
X131404761Y-98833390D02*
X131357142Y-98881009D01*
X131357142Y-98881009D02*
X131261904Y-98928628D01*
X131261904Y-98928628D02*
X130880952Y-98928628D01*
X131785714Y-98404819D02*
X132404761Y-98404819D01*
X132404761Y-98404819D02*
X132071428Y-98785771D01*
X132071428Y-98785771D02*
X132214285Y-98785771D01*
X132214285Y-98785771D02*
X132309523Y-98833390D01*
X132309523Y-98833390D02*
X132357142Y-98881009D01*
X132357142Y-98881009D02*
X132404761Y-98976247D01*
X132404761Y-98976247D02*
X132404761Y-99214342D01*
X132404761Y-99214342D02*
X132357142Y-99309580D01*
X132357142Y-99309580D02*
X132309523Y-99357200D01*
X132309523Y-99357200D02*
X132214285Y-99404819D01*
X132214285Y-99404819D02*
X131928571Y-99404819D01*
X131928571Y-99404819D02*
X131833333Y-99357200D01*
X131833333Y-99357200D02*
X131785714Y-99309580D01*
X132976190Y-98833390D02*
X132880952Y-98785771D01*
X132880952Y-98785771D02*
X132833333Y-98738152D01*
X132833333Y-98738152D02*
X132785714Y-98642914D01*
X132785714Y-98642914D02*
X132785714Y-98595295D01*
X132785714Y-98595295D02*
X132833333Y-98500057D01*
X132833333Y-98500057D02*
X132880952Y-98452438D01*
X132880952Y-98452438D02*
X132976190Y-98404819D01*
X132976190Y-98404819D02*
X133166666Y-98404819D01*
X133166666Y-98404819D02*
X133261904Y-98452438D01*
X133261904Y-98452438D02*
X133309523Y-98500057D01*
X133309523Y-98500057D02*
X133357142Y-98595295D01*
X133357142Y-98595295D02*
X133357142Y-98642914D01*
X133357142Y-98642914D02*
X133309523Y-98738152D01*
X133309523Y-98738152D02*
X133261904Y-98785771D01*
X133261904Y-98785771D02*
X133166666Y-98833390D01*
X133166666Y-98833390D02*
X132976190Y-98833390D01*
X132976190Y-98833390D02*
X132880952Y-98881009D01*
X132880952Y-98881009D02*
X132833333Y-98928628D01*
X132833333Y-98928628D02*
X132785714Y-99023866D01*
X132785714Y-99023866D02*
X132785714Y-99214342D01*
X132785714Y-99214342D02*
X132833333Y-99309580D01*
X132833333Y-99309580D02*
X132880952Y-99357200D01*
X132880952Y-99357200D02*
X132976190Y-99404819D01*
X132976190Y-99404819D02*
X133166666Y-99404819D01*
X133166666Y-99404819D02*
X133261904Y-99357200D01*
X133261904Y-99357200D02*
X133309523Y-99309580D01*
X133309523Y-99309580D02*
X133357142Y-99214342D01*
X133357142Y-99214342D02*
X133357142Y-99023866D01*
X133357142Y-99023866D02*
X133309523Y-98928628D01*
X133309523Y-98928628D02*
X133261904Y-98881009D01*
X133261904Y-98881009D02*
X133166666Y-98833390D01*
X133928571Y-98833390D02*
X133833333Y-98785771D01*
X133833333Y-98785771D02*
X133785714Y-98738152D01*
X133785714Y-98738152D02*
X133738095Y-98642914D01*
X133738095Y-98642914D02*
X133738095Y-98595295D01*
X133738095Y-98595295D02*
X133785714Y-98500057D01*
X133785714Y-98500057D02*
X133833333Y-98452438D01*
X133833333Y-98452438D02*
X133928571Y-98404819D01*
X133928571Y-98404819D02*
X134119047Y-98404819D01*
X134119047Y-98404819D02*
X134214285Y-98452438D01*
X134214285Y-98452438D02*
X134261904Y-98500057D01*
X134261904Y-98500057D02*
X134309523Y-98595295D01*
X134309523Y-98595295D02*
X134309523Y-98642914D01*
X134309523Y-98642914D02*
X134261904Y-98738152D01*
X134261904Y-98738152D02*
X134214285Y-98785771D01*
X134214285Y-98785771D02*
X134119047Y-98833390D01*
X134119047Y-98833390D02*
X133928571Y-98833390D01*
X133928571Y-98833390D02*
X133833333Y-98881009D01*
X133833333Y-98881009D02*
X133785714Y-98928628D01*
X133785714Y-98928628D02*
X133738095Y-99023866D01*
X133738095Y-99023866D02*
X133738095Y-99214342D01*
X133738095Y-99214342D02*
X133785714Y-99309580D01*
X133785714Y-99309580D02*
X133833333Y-99357200D01*
X133833333Y-99357200D02*
X133928571Y-99404819D01*
X133928571Y-99404819D02*
X134119047Y-99404819D01*
X134119047Y-99404819D02*
X134214285Y-99357200D01*
X134214285Y-99357200D02*
X134261904Y-99309580D01*
X134261904Y-99309580D02*
X134309523Y-99214342D01*
X134309523Y-99214342D02*
X134309523Y-99023866D01*
X134309523Y-99023866D02*
X134261904Y-98928628D01*
X134261904Y-98928628D02*
X134214285Y-98881009D01*
X134214285Y-98881009D02*
X134119047Y-98833390D01*
D12*
X131119047Y-96727149D02*
X131119047Y-97131911D01*
X131119047Y-97131911D02*
X131142857Y-97179530D01*
X131142857Y-97179530D02*
X131166666Y-97203340D01*
X131166666Y-97203340D02*
X131214285Y-97227149D01*
X131214285Y-97227149D02*
X131309523Y-97227149D01*
X131309523Y-97227149D02*
X131357142Y-97203340D01*
X131357142Y-97203340D02*
X131380952Y-97179530D01*
X131380952Y-97179530D02*
X131404761Y-97131911D01*
X131404761Y-97131911D02*
X131404761Y-96727149D01*
X131904762Y-97227149D02*
X131619048Y-97227149D01*
X131761905Y-97227149D02*
X131761905Y-96727149D01*
X131761905Y-96727149D02*
X131714286Y-96798578D01*
X131714286Y-96798578D02*
X131666667Y-96846197D01*
X131666667Y-96846197D02*
X131619048Y-96870006D01*
D11*
X142478333Y-95327265D02*
X142466429Y-95339170D01*
X142466429Y-95339170D02*
X142430714Y-95351074D01*
X142430714Y-95351074D02*
X142406905Y-95351074D01*
X142406905Y-95351074D02*
X142371191Y-95339170D01*
X142371191Y-95339170D02*
X142347381Y-95315360D01*
X142347381Y-95315360D02*
X142335476Y-95291550D01*
X142335476Y-95291550D02*
X142323572Y-95243931D01*
X142323572Y-95243931D02*
X142323572Y-95208217D01*
X142323572Y-95208217D02*
X142335476Y-95160598D01*
X142335476Y-95160598D02*
X142347381Y-95136789D01*
X142347381Y-95136789D02*
X142371191Y-95112979D01*
X142371191Y-95112979D02*
X142406905Y-95101074D01*
X142406905Y-95101074D02*
X142430714Y-95101074D01*
X142430714Y-95101074D02*
X142466429Y-95112979D01*
X142466429Y-95112979D02*
X142478333Y-95124884D01*
X142692619Y-95184408D02*
X142692619Y-95351074D01*
X142633095Y-95089170D02*
X142573572Y-95267741D01*
X142573572Y-95267741D02*
X142728333Y-95267741D01*
X132706667Y-105668200D02*
X132620000Y-105544391D01*
X132558095Y-105668200D02*
X132558095Y-105408200D01*
X132558095Y-105408200D02*
X132657143Y-105408200D01*
X132657143Y-105408200D02*
X132681905Y-105420581D01*
X132681905Y-105420581D02*
X132694286Y-105432962D01*
X132694286Y-105432962D02*
X132706667Y-105457724D01*
X132706667Y-105457724D02*
X132706667Y-105494867D01*
X132706667Y-105494867D02*
X132694286Y-105519629D01*
X132694286Y-105519629D02*
X132681905Y-105532010D01*
X132681905Y-105532010D02*
X132657143Y-105544391D01*
X132657143Y-105544391D02*
X132558095Y-105544391D01*
X132855238Y-105519629D02*
X132830476Y-105507248D01*
X132830476Y-105507248D02*
X132818095Y-105494867D01*
X132818095Y-105494867D02*
X132805714Y-105470105D01*
X132805714Y-105470105D02*
X132805714Y-105457724D01*
X132805714Y-105457724D02*
X132818095Y-105432962D01*
X132818095Y-105432962D02*
X132830476Y-105420581D01*
X132830476Y-105420581D02*
X132855238Y-105408200D01*
X132855238Y-105408200D02*
X132904762Y-105408200D01*
X132904762Y-105408200D02*
X132929524Y-105420581D01*
X132929524Y-105420581D02*
X132941905Y-105432962D01*
X132941905Y-105432962D02*
X132954286Y-105457724D01*
X132954286Y-105457724D02*
X132954286Y-105470105D01*
X132954286Y-105470105D02*
X132941905Y-105494867D01*
X132941905Y-105494867D02*
X132929524Y-105507248D01*
X132929524Y-105507248D02*
X132904762Y-105519629D01*
X132904762Y-105519629D02*
X132855238Y-105519629D01*
X132855238Y-105519629D02*
X132830476Y-105532010D01*
X132830476Y-105532010D02*
X132818095Y-105544391D01*
X132818095Y-105544391D02*
X132805714Y-105569153D01*
X132805714Y-105569153D02*
X132805714Y-105618677D01*
X132805714Y-105618677D02*
X132818095Y-105643439D01*
X132818095Y-105643439D02*
X132830476Y-105655820D01*
X132830476Y-105655820D02*
X132855238Y-105668200D01*
X132855238Y-105668200D02*
X132904762Y-105668200D01*
X132904762Y-105668200D02*
X132929524Y-105655820D01*
X132929524Y-105655820D02*
X132941905Y-105643439D01*
X132941905Y-105643439D02*
X132954286Y-105618677D01*
X132954286Y-105618677D02*
X132954286Y-105569153D01*
X132954286Y-105569153D02*
X132941905Y-105544391D01*
X132941905Y-105544391D02*
X132929524Y-105532010D01*
X132929524Y-105532010D02*
X132904762Y-105519629D01*
D13*
X135636667Y-82915040D02*
X135636667Y-83248373D01*
X135403333Y-82548373D02*
X135636667Y-82915040D01*
X135636667Y-82915040D02*
X135870000Y-82548373D01*
X136470000Y-83248373D02*
X136070000Y-83248373D01*
X136270000Y-83248373D02*
X136270000Y-82548373D01*
X136270000Y-82548373D02*
X136203333Y-82648373D01*
X136203333Y-82648373D02*
X136136667Y-82715040D01*
X136136667Y-82715040D02*
X136070000Y-82748373D01*
D11*
X133439765Y-82991666D02*
X133451670Y-83003570D01*
X133451670Y-83003570D02*
X133463574Y-83039285D01*
X133463574Y-83039285D02*
X133463574Y-83063094D01*
X133463574Y-83063094D02*
X133451670Y-83098808D01*
X133451670Y-83098808D02*
X133427860Y-83122618D01*
X133427860Y-83122618D02*
X133404050Y-83134523D01*
X133404050Y-83134523D02*
X133356431Y-83146427D01*
X133356431Y-83146427D02*
X133320717Y-83146427D01*
X133320717Y-83146427D02*
X133273098Y-83134523D01*
X133273098Y-83134523D02*
X133249289Y-83122618D01*
X133249289Y-83122618D02*
X133225479Y-83098808D01*
X133225479Y-83098808D02*
X133213574Y-83063094D01*
X133213574Y-83063094D02*
X133213574Y-83039285D01*
X133213574Y-83039285D02*
X133225479Y-83003570D01*
X133225479Y-83003570D02*
X133237384Y-82991666D01*
X133213574Y-82777380D02*
X133213574Y-82824999D01*
X133213574Y-82824999D02*
X133225479Y-82848808D01*
X133225479Y-82848808D02*
X133237384Y-82860713D01*
X133237384Y-82860713D02*
X133273098Y-82884523D01*
X133273098Y-82884523D02*
X133320717Y-82896427D01*
X133320717Y-82896427D02*
X133415955Y-82896427D01*
X133415955Y-82896427D02*
X133439765Y-82884523D01*
X133439765Y-82884523D02*
X133451670Y-82872618D01*
X133451670Y-82872618D02*
X133463574Y-82848808D01*
X133463574Y-82848808D02*
X133463574Y-82801189D01*
X133463574Y-82801189D02*
X133451670Y-82777380D01*
X133451670Y-82777380D02*
X133439765Y-82765475D01*
X133439765Y-82765475D02*
X133415955Y-82753570D01*
X133415955Y-82753570D02*
X133356431Y-82753570D01*
X133356431Y-82753570D02*
X133332622Y-82765475D01*
X133332622Y-82765475D02*
X133320717Y-82777380D01*
X133320717Y-82777380D02*
X133308812Y-82801189D01*
X133308812Y-82801189D02*
X133308812Y-82848808D01*
X133308812Y-82848808D02*
X133320717Y-82872618D01*
X133320717Y-82872618D02*
X133332622Y-82884523D01*
X133332622Y-82884523D02*
X133356431Y-82896427D01*
X131328200Y-82993332D02*
X131204391Y-83079999D01*
X131328200Y-83141904D02*
X131068200Y-83141904D01*
X131068200Y-83141904D02*
X131068200Y-83042856D01*
X131068200Y-83042856D02*
X131080581Y-83018094D01*
X131080581Y-83018094D02*
X131092962Y-83005713D01*
X131092962Y-83005713D02*
X131117724Y-82993332D01*
X131117724Y-82993332D02*
X131154867Y-82993332D01*
X131154867Y-82993332D02*
X131179629Y-83005713D01*
X131179629Y-83005713D02*
X131192010Y-83018094D01*
X131192010Y-83018094D02*
X131204391Y-83042856D01*
X131204391Y-83042856D02*
X131204391Y-83141904D01*
X131068200Y-82906666D02*
X131068200Y-82733332D01*
X131068200Y-82733332D02*
X131328200Y-82844761D01*
D14*
%TO.C,U3*%
X136962500Y-86700000D02*
X137962500Y-85700000D01*
X136962500Y-89700000D02*
X136962500Y-86700000D01*
X137962500Y-85700000D02*
X140962500Y-85700000D01*
X140962500Y-85700000D02*
X140962500Y-89700000D01*
X140962500Y-89700000D02*
X136962500Y-89700000D01*
%TO.C,C1*%
X129500000Y-96750000D02*
X130000000Y-96750000D01*
X129500000Y-97750000D02*
X129500000Y-96750000D01*
X130000000Y-96750000D02*
X130000000Y-97750000D01*
X130000000Y-97750000D02*
X129500000Y-97750000D01*
%TO.C,R9*%
X137225000Y-105280000D02*
X138275000Y-105280000D01*
X137225000Y-105820000D02*
X137225000Y-105280000D01*
X138275000Y-105280000D02*
X138275000Y-105820000D01*
X138275000Y-105820000D02*
X137225000Y-105820000D01*
%TO.C,U2*%
X141500000Y-96487500D02*
X142000000Y-95987500D01*
X141500000Y-97987500D02*
X141500000Y-96487500D01*
X142000000Y-95987500D02*
X143500000Y-95987500D01*
X143500000Y-95987500D02*
X143500000Y-97987500D01*
X143500000Y-97987500D02*
X141500000Y-97987500D01*
%TO.C,C5*%
X138350000Y-82450000D02*
X138850000Y-82450000D01*
X138350000Y-83450000D02*
X138350000Y-82450000D01*
X138850000Y-82450000D02*
X138850000Y-83450000D01*
X138850000Y-83450000D02*
X138350000Y-83450000D01*
%TO.C,C8*%
X141700000Y-82500000D02*
X142200000Y-82500000D01*
X141700000Y-83500000D02*
X141700000Y-82500000D01*
X142200000Y-82500000D02*
X142200000Y-83500000D01*
X142200000Y-83500000D02*
X141700000Y-83500000D01*
%TO.C,J1*%
X130290000Y-86660000D02*
X131560000Y-85390000D01*
X130290000Y-90470000D02*
X130290000Y-86660000D01*
X131560000Y-85390000D02*
X135370000Y-85390000D01*
X135370000Y-85390000D02*
X135370000Y-90470000D01*
X135370000Y-90470000D02*
X130290000Y-90470000D01*
%TO.C,R1*%
X139500000Y-82445000D02*
X140040000Y-82445000D01*
X139500000Y-83495000D02*
X139500000Y-82445000D01*
X140040000Y-82445000D02*
X140040000Y-83495000D01*
X140040000Y-83495000D02*
X139500000Y-83495000D01*
%TO.C,R10*%
X139725000Y-105280000D02*
X140775000Y-105280000D01*
X139725000Y-105820000D02*
X139725000Y-105280000D01*
X140775000Y-105280000D02*
X140775000Y-105820000D01*
X140775000Y-105820000D02*
X139725000Y-105820000D01*
%TO.C,C3*%
X140500000Y-96757500D02*
X141000000Y-96757500D01*
X140500000Y-97757500D02*
X140500000Y-96757500D01*
X141000000Y-96757500D02*
X141000000Y-97757500D01*
X141000000Y-97757500D02*
X140500000Y-97757500D01*
%TO.C,C7*%
X131900000Y-82450000D02*
X132400000Y-82450000D01*
X131900000Y-83450000D02*
X131900000Y-82450000D01*
X132400000Y-82450000D02*
X132400000Y-83450000D01*
X132400000Y-83450000D02*
X131900000Y-83450000D01*
%TO.C,C2*%
X131020000Y-95000000D02*
X132020000Y-95000000D01*
X131020000Y-95500000D02*
X131020000Y-95000000D01*
X132020000Y-95000000D02*
X132020000Y-95500000D01*
X132020000Y-95500000D02*
X131020000Y-95500000D01*
%TO.C,D1*%
X134750000Y-105300000D02*
X135750000Y-105300000D01*
X134750000Y-105800000D02*
X134750000Y-105300000D01*
X135550000Y-105300000D02*
X135550000Y-105800000D01*
X135650000Y-105300000D02*
X135650000Y-105800000D01*
X135750000Y-105300000D02*
X135750000Y-105800000D01*
X135750000Y-105800000D02*
X134750000Y-105800000D01*
%TO.C,R2*%
X140680000Y-82455000D02*
X141220000Y-82455000D01*
X140680000Y-83505000D02*
X140680000Y-82455000D01*
X141220000Y-82455000D02*
X141220000Y-83505000D01*
X141220000Y-83505000D02*
X140680000Y-83505000D01*
%TO.C,U1*%
X130500000Y-96500000D02*
X131000000Y-96000000D01*
X130500000Y-98000000D02*
X130500000Y-96500000D01*
X131000000Y-96000000D02*
X132500000Y-96000000D01*
X132500000Y-96000000D02*
X132500000Y-98000000D01*
X132500000Y-98000000D02*
X130500000Y-98000000D01*
%TO.C,C4*%
X142020000Y-94987500D02*
X143020000Y-94987500D01*
X142020000Y-95487500D02*
X142020000Y-94987500D01*
X143020000Y-94987500D02*
X143020000Y-95487500D01*
X143020000Y-95487500D02*
X142020000Y-95487500D01*
%TO.C,R8*%
X132225000Y-105280000D02*
X133275000Y-105280000D01*
X132225000Y-105820000D02*
X132225000Y-105280000D01*
X133275000Y-105280000D02*
X133275000Y-105820000D01*
X133275000Y-105820000D02*
X132225000Y-105820000D01*
%TO.C,Y1*%
X134370000Y-81680000D02*
X134370000Y-84180000D01*
X134370000Y-84180000D02*
X137570000Y-84180000D01*
X137570000Y-81680000D02*
X134370000Y-81680000D01*
X137570000Y-82680000D02*
X136570000Y-81680000D01*
X137570000Y-84180000D02*
X137570000Y-81680000D01*
%TO.C,C6*%
X133100000Y-82450000D02*
X133600000Y-82450000D01*
X133100000Y-83450000D02*
X133100000Y-82450000D01*
X133600000Y-82450000D02*
X133600000Y-83450000D01*
X133600000Y-83450000D02*
X133100000Y-83450000D01*
%TO.C,R7*%
X130940000Y-82425000D02*
X131480000Y-82425000D01*
X130940000Y-83475000D02*
X130940000Y-82425000D01*
X131480000Y-82425000D02*
X131480000Y-83475000D01*
X131480000Y-83475000D02*
X130940000Y-83475000D01*
%TD*%
M02*
