<?xml version="1.0" standalone="no"?>
 <!DOCTYPE svg PUBLIC "-//W3C//DTD SVG 1.1//EN" 
 "http://www.w3.org/Graphics/SVG/1.1/DTD/svg11.dtd"> 
<svg
  xmlns:svg="http://www.w3.org/2000/svg"
  xmlns="http://www.w3.org/2000/svg"
  xmlns:xlink="http://www.w3.org/1999/xlink"
  version="1.1"
  width="297.0022mm" height="210.0072mm" viewBox="0.0000 0.0000 297.0022 210.0072">
<title>SVG Image created as AH3-Edge_Cuts.svg date 2025/03/09 00:26:09 </title>
  <desc>Image generated by PCBNEW </desc>
<g style="fill:#000000; fill-opacity:1.0000;stroke:#000000; stroke-opacity:1.0000;
stroke-linecap:round; stroke-linejoin:round;"
 transform="translate(0 0) scale(1 1)">
</g>
<g style="fill:none; 
stroke:#000000; stroke-width:0.0500; stroke-opacity:1; 
stroke-linecap:round; stroke-linejoin:round;">
<path d="M151.0000 88.6200
L150.9979 104.3850
" />
<path d="M122.0000 104.3811 A16.5005 16.5005 0.0 0 0 150.9979 104.3850" />
<path d="M122.0000 88.6200
L122.0000 104.3811
" />
<path d="M151.0000 88.6200 A16.4981 16.4981 0.0 0 0 122.0000 88.6200" />
<path style="fill:#000000; fill-opacity:1.0000; stroke:none;fill-rule:evenodd;"
d="M 136.5875,86.4500
136.5913,86.4309
136.6021,86.4146
136.6184,86.4038
136.6375,86.4000
137.3125,86.4000
137.3316,86.4038
137.3479,86.4146
137.3587,86.4309
137.3625,86.4500
137.3625,86.5500
137.3587,86.5691
137.3479,86.5854
137.3316,86.5962
137.3125,86.6000
136.6375,86.6000
136.6184,86.5962
136.6021,86.5854
136.5913,86.5691
136.5875,86.5500
Z" /> 
<path style="fill:#000000; fill-opacity:1.0000; stroke:none;fill-rule:evenodd;"
d="M 136.5875,86.8500
136.5913,86.8309
136.6021,86.8146
136.6184,86.8038
136.6375,86.8000
137.3125,86.8000
137.3316,86.8038
137.3479,86.8146
137.3587,86.8309
137.3625,86.8500
137.3625,86.9500
137.3587,86.9691
137.3479,86.9854
137.3316,86.9962
137.3125,87.0000
136.6375,87.0000
136.6184,86.9962
136.6021,86.9854
136.5913,86.9691
136.5875,86.9500
Z" /> 
<path style="fill:#000000; fill-opacity:1.0000; stroke:none;fill-rule:evenodd;"
d="M 136.5875,87.2500
136.5913,87.2309
136.6021,87.2146
136.6184,87.2038
136.6375,87.2000
137.3125,87.2000
137.3316,87.2038
137.3479,87.2146
137.3587,87.2309
137.3625,87.2500
137.3625,87.3500
137.3587,87.3691
137.3479,87.3854
137.3316,87.3962
137.3125,87.4000
136.6375,87.4000
136.6184,87.3962
136.6021,87.3854
136.5913,87.3691
136.5875,87.3500
Z" /> 
<path style="fill:#000000; fill-opacity:1.0000; stroke:none;fill-rule:evenodd;"
d="M 136.5875,87.6500
136.5913,87.6309
136.6021,87.6146
136.6184,87.6038
136.6375,87.6000
137.3125,87.6000
137.3316,87.6038
137.3479,87.6146
137.3587,87.6309
137.3625,87.6500
137.3625,87.7500
137.3587,87.7691
137.3479,87.7854
137.3316,87.7962
137.3125,87.8000
136.6375,87.8000
136.6184,87.7962
136.6021,87.7854
136.5913,87.7691
136.5875,87.7500
Z" /> 
<path style="fill:#000000; fill-opacity:1.0000; stroke:none;fill-rule:evenodd;"
d="M 136.5875,88.0500
136.5913,88.0309
136.6021,88.0146
136.6184,88.0038
136.6375,88.0000
137.3125,88.0000
137.3316,88.0038
137.3479,88.0146
137.3587,88.0309
137.3625,88.0500
137.3625,88.1500
137.3587,88.1691
137.3479,88.1854
137.3316,88.1962
137.3125,88.2000
136.6375,88.2000
136.6184,88.1962
136.6021,88.1854
136.5913,88.1691
136.5875,88.1500
Z" /> 
<path style="fill:#000000; fill-opacity:1.0000; stroke:none;fill-rule:evenodd;"
d="M 136.5875,88.4500
136.5913,88.4309
136.6021,88.4146
136.6184,88.4038
136.6375,88.4000
137.3125,88.4000
137.3316,88.4038
137.3479,88.4146
137.3587,88.4309
137.3625,88.4500
137.3625,88.5500
137.3587,88.5691
137.3479,88.5854
137.3316,88.5962
137.3125,88.6000
136.6375,88.6000
136.6184,88.5962
136.6021,88.5854
136.5913,88.5691
136.5875,88.5500
Z" /> 
<path style="fill:#000000; fill-opacity:1.0000; stroke:none;fill-rule:evenodd;"
d="M 136.5875,88.8500
136.5913,88.8309
136.6021,88.8146
136.6184,88.8038
136.6375,88.8000
137.3125,88.8000
137.3316,88.8038
137.3479,88.8146
137.3587,88.8309
137.3625,88.8500
137.3625,88.9500
137.3587,88.9691
137.3479,88.9854
137.3316,88.9962
137.3125,89.0000
136.6375,89.0000
136.6184,88.9962
136.6021,88.9854
136.5913,88.9691
136.5875,88.9500
Z" /> 
<path style="fill:#000000; fill-opacity:1.0000; stroke:none;fill-rule:evenodd;"
d="M 137.6625,89.3500
137.6663,89.3309
137.6771,89.3146
137.6934,89.3038
137.7125,89.3000
137.8125,89.3000
137.8316,89.3038
137.8479,89.3146
137.8587,89.3309
137.8625,89.3500
137.8625,90.0250
137.8587,90.0441
137.8479,90.0604
137.8316,90.0712
137.8125,90.0750
137.7125,90.0750
137.6934,90.0712
137.6771,90.0604
137.6663,90.0441
137.6625,90.0250
Z" /> 
<path style="fill:#000000; fill-opacity:1.0000; stroke:none;fill-rule:evenodd;"
d="M 138.0625,89.3500
138.0663,89.3309
138.0771,89.3146
138.0934,89.3038
138.1125,89.3000
138.2125,89.3000
138.2316,89.3038
138.2479,89.3146
138.2587,89.3309
138.2625,89.3500
138.2625,90.0250
138.2587,90.0441
138.2479,90.0604
138.2316,90.0712
138.2125,90.0750
138.1125,90.0750
138.0934,90.0712
138.0771,90.0604
138.0663,90.0441
138.0625,90.0250
Z" /> 
<path style="fill:#000000; fill-opacity:1.0000; stroke:none;fill-rule:evenodd;"
d="M 138.4625,89.3500
138.4663,89.3309
138.4771,89.3146
138.4934,89.3038
138.5125,89.3000
138.6125,89.3000
138.6316,89.3038
138.6479,89.3146
138.6587,89.3309
138.6625,89.3500
138.6625,90.0250
138.6587,90.0441
138.6479,90.0604
138.6316,90.0712
138.6125,90.0750
138.5125,90.0750
138.4934,90.0712
138.4771,90.0604
138.4663,90.0441
138.4625,90.0250
Z" /> 
<path style="fill:#000000; fill-opacity:1.0000; stroke:none;fill-rule:evenodd;"
d="M 138.8625,89.3500
138.8663,89.3309
138.8771,89.3146
138.8934,89.3038
138.9125,89.3000
139.0125,89.3000
139.0316,89.3038
139.0479,89.3146
139.0587,89.3309
139.0625,89.3500
139.0625,90.0250
139.0587,90.0441
139.0479,90.0604
139.0316,90.0712
139.0125,90.0750
138.9125,90.0750
138.8934,90.0712
138.8771,90.0604
138.8663,90.0441
138.8625,90.0250
Z" /> 
<path style="fill:#000000; fill-opacity:1.0000; stroke:none;fill-rule:evenodd;"
d="M 139.2625,89.3500
139.2663,89.3309
139.2771,89.3146
139.2934,89.3038
139.3125,89.3000
139.4125,89.3000
139.4316,89.3038
139.4479,89.3146
139.4587,89.3309
139.4625,89.3500
139.4625,90.0250
139.4587,90.0441
139.4479,90.0604
139.4316,90.0712
139.4125,90.0750
139.3125,90.0750
139.2934,90.0712
139.2771,90.0604
139.2663,90.0441
139.2625,90.0250
Z" /> 
<path style="fill:#000000; fill-opacity:1.0000; stroke:none;fill-rule:evenodd;"
d="M 139.6625,89.3500
139.6663,89.3309
139.6771,89.3146
139.6934,89.3038
139.7125,89.3000
139.8125,89.3000
139.8316,89.3038
139.8479,89.3146
139.8587,89.3309
139.8625,89.3500
139.8625,90.0250
139.8587,90.0441
139.8479,90.0604
139.8316,90.0712
139.8125,90.0750
139.7125,90.0750
139.6934,90.0712
139.6771,90.0604
139.6663,90.0441
139.6625,90.0250
Z" /> 
<path style="fill:#000000; fill-opacity:1.0000; stroke:none;fill-rule:evenodd;"
d="M 140.0625,89.3500
140.0663,89.3309
140.0771,89.3146
140.0934,89.3038
140.1125,89.3000
140.2125,89.3000
140.2316,89.3038
140.2479,89.3146
140.2587,89.3309
140.2625,89.3500
140.2625,90.0250
140.2587,90.0441
140.2479,90.0604
140.2316,90.0712
140.2125,90.0750
140.1125,90.0750
140.0934,90.0712
140.0771,90.0604
140.0663,90.0441
140.0625,90.0250
Z" /> 
<path style="fill:#000000; fill-opacity:1.0000; stroke:none;fill-rule:evenodd;"
d="M 140.5625,88.8500
140.5663,88.8309
140.5771,88.8146
140.5934,88.8038
140.6125,88.8000
141.2875,88.8000
141.3066,88.8038
141.3229,88.8146
141.3337,88.8309
141.3375,88.8500
141.3375,88.9500
141.3337,88.9691
141.3229,88.9854
141.3066,88.9962
141.2875,89.0000
140.6125,89.0000
140.5934,88.9962
140.5771,88.9854
140.5663,88.9691
140.5625,88.9500
Z" /> 
<path style="fill:#000000; fill-opacity:1.0000; stroke:none;fill-rule:evenodd;"
d="M 140.5625,88.4500
140.5663,88.4309
140.5771,88.4146
140.5934,88.4038
140.6125,88.4000
141.2875,88.4000
141.3066,88.4038
141.3229,88.4146
141.3337,88.4309
141.3375,88.4500
141.3375,88.5500
141.3337,88.5691
141.3229,88.5854
141.3066,88.5962
141.2875,88.6000
140.6125,88.6000
140.5934,88.5962
140.5771,88.5854
140.5663,88.5691
140.5625,88.5500
Z" /> 
<path style="fill:#000000; fill-opacity:1.0000; stroke:none;fill-rule:evenodd;"
d="M 140.5625,88.0500
140.5663,88.0309
140.5771,88.0146
140.5934,88.0038
140.6125,88.0000
141.2875,88.0000
141.3066,88.0038
141.3229,88.0146
141.3337,88.0309
141.3375,88.0500
141.3375,88.1500
141.3337,88.1691
141.3229,88.1854
141.3066,88.1962
141.2875,88.2000
140.6125,88.2000
140.5934,88.1962
140.5771,88.1854
140.5663,88.1691
140.5625,88.1500
Z" /> 
<path style="fill:#000000; fill-opacity:1.0000; stroke:none;fill-rule:evenodd;"
d="M 140.5625,87.6500
140.5663,87.6309
140.5771,87.6146
140.5934,87.6038
140.6125,87.6000
141.2875,87.6000
141.3066,87.6038
141.3229,87.6146
141.3337,87.6309
141.3375,87.6500
141.3375,87.7500
141.3337,87.7691
141.3229,87.7854
141.3066,87.7962
141.2875,87.8000
140.6125,87.8000
140.5934,87.7962
140.5771,87.7854
140.5663,87.7691
140.5625,87.7500
Z" /> 
<path style="fill:#000000; fill-opacity:1.0000; stroke:none;fill-rule:evenodd;"
d="M 140.5625,87.2500
140.5663,87.2309
140.5771,87.2146
140.5934,87.2038
140.6125,87.2000
141.2875,87.2000
141.3066,87.2038
141.3229,87.2146
141.3337,87.2309
141.3375,87.2500
141.3375,87.3500
141.3337,87.3691
141.3229,87.3854
141.3066,87.3962
141.2875,87.4000
140.6125,87.4000
140.5934,87.3962
140.5771,87.3854
140.5663,87.3691
140.5625,87.3500
Z" /> 
<path style="fill:#000000; fill-opacity:1.0000; stroke:none;fill-rule:evenodd;"
d="M 140.5625,86.8500
140.5663,86.8309
140.5771,86.8146
140.5934,86.8038
140.6125,86.8000
141.2875,86.8000
141.3066,86.8038
141.3229,86.8146
141.3337,86.8309
141.3375,86.8500
141.3375,86.9500
141.3337,86.9691
141.3229,86.9854
141.3066,86.9962
141.2875,87.0000
140.6125,87.0000
140.5934,86.9962
140.5771,86.9854
140.5663,86.9691
140.5625,86.9500
Z" /> 
<path style="fill:#000000; fill-opacity:1.0000; stroke:none;fill-rule:evenodd;"
d="M 140.5625,86.4500
140.5663,86.4309
140.5771,86.4146
140.5934,86.4038
140.6125,86.4000
141.2875,86.4000
141.3066,86.4038
141.3229,86.4146
141.3337,86.4309
141.3375,86.4500
141.3375,86.5500
141.3337,86.5691
141.3229,86.5854
141.3066,86.5962
141.2875,86.6000
140.6125,86.6000
140.5934,86.5962
140.5771,86.5854
140.5663,86.5691
140.5625,86.5500
Z" /> 
<path style="fill:#000000; fill-opacity:1.0000; stroke:none;fill-rule:evenodd;"
d="M 140.0625,85.3750
140.0663,85.3559
140.0771,85.3396
140.0934,85.3288
140.1125,85.3250
140.2125,85.3250
140.2316,85.3288
140.2479,85.3396
140.2587,85.3559
140.2625,85.3750
140.2625,86.0500
140.2587,86.0691
140.2479,86.0854
140.2316,86.0962
140.2125,86.1000
140.1125,86.1000
140.0934,86.0962
140.0771,86.0854
140.0663,86.0691
140.0625,86.0500
Z" /> 
<path style="fill:#000000; fill-opacity:1.0000; stroke:none;fill-rule:evenodd;"
d="M 139.6625,85.3750
139.6663,85.3559
139.6771,85.3396
139.6934,85.3288
139.7125,85.3250
139.8125,85.3250
139.8316,85.3288
139.8479,85.3396
139.8587,85.3559
139.8625,85.3750
139.8625,86.0500
139.8587,86.0691
139.8479,86.0854
139.8316,86.0962
139.8125,86.1000
139.7125,86.1000
139.6934,86.0962
139.6771,86.0854
139.6663,86.0691
139.6625,86.0500
Z" /> 
<path style="fill:#000000; fill-opacity:1.0000; stroke:none;fill-rule:evenodd;"
d="M 139.2625,85.3750
139.2663,85.3559
139.2771,85.3396
139.2934,85.3288
139.3125,85.3250
139.4125,85.3250
139.4316,85.3288
139.4479,85.3396
139.4587,85.3559
139.4625,85.3750
139.4625,86.0500
139.4587,86.0691
139.4479,86.0854
139.4316,86.0962
139.4125,86.1000
139.3125,86.1000
139.2934,86.0962
139.2771,86.0854
139.2663,86.0691
139.2625,86.0500
Z" /> 
<path style="fill:#000000; fill-opacity:1.0000; stroke:none;fill-rule:evenodd;"
d="M 138.8625,85.3750
138.8663,85.3559
138.8771,85.3396
138.8934,85.3288
138.9125,85.3250
139.0125,85.3250
139.0316,85.3288
139.0479,85.3396
139.0587,85.3559
139.0625,85.3750
139.0625,86.0500
139.0587,86.0691
139.0479,86.0854
139.0316,86.0962
139.0125,86.1000
138.9125,86.1000
138.8934,86.0962
138.8771,86.0854
138.8663,86.0691
138.8625,86.0500
Z" /> 
<path style="fill:#000000; fill-opacity:1.0000; stroke:none;fill-rule:evenodd;"
d="M 138.4625,85.3750
138.4663,85.3559
138.4771,85.3396
138.4934,85.3288
138.5125,85.3250
138.6125,85.3250
138.6316,85.3288
138.6479,85.3396
138.6587,85.3559
138.6625,85.3750
138.6625,86.0500
138.6587,86.0691
138.6479,86.0854
138.6316,86.0962
138.6125,86.1000
138.5125,86.1000
138.4934,86.0962
138.4771,86.0854
138.4663,86.0691
138.4625,86.0500
Z" /> 
<path style="fill:#000000; fill-opacity:1.0000; stroke:none;fill-rule:evenodd;"
d="M 138.0625,85.3750
138.0663,85.3559
138.0771,85.3396
138.0934,85.3288
138.1125,85.3250
138.2125,85.3250
138.2316,85.3288
138.2479,85.3396
138.2587,85.3559
138.2625,85.3750
138.2625,86.0500
138.2587,86.0691
138.2479,86.0854
138.2316,86.0962
138.2125,86.1000
138.1125,86.1000
138.0934,86.0962
138.0771,86.0854
138.0663,86.0691
138.0625,86.0500
Z" /> 
<path style="fill:#000000; fill-opacity:1.0000; stroke:none;fill-rule:evenodd;"
d="M 137.6625,85.3750
137.6663,85.3559
137.6771,85.3396
137.6934,85.3288
137.7125,85.3250
137.8125,85.3250
137.8316,85.3288
137.8479,85.3396
137.8587,85.3559
137.8625,85.3750
137.8625,86.0500
137.8587,86.0691
137.8479,86.0854
137.8316,86.0962
137.8125,86.1000
137.7125,86.1000
137.6934,86.0962
137.6771,86.0854
137.6663,86.0691
137.6625,86.0500
Z" /> 
<path style="fill:#000000; fill-opacity:1.0000; stroke:none;fill-rule:evenodd;"
d="M 137.5625,89.1000
137.5625,86.3000
140.3625,86.3000
140.3625,89.1000
Z" /> 
<path style="fill:#000000; fill-opacity:1.0000; stroke:none;fill-rule:evenodd;"
d="M 129.9200,96.4900
129.9736,96.5007
130.0190,96.5310
130.0493,96.5764
130.0600,96.6300
130.0600,96.9100
130.0493,96.9636
130.0190,97.0090
129.9736,97.0393
129.9200,97.0500
129.5800,97.0500
129.5264,97.0393
129.4810,97.0090
129.4507,96.9636
129.4400,96.9100
129.4400,96.6300
129.4507,96.5764
129.4810,96.5310
129.5264,96.5007
129.5800,96.4900
Z" /> 
<path style="fill:#000000; fill-opacity:1.0000; stroke:none;fill-rule:evenodd;"
d="M 129.9200,97.4500
129.9736,97.4607
130.0190,97.4910
130.0493,97.5364
130.0600,97.5900
130.0600,97.8700
130.0493,97.9236
130.0190,97.9690
129.9736,97.9993
129.9200,98.0100
129.5800,98.0100
129.5264,97.9993
129.4810,97.9690
129.4507,97.9236
129.4400,97.8700
129.4400,97.5900
129.4507,97.5364
129.4810,97.4910
129.5264,97.4607
129.5800,97.4500
Z" /> 
<path style="fill:#000000; fill-opacity:1.0000; stroke:none;fill-rule:evenodd;"
d="M 138.5300,105.7350
138.5197,105.7867
138.4905,105.8305
138.4467,105.8597
138.3950,105.8700
138.1250,105.8700
138.0733,105.8597
138.0295,105.8305
138.0003,105.7867
137.9900,105.7350
137.9900,105.3650
138.0003,105.3133
138.0295,105.2695
138.0733,105.2403
138.1250,105.2300
138.3950,105.2300
138.4467,105.2403
138.4905,105.2695
138.5197,105.3133
138.5300,105.3650
Z" /> 
<path style="fill:#000000; fill-opacity:1.0000; stroke:none;fill-rule:evenodd;"
d="M 137.5100,105.7350
137.4997,105.7867
137.4705,105.8305
137.4267,105.8597
137.3750,105.8700
137.1050,105.8700
137.0533,105.8597
137.0095,105.8305
136.9803,105.7867
136.9700,105.7350
136.9700,105.3650
136.9803,105.3133
137.0095,105.2695
137.0533,105.2403
137.1050,105.2300
137.3750,105.2300
137.4267,105.2403
137.4705,105.2695
137.4997,105.3133
137.5100,105.3650
Z" /> 
<path style="fill:#000000; fill-opacity:1.0000; stroke:none;fill-rule:evenodd;"
d="M 141.5250,96.6500
141.5317,96.6165
141.5506,96.5881
141.5790,96.5692
141.6125,96.5625
141.8625,96.5625
141.8960,96.5692
141.9244,96.5881
141.9433,96.6165
141.9500,96.6500
141.9500,96.8250
141.9433,96.8585
141.9244,96.8869
141.8960,96.9058
141.8625,96.9125
141.6125,96.9125
141.5790,96.9058
141.5506,96.8869
141.5317,96.8585
141.5250,96.8250
Z" /> 
<path style="fill:#000000; fill-opacity:1.0000; stroke:none;fill-rule:evenodd;"
d="M 141.5250,97.1500
141.5317,97.1165
141.5506,97.0881
141.5790,97.0692
141.6125,97.0625
141.8625,97.0625
141.8960,97.0692
141.9244,97.0881
141.9433,97.1165
141.9500,97.1500
141.9500,97.3250
141.9433,97.3585
141.9244,97.3869
141.8960,97.4058
141.8625,97.4125
141.6125,97.4125
141.5790,97.4058
141.5506,97.3869
141.5317,97.3585
141.5250,97.3250
Z" /> 
<path style="fill:#000000; fill-opacity:1.0000; stroke:none;fill-rule:evenodd;"
d="M 141.8250,97.6250
141.8317,97.5915
141.8506,97.5631
141.8790,97.5442
141.9125,97.5375
142.0875,97.5375
142.1210,97.5442
142.1494,97.5631
142.1683,97.5915
142.1750,97.6250
142.1750,97.8750
142.1683,97.9085
142.1494,97.9369
142.1210,97.9558
142.0875,97.9625
141.9125,97.9625
141.8790,97.9558
141.8506,97.9369
141.8317,97.9085
141.8250,97.8750
Z" /> 
<path style="fill:#000000; fill-opacity:1.0000; stroke:none;fill-rule:evenodd;"
d="M 142.3250,97.6250
142.3317,97.5915
142.3506,97.5631
142.3790,97.5442
142.4125,97.5375
142.5875,97.5375
142.6210,97.5442
142.6494,97.5631
142.6683,97.5915
142.6750,97.6250
142.6750,97.8750
142.6683,97.9085
142.6494,97.9369
142.6210,97.9558
142.5875,97.9625
142.4125,97.9625
142.3790,97.9558
142.3506,97.9369
142.3317,97.9085
142.3250,97.8750
Z" /> 
<path style="fill:#000000; fill-opacity:1.0000; stroke:none;fill-rule:evenodd;"
d="M 142.8250,97.6250
142.8317,97.5915
142.8506,97.5631
142.8790,97.5442
142.9125,97.5375
143.0875,97.5375
143.1210,97.5442
143.1494,97.5631
143.1683,97.5915
143.1750,97.6250
143.1750,97.8750
143.1683,97.9085
143.1494,97.9369
143.1210,97.9558
143.0875,97.9625
142.9125,97.9625
142.8790,97.9558
142.8506,97.9369
142.8317,97.9085
142.8250,97.8750
Z" /> 
<path style="fill:#000000; fill-opacity:1.0000; stroke:none;fill-rule:evenodd;"
d="M 143.0500,97.1500
143.0567,97.1165
143.0756,97.0881
143.1040,97.0692
143.1375,97.0625
143.3875,97.0625
143.4210,97.0692
143.4494,97.0881
143.4683,97.1165
143.4750,97.1500
143.4750,97.3250
143.4683,97.3585
143.4494,97.3869
143.4210,97.4058
143.3875,97.4125
143.1375,97.4125
143.1040,97.4058
143.0756,97.3869
143.0567,97.3585
143.0500,97.3250
Z" /> 
<path style="fill:#000000; fill-opacity:1.0000; stroke:none;fill-rule:evenodd;"
d="M 143.0500,96.6500
143.0567,96.6165
143.0756,96.5881
143.1040,96.5692
143.1375,96.5625
143.3875,96.5625
143.4210,96.5692
143.4494,96.5881
143.4683,96.6165
143.4750,96.6500
143.4750,96.8250
143.4683,96.8585
143.4494,96.8869
143.4210,96.9058
143.3875,96.9125
143.1375,96.9125
143.1040,96.9058
143.0756,96.8869
143.0567,96.8585
143.0500,96.8250
Z" /> 
<path style="fill:#000000; fill-opacity:1.0000; stroke:none;fill-rule:evenodd;"
d="M 142.8250,96.1000
142.8317,96.0665
142.8506,96.0381
142.8790,96.0192
142.9125,96.0125
143.0875,96.0125
143.1210,96.0192
143.1494,96.0381
143.1683,96.0665
143.1750,96.1000
143.1750,96.3500
143.1683,96.3835
143.1494,96.4119
143.1210,96.4308
143.0875,96.4375
142.9125,96.4375
142.8790,96.4308
142.8506,96.4119
142.8317,96.3835
142.8250,96.3500
Z" /> 
<path style="fill:#000000; fill-opacity:1.0000; stroke:none;fill-rule:evenodd;"
d="M 142.3250,96.1000
142.3317,96.0665
142.3506,96.0381
142.3790,96.0192
142.4125,96.0125
142.5875,96.0125
142.6210,96.0192
142.6494,96.0381
142.6683,96.0665
142.6750,96.1000
142.6750,96.3500
142.6683,96.3835
142.6494,96.4119
142.6210,96.4308
142.5875,96.4375
142.4125,96.4375
142.3790,96.4308
142.3506,96.4119
142.3317,96.3835
142.3250,96.3500
Z" /> 
<path style="fill:#000000; fill-opacity:1.0000; stroke:none;fill-rule:evenodd;"
d="M 141.8250,96.1000
141.8317,96.0665
141.8506,96.0381
141.8790,96.0192
141.9125,96.0125
142.0875,96.0125
142.1210,96.0192
142.1494,96.0381
142.1683,96.0665
142.1750,96.1000
142.1750,96.3500
142.1683,96.3835
142.1494,96.4119
142.1210,96.4308
142.0875,96.4375
141.9125,96.4375
141.8790,96.4308
141.8506,96.4119
141.8317,96.3835
141.8250,96.3500
Z" /> 
<path style="fill:#000000; fill-opacity:1.0000; stroke:none;fill-rule:evenodd;"
d="M 138.7700,82.1900
138.8236,82.2007
138.8690,82.2310
138.8993,82.2764
138.9100,82.3300
138.9100,82.6100
138.8993,82.6636
138.8690,82.7090
138.8236,82.7393
138.7700,82.7500
138.4300,82.7500
138.3764,82.7393
138.3310,82.7090
138.3007,82.6636
138.2900,82.6100
138.2900,82.3300
138.3007,82.2764
138.3310,82.2310
138.3764,82.2007
138.4300,82.1900
Z" /> 
<path style="fill:#000000; fill-opacity:1.0000; stroke:none;fill-rule:evenodd;"
d="M 138.7700,83.1500
138.8236,83.1607
138.8690,83.1910
138.8993,83.2364
138.9100,83.2900
138.9100,83.5700
138.8993,83.6236
138.8690,83.6690
138.8236,83.6993
138.7700,83.7100
138.4300,83.7100
138.3764,83.6993
138.3310,83.6690
138.3007,83.6236
138.2900,83.5700
138.2900,83.2900
138.3007,83.2364
138.3310,83.1910
138.3764,83.1607
138.4300,83.1500
Z" /> 
<path style="fill:#000000; fill-opacity:1.0000; stroke:none;fill-rule:evenodd;"
d="M 142.1200,82.2400
142.1736,82.2507
142.2190,82.2810
142.2493,82.3264
142.2600,82.3800
142.2600,82.6600
142.2493,82.7136
142.2190,82.7590
142.1736,82.7893
142.1200,82.8000
141.7800,82.8000
141.7264,82.7893
141.6810,82.7590
141.6507,82.7136
141.6400,82.6600
141.6400,82.3800
141.6507,82.3264
141.6810,82.2810
141.7264,82.2507
141.7800,82.2400
Z" /> 
<path style="fill:#000000; fill-opacity:1.0000; stroke:none;fill-rule:evenodd;"
d="M 142.1200,83.2000
142.1736,83.2107
142.2190,83.2410
142.2493,83.2864
142.2600,83.3400
142.2600,83.6200
142.2493,83.6736
142.2190,83.7190
142.1736,83.7493
142.1200,83.7600
141.7800,83.7600
141.7264,83.7493
141.6810,83.7190
141.6507,83.6736
141.6400,83.6200
141.6400,83.3400
141.6507,83.2864
141.6810,83.2410
141.7264,83.2107
141.7800,83.2000
Z" /> 
<path style="fill:#000000; fill-opacity:1.0000; stroke:none;fill-rule:evenodd;"
d="M 130.7100,87.5100
130.7100,85.8100
132.4100,85.8100
132.4100,87.5100
Z" /> 
</g>
<g style="fill:#000000; fill-opacity:1.0000; stroke:none;">
<circle cx="134.1000" cy="86.6600" r="0.8500" /> 
<circle cx="131.5600" cy="89.2000" r="0.8500" /> 
<circle cx="134.1000" cy="89.2000" r="0.8500" /> 
<path style="fill:#000000; fill-opacity:1.0000; stroke:none;fill-rule:evenodd;"
d="M 139.5850,83.7500
139.5333,83.7397
139.4895,83.7105
139.4603,83.6667
139.4500,83.6150
139.4500,83.3450
139.4603,83.2933
139.4895,83.2495
139.5333,83.2203
139.5850,83.2100
139.9550,83.2100
140.0067,83.2203
140.0505,83.2495
140.0797,83.2933
140.0900,83.3450
140.0900,83.6150
140.0797,83.6667
140.0505,83.7105
140.0067,83.7397
139.9550,83.7500
Z" /> 
<path style="fill:#000000; fill-opacity:1.0000; stroke:none;fill-rule:evenodd;"
d="M 139.5850,82.7300
139.5333,82.7197
139.4895,82.6905
139.4603,82.6467
139.4500,82.5950
139.4500,82.3250
139.4603,82.2733
139.4895,82.2295
139.5333,82.2003
139.5850,82.1900
139.9550,82.1900
140.0067,82.2003
140.0505,82.2295
140.0797,82.2733
140.0900,82.3250
140.0900,82.5950
140.0797,82.6467
140.0505,82.6905
140.0067,82.7197
139.9550,82.7300
Z" /> 
<path style="fill:#000000; fill-opacity:1.0000; stroke:none;fill-rule:evenodd;"
d="M 141.0300,105.7350
141.0197,105.7867
140.9905,105.8305
140.9467,105.8597
140.8950,105.8700
140.6250,105.8700
140.5733,105.8597
140.5295,105.8305
140.5003,105.7867
140.4900,105.7350
140.4900,105.3650
140.5003,105.3133
140.5295,105.2695
140.5733,105.2403
140.6250,105.2300
140.8950,105.2300
140.9467,105.2403
140.9905,105.2695
141.0197,105.3133
141.0300,105.3650
Z" /> 
<path style="fill:#000000; fill-opacity:1.0000; stroke:none;fill-rule:evenodd;"
d="M 140.0100,105.7350
139.9997,105.7867
139.9705,105.8305
139.9267,105.8597
139.8750,105.8700
139.6050,105.8700
139.5533,105.8597
139.5095,105.8305
139.4803,105.7867
139.4700,105.7350
139.4700,105.3650
139.4803,105.3133
139.5095,105.2695
139.5533,105.2403
139.6050,105.2300
139.8750,105.2300
139.9267,105.2403
139.9705,105.2695
139.9997,105.3133
140.0100,105.3650
Z" /> 
<path style="fill:#000000; fill-opacity:1.0000; stroke:none;fill-rule:evenodd;"
d="M 140.9200,96.4975
140.9736,96.5082
141.0190,96.5385
141.0493,96.5839
141.0600,96.6375
141.0600,96.9175
141.0493,96.9711
141.0190,97.0165
140.9736,97.0468
140.9200,97.0575
140.5800,97.0575
140.5264,97.0468
140.4810,97.0165
140.4507,96.9711
140.4400,96.9175
140.4400,96.6375
140.4507,96.5839
140.4810,96.5385
140.5264,96.5082
140.5800,96.4975
Z" /> 
<path style="fill:#000000; fill-opacity:1.0000; stroke:none;fill-rule:evenodd;"
d="M 140.9200,97.4575
140.9736,97.4682
141.0190,97.4985
141.0493,97.5439
141.0600,97.5975
141.0600,97.8775
141.0493,97.9311
141.0190,97.9765
140.9736,98.0068
140.9200,98.0175
140.5800,98.0175
140.5264,98.0068
140.4810,97.9765
140.4507,97.9311
140.4400,97.8775
140.4400,97.5975
140.4507,97.5439
140.4810,97.4985
140.5264,97.4682
140.5800,97.4575
Z" /> 
<path style="fill:#000000; fill-opacity:1.0000; stroke:none;fill-rule:evenodd;"
d="M 131.9800,83.7100
131.9264,83.6993
131.8810,83.6690
131.8507,83.6236
131.8400,83.5700
131.8400,83.2900
131.8507,83.2364
131.8810,83.1910
131.9264,83.1607
131.9800,83.1500
132.3200,83.1500
132.3736,83.1607
132.4190,83.1910
132.4493,83.2364
132.4600,83.2900
132.4600,83.5700
132.4493,83.6236
132.4190,83.6690
132.3736,83.6993
132.3200,83.7100
Z" /> 
<path style="fill:#000000; fill-opacity:1.0000; stroke:none;fill-rule:evenodd;"
d="M 131.9800,82.7500
131.9264,82.7393
131.8810,82.7090
131.8507,82.6636
131.8400,82.6100
131.8400,82.3300
131.8507,82.2764
131.8810,82.2310
131.9264,82.2007
131.9800,82.1900
132.3200,82.1900
132.3736,82.2007
132.4190,82.2310
132.4493,82.2764
132.4600,82.3300
132.4600,82.6100
132.4493,82.6636
132.4190,82.7090
132.3736,82.7393
132.3200,82.7500
Z" /> 
<path style="fill:#000000; fill-opacity:1.0000; stroke:none;fill-rule:evenodd;"
d="M 130.7600,95.0800
130.7707,95.0264
130.8010,94.9810
130.8464,94.9507
130.9000,94.9400
131.1800,94.9400
131.2336,94.9507
131.2790,94.9810
131.3093,95.0264
131.3200,95.0800
131.3200,95.4200
131.3093,95.4736
131.2790,95.5190
131.2336,95.5493
131.1800,95.5600
130.9000,95.5600
130.8464,95.5493
130.8010,95.5190
130.7707,95.4736
130.7600,95.4200
Z" /> 
<path style="fill:#000000; fill-opacity:1.0000; stroke:none;fill-rule:evenodd;"
d="M 131.7200,95.0800
131.7307,95.0264
131.7610,94.9810
131.8064,94.9507
131.8600,94.9400
132.1400,94.9400
132.1936,94.9507
132.2390,94.9810
132.2693,95.0264
132.2800,95.0800
132.2800,95.4200
132.2693,95.4736
132.2390,95.5190
132.1936,95.5493
132.1400,95.5600
131.8600,95.5600
131.8064,95.5493
131.7610,95.5190
131.7307,95.4736
131.7200,95.4200
Z" /> 
<path style="fill:#000000; fill-opacity:1.0000; stroke:none;fill-rule:evenodd;"
d="M 136.0300,105.7225
136.0188,105.7789
135.9868,105.8268
135.9389,105.8588
135.8825,105.8700
135.5875,105.8700
135.5311,105.8588
135.4832,105.8268
135.4512,105.7789
135.4400,105.7225
135.4400,105.3775
135.4512,105.3211
135.4832,105.2732
135.5311,105.2412
135.5875,105.2300
135.8825,105.2300
135.9389,105.2412
135.9868,105.2732
136.0188,105.3211
136.0300,105.3775
Z" /> 
<path style="fill:#000000; fill-opacity:1.0000; stroke:none;fill-rule:evenodd;"
d="M 135.0600,105.7225
135.0488,105.7789
135.0168,105.8268
134.9689,105.8588
134.9125,105.8700
134.6175,105.8700
134.5611,105.8588
134.5132,105.8268
134.4812,105.7789
134.4700,105.7225
134.4700,105.3775
134.4812,105.3211
134.5132,105.2732
134.5611,105.2412
134.6175,105.2300
134.9125,105.2300
134.9689,105.2412
135.0168,105.2732
135.0488,105.3211
135.0600,105.3775
Z" /> 
<path style="fill:#000000; fill-opacity:1.0000; stroke:none;fill-rule:evenodd;"
d="M 140.7650,83.7600
140.7133,83.7497
140.6695,83.7205
140.6403,83.6767
140.6300,83.6250
140.6300,83.3550
140.6403,83.3033
140.6695,83.2595
140.7133,83.2303
140.7650,83.2200
141.1350,83.2200
141.1867,83.2303
141.2305,83.2595
141.2597,83.3033
141.2700,83.3550
141.2700,83.6250
141.2597,83.6767
141.2305,83.7205
141.1867,83.7497
141.1350,83.7600
Z" /> 
<path style="fill:#000000; fill-opacity:1.0000; stroke:none;fill-rule:evenodd;"
d="M 140.7650,82.7400
140.7133,82.7297
140.6695,82.7005
140.6403,82.6567
140.6300,82.6050
140.6300,82.3350
140.6403,82.2833
140.6695,82.2395
140.7133,82.2103
140.7650,82.2000
141.1350,82.2000
141.1867,82.2103
141.2305,82.2395
141.2597,82.2833
141.2700,82.3350
141.2700,82.6050
141.2597,82.6567
141.2305,82.7005
141.1867,82.7297
141.1350,82.7400
Z" /> 
<path style="fill:#000000; fill-opacity:1.0000; stroke:none;fill-rule:evenodd;"
d="M 130.5250,96.6625
130.5317,96.6290
130.5506,96.6006
130.5790,96.5817
130.6125,96.5750
130.8625,96.5750
130.8960,96.5817
130.9244,96.6006
130.9433,96.6290
130.9500,96.6625
130.9500,96.8375
130.9433,96.8710
130.9244,96.8994
130.8960,96.9183
130.8625,96.9250
130.6125,96.9250
130.5790,96.9183
130.5506,96.8994
130.5317,96.8710
130.5250,96.8375
Z" /> 
<path style="fill:#000000; fill-opacity:1.0000; stroke:none;fill-rule:evenodd;"
d="M 130.5250,97.1625
130.5317,97.1290
130.5506,97.1006
130.5790,97.0817
130.6125,97.0750
130.8625,97.0750
130.8960,97.0817
130.9244,97.1006
130.9433,97.1290
130.9500,97.1625
130.9500,97.3375
130.9433,97.3710
130.9244,97.3994
130.8960,97.4183
130.8625,97.4250
130.6125,97.4250
130.5790,97.4183
130.5506,97.3994
130.5317,97.3710
130.5250,97.3375
Z" /> 
<path style="fill:#000000; fill-opacity:1.0000; stroke:none;fill-rule:evenodd;"
d="M 130.8250,97.6375
130.8317,97.6040
130.8506,97.5756
130.8790,97.5567
130.9125,97.5500
131.0875,97.5500
131.1210,97.5567
131.1494,97.5756
131.1683,97.6040
131.1750,97.6375
131.1750,97.8875
131.1683,97.9210
131.1494,97.9494
131.1210,97.9683
131.0875,97.9750
130.9125,97.9750
130.8790,97.9683
130.8506,97.9494
130.8317,97.9210
130.8250,97.8875
Z" /> 
<path style="fill:#000000; fill-opacity:1.0000; stroke:none;fill-rule:evenodd;"
d="M 131.3250,97.6375
131.3317,97.6040
131.3506,97.5756
131.3790,97.5567
131.4125,97.5500
131.5875,97.5500
131.6210,97.5567
131.6494,97.5756
131.6683,97.6040
131.6750,97.6375
131.6750,97.8875
131.6683,97.9210
131.6494,97.9494
131.6210,97.9683
131.5875,97.9750
131.4125,97.9750
131.3790,97.9683
131.3506,97.9494
131.3317,97.9210
131.3250,97.8875
Z" /> 
<path style="fill:#000000; fill-opacity:1.0000; stroke:none;fill-rule:evenodd;"
d="M 131.8250,97.6375
131.8317,97.6040
131.8506,97.5756
131.8790,97.5567
131.9125,97.5500
132.0875,97.5500
132.1210,97.5567
132.1494,97.5756
132.1683,97.6040
132.1750,97.6375
132.1750,97.8875
132.1683,97.9210
132.1494,97.9494
132.1210,97.9683
132.0875,97.9750
131.9125,97.9750
131.8790,97.9683
131.8506,97.9494
131.8317,97.9210
131.8250,97.8875
Z" /> 
<path style="fill:#000000; fill-opacity:1.0000; stroke:none;fill-rule:evenodd;"
d="M 132.0500,97.1625
132.0567,97.1290
132.0756,97.1006
132.1040,97.0817
132.1375,97.0750
132.3875,97.0750
132.4210,97.0817
132.4494,97.1006
132.4683,97.1290
132.4750,97.1625
132.4750,97.3375
132.4683,97.3710
132.4494,97.3994
132.4210,97.4183
132.3875,97.4250
132.1375,97.4250
132.1040,97.4183
132.0756,97.3994
132.0567,97.3710
132.0500,97.3375
Z" /> 
<path style="fill:#000000; fill-opacity:1.0000; stroke:none;fill-rule:evenodd;"
d="M 132.0500,96.6625
132.0567,96.6290
132.0756,96.6006
132.1040,96.5817
132.1375,96.5750
132.3875,96.5750
132.4210,96.5817
132.4494,96.6006
132.4683,96.6290
132.4750,96.6625
132.4750,96.8375
132.4683,96.8710
132.4494,96.8994
132.4210,96.9183
132.3875,96.9250
132.1375,96.9250
132.1040,96.9183
132.0756,96.8994
132.0567,96.8710
132.0500,96.8375
Z" /> 
<path style="fill:#000000; fill-opacity:1.0000; stroke:none;fill-rule:evenodd;"
d="M 131.8250,96.1125
131.8317,96.0790
131.8506,96.0506
131.8790,96.0317
131.9125,96.0250
132.0875,96.0250
132.1210,96.0317
132.1494,96.0506
132.1683,96.0790
132.1750,96.1125
132.1750,96.3625
132.1683,96.3960
132.1494,96.4244
132.1210,96.4433
132.0875,96.4500
131.9125,96.4500
131.8790,96.4433
131.8506,96.4244
131.8317,96.3960
131.8250,96.3625
Z" /> 
<path style="fill:#000000; fill-opacity:1.0000; stroke:none;fill-rule:evenodd;"
d="M 131.3250,96.1125
131.3317,96.0790
131.3506,96.0506
131.3790,96.0317
131.4125,96.0250
131.5875,96.0250
131.6210,96.0317
131.6494,96.0506
131.6683,96.0790
131.6750,96.1125
131.6750,96.3625
131.6683,96.3960
131.6494,96.4244
131.6210,96.4433
131.5875,96.4500
131.4125,96.4500
131.3790,96.4433
131.3506,96.4244
131.3317,96.3960
131.3250,96.3625
Z" /> 
<path style="fill:#000000; fill-opacity:1.0000; stroke:none;fill-rule:evenodd;"
d="M 130.8250,96.1125
130.8317,96.0790
130.8506,96.0506
130.8790,96.0317
130.9125,96.0250
131.0875,96.0250
131.1210,96.0317
131.1494,96.0506
131.1683,96.0790
131.1750,96.1125
131.1750,96.3625
131.1683,96.3960
131.1494,96.4244
131.1210,96.4433
131.0875,96.4500
130.9125,96.4500
130.8790,96.4433
130.8506,96.4244
130.8317,96.3960
130.8250,96.3625
Z" /> 
<path style="fill:#000000; fill-opacity:1.0000; stroke:none;fill-rule:evenodd;"
d="M 141.7600,95.0675
141.7707,95.0139
141.8010,94.9685
141.8464,94.9382
141.9000,94.9275
142.1800,94.9275
142.2336,94.9382
142.2790,94.9685
142.3093,95.0139
142.3200,95.0675
142.3200,95.4075
142.3093,95.4611
142.2790,95.5065
142.2336,95.5368
142.1800,95.5475
141.9000,95.5475
141.8464,95.5368
141.8010,95.5065
141.7707,95.4611
141.7600,95.4075
Z" /> 
<path style="fill:#000000; fill-opacity:1.0000; stroke:none;fill-rule:evenodd;"
d="M 142.7200,95.0675
142.7307,95.0139
142.7610,94.9685
142.8064,94.9382
142.8600,94.9275
143.1400,94.9275
143.1936,94.9382
143.2390,94.9685
143.2693,95.0139
143.2800,95.0675
143.2800,95.4075
143.2693,95.4611
143.2390,95.5065
143.1936,95.5368
143.1400,95.5475
142.8600,95.5475
142.8064,95.5368
142.7610,95.5065
142.7307,95.4611
142.7200,95.4075
Z" /> 
<path style="fill:#000000; fill-opacity:1.0000; stroke:none;fill-rule:evenodd;"
d="M 133.5300,105.7350
133.5197,105.7867
133.4905,105.8305
133.4467,105.8597
133.3950,105.8700
133.1250,105.8700
133.0733,105.8597
133.0295,105.8305
133.0003,105.7867
132.9900,105.7350
132.9900,105.3650
133.0003,105.3133
133.0295,105.2695
133.0733,105.2403
133.1250,105.2300
133.3950,105.2300
133.4467,105.2403
133.4905,105.2695
133.5197,105.3133
133.5300,105.3650
Z" /> 
<path style="fill:#000000; fill-opacity:1.0000; stroke:none;fill-rule:evenodd;"
d="M 132.5100,105.7350
132.4997,105.7867
132.4705,105.8305
132.4267,105.8597
132.3750,105.8700
132.1050,105.8700
132.0533,105.8597
132.0095,105.8305
131.9803,105.7867
131.9700,105.7350
131.9700,105.3650
131.9803,105.3133
132.0095,105.2695
132.0533,105.2403
132.1050,105.2300
132.3750,105.2300
132.4267,105.2403
132.4705,105.2695
132.4997,105.3133
132.5100,105.3650
Z" /> 
<path style="fill:#000000; fill-opacity:1.0000; stroke:none;fill-rule:evenodd;"
d="M 137.7700,81.4800
137.7700,82.6800
136.3700,82.6800
136.3700,81.4800
Z" /> 
<path style="fill:#000000; fill-opacity:1.0000; stroke:none;fill-rule:evenodd;"
d="M 135.5700,81.4800
135.5700,82.6800
134.1700,82.6800
134.1700,81.4800
Z" /> 
<path style="fill:#000000; fill-opacity:1.0000; stroke:none;fill-rule:evenodd;"
d="M 135.5700,83.1800
135.5700,84.3800
134.1700,84.3800
134.1700,83.1800
Z" /> 
<path style="fill:#000000; fill-opacity:1.0000; stroke:none;fill-rule:evenodd;"
d="M 137.7700,83.1800
137.7700,84.3800
136.3700,84.3800
136.3700,83.1800
Z" /> 
<path style="fill:#000000; fill-opacity:1.0000; stroke:none;fill-rule:evenodd;"
d="M 133.1800,83.7100
133.1264,83.6993
133.0810,83.6690
133.0507,83.6236
133.0400,83.5700
133.0400,83.2900
133.0507,83.2364
133.0810,83.1910
133.1264,83.1607
133.1800,83.1500
133.5200,83.1500
133.5736,83.1607
133.6190,83.1910
133.6493,83.2364
133.6600,83.2900
133.6600,83.5700
133.6493,83.6236
133.6190,83.6690
133.5736,83.6993
133.5200,83.7100
Z" /> 
<path style="fill:#000000; fill-opacity:1.0000; stroke:none;fill-rule:evenodd;"
d="M 133.1800,82.7500
133.1264,82.7393
133.0810,82.7090
133.0507,82.6636
133.0400,82.6100
133.0400,82.3300
133.0507,82.2764
133.0810,82.2310
133.1264,82.2007
133.1800,82.1900
133.5200,82.1900
133.5736,82.2007
133.6190,82.2310
133.6493,82.2764
133.6600,82.3300
133.6600,82.6100
133.6493,82.6636
133.6190,82.7090
133.5736,82.7393
133.5200,82.7500
Z" /> 
<path style="fill:#000000; fill-opacity:1.0000; stroke:none;fill-rule:evenodd;"
d="M 131.0250,83.7300
130.9733,83.7197
130.9295,83.6905
130.9003,83.6467
130.8900,83.5950
130.8900,83.3250
130.9003,83.2733
130.9295,83.2295
130.9733,83.2003
131.0250,83.1900
131.3950,83.1900
131.4467,83.2003
131.4905,83.2295
131.5197,83.2733
131.5300,83.3250
131.5300,83.5950
131.5197,83.6467
131.4905,83.6905
131.4467,83.7197
131.3950,83.7300
Z" /> 
<path style="fill:#000000; fill-opacity:1.0000; stroke:none;fill-rule:evenodd;"
d="M 131.0250,82.7100
130.9733,82.6997
130.9295,82.6705
130.9003,82.6267
130.8900,82.5750
130.8900,82.3050
130.9003,82.2533
130.9295,82.2095
130.9733,82.1803
131.0250,82.1700
131.3950,82.1700
131.4467,82.1803
131.4905,82.2095
131.5197,82.2533
131.5300,82.3050
131.5300,82.5750
131.5197,82.6267
131.4905,82.6705
131.4467,82.6997
131.3950,82.7100
Z" /> 
<path style="fill:#000000; fill-opacity:1.0000; stroke:none;fill-rule:evenodd;"
d="M 131.9000,102.9750
131.9190,102.8793
131.9732,102.7982
132.0543,102.7440
132.1500,102.7250
133.3500,102.7250
133.4457,102.7440
133.5268,102.7982
133.5810,102.8793
133.6000,102.9750
133.6000,104.4250
133.5810,104.5207
133.5268,104.6018
133.4457,104.6560
133.3500,104.6750
132.1500,104.6750
132.0543,104.6560
131.9732,104.6018
131.9190,104.5207
131.9000,104.4250
Z" /> 
</g>
<g style="fill:none; 
stroke:#000000; stroke-width:1.7000; stroke-opacity:1; 
stroke-linecap:round; stroke-linejoin:round;">
<path d="M135.2500 103.5750
L135.2500 103.8250
" />
<path d="M137.7500 103.5750
L137.7500 103.8250
" />
<path d="M140.2500 103.5750
L140.2500 103.8250
" />
</g>
<g style="fill:none; 
stroke:#000000; stroke-width:0.1500; stroke-opacity:1; 
stroke-linecap:round; stroke-linejoin:round;">
<path d="M140.2500 98.2500
L143.7500 98.2500
" />
<path d="M136.5000 96.0000
L136.5000 97.0000
" />
<path d="M127.2500 90.7500
L145.7500 90.7500
" />
<path d="M140.2500 94.7500
L140.2500 98.2500
" />
<path d="M129.2500 98.2500
L132.7500 98.2500
" />
<path d="M127.2500 90.7500 A2.0000 2.0000 0.0 0 0 125.2500 92.7500" />
<path d="M132.7500 94.7500
L129.2500 94.7500
" />
<path d="M147.7500 92.7500 A2.0000 2.0000 0.0 0 0 145.7500 90.7500" />
<path d="M145.7500 102.2500 A2.0000 2.0000 0.0 0 0 147.7500 100.2500" />
<path d="M143.7500 98.2500
L143.7500 94.7500
" />
<path d="M145.7500 102.2500
L127.2500 102.2500
" />
<path d="M132.7500 98.2500
L132.7500 94.7500
" />
<path d="M129.2500 94.7500
L129.2500 98.2500
" />
<path d="M125.2500 100.2500 A2.0000 2.0000 0.0 0 0 127.2500 102.2500" />
<path d="M147.7500 92.7500
L147.7500 100.2500
" />
<path d="M136.0000 96.5000
L137.0000 96.5000
" />
<path d="M125.2500 100.2500
L125.2500 92.7500
" />
<path d="M143.7500 94.7500
L140.2500 94.7500
" />
<path style="fill:#000000; fill-opacity:1.0000; stroke:none;fill-rule:evenodd;"
d="M 131.3932,100.8309
131.3143,100.8951
131.2278,100.9534
131.2022,100.9696
131.1141,101.0223
131.0268,101.0670
130.9937,101.0800
130.9076,101.0271
130.9052,101.0238
130.8681,100.9331
130.8671,100.9164
130.8628,100.8100
130.8593,100.7116
130.8588,100.6970
130.8559,100.6404
130.8559,99.7870
130.8642,99.6942
130.8730,99.6009
130.8505,99.5134
130.8222,99.4993
130.7435,99.5276
130.6590,99.5559
130.6224,99.5335
130.6112,99.4910
130.6336,99.4460
130.7261,99.4043
130.8229,99.3554
130.9197,99.3029
130.9853,99.2658
131.0637,99.2001
131.1461,99.1417
131.2022,99.1417
131.2359,99.1417
131.2554,99.2376
131.2555,99.2482
131.2527,99.3460
131.2459,99.4538
131.2384,99.5466
131.2304,99.6500
131.2241,99.7555
131.2218,99.8446
131.2218,100.5759
131.2281,100.6779
131.2442,100.7298
131.3324,100.7832
131.3820,100.7913
Z" /> 
<path style="fill:#000000; fill-opacity:1.0000; stroke:none;fill-rule:evenodd;"
d="M 142.6028,100.6970
142.5590,100.7888
142.5009,100.8758
142.4787,100.9071
142.4176,100.9872
142.3555,101.0635
142.3156,101.1113
142.2760,101.1113
142.1731,101.1022
142.0689,101.0830
141.9699,101.0599
141.9565,101.0566
141.8563,101.0324
141.7515,101.0119
141.6492,101.0014
141.6429,101.0014
141.5514,101.0374
141.5433,101.0424
141.4544,101.0868
141.4461,101.0888
141.4094,101.0492
141.4427,100.9563
141.4936,100.8666
141.5545,100.7826
141.6189,100.7066
141.6429,100.6804
141.9809,100.3170
142.0392,100.2337
142.0920,100.1343
142.1283,100.0325
142.1482,99.9283
142.1524,99.8524
142.1438,99.7490
142.1120,99.6554
142.0367,99.5778
141.9373,99.5493
141.9077,99.5481
141.8136,99.5747
141.7322,99.6344
141.6967,99.6693
141.6252,99.7431
141.5726,99.7904
141.5389,99.7762
141.5276,99.6917
141.5421,99.5878
141.5613,99.4827
141.5818,99.3794
141.6038,99.2897
141.6935,99.2419
141.7709,99.2086
141.8646,99.1705
141.9555,99.1417
142.0652,99.1463
142.1624,99.1602
142.2599,99.1882
142.3504,99.2356
142.3957,99.2736
142.4590,99.3623
142.4978,99.4654
142.5184,99.5745
142.5261,99.6819
142.5266,99.7205
142.5192,99.8192
142.4932,99.9251
142.4485,100.0255
142.4084,100.0894
142.3434,100.1686
142.2685,100.2439
142.1855,100.3188
142.1382,100.3590
142.0609,100.4253
141.9821,100.4961
141.9057,100.5693
141.8486,100.6286
141.8598,100.6628
141.9590,100.6886
142.0670,100.7048
142.0933,100.7083
142.1902,100.7205
142.2911,100.7307
142.3551,100.7337
142.4621,100.7337
142.5458,100.6743
142.5803,100.6570
142.6028,100.6687
Z" /> 
<path style="fill:#000000; fill-opacity:1.0000; stroke:none;fill-rule:evenodd;"
d="M 135.8154,108.0865
135.8154,109.8836
135.9961,110.0644
135.6761,110.3848
135.3620,110.0707
135.3620,109.3609
134.9937,109.3609
134.9937,109.8797
135.1745,110.0644
134.8545,110.3848
134.5404,110.0707
134.5404,108.5740
134.3597,108.3933
134.3650,108.3879
134.9937,108.3879
134.9937,109.2672
135.3620,109.2672
135.3620,108.3063
135.1696,108.1700
134.9937,108.3879
134.3650,108.3879
134.6801,108.0728
134.9239,108.3161
135.3694,107.7758
Z" /> 
<path style="fill:#000000; fill-opacity:1.0000; stroke:none;fill-rule:evenodd;"
d="M 136.7679,108.0948
137.0879,107.7773
137.4020,108.0884
137.4020,109.8836
137.5827,110.0644
137.2627,110.3848
136.9486,110.0707
136.9486,109.3609
136.5803,109.3609
136.5803,109.8797
136.7611,110.0644
136.4411,110.3848
136.1270,110.0707
136.1270,108.2755
135.9463,108.0948
136.2662,107.7773
136.5803,108.0884
136.5803,109.2672
136.9486,109.2672
136.9486,108.2746
Z" /> 
<path style="fill:#000000; fill-opacity:1.0000; stroke:none;fill-rule:evenodd;"
d="M 137.5358,108.5476
137.8558,108.2277
138.1020,108.4734
138.5157,107.9302
138.8308,108.2462
138.8308,108.6922
138.6241,108.8940
138.9690,109.2393
138.9690,110.0707
138.6549,110.3790
138.3652,110.0863
138.0726,110.3790
137.7585,110.0707
137.7585,109.4718
138.2119,109.4718
138.2119,109.7937
138.4073,109.9916
138.5157,109.8836
138.5157,109.4235
138.2026,109.1133
138.3775,108.9384
138.3775,108.4333
138.3100,108.3664
138.1699,108.5530
138.1699,109.0586
137.7165,109.0586
137.7165,108.7284
Z" /> 
</g>
<g style="fill:none; 
stroke:#000000; stroke-width:0.1200; stroke-opacity:1; 
stroke-linecap:round; stroke-linejoin:round;">
<path d="M136.8525 86.1400
L136.8525 85.8300
" />
<path d="M136.8525 89.8100
L136.8525 89.2600
" />
<path d="M137.4025 85.5900
L137.1525 85.5900
" />
<path d="M137.4025 89.8100
L136.8525 89.8100
" />
<path d="M140.5225 85.5900
L141.0725 85.5900
" />
<path d="M140.5225 89.8100
L141.0725 89.8100
" />
<path d="M141.0725 85.5900
L141.0725 86.1400
" />
<path d="M141.0725 89.8100
L141.0725 89.2600
" />
<path style="fill:#000000; fill-opacity:1.0000; 
stroke:#000000; stroke-width:0.1200; stroke-opacity:1; 
stroke-linecap:round; stroke-linejoin:round;fill-rule:evenodd;"
d="M 136.8525,85.5900
136.6125,85.2600
137.0925,85.2600
Z" /> 
</g>
<g style="fill:none; 
stroke:#000000; stroke-width:0.1200; stroke-opacity:1; 
stroke-linecap:round; stroke-linejoin:round;">
<path d="M129.3900 97.1422
L129.3900 97.3578
" />
<path d="M130.1100 97.1422
L130.1100 97.3578
" />
<path d="M137.9036 105.1700
L137.5964 105.1700
" />
<path d="M137.9036 105.9300
L137.5964 105.9300
" />
<path d="M141.3800 96.3025
L141.3800 96.1075
" />
<path d="M141.3900 98.0975
L141.3900 97.6725
" />
<path d="M141.5650 98.0975
L141.3900 98.0975
" />
<path d="M143.4350 95.8775
L143.6100 95.8775
" />
<path d="M143.4350 98.0975
L143.6100 98.0975
" />
<path d="M143.6100 95.8775
L143.6100 96.3025
" />
<path d="M143.6100 98.0975
L143.6100 97.6725
" />
<path style="fill:#000000; fill-opacity:1.0000; 
stroke:#000000; stroke-width:0.1200; stroke-opacity:1; 
stroke-linecap:round; stroke-linejoin:round;fill-rule:evenodd;"
d="M 141.3800,95.8675
141.2400,95.6775
141.5200,95.6775
Z" /> 
</g>
<g style="fill:none; 
stroke:#000000; stroke-width:0.1200; stroke-opacity:1; 
stroke-linecap:round; stroke-linejoin:round;">
<path d="M138.2400 82.8422
L138.2400 83.0578
" />
<path d="M138.9600 82.8422
L138.9600 83.0578
" />
<path d="M141.5900 82.8922
L141.5900 83.1078
" />
<path d="M142.3100 82.8922
L142.3100 83.1078
" />
<path d="M130.2300 85.3300
L131.5600 85.3300
" />
<path d="M130.2300 86.6600
L130.2300 85.3300
" />
<path d="M130.2300 87.9300
L130.2300 90.5300
" />
<path d="M130.2300 87.9300
L132.8300 87.9300
" />
<path d="M130.2300 90.5300
L135.4300 90.5300
" />
<path d="M132.8300 85.3300
L135.4300 85.3300
" />
<path d="M132.8300 87.9300
L132.8300 85.3300
" />
<path d="M135.4300 85.3300
L135.4300 90.5300
" />
<path d="M139.3900 83.1236
L139.3900 82.8164
" />
<path d="M140.1500 83.1236
L140.1500 82.8164
" />
<path d="M140.4036 105.1700
L140.0964 105.1700
" />
<path d="M140.4036 105.9300
L140.0964 105.9300
" />
<path d="M140.3900 97.1497
L140.3900 97.3653
" />
<path d="M141.1100 97.1497
L141.1100 97.3653
" />
<path d="M131.7900 83.0578
L131.7900 82.8422
" />
<path d="M132.5100 83.0578
L132.5100 82.8422
" />
<path d="M131.4122 94.8900
L131.6278 94.8900
" />
<path d="M131.4122 95.6100
L131.6278 95.6100
" />
</g>
<g style="fill:none; 
stroke:#000000; stroke-width:0.1000; stroke-opacity:1; 
stroke-linecap:round; stroke-linejoin:round;">
<circle cx="136.3400" cy="105.5500" r="0.0500" /> 
</g>
<g style="fill:none; 
stroke:#000000; stroke-width:0.1200; stroke-opacity:1; 
stroke-linecap:round; stroke-linejoin:round;">
<path d="M140.5700 83.1336
L140.5700 82.8264
" />
<path d="M141.3300 83.1336
L141.3300 82.8264
" />
<path d="M130.3800 96.3150
L130.3800 96.1200
" />
<path d="M130.3900 98.1100
L130.3900 97.6850
" />
<path d="M130.5650 98.1100
L130.3900 98.1100
" />
<path d="M132.4350 95.8900
L132.6100 95.8900
" />
<path d="M132.4350 98.1100
L132.6100 98.1100
" />
<path d="M132.6100 95.8900
L132.6100 96.3150
" />
<path d="M132.6100 98.1100
L132.6100 97.6850
" />
<path style="fill:#000000; fill-opacity:1.0000; 
stroke:#000000; stroke-width:0.1200; stroke-opacity:1; 
stroke-linecap:round; stroke-linejoin:round;fill-rule:evenodd;"
d="M 130.3800,95.8800
130.2400,95.6900
130.5200,95.6900
Z" /> 
</g>
<g style="fill:none; 
stroke:#000000; stroke-width:0.1200; stroke-opacity:1; 
stroke-linecap:round; stroke-linejoin:round;">
<path d="M142.4122 94.8775
L142.6278 94.8775
" />
<path d="M142.4122 95.5975
L142.6278 95.5975
" />
<path d="M132.9036 105.1700
L132.5964 105.1700
" />
<path d="M132.9036 105.9300
L132.5964 105.9300
" />
<path d="M137.9700 81.2800
L133.9700 81.2800
" />
<path d="M137.9700 84.5800
L137.9700 81.2800
" />
<path d="M132.9900 83.0578
L132.9900 82.8422
" />
<path d="M133.7100 83.0578
L133.7100 82.8422
" />
<path d="M130.8300 83.1036
L130.8300 82.7964
" />
<path d="M131.5900 83.1036
L131.5900 82.7964
" />
</g>
<g style="fill:none; 
stroke:#000000; stroke-width:0.0500; stroke-opacity:1; 
stroke-linecap:round; stroke-linejoin:round;">
<path d="M136.3325 85.0700
L136.3325 90.3300
" />
<path d="M136.3325 90.3300
L141.5925 90.3300
" />
<path d="M141.5925 85.0700
L136.3325 85.0700
" />
<path d="M141.5925 90.3300
L141.5925 85.0700
" />
<path d="M129.2900 96.3400
L130.2100 96.3400
" />
<path d="M129.2900 98.1600
L129.2900 96.3400
" />
<path d="M130.2100 96.3400
L130.2100 98.1600
" />
<path d="M130.2100 98.1600
L129.2900 98.1600
" />
<path d="M136.8200 105.0800
L138.6800 105.0800
" />
<path d="M136.8200 106.0200
L136.8200 105.0800
" />
<path d="M138.6800 105.0800
L138.6800 106.0200
" />
<path d="M138.6800 106.0200
L136.8200 106.0200
" />
<path d="M141.2500 95.7375
L141.2500 98.2375
" />
<path d="M141.2500 98.2375
L143.7500 98.2375
" />
<path d="M143.7500 95.7375
L141.2500 95.7375
" />
<path d="M143.7500 98.2375
L143.7500 95.7375
" />
<path d="M138.1400 82.0400
L139.0600 82.0400
" />
<path d="M138.1400 83.8600
L138.1400 82.0400
" />
<path d="M139.0600 82.0400
L139.0600 83.8600
" />
<path d="M139.0600 83.8600
L138.1400 83.8600
" />
<path d="M141.4900 82.0900
L142.4100 82.0900
" />
<path d="M141.4900 83.9100
L141.4900 82.0900
" />
<path d="M142.4100 82.0900
L142.4100 83.9100
" />
<path d="M142.4100 83.9100
L141.4900 83.9100
" />
<path d="M129.7600 84.8600
L129.7600 91.0100
" />
<path d="M129.7600 91.0100
L135.9100 91.0100
" />
<path d="M135.9100 84.8600
L129.7600 84.8600
" />
<path d="M135.9100 91.0100
L135.9100 84.8600
" />
<path d="M139.3000 82.0400
L140.2400 82.0400
" />
<path d="M139.3000 83.9000
L139.3000 82.0400
" />
<path d="M140.2400 82.0400
L140.2400 83.9000
" />
<path d="M140.2400 83.9000
L139.3000 83.9000
" />
<path d="M139.3200 105.0800
L141.1800 105.0800
" />
<path d="M139.3200 106.0200
L139.3200 105.0800
" />
<path d="M141.1800 105.0800
L141.1800 106.0200
" />
<path d="M141.1800 106.0200
L139.3200 106.0200
" />
<path d="M140.2900 96.3475
L141.2100 96.3475
" />
<path d="M140.2900 98.1675
L140.2900 96.3475
" />
<path d="M141.2100 96.3475
L141.2100 98.1675
" />
<path d="M141.2100 98.1675
L140.2900 98.1675
" />
<path d="M131.6900 82.0400
L132.6100 82.0400
" />
<path d="M131.6900 83.8600
L131.6900 82.0400
" />
<path d="M132.6100 82.0400
L132.6100 83.8600
" />
<path d="M132.6100 83.8600
L131.6900 83.8600
" />
<path d="M130.6100 94.7900
L132.4300 94.7900
" />
<path d="M130.6100 95.7100
L130.6100 94.7900
" />
<path d="M132.4300 94.7900
L132.4300 95.7100
" />
<path d="M132.4300 95.7100
L130.6100 95.7100
" />
<path d="M134.3200 105.0800
L136.1800 105.0800
" />
<path d="M134.3200 106.0200
L134.3200 105.0800
" />
<path d="M136.1800 105.0800
L136.1800 106.0200
" />
<path d="M136.1800 106.0200
L134.3200 106.0200
" />
<path d="M140.4800 82.0500
L141.4200 82.0500
" />
<path d="M140.4800 83.9100
L140.4800 82.0500
" />
<path d="M141.4200 82.0500
L141.4200 83.9100
" />
<path d="M141.4200 83.9100
L140.4800 83.9100
" />
<path d="M130.2500 95.7500
L130.2500 98.2500
" />
<path d="M130.2500 98.2500
L132.7500 98.2500
" />
<path d="M132.7500 95.7500
L130.2500 95.7500
" />
<path d="M132.7500 98.2500
L132.7500 95.7500
" />
<path d="M141.6100 94.7775
L143.4300 94.7775
" />
<path d="M141.6100 95.6975
L141.6100 94.7775
" />
<path d="M143.4300 94.7775
L143.4300 95.6975
" />
<path d="M143.4300 95.6975
L141.6100 95.6975
" />
<path d="M131.8200 105.0800
L133.6800 105.0800
" />
<path d="M131.8200 106.0200
L131.8200 105.0800
" />
<path d="M133.6800 105.0800
L133.6800 106.0200
" />
<path d="M133.6800 106.0200
L131.8200 106.0200
" />
<path d="M133.8700 81.2300
L133.8700 84.6300
" />
<path d="M133.8700 84.6300
L138.0700 84.6300
" />
<path d="M138.0700 81.2300
L133.8700 81.2300
" />
<path d="M138.0700 84.6300
L138.0700 81.2300
" />
<path d="M132.8900 82.0400
L133.8100 82.0400
" />
<path d="M132.8900 83.8600
L132.8900 82.0400
" />
<path d="M133.8100 82.0400
L133.8100 83.8600
" />
<path d="M133.8100 83.8600
L132.8900 83.8600
" />
<path d="M130.7400 82.0200
L131.6800 82.0200
" />
<path d="M130.7400 83.8800
L130.7400 82.0200
" />
<path d="M131.6800 82.0200
L131.6800 83.8800
" />
<path d="M131.6800 83.8800
L130.7400 83.8800
" />
</g>
<g style="fill:none; 
stroke:#000000; stroke-width:0.1500; stroke-opacity:1; 
stroke-linecap:round; stroke-linejoin:round;">
<text x="136.5000" y="116.5500"
textLength="3.5833" font-size="1.3333" lengthAdjust="spacingAndGlyphs"
text-anchor="middle" opacity="0" stroke-opacity="0">29,0</text>
<g class="stroked-text"><desc>29,0</desc>
<path d="M135.0238 115.6001
L135.0714 115.5524
" />
<path d="M135.0714 115.5524
L135.1667 115.5048
" />
<path d="M135.1667 115.5048
L135.4048 115.5048
" />
<path d="M135.4048 115.5048
L135.5000 115.5524
" />
<path d="M135.5000 115.5524
L135.5476 115.6001
" />
<path d="M135.5476 115.6001
L135.5952 115.6953
" />
<path d="M135.5952 115.6953
L135.5952 115.7905
" />
<path d="M135.5952 115.7905
L135.5476 115.9334
" />
<path d="M135.5476 115.9334
L134.9762 116.5048
" />
<path d="M134.9762 116.5048
L135.5952 116.5048
" />
<path d="M136.0714 116.5048
L136.2619 116.5048
" />
<path d="M136.2619 116.5048
L136.3571 116.4572
" />
<path d="M136.3571 116.4572
L136.4048 116.4096
" />
<path d="M136.4048 116.4096
L136.5000 116.2667
" />
<path d="M136.5000 116.2667
L136.5476 116.0762
" />
<path d="M136.5476 116.0762
L136.5476 115.6953
" />
<path d="M136.5476 115.6953
L136.5000 115.6001
" />
<path d="M136.5000 115.6001
L136.4524 115.5524
" />
<path d="M136.4524 115.5524
L136.3571 115.5048
" />
<path d="M136.3571 115.5048
L136.1667 115.5048
" />
<path d="M136.1667 115.5048
L136.0714 115.5524
" />
<path d="M136.0714 115.5524
L136.0238 115.6001
" />
<path d="M136.0238 115.6001
L135.9762 115.6953
" />
<path d="M135.9762 115.6953
L135.9762 115.9334
" />
<path d="M135.9762 115.9334
L136.0238 116.0286
" />
<path d="M136.0238 116.0286
L136.0714 116.0762
" />
<path d="M136.0714 116.0762
L136.1667 116.1239
" />
<path d="M136.1667 116.1239
L136.3571 116.1239
" />
<path d="M136.3571 116.1239
L136.4524 116.0762
" />
<path d="M136.4524 116.0762
L136.5000 116.0286
" />
<path d="M136.5000 116.0286
L136.5476 115.9334
" />
<path d="M137.0238 116.4572
L137.0238 116.5048
" />
<path d="M137.0238 116.5048
L136.9762 116.6001
" />
<path d="M136.9762 116.6001
L136.9286 116.6477
" />
<path d="M137.6429 115.5048
L137.7381 115.5048
" />
<path d="M137.7381 115.5048
L137.8333 115.5524
" />
<path d="M137.8333 115.5524
L137.8810 115.6001
" />
<path d="M137.8810 115.6001
L137.9286 115.6953
" />
<path d="M137.9286 115.6953
L137.9762 115.8858
" />
<path d="M137.9762 115.8858
L137.9762 116.1239
" />
<path d="M137.9762 116.1239
L137.9286 116.3143
" />
<path d="M137.9286 116.3143
L137.8810 116.4096
" />
<path d="M137.8810 116.4096
L137.8333 116.4572
" />
<path d="M137.8333 116.4572
L137.7381 116.5048
" />
<path d="M137.7381 116.5048
L137.6429 116.5048
" />
<path d="M137.6429 116.5048
L137.5476 116.4572
" />
<path d="M137.5476 116.4572
L137.5000 116.4096
" />
<path d="M137.5000 116.4096
L137.4524 116.3143
" />
<path d="M137.4524 116.3143
L137.4048 116.1239
" />
<path d="M137.4048 116.1239
L137.4048 115.8858
" />
<path d="M137.4048 115.8858
L137.4524 115.6953
" />
<path d="M137.4524 115.6953
L137.5000 115.6001
" />
<path d="M137.5000 115.6001
L137.5476 115.5524
" />
<path d="M137.5476 115.5524
L137.6429 115.5048
" />
</g></g>
<g style="fill:none; 
stroke:#000000; stroke-width:0.1000; stroke-opacity:1; 
stroke-linecap:round; stroke-linejoin:round;">
<path d="M151.0000 89.1200
L151.0000 117.7864
" />
<path d="M122.0000 89.1200
L122.0000 117.7864
" />
<path d="M151.0000 117.2000
L122.0000 117.2000
" />
<path d="M151.0000 117.2000
L122.0000 117.2000
" />
<path d="M151.0000 117.2000
L149.8735 117.7864
" />
<path d="M151.0000 117.2000
L149.8735 116.6136
" />
<path d="M122.0000 117.2000
L123.1265 116.6136
" />
<path d="M122.0000 117.2000
L123.1265 117.7864
" />
<circle cx="146.0500" cy="86.9500" r="1.2500" /> 
<circle cx="146.0500" cy="86.9500" r="2.5000" /> 
<circle cx="126.9500" cy="86.9500" r="1.2500" /> 
<circle cx="126.9500" cy="86.9500" r="2.5000" /> 
<circle cx="126.9500" cy="106.0500" r="2.5000" /> 
<circle cx="126.9500" cy="106.0500" r="1.2500" /> 
<path d="M152.3000 100.6500
L152.8000 100.1500
" />
<path d="M150.9000 102.0500
L152.3000 100.6500
" />
<path d="M152.8000 100.1500
L155.6000 100.1500
" />
<path d="M147.2750 105.6750
L148.3000 105.4500
" />
<path d="M147.2750 105.6750
L147.5000 104.6500
" />
</g>
<g style="fill:none; 
stroke:#000000; stroke-width:0.1500; stroke-opacity:1; 
stroke-linecap:round; stroke-linejoin:round;">
<text x="152.8000" y="99.9500"
textLength="4.6310" font-size="1.3333" lengthAdjust="spacingAndGlyphs"
text-anchor="start" opacity="0" stroke-opacity="0"> 2.5</text>
<g class="stroked-text"><desc> 2.5</desc>
<path d="M153.4225 99.0579
L153.6130 99.0579
" />
<path d="M153.6130 99.0579
L153.8034 99.1532
" />
<path d="M153.8034 99.1532
L153.8987 99.3436
" />
<path d="M153.8987 99.3436
L153.8987 99.5341
" />
<path d="M153.8987 99.5341
L153.8034 99.7246
" />
<path d="M153.8034 99.7246
L153.6130 99.8198
" />
<path d="M153.6130 99.8198
L153.4225 99.8198
" />
<path d="M153.4225 99.8198
L153.2320 99.7246
" />
<path d="M153.2320 99.7246
L153.1368 99.5341
" />
<path d="M153.1368 99.5341
L153.1368 99.3436
" />
<path d="M153.1368 99.3436
L153.2320 99.1532
" />
<path d="M153.2320 99.1532
L153.4225 99.0579
" />
<path d="M153.8987 99.0579
L153.1368 99.8198
" />
<path d="M155.0892 98.9151
L155.1368 98.8674
" />
<path d="M155.1368 98.8674
L155.2320 98.8198
" />
<path d="M155.2320 98.8198
L155.4701 98.8198
" />
<path d="M155.4701 98.8198
L155.5653 98.8674
" />
<path d="M155.5653 98.8674
L155.6130 98.9151
" />
<path d="M155.6130 98.9151
L155.6606 99.0103
" />
<path d="M155.6606 99.0103
L155.6606 99.1055
" />
<path d="M155.6606 99.1055
L155.6130 99.2484
" />
<path d="M155.6130 99.2484
L155.0415 99.8198
" />
<path d="M155.0415 99.8198
L155.6606 99.8198
" />
<path d="M156.0892 99.7246
L156.1368 99.7722
" />
<path d="M156.1368 99.7722
L156.0892 99.8198
" />
<path d="M156.0892 99.8198
L156.0415 99.7722
" />
<path d="M156.0415 99.7722
L156.0892 99.7246
" />
<path d="M156.0892 99.7246
L156.0892 99.8198
" />
<path d="M157.0415 98.8198
L156.5653 98.8198
" />
<path d="M156.5653 98.8198
L156.5177 99.2960
" />
<path d="M156.5177 99.2960
L156.5653 99.2484
" />
<path d="M156.5653 99.2484
L156.6606 99.2008
" />
<path d="M156.6606 99.2008
L156.8987 99.2008
" />
<path d="M156.8987 99.2008
L156.9939 99.2484
" />
<path d="M156.9939 99.2484
L157.0415 99.2960
" />
<path d="M157.0415 99.2960
L157.0892 99.3912
" />
<path d="M157.0892 99.3912
L157.0892 99.6293
" />
<path d="M157.0892 99.6293
L157.0415 99.7246
" />
<path d="M157.0415 99.7246
L156.9939 99.7722
" />
<path d="M156.9939 99.7722
L156.8987 99.8198
" />
<path d="M156.8987 99.8198
L156.6606 99.8198
" />
<path d="M156.6606 99.8198
L156.5653 99.7722
" />
<path d="M156.5653 99.7722
L156.5177 99.7246
" />
</g></g>
<g style="fill:none; 
stroke:#000000; stroke-width:0.1000; stroke-opacity:1; 
stroke-linecap:round; stroke-linejoin:round;">
<path d="M147.2750 105.6750
L150.9000 102.0500
" />
<path d="M126.9500 86.4500
L126.9500 87.4500
" />
<path d="M126.4500 86.9500
L127.4500 86.9500
" />
<path d="M146.0500 86.4500
L146.0500 87.4500
" />
<path d="M145.5500 86.9500
L146.5500 86.9500
" />
<path d="M146.0500 105.5500
L146.0500 106.5500
" />
<path d="M145.5500 106.0500
L146.5500 106.0500
" />
<circle cx="146.0500" cy="106.0500" r="2.5000" /> 
<circle cx="146.0500" cy="106.0500" r="1.2500" /> 
<path d="M152.7000 87.9500
L155.5000 87.9500
" />
<path d="M149.0750 91.5750
L150.1000 91.3500
" />
<path d="M149.0750 91.5750
L149.3000 90.5500
" />
</g>
<g style="fill:none; 
stroke:#000000; stroke-width:0.1500; stroke-opacity:1; 
stroke-linecap:round; stroke-linejoin:round;">
<text x="152.7000" y="87.7500"
textLength="5.5833" font-size="1.3333" lengthAdjust="spacingAndGlyphs"
text-anchor="start" opacity="0" stroke-opacity="0"> 27.0</text>
<g class="stroked-text"><desc> 27.0</desc>
<path d="M153.3225 86.8579
L153.5130 86.8579
" />
<path d="M153.5130 86.8579
L153.7034 86.9532
" />
<path d="M153.7034 86.9532
L153.7987 87.1436
" />
<path d="M153.7987 87.1436
L153.7987 87.3341
" />
<path d="M153.7987 87.3341
L153.7034 87.5246
" />
<path d="M153.7034 87.5246
L153.5130 87.6198
" />
<path d="M153.5130 87.6198
L153.3225 87.6198
" />
<path d="M153.3225 87.6198
L153.1320 87.5246
" />
<path d="M153.1320 87.5246
L153.0368 87.3341
" />
<path d="M153.0368 87.3341
L153.0368 87.1436
" />
<path d="M153.0368 87.1436
L153.1320 86.9532
" />
<path d="M153.1320 86.9532
L153.3225 86.8579
" />
<path d="M153.7987 86.8579
L153.0368 87.6198
" />
<path d="M154.9892 86.7151
L155.0368 86.6674
" />
<path d="M155.0368 86.6674
L155.1320 86.6198
" />
<path d="M155.1320 86.6198
L155.3701 86.6198
" />
<path d="M155.3701 86.6198
L155.4654 86.6674
" />
<path d="M155.4654 86.6674
L155.5130 86.7151
" />
<path d="M155.5130 86.7151
L155.5606 86.8103
" />
<path d="M155.5606 86.8103
L155.5606 86.9055
" />
<path d="M155.5606 86.9055
L155.5130 87.0484
" />
<path d="M155.5130 87.0484
L154.9415 87.6198
" />
<path d="M154.9415 87.6198
L155.5606 87.6198
" />
<path d="M155.8939 86.6198
L156.5606 86.6198
" />
<path d="M156.5606 86.6198
L156.1320 87.6198
" />
<path d="M156.9415 87.5246
L156.9892 87.5722
" />
<path d="M156.9892 87.5722
L156.9415 87.6198
" />
<path d="M156.9415 87.6198
L156.8939 87.5722
" />
<path d="M156.8939 87.5722
L156.9415 87.5246
" />
<path d="M156.9415 87.5246
L156.9415 87.6198
" />
<path d="M157.6082 86.6198
L157.7034 86.6198
" />
<path d="M157.7034 86.6198
L157.7987 86.6674
" />
<path d="M157.7987 86.6674
L157.8463 86.7151
" />
<path d="M157.8463 86.7151
L157.8939 86.8103
" />
<path d="M157.8939 86.8103
L157.9415 87.0008
" />
<path d="M157.9415 87.0008
L157.9415 87.2389
" />
<path d="M157.9415 87.2389
L157.8939 87.4293
" />
<path d="M157.8939 87.4293
L157.8463 87.5246
" />
<path d="M157.8463 87.5246
L157.7987 87.5722
" />
<path d="M157.7987 87.5722
L157.7034 87.6198
" />
<path d="M157.7034 87.6198
L157.6082 87.6198
" />
<path d="M157.6082 87.6198
L157.5130 87.5722
" />
<path d="M157.5130 87.5722
L157.4654 87.5246
" />
<path d="M157.4654 87.5246
L157.4177 87.4293
" />
<path d="M157.4177 87.4293
L157.3701 87.2389
" />
<path d="M157.3701 87.2389
L157.3701 87.0008
" />
<path d="M157.3701 87.0008
L157.4177 86.8103
" />
<path d="M157.4177 86.8103
L157.4654 86.7151
" />
<path d="M157.4654 86.7151
L157.5130 86.6674
" />
<path d="M157.5130 86.6674
L157.6082 86.6198
" />
</g></g>
<g style="fill:none; 
stroke:#000000; stroke-width:0.1000; stroke-opacity:1; 
stroke-linecap:round; stroke-linejoin:round;">
<path d="M149.0750 91.5750
L152.7000 87.9500
" />
<path d="M132.4584 109.4021
L131.4232 109.0310
" />
<path d="M131.0547 108.8753
L130.0670 108.3919
" />
<path d="M129.7181 108.1964
L128.7899 107.6065
" />
<path d="M128.4648 107.3736
L127.6077 106.6846
" />
<path d="M127.3103 106.4171
L126.5347 105.6375
" />
<path d="M126.2688 105.3387
L125.5843 104.4780
" />
<path d="M125.3531 104.1516
L124.7681 103.2204
" />
<path d="M124.5745 102.8704
L124.0962 101.8802
" />
<path d="M123.9425 101.5109
L123.5768 100.4738
" />
<path d="M123.4649 100.0898
L123.2163 99.0185
" />
<path d="M123.1476 98.6245
L123.0191 97.5323
" />
<path d="M122.9945 97.1331
L122.9877 96.0334
" />
<path d="M123.0074 95.6339
L123.1224 94.5403
" />
<path d="M123.1863 94.1454
L123.4216 93.0712
" />
<path d="M123.5288 92.6858
L123.8817 91.6443
" />
<path d="M124.0308 91.2732
L124.4969 90.2771
" />
<path d="M124.6862 89.9247
L125.2596 88.9864
" />
<path d="M125.4868 88.6572
L126.1606 87.7881
" />
<path d="M126.4228 87.4861
L127.1887 86.6969
" />
<path d="M127.4828 86.4258
L128.3313 85.7263
" />
<path d="M128.6536 85.4894
L129.5744 84.8881
" />
<path d="M143.1000 84.7000
L144.0371 85.2754
" />
<path d="M144.3659 85.5033
L145.2336 86.1789
" />
<path d="M145.5350 86.4418
L146.3226 87.2093
" />
<path d="M146.5931 87.5039
L147.2908 88.3539
" />
<path d="M147.5271 88.6767
L148.1264 89.5987
" />
<path d="M148.3254 89.9457
L148.8190 90.9284
" />
<path d="M148.9784 91.2952
L149.3601 92.3266
" />
<path d="M149.4779 92.7088
L149.7431 93.7761
" />
<path d="M149.8179 94.1690
L149.9633 95.2590
" />
<path d="M149.9941 95.6578
L150.0179 96.7573
" />
<path d="M150.0044 97.1570
L149.9063 98.2523
" />
<path d="M149.8486 98.6481
L149.6299 99.7259
" />
<path d="M149.5287 100.1128
L149.1920 101.1597
" />
<path d="M149.0486 101.5331
L148.5981 102.5363
" />
<path d="M148.4142 102.8915
L147.8554 103.8386
" />
<path d="M147.6333 104.1713
L146.9731 105.0507
" />
<path d="M146.7155 105.3568
L145.9620 106.1577
" />
<path d="M145.6721 106.4334
L144.8345 107.1459
" />
<path d="M144.5160 107.3878
L143.6046 108.0032
" />
<path d="M143.2612 108.2084
L142.2873 108.7191
" />
<path d="M141.9233 108.8850
L140.8989 109.2847
" />
<path d="M148.1750 84.8250
L148.4000 83.8000
" />
<path d="M148.1750 84.8250
L149.2000 84.6000
" />
</g>
<g style="fill:none; 
stroke:#000000; stroke-width:0.1500; stroke-opacity:1; 
stroke-linecap:round; stroke-linejoin:round;">
<text x="151.8000" y="81.0000"
textLength="5.5833" font-size="1.3333" lengthAdjust="spacingAndGlyphs"
text-anchor="start" opacity="0" stroke-opacity="0"> 33.0</text>
<g class="stroked-text"><desc> 33.0</desc>
<path d="M152.4225 80.1079
L152.6130 80.1079
" />
<path d="M152.6130 80.1079
L152.8034 80.2032
" />
<path d="M152.8034 80.2032
L152.8987 80.3936
" />
<path d="M152.8987 80.3936
L152.8987 80.5841
" />
<path d="M152.8987 80.5841
L152.8034 80.7746
" />
<path d="M152.8034 80.7746
L152.6130 80.8698
" />
<path d="M152.6130 80.8698
L152.4225 80.8698
" />
<path d="M152.4225 80.8698
L152.2320 80.7746
" />
<path d="M152.2320 80.7746
L152.1368 80.5841
" />
<path d="M152.1368 80.5841
L152.1368 80.3936
" />
<path d="M152.1368 80.3936
L152.2320 80.2032
" />
<path d="M152.2320 80.2032
L152.4225 80.1079
" />
<path d="M152.8987 80.1079
L152.1368 80.8698
" />
<path d="M154.0415 79.8698
L154.6606 79.8698
" />
<path d="M154.6606 79.8698
L154.3273 80.2508
" />
<path d="M154.3273 80.2508
L154.4701 80.2508
" />
<path d="M154.4701 80.2508
L154.5653 80.2984
" />
<path d="M154.5653 80.2984
L154.6130 80.3460
" />
<path d="M154.6130 80.3460
L154.6606 80.4412
" />
<path d="M154.6606 80.4412
L154.6606 80.6793
" />
<path d="M154.6606 80.6793
L154.6130 80.7746
" />
<path d="M154.6130 80.7746
L154.5653 80.8222
" />
<path d="M154.5653 80.8222
L154.4701 80.8698
" />
<path d="M154.4701 80.8698
L154.1844 80.8698
" />
<path d="M154.1844 80.8698
L154.0892 80.8222
" />
<path d="M154.0892 80.8222
L154.0415 80.7746
" />
<path d="M154.9939 79.8698
L155.6130 79.8698
" />
<path d="M155.6130 79.8698
L155.2796 80.2508
" />
<path d="M155.2796 80.2508
L155.4225 80.2508
" />
<path d="M155.4225 80.2508
L155.5177 80.2984
" />
<path d="M155.5177 80.2984
L155.5653 80.3460
" />
<path d="M155.5653 80.3460
L155.6130 80.4412
" />
<path d="M155.6130 80.4412
L155.6130 80.6793
" />
<path d="M155.6130 80.6793
L155.5653 80.7746
" />
<path d="M155.5653 80.7746
L155.5177 80.8222
" />
<path d="M155.5177 80.8222
L155.4225 80.8698
" />
<path d="M155.4225 80.8698
L155.1368 80.8698
" />
<path d="M155.1368 80.8698
L155.0415 80.8222
" />
<path d="M155.0415 80.8222
L154.9939 80.7746
" />
<path d="M156.0415 80.7746
L156.0892 80.8222
" />
<path d="M156.0892 80.8222
L156.0415 80.8698
" />
<path d="M156.0415 80.8698
L155.9939 80.8222
" />
<path d="M155.9939 80.8222
L156.0415 80.7746
" />
<path d="M156.0415 80.7746
L156.0415 80.8698
" />
<path d="M156.7082 79.8698
L156.8034 79.8698
" />
<path d="M156.8034 79.8698
L156.8987 79.9174
" />
<path d="M156.8987 79.9174
L156.9463 79.9651
" />
<path d="M156.9463 79.9651
L156.9939 80.0603
" />
<path d="M156.9939 80.0603
L157.0415 80.2508
" />
<path d="M157.0415 80.2508
L157.0415 80.4889
" />
<path d="M157.0415 80.4889
L156.9939 80.6793
" />
<path d="M156.9939 80.6793
L156.9463 80.7746
" />
<path d="M156.9463 80.7746
L156.8987 80.8222
" />
<path d="M156.8987 80.8222
L156.8034 80.8698
" />
<path d="M156.8034 80.8698
L156.7082 80.8698
" />
<path d="M156.7082 80.8698
L156.6130 80.8222
" />
<path d="M156.6130 80.8222
L156.5653 80.7746
" />
<path d="M156.5653 80.7746
L156.5177 80.6793
" />
<path d="M156.5177 80.6793
L156.4701 80.4889
" />
<path d="M156.4701 80.4889
L156.4701 80.2508
" />
<path d="M156.4701 80.2508
L156.5177 80.0603
" />
<path d="M156.5177 80.0603
L156.5653 79.9651
" />
<path d="M156.5653 79.9651
L156.6130 79.9174
" />
<path d="M156.6130 79.9174
L156.7082 79.8698
" />
</g></g>
<g style="fill:none; 
stroke:#000000; stroke-width:0.1000; stroke-opacity:1; 
stroke-linecap:round; stroke-linejoin:round;">
<path d="M151.8000 81.2000
L154.6000 81.2000
" />
<path d="M148.1750 84.8250
L151.8000 81.2000
" />
<path d="M126.9500 105.5500
L126.9500 106.5500
" />
<path d="M126.4500 106.0500
L127.4500 106.0500
" />
</g> 
</svg>
