<?xml version="1.0" standalone="no"?>
 <!DOCTYPE svg PUBLIC "-//W3C//DTD SVG 1.1//EN" 
 "http://www.w3.org/Graphics/SVG/1.1/DTD/svg11.dtd"> 
<svg
  xmlns:svg="http://www.w3.org/2000/svg"
  xmlns="http://www.w3.org/2000/svg"
  xmlns:xlink="http://www.w3.org/1999/xlink"
  version="1.1"
  width="297.0022mm" height="210.0072mm" viewBox="0.0000 0.0000 297.0022 210.0072">
<title>SVG Image created as AH3-Edge_Cuts.svg date 2025/01/22 23:41:44 </title>
  <desc>Image generated by PCBNEW </desc>
<g style="fill:#000000; fill-opacity:1.0000;stroke:#000000; stroke-opacity:1.0000;
stroke-linecap:round; stroke-linejoin:round;"
 transform="translate(0 0) scale(1 1)">
</g>
<g style="fill:none; 
stroke:#000000; stroke-width:0.0500; stroke-opacity:1; 
stroke-linecap:round; stroke-linejoin:round;">
<path d="M151.0000 88.6200
L150.9979 104.3850
" />
<path d="M122.0000 104.3811 A16.5005 16.5005 0.0 0 0 150.9979 104.3850" />
<path d="M122.0000 88.6200
L122.0000 104.3811
" />
<path d="M151.0000 88.6200 A16.4981 16.4981 0.0 0 0 122.0000 88.6200" />
</g>
<g style="fill:none; 
stroke:#000000; stroke-width:0.1500; stroke-opacity:1; 
stroke-linecap:round; stroke-linejoin:round;">
<path d="M140.2500 98.2500
L143.7500 98.2500
" />
<path d="M136.5000 96.0000
L136.5000 97.0000
" />
<path d="M127.2500 90.7500
L145.7500 90.7500
" />
<path d="M140.2500 94.7500
L140.2500 98.2500
" />
<path d="M129.2500 98.2500
L132.7500 98.2500
" />
<path d="M127.2500 90.7500 A2.0000 2.0000 0.0 0 0 125.2500 92.7500" />
<path d="M132.7500 94.7500
L129.2500 94.7500
" />
<path d="M147.7500 92.7500 A2.0000 2.0000 0.0 0 0 145.7500 90.7500" />
<path d="M145.7500 102.2500 A2.0000 2.0000 0.0 0 0 147.7500 100.2500" />
<path d="M143.7500 98.2500
L143.7500 94.7500
" />
<path d="M145.7500 102.2500
L127.2500 102.2500
" />
<path d="M132.7500 98.2500
L132.7500 94.7500
" />
<path d="M129.2500 94.7500
L129.2500 98.2500
" />
<path d="M125.2500 100.2500 A2.0000 2.0000 0.0 0 0 127.2500 102.2500" />
<path d="M147.7500 92.7500
L147.7500 100.2500
" />
<path d="M136.0000 96.5000
L137.0000 96.5000
" />
<path d="M125.2500 100.2500
L125.2500 92.7500
" />
<path d="M143.7500 94.7500
L140.2500 94.7500
" />
</g>
<g style="fill:none; 
stroke:#000000; stroke-width:0.4000; stroke-opacity:1; 
stroke-linecap:round; stroke-linejoin:round;">
<text x="131.0000" y="101.2500"
textLength="0.9633" font-size="2.6667" lengthAdjust="spacingAndGlyphs"
text-anchor="middle" opacity="0" stroke-opacity="0">1</text>
<g class="stroked-text"><desc>1</desc>
<path style="fill:#000000; fill-opacity:1.0000; stroke:none;fill-rule:evenodd;"
d="M 131.3932,100.8309
131.3143,100.8951
131.2278,100.9534
131.2022,100.9696
131.1141,101.0223
131.0268,101.0670
130.9937,101.0800
130.9076,101.0271
130.9052,101.0238
130.8681,100.9331
130.8671,100.9164
130.8628,100.8100
130.8593,100.7116
130.8588,100.6970
130.8559,100.6404
130.8559,99.7870
130.8642,99.6942
130.8730,99.6009
130.8505,99.5134
130.8222,99.4993
130.7435,99.5276
130.6590,99.5559
130.6224,99.5335
130.6112,99.4910
130.6336,99.4460
130.7261,99.4043
130.8229,99.3554
130.9197,99.3029
130.9853,99.2658
131.0637,99.2001
131.1461,99.1417
131.2022,99.1417
131.2359,99.1417
131.2554,99.2376
131.2555,99.2482
131.2527,99.3460
131.2459,99.4538
131.2384,99.5466
131.2304,99.6500
131.2241,99.7555
131.2218,99.8446
131.2218,100.5759
131.2281,100.6779
131.2442,100.7298
131.3324,100.7832
131.3820,100.7913
Z" /> 
</g></g>
<g style="fill:none; 
stroke:#000000; stroke-width:0.4000; stroke-opacity:1; 
stroke-linecap:round; stroke-linejoin:round;">
<text x="142.0000" y="101.2500"
textLength="1.3834" font-size="2.6667" lengthAdjust="spacingAndGlyphs"
text-anchor="middle" opacity="0" stroke-opacity="0">2</text>
<g class="stroked-text"><desc>2</desc>
<path style="fill:#000000; fill-opacity:1.0000; stroke:none;fill-rule:evenodd;"
d="M 142.6028,100.6970
142.5590,100.7888
142.5009,100.8758
142.4787,100.9071
142.4176,100.9872
142.3555,101.0635
142.3156,101.1113
142.2760,101.1113
142.1731,101.1022
142.0689,101.0830
141.9699,101.0599
141.9565,101.0566
141.8563,101.0324
141.7515,101.0119
141.6492,101.0014
141.6429,101.0014
141.5514,101.0374
141.5433,101.0424
141.4544,101.0868
141.4461,101.0888
141.4094,101.0492
141.4427,100.9563
141.4936,100.8666
141.5545,100.7826
141.6189,100.7066
141.6429,100.6804
141.9809,100.3170
142.0392,100.2337
142.0920,100.1343
142.1283,100.0325
142.1482,99.9283
142.1524,99.8524
142.1438,99.7490
142.1120,99.6554
142.0367,99.5778
141.9373,99.5493
141.9077,99.5481
141.8136,99.5747
141.7322,99.6344
141.6967,99.6693
141.6252,99.7431
141.5726,99.7904
141.5389,99.7762
141.5276,99.6917
141.5421,99.5878
141.5613,99.4827
141.5818,99.3794
141.6038,99.2897
141.6935,99.2419
141.7709,99.2086
141.8646,99.1705
141.9555,99.1417
142.0652,99.1463
142.1624,99.1602
142.2599,99.1882
142.3504,99.2356
142.3957,99.2736
142.4590,99.3623
142.4978,99.4654
142.5184,99.5745
142.5261,99.6819
142.5266,99.7205
142.5192,99.8192
142.4932,99.9251
142.4485,100.0255
142.4084,100.0894
142.3434,100.1686
142.2685,100.2439
142.1855,100.3188
142.1382,100.3590
142.0609,100.4253
141.9821,100.4961
141.9057,100.5693
141.8486,100.6286
141.8598,100.6628
141.9590,100.6886
142.0670,100.7048
142.0933,100.7083
142.1902,100.7205
142.2911,100.7307
142.3551,100.7337
142.4621,100.7337
142.5458,100.6743
142.5803,100.6570
142.6028,100.6687
Z" /> 
</g></g>
<g style="fill:none; 
stroke:#000000; stroke-width:0.4000; stroke-opacity:1; 
stroke-linecap:round; stroke-linejoin:round;">
<text x="136.7000" y="110.2500"
textLength="4.6680" font-size="2.6667" lengthAdjust="spacingAndGlyphs"
text-anchor="middle" opacity="0" stroke-opacity="0">AH3</text>
<g class="stroked-text"><desc>AH3</desc>
<path style="fill:#000000; fill-opacity:1.0000; stroke:none;fill-rule:evenodd;"
d="M 135.8154,108.0865
135.8154,109.8836
135.9961,110.0644
135.6761,110.3848
135.3620,110.0707
135.3620,109.3609
134.9937,109.3609
134.9937,109.8797
135.1745,110.0644
134.8545,110.3848
134.5404,110.0707
134.5404,108.5740
134.3597,108.3933
134.3650,108.3879
134.9937,108.3879
134.9937,109.2672
135.3620,109.2672
135.3620,108.3063
135.1696,108.1700
134.9937,108.3879
134.3650,108.3879
134.6801,108.0728
134.9239,108.3161
135.3694,107.7758
Z" /> 
<path style="fill:#000000; fill-opacity:1.0000; stroke:none;fill-rule:evenodd;"
d="M 136.7679,108.0948
137.0879,107.7773
137.4020,108.0884
137.4020,109.8836
137.5827,110.0644
137.2627,110.3848
136.9486,110.0707
136.9486,109.3609
136.5803,109.3609
136.5803,109.8797
136.7611,110.0644
136.4411,110.3848
136.1270,110.0707
136.1270,108.2755
135.9463,108.0948
136.2662,107.7773
136.5803,108.0884
136.5803,109.2672
136.9486,109.2672
136.9486,108.2746
Z" /> 
<path style="fill:#000000; fill-opacity:1.0000; stroke:none;fill-rule:evenodd;"
d="M 137.5358,108.5476
137.8558,108.2277
138.1020,108.4734
138.5157,107.9302
138.8308,108.2462
138.8308,108.6922
138.6241,108.8940
138.9690,109.2393
138.9690,110.0707
138.6549,110.3790
138.3652,110.0863
138.0726,110.3790
137.7585,110.0707
137.7585,109.4718
138.2119,109.4718
138.2119,109.7937
138.4073,109.9916
138.5157,109.8836
138.5157,109.4235
138.2026,109.1133
138.3775,108.9384
138.3775,108.4333
138.3100,108.3664
138.1699,108.5530
138.1699,109.0586
137.7165,109.0586
137.7165,108.7284
Z" /> 
</g></g>
<g style="fill:none; 
stroke:#000000; stroke-width:0.1200; stroke-opacity:1; 
stroke-linecap:round; stroke-linejoin:round;">
<path d="M136.8525 86.1400
L136.8525 85.8300
" />
<path d="M136.8525 89.8100
L136.8525 89.2600
" />
<path d="M137.4025 85.5900
L137.1525 85.5900
" />
<path d="M137.4025 89.8100
L136.8525 89.8100
" />
<path d="M140.5225 85.5900
L141.0725 85.5900
" />
<path d="M140.5225 89.8100
L141.0725 89.8100
" />
<path d="M141.0725 85.5900
L141.0725 86.1400
" />
<path d="M141.0725 89.8100
L141.0725 89.2600
" />
<path style="fill:#000000; fill-opacity:1.0000; 
stroke:#000000; stroke-width:0.1200; stroke-opacity:1; 
stroke-linecap:round; stroke-linejoin:round;fill-rule:evenodd;"
d="M 136.8525,85.5900
136.6125,85.2600
137.0925,85.2600
Z" /> 
</g>
<g style="fill:none; 
stroke:#000000; stroke-width:0.1200; stroke-opacity:1; 
stroke-linecap:round; stroke-linejoin:round;">
<path d="M129.3900 97.1422
L129.3900 97.3578
" />
<path d="M130.1100 97.1422
L130.1100 97.3578
" />
<path d="M137.9036 105.1700
L137.5964 105.1700
" />
<path d="M137.9036 105.9300
L137.5964 105.9300
" />
<path d="M141.3800 96.3025
L141.3800 96.1075
" />
<path d="M141.3900 98.0975
L141.3900 97.6725
" />
<path d="M141.5650 98.0975
L141.3900 98.0975
" />
<path d="M143.4350 95.8775
L143.6100 95.8775
" />
<path d="M143.4350 98.0975
L143.6100 98.0975
" />
<path d="M143.6100 95.8775
L143.6100 96.3025
" />
<path d="M143.6100 98.0975
L143.6100 97.6725
" />
<path style="fill:#000000; fill-opacity:1.0000; 
stroke:#000000; stroke-width:0.1200; stroke-opacity:1; 
stroke-linecap:round; stroke-linejoin:round;fill-rule:evenodd;"
d="M 141.3800,95.8675
141.2400,95.6775
141.5200,95.6775
Z" /> 
</g>
<g style="fill:none; 
stroke:#000000; stroke-width:0.1200; stroke-opacity:1; 
stroke-linecap:round; stroke-linejoin:round;">
<path d="M138.2400 82.8422
L138.2400 83.0578
" />
<path d="M138.9600 82.8422
L138.9600 83.0578
" />
<path d="M141.5900 82.8922
L141.5900 83.1078
" />
<path d="M142.3100 82.8922
L142.3100 83.1078
" />
<path d="M130.2300 85.3300
L131.5600 85.3300
" />
<path d="M130.2300 86.6600
L130.2300 85.3300
" />
<path d="M130.2300 87.9300
L130.2300 90.5300
" />
<path d="M130.2300 87.9300
L132.8300 87.9300
" />
<path d="M130.2300 90.5300
L135.4300 90.5300
" />
<path d="M132.8300 85.3300
L135.4300 85.3300
" />
<path d="M132.8300 87.9300
L132.8300 85.3300
" />
<path d="M135.4300 85.3300
L135.4300 90.5300
" />
<path d="M139.3900 83.1236
L139.3900 82.8164
" />
<path d="M140.1500 83.1236
L140.1500 82.8164
" />
<path d="M140.4036 105.1700
L140.0964 105.1700
" />
<path d="M140.4036 105.9300
L140.0964 105.9300
" />
<path d="M140.3900 97.1497
L140.3900 97.3653
" />
<path d="M141.1100 97.1497
L141.1100 97.3653
" />
<path d="M131.7900 83.0578
L131.7900 82.8422
" />
<path d="M132.5100 83.0578
L132.5100 82.8422
" />
<path d="M131.4122 94.8900
L131.6278 94.8900
" />
<path d="M131.4122 95.6100
L131.6278 95.6100
" />
</g>
<g style="fill:none; 
stroke:#000000; stroke-width:0.1000; stroke-opacity:1; 
stroke-linecap:round; stroke-linejoin:round;">
<circle cx="136.3400" cy="105.5500" r="0.0500" /> 
</g>
<g style="fill:none; 
stroke:#000000; stroke-width:0.1200; stroke-opacity:1; 
stroke-linecap:round; stroke-linejoin:round;">
<path d="M140.5700 83.1336
L140.5700 82.8264
" />
<path d="M141.3300 83.1336
L141.3300 82.8264
" />
<path d="M130.3800 96.3150
L130.3800 96.1200
" />
<path d="M130.3900 98.1100
L130.3900 97.6850
" />
<path d="M130.5650 98.1100
L130.3900 98.1100
" />
<path d="M132.4350 95.8900
L132.6100 95.8900
" />
<path d="M132.4350 98.1100
L132.6100 98.1100
" />
<path d="M132.6100 95.8900
L132.6100 96.3150
" />
<path d="M132.6100 98.1100
L132.6100 97.6850
" />
<path style="fill:#000000; fill-opacity:1.0000; 
stroke:#000000; stroke-width:0.1200; stroke-opacity:1; 
stroke-linecap:round; stroke-linejoin:round;fill-rule:evenodd;"
d="M 130.3800,95.8800
130.2400,95.6900
130.5200,95.6900
Z" /> 
</g>
<g style="fill:none; 
stroke:#000000; stroke-width:0.1200; stroke-opacity:1; 
stroke-linecap:round; stroke-linejoin:round;">
<path d="M142.4122 94.8775
L142.6278 94.8775
" />
<path d="M142.4122 95.5975
L142.6278 95.5975
" />
<path d="M132.9036 105.1700
L132.5964 105.1700
" />
<path d="M132.9036 105.9300
L132.5964 105.9300
" />
<path d="M137.9700 81.2800
L133.9700 81.2800
" />
<path d="M137.9700 84.5800
L137.9700 81.2800
" />
<path d="M132.9900 83.0578
L132.9900 82.8422
" />
<path d="M133.7100 83.0578
L133.7100 82.8422
" />
<path d="M130.8300 83.1036
L130.8300 82.7964
" />
<path d="M131.5900 83.1036
L131.5900 82.7964
" />
</g>
<g style="fill:none; 
stroke:#000000; stroke-width:0.0500; stroke-opacity:1; 
stroke-linecap:round; stroke-linejoin:round;">
<path d="M136.3325 85.0700
L136.3325 90.3300
" />
<path d="M136.3325 90.3300
L141.5925 90.3300
" />
<path d="M141.5925 85.0700
L136.3325 85.0700
" />
<path d="M141.5925 90.3300
L141.5925 85.0700
" />
<path d="M129.2900 96.3400
L130.2100 96.3400
" />
<path d="M129.2900 98.1600
L129.2900 96.3400
" />
<path d="M130.2100 96.3400
L130.2100 98.1600
" />
<path d="M130.2100 98.1600
L129.2900 98.1600
" />
<path d="M136.8200 105.0800
L138.6800 105.0800
" />
<path d="M136.8200 106.0200
L136.8200 105.0800
" />
<path d="M138.6800 105.0800
L138.6800 106.0200
" />
<path d="M138.6800 106.0200
L136.8200 106.0200
" />
<path d="M141.2500 95.7375
L141.2500 98.2375
" />
<path d="M141.2500 98.2375
L143.7500 98.2375
" />
<path d="M143.7500 95.7375
L141.2500 95.7375
" />
<path d="M143.7500 98.2375
L143.7500 95.7375
" />
<path d="M138.1400 82.0400
L139.0600 82.0400
" />
<path d="M138.1400 83.8600
L138.1400 82.0400
" />
<path d="M139.0600 82.0400
L139.0600 83.8600
" />
<path d="M139.0600 83.8600
L138.1400 83.8600
" />
<path d="M141.4900 82.0900
L142.4100 82.0900
" />
<path d="M141.4900 83.9100
L141.4900 82.0900
" />
<path d="M142.4100 82.0900
L142.4100 83.9100
" />
<path d="M142.4100 83.9100
L141.4900 83.9100
" />
<path d="M129.7600 84.8600
L129.7600 91.0100
" />
<path d="M129.7600 91.0100
L135.9100 91.0100
" />
<path d="M135.9100 84.8600
L129.7600 84.8600
" />
<path d="M135.9100 91.0100
L135.9100 84.8600
" />
<path d="M139.3000 82.0400
L140.2400 82.0400
" />
<path d="M139.3000 83.9000
L139.3000 82.0400
" />
<path d="M140.2400 82.0400
L140.2400 83.9000
" />
<path d="M140.2400 83.9000
L139.3000 83.9000
" />
<path d="M139.3200 105.0800
L141.1800 105.0800
" />
<path d="M139.3200 106.0200
L139.3200 105.0800
" />
<path d="M141.1800 105.0800
L141.1800 106.0200
" />
<path d="M141.1800 106.0200
L139.3200 106.0200
" />
<path d="M140.2900 96.3475
L141.2100 96.3475
" />
<path d="M140.2900 98.1675
L140.2900 96.3475
" />
<path d="M141.2100 96.3475
L141.2100 98.1675
" />
<path d="M141.2100 98.1675
L140.2900 98.1675
" />
<path d="M131.6900 82.0400
L132.6100 82.0400
" />
<path d="M131.6900 83.8600
L131.6900 82.0400
" />
<path d="M132.6100 82.0400
L132.6100 83.8600
" />
<path d="M132.6100 83.8600
L131.6900 83.8600
" />
<path d="M130.6100 94.7900
L132.4300 94.7900
" />
<path d="M130.6100 95.7100
L130.6100 94.7900
" />
<path d="M132.4300 94.7900
L132.4300 95.7100
" />
<path d="M132.4300 95.7100
L130.6100 95.7100
" />
<path d="M134.3200 105.0800
L136.1800 105.0800
" />
<path d="M134.3200 106.0200
L134.3200 105.0800
" />
<path d="M136.1800 105.0800
L136.1800 106.0200
" />
<path d="M136.1800 106.0200
L134.3200 106.0200
" />
<path d="M140.4800 82.0500
L141.4200 82.0500
" />
<path d="M140.4800 83.9100
L140.4800 82.0500
" />
<path d="M141.4200 82.0500
L141.4200 83.9100
" />
<path d="M141.4200 83.9100
L140.4800 83.9100
" />
<path d="M130.2500 95.7500
L130.2500 98.2500
" />
<path d="M130.2500 98.2500
L132.7500 98.2500
" />
<path d="M132.7500 95.7500
L130.2500 95.7500
" />
<path d="M132.7500 98.2500
L132.7500 95.7500
" />
<path d="M141.6100 94.7775
L143.4300 94.7775
" />
<path d="M141.6100 95.6975
L141.6100 94.7775
" />
<path d="M143.4300 94.7775
L143.4300 95.6975
" />
<path d="M143.4300 95.6975
L141.6100 95.6975
" />
<path d="M131.8200 105.0800
L133.6800 105.0800
" />
<path d="M131.8200 106.0200
L131.8200 105.0800
" />
<path d="M133.6800 105.0800
L133.6800 106.0200
" />
<path d="M133.6800 106.0200
L131.8200 106.0200
" />
<path d="M133.8700 81.2300
L133.8700 84.6300
" />
<path d="M133.8700 84.6300
L138.0700 84.6300
" />
<path d="M138.0700 81.2300
L133.8700 81.2300
" />
<path d="M138.0700 84.6300
L138.0700 81.2300
" />
<path d="M132.8900 82.0400
L133.8100 82.0400
" />
<path d="M132.8900 83.8600
L132.8900 82.0400
" />
<path d="M133.8100 82.0400
L133.8100 83.8600
" />
<path d="M133.8100 83.8600
L132.8900 83.8600
" />
<path d="M130.7400 82.0200
L131.6800 82.0200
" />
<path d="M130.7400 83.8800
L130.7400 82.0200
" />
<path d="M131.6800 82.0200
L131.6800 83.8800
" />
<path d="M131.6800 83.8800
L130.7400 83.8800
" />
</g>
<g style="fill:none; 
stroke:#000000; stroke-width:0.1500; stroke-opacity:1; 
stroke-linecap:round; stroke-linejoin:round;">
<g transform="rotate(-90.000000 155.8500 96.5000)">
<text x="155.8500" y="97.0000"
textLength="7.9643" font-size="1.3333" lengthAdjust="spacingAndGlyphs"
text-anchor="middle" opacity="0" stroke-opacity="0">19,09 mm</text>
</g>
<g class="stroked-text"><desc>19,09 mm</desc>
<path d="M156.3048 99.5952
L156.3048 100.1667
" />
<path d="M156.3048 99.8810
L155.3048 99.8810
" />
<path d="M155.3048 99.8810
L155.4477 99.9762
" />
<path d="M155.4477 99.9762
L155.5429 100.0714
" />
<path d="M155.5429 100.0714
L155.5905 100.1667
" />
<path d="M156.3048 99.1190
L156.3048 98.9286
" />
<path d="M156.3048 98.9286
L156.2572 98.8333
" />
<path d="M156.2572 98.8333
L156.2096 98.7857
" />
<path d="M156.2096 98.7857
L156.0667 98.6905
" />
<path d="M156.0667 98.6905
L155.8762 98.6429
" />
<path d="M155.8762 98.6429
L155.4953 98.6429
" />
<path d="M155.4953 98.6429
L155.4001 98.6905
" />
<path d="M155.4001 98.6905
L155.3524 98.7381
" />
<path d="M155.3524 98.7381
L155.3048 98.8333
" />
<path d="M155.3048 98.8333
L155.3048 99.0238
" />
<path d="M155.3048 99.0238
L155.3524 99.1190
" />
<path d="M155.3524 99.1190
L155.4001 99.1667
" />
<path d="M155.4001 99.1667
L155.4953 99.2143
" />
<path d="M155.4953 99.2143
L155.7334 99.2143
" />
<path d="M155.7334 99.2143
L155.8286 99.1667
" />
<path d="M155.8286 99.1667
L155.8762 99.1190
" />
<path d="M155.8762 99.1190
L155.9239 99.0238
" />
<path d="M155.9239 99.0238
L155.9239 98.8333
" />
<path d="M155.9239 98.8333
L155.8762 98.7381
" />
<path d="M155.8762 98.7381
L155.8286 98.6905
" />
<path d="M155.8286 98.6905
L155.7334 98.6429
" />
<path d="M156.2572 98.1667
L156.3048 98.1667
" />
<path d="M156.3048 98.1667
L156.4001 98.2143
" />
<path d="M156.4001 98.2143
L156.4477 98.2619
" />
<path d="M155.3048 97.5476
L155.3048 97.4524
" />
<path d="M155.3048 97.4524
L155.3524 97.3571
" />
<path d="M155.3524 97.3571
L155.4001 97.3095
" />
<path d="M155.4001 97.3095
L155.4953 97.2619
" />
<path d="M155.4953 97.2619
L155.6858 97.2143
" />
<path d="M155.6858 97.2143
L155.9239 97.2143
" />
<path d="M155.9239 97.2143
L156.1143 97.2619
" />
<path d="M156.1143 97.2619
L156.2096 97.3095
" />
<path d="M156.2096 97.3095
L156.2572 97.3571
" />
<path d="M156.2572 97.3571
L156.3048 97.4524
" />
<path d="M156.3048 97.4524
L156.3048 97.5476
" />
<path d="M156.3048 97.5476
L156.2572 97.6429
" />
<path d="M156.2572 97.6429
L156.2096 97.6905
" />
<path d="M156.2096 97.6905
L156.1143 97.7381
" />
<path d="M156.1143 97.7381
L155.9239 97.7857
" />
<path d="M155.9239 97.7857
L155.6858 97.7857
" />
<path d="M155.6858 97.7857
L155.4953 97.7381
" />
<path d="M155.4953 97.7381
L155.4001 97.6905
" />
<path d="M155.4001 97.6905
L155.3524 97.6429
" />
<path d="M155.3524 97.6429
L155.3048 97.5476
" />
<path d="M156.3048 96.7381
L156.3048 96.5476
" />
<path d="M156.3048 96.5476
L156.2572 96.4524
" />
<path d="M156.2572 96.4524
L156.2096 96.4048
" />
<path d="M156.2096 96.4048
L156.0667 96.3095
" />
<path d="M156.0667 96.3095
L155.8762 96.2619
" />
<path d="M155.8762 96.2619
L155.4953 96.2619
" />
<path d="M155.4953 96.2619
L155.4001 96.3095
" />
<path d="M155.4001 96.3095
L155.3524 96.3571
" />
<path d="M155.3524 96.3571
L155.3048 96.4524
" />
<path d="M155.3048 96.4524
L155.3048 96.6429
" />
<path d="M155.3048 96.6429
L155.3524 96.7381
" />
<path d="M155.3524 96.7381
L155.4001 96.7857
" />
<path d="M155.4001 96.7857
L155.4953 96.8333
" />
<path d="M155.4953 96.8333
L155.7334 96.8333
" />
<path d="M155.7334 96.8333
L155.8286 96.7857
" />
<path d="M155.8286 96.7857
L155.8762 96.7381
" />
<path d="M155.8762 96.7381
L155.9239 96.6429
" />
<path d="M155.9239 96.6429
L155.9239 96.4524
" />
<path d="M155.9239 96.4524
L155.8762 96.3571
" />
<path d="M155.8762 96.3571
L155.8286 96.3095
" />
<path d="M155.8286 96.3095
L155.7334 96.2619
" />
<path d="M156.3048 95.0714
L155.6382 95.0714
" />
<path d="M155.7334 95.0714
L155.6858 95.0238
" />
<path d="M155.6858 95.0238
L155.6382 94.9286
" />
<path d="M155.6382 94.9286
L155.6382 94.7857
" />
<path d="M155.6382 94.7857
L155.6858 94.6905
" />
<path d="M155.6858 94.6905
L155.7810 94.6429
" />
<path d="M155.7810 94.6429
L156.3048 94.6429
" />
<path d="M155.7810 94.6429
L155.6858 94.5952
" />
<path d="M155.6858 94.5952
L155.6382 94.5000
" />
<path d="M155.6382 94.5000
L155.6382 94.3571
" />
<path d="M155.6382 94.3571
L155.6858 94.2619
" />
<path d="M155.6858 94.2619
L155.7810 94.2143
" />
<path d="M155.7810 94.2143
L156.3048 94.2143
" />
<path d="M156.3048 93.7381
L155.6382 93.7381
" />
<path d="M155.7334 93.7381
L155.6858 93.6905
" />
<path d="M155.6858 93.6905
L155.6382 93.5952
" />
<path d="M155.6382 93.5952
L155.6382 93.4524
" />
<path d="M155.6382 93.4524
L155.6858 93.3571
" />
<path d="M155.6858 93.3571
L155.7810 93.3095
" />
<path d="M155.7810 93.3095
L156.3048 93.3095
" />
<path d="M155.7810 93.3095
L155.6858 93.2619
" />
<path d="M155.6858 93.2619
L155.6382 93.1667
" />
<path d="M155.6382 93.1667
L155.6382 93.0238
" />
<path d="M155.6382 93.0238
L155.6858 92.9286
" />
<path d="M155.6858 92.9286
L155.7810 92.8810
" />
<path d="M155.7810 92.8810
L156.3048 92.8810
" />
</g></g>
<g style="fill:none; 
stroke:#000000; stroke-width:0.1000; stroke-opacity:1; 
stroke-linecap:round; stroke-linejoin:round;">
<path d="M127.4541 86.9541
L157.5864 86.9541
" />
<path d="M127.4541 106.0459
L157.5864 106.0459
" />
<path d="M157.0000 86.9541
L157.0000 106.0459
" />
<path d="M157.0000 86.9541
L157.0000 106.0459
" />
<path d="M157.0000 86.9541
L157.5864 88.0806
" />
<path d="M157.0000 86.9541
L156.4136 88.0806
" />
<path d="M157.0000 106.0459
L156.4136 104.9194
" />
<path d="M157.0000 106.0459
L157.5864 104.9194
" />
</g>
<g style="fill:none; 
stroke:#000000; stroke-width:0.1500; stroke-opacity:1; 
stroke-linecap:round; stroke-linejoin:round;">
<g transform="rotate(-359.992373 136.5035 69.9367)">
<text x="136.5035" y="70.4367"
textLength="7.9643" font-size="1.3333" lengthAdjust="spacingAndGlyphs"
text-anchor="middle" opacity="0" stroke-opacity="0">29,00 mm</text>
</g>
<g class="stroked-text"><desc>29,00 mm</desc>
<path d="M132.8369 69.4863
L132.8846 69.4387
" />
<path d="M132.8846 69.4387
L132.9798 69.3910
" />
<path d="M132.9798 69.3910
L133.2179 69.3911
" />
<path d="M133.2179 69.3911
L133.3131 69.4387
" />
<path d="M133.3131 69.4387
L133.3607 69.4863
" />
<path d="M133.3607 69.4863
L133.4083 69.5816
" />
<path d="M133.4083 69.5816
L133.4083 69.6768
" />
<path d="M133.4083 69.6768
L133.3607 69.8197
" />
<path d="M133.3607 69.8197
L132.7892 70.3910
" />
<path d="M132.7892 70.3910
L133.4082 70.3911
" />
<path d="M133.8844 70.3912
L134.0749 70.3912
" />
<path d="M134.0749 70.3912
L134.1701 70.3436
" />
<path d="M134.1701 70.3436
L134.2178 70.2960
" />
<path d="M134.2178 70.2960
L134.3130 70.1531
" />
<path d="M134.3130 70.1531
L134.3607 69.9627
" />
<path d="M134.3607 69.9627
L134.3607 69.5817
" />
<path d="M134.3607 69.5817
L134.3131 69.4865
" />
<path d="M134.3131 69.4865
L134.2655 69.4388
" />
<path d="M134.2655 69.4388
L134.1703 69.3912
" />
<path d="M134.1703 69.3912
L133.9798 69.3912
" />
<path d="M133.9798 69.3912
L133.8846 69.4388
" />
<path d="M133.8846 69.4388
L133.8369 69.4864
" />
<path d="M133.8369 69.4864
L133.7893 69.5816
" />
<path d="M133.7893 69.5816
L133.7893 69.8197
" />
<path d="M133.7893 69.8197
L133.8369 69.9150
" />
<path d="M133.8369 69.9150
L133.8845 69.9626
" />
<path d="M133.8845 69.9626
L133.9797 70.0102
" />
<path d="M133.9797 70.0102
L134.1702 70.0103
" />
<path d="M134.1702 70.0103
L134.2654 69.9626
" />
<path d="M134.2654 69.9626
L134.3131 69.9150
" />
<path d="M134.3131 69.9150
L134.3607 69.8198
" />
<path d="M134.8368 70.3437
L134.8368 70.3913
" />
<path d="M134.8368 70.3913
L134.7892 70.4865
" />
<path d="M134.7892 70.4865
L134.7416 70.5341
" />
<path d="M135.4560 69.3914
L135.5512 69.3914
" />
<path d="M135.5512 69.3914
L135.6465 69.4390
" />
<path d="M135.6465 69.4390
L135.6941 69.4866
" />
<path d="M135.6941 69.4866
L135.7417 69.5819
" />
<path d="M135.7417 69.5819
L135.7893 69.7724
" />
<path d="M135.7893 69.7724
L135.7892 70.0105
" />
<path d="M135.7892 70.0105
L135.7416 70.2009
" />
<path d="M135.7416 70.2009
L135.6940 70.2962
" />
<path d="M135.6940 70.2962
L135.6463 70.3438
" />
<path d="M135.6463 70.3438
L135.5511 70.3914
" />
<path d="M135.5511 70.3914
L135.4559 70.3914
" />
<path d="M135.4559 70.3914
L135.3606 70.3437
" />
<path d="M135.3606 70.3437
L135.3130 70.2961
" />
<path d="M135.3130 70.2961
L135.2654 70.2009
" />
<path d="M135.2654 70.2009
L135.2178 70.0104
" />
<path d="M135.2178 70.0104
L135.2178 69.7723
" />
<path d="M135.2178 69.7723
L135.2655 69.5818
" />
<path d="M135.2655 69.5818
L135.3131 69.4866
" />
<path d="M135.3131 69.4866
L135.3607 69.4390
" />
<path d="M135.3607 69.4390
L135.4560 69.3914
" />
<path d="M136.4084 69.3915
L136.5036 69.3915
" />
<path d="M136.5036 69.3915
L136.5988 69.4392
" />
<path d="M136.5988 69.4392
L136.6465 69.4868
" />
<path d="M136.6465 69.4868
L136.6941 69.5820
" />
<path d="M136.6941 69.5820
L136.7417 69.7725
" />
<path d="M136.7417 69.7725
L136.7416 70.0106
" />
<path d="M136.7416 70.0106
L136.6940 70.2011
" />
<path d="M136.6940 70.2011
L136.6463 70.2963
" />
<path d="M136.6463 70.2963
L136.5987 70.3439
" />
<path d="M136.5987 70.3439
L136.5035 70.3915
" />
<path d="M136.5035 70.3915
L136.4082 70.3915
" />
<path d="M136.4082 70.3915
L136.3130 70.3439
" />
<path d="M136.3130 70.3439
L136.2654 70.2963
" />
<path d="M136.2654 70.2963
L136.2178 70.2010
" />
<path d="M136.2178 70.2010
L136.1702 70.0105
" />
<path d="M136.1702 70.0105
L136.1702 69.7724
" />
<path d="M136.1702 69.7724
L136.2179 69.5820
" />
<path d="M136.2179 69.5820
L136.2655 69.4867
" />
<path d="M136.2655 69.4867
L136.3131 69.4391
" />
<path d="M136.3131 69.4391
L136.4084 69.3915
" />
<path d="M137.9320 70.3917
L137.9321 69.7250
" />
<path d="M137.9321 69.8203
L137.9797 69.7727
" />
<path d="M137.9797 69.7727
L138.0750 69.7251
" />
<path d="M138.0750 69.7251
L138.2178 69.7251
" />
<path d="M138.2178 69.7251
L138.3131 69.7727
" />
<path d="M138.3131 69.7727
L138.3607 69.8680
" />
<path d="M138.3607 69.8680
L138.3606 70.3918
" />
<path d="M138.3607 69.8680
L138.4083 69.7727
" />
<path d="M138.4083 69.7727
L138.5036 69.7251
" />
<path d="M138.5036 69.7251
L138.6464 69.7251
" />
<path d="M138.6464 69.7251
L138.7417 69.7728
" />
<path d="M138.7417 69.7728
L138.7893 69.8680
" />
<path d="M138.7893 69.8680
L138.7892 70.3918
" />
<path d="M139.2654 70.3919
L139.2655 69.7252
" />
<path d="M139.2655 69.8205
L139.3131 69.7728
" />
<path d="M139.3131 69.7728
L139.4083 69.7252
" />
<path d="M139.4083 69.7252
L139.5512 69.7253
" />
<path d="M139.5512 69.7253
L139.6464 69.7729
" />
<path d="M139.6464 69.7729
L139.6940 69.8681
" />
<path d="M139.6940 69.8681
L139.6940 70.3919
" />
<path d="M139.6940 69.8681
L139.7417 69.7729
" />
<path d="M139.7417 69.7729
L139.8369 69.7253
" />
<path d="M139.8369 69.7253
L139.9798 69.7253
" />
<path d="M139.9798 69.7253
L140.0750 69.7729
" />
<path d="M140.0750 69.7729
L140.1226 69.8682
" />
<path d="M140.1226 69.8682
L140.1225 70.3920
" />
</g></g>
<g style="fill:none; 
stroke:#000000; stroke-width:0.1000; stroke-opacity:1; 
stroke-linecap:round; stroke-linejoin:round;">
<path d="M150.9980 103.8850
L151.0024 70.5022
" />
<path d="M122.0001 103.8811
L122.0045 70.4984
" />
<path d="M151.0023 71.0886
L122.0044 71.0848
" />
<path d="M151.0023 71.0886
L122.0044 71.0848
" />
<path d="M151.0023 71.0886
L149.8758 71.6749
" />
<path d="M151.0023 71.0886
L149.8759 70.5021
" />
<path d="M122.0044 71.0848
L123.1310 70.4985
" />
<path d="M122.0044 71.0848
L123.1309 71.6713
" />
</g>
<g style="fill:none; 
stroke:#000000; stroke-width:0.1500; stroke-opacity:1; 
stroke-linecap:round; stroke-linejoin:round;">
<text x="136.5000" y="74.8500"
textLength="7.9643" font-size="1.3333" lengthAdjust="spacingAndGlyphs"
text-anchor="middle" opacity="0" stroke-opacity="0">19,09 mm</text>
<g class="stroked-text"><desc>19,09 mm</desc>
<path d="M133.4048 74.8048
L132.8333 74.8048
" />
<path d="M133.1190 74.8048
L133.1190 73.8048
" />
<path d="M133.1190 73.8048
L133.0238 73.9477
" />
<path d="M133.0238 73.9477
L132.9286 74.0429
" />
<path d="M132.9286 74.0429
L132.8333 74.0905
" />
<path d="M133.8810 74.8048
L134.0714 74.8048
" />
<path d="M134.0714 74.8048
L134.1667 74.7572
" />
<path d="M134.1667 74.7572
L134.2143 74.7096
" />
<path d="M134.2143 74.7096
L134.3095 74.5667
" />
<path d="M134.3095 74.5667
L134.3571 74.3762
" />
<path d="M134.3571 74.3762
L134.3571 73.9953
" />
<path d="M134.3571 73.9953
L134.3095 73.9001
" />
<path d="M134.3095 73.9001
L134.2619 73.8524
" />
<path d="M134.2619 73.8524
L134.1667 73.8048
" />
<path d="M134.1667 73.8048
L133.9762 73.8048
" />
<path d="M133.9762 73.8048
L133.8810 73.8524
" />
<path d="M133.8810 73.8524
L133.8333 73.9001
" />
<path d="M133.8333 73.9001
L133.7857 73.9953
" />
<path d="M133.7857 73.9953
L133.7857 74.2334
" />
<path d="M133.7857 74.2334
L133.8333 74.3286
" />
<path d="M133.8333 74.3286
L133.8810 74.3762
" />
<path d="M133.8810 74.3762
L133.9762 74.4239
" />
<path d="M133.9762 74.4239
L134.1667 74.4239
" />
<path d="M134.1667 74.4239
L134.2619 74.3762
" />
<path d="M134.2619 74.3762
L134.3095 74.3286
" />
<path d="M134.3095 74.3286
L134.3571 74.2334
" />
<path d="M134.8333 74.7572
L134.8333 74.8048
" />
<path d="M134.8333 74.8048
L134.7857 74.9001
" />
<path d="M134.7857 74.9001
L134.7381 74.9477
" />
<path d="M135.4524 73.8048
L135.5476 73.8048
" />
<path d="M135.5476 73.8048
L135.6429 73.8524
" />
<path d="M135.6429 73.8524
L135.6905 73.9001
" />
<path d="M135.6905 73.9001
L135.7381 73.9953
" />
<path d="M135.7381 73.9953
L135.7857 74.1858
" />
<path d="M135.7857 74.1858
L135.7857 74.4239
" />
<path d="M135.7857 74.4239
L135.7381 74.6143
" />
<path d="M135.7381 74.6143
L135.6905 74.7096
" />
<path d="M135.6905 74.7096
L135.6429 74.7572
" />
<path d="M135.6429 74.7572
L135.5476 74.8048
" />
<path d="M135.5476 74.8048
L135.4524 74.8048
" />
<path d="M135.4524 74.8048
L135.3571 74.7572
" />
<path d="M135.3571 74.7572
L135.3095 74.7096
" />
<path d="M135.3095 74.7096
L135.2619 74.6143
" />
<path d="M135.2619 74.6143
L135.2143 74.4239
" />
<path d="M135.2143 74.4239
L135.2143 74.1858
" />
<path d="M135.2143 74.1858
L135.2619 73.9953
" />
<path d="M135.2619 73.9953
L135.3095 73.9001
" />
<path d="M135.3095 73.9001
L135.3571 73.8524
" />
<path d="M135.3571 73.8524
L135.4524 73.8048
" />
<path d="M136.2619 74.8048
L136.4524 74.8048
" />
<path d="M136.4524 74.8048
L136.5476 74.7572
" />
<path d="M136.5476 74.7572
L136.5952 74.7096
" />
<path d="M136.5952 74.7096
L136.6905 74.5667
" />
<path d="M136.6905 74.5667
L136.7381 74.3762
" />
<path d="M136.7381 74.3762
L136.7381 73.9953
" />
<path d="M136.7381 73.9953
L136.6905 73.9001
" />
<path d="M136.6905 73.9001
L136.6429 73.8524
" />
<path d="M136.6429 73.8524
L136.5476 73.8048
" />
<path d="M136.5476 73.8048
L136.3571 73.8048
" />
<path d="M136.3571 73.8048
L136.2619 73.8524
" />
<path d="M136.2619 73.8524
L136.2143 73.9001
" />
<path d="M136.2143 73.9001
L136.1667 73.9953
" />
<path d="M136.1667 73.9953
L136.1667 74.2334
" />
<path d="M136.1667 74.2334
L136.2143 74.3286
" />
<path d="M136.2143 74.3286
L136.2619 74.3762
" />
<path d="M136.2619 74.3762
L136.3571 74.4239
" />
<path d="M136.3571 74.4239
L136.5476 74.4239
" />
<path d="M136.5476 74.4239
L136.6429 74.3762
" />
<path d="M136.6429 74.3762
L136.6905 74.3286
" />
<path d="M136.6905 74.3286
L136.7381 74.2334
" />
<path d="M137.9286 74.8048
L137.9286 74.1382
" />
<path d="M137.9286 74.2334
L137.9762 74.1858
" />
<path d="M137.9762 74.1858
L138.0714 74.1382
" />
<path d="M138.0714 74.1382
L138.2143 74.1382
" />
<path d="M138.2143 74.1382
L138.3095 74.1858
" />
<path d="M138.3095 74.1858
L138.3571 74.2810
" />
<path d="M138.3571 74.2810
L138.3571 74.8048
" />
<path d="M138.3571 74.2810
L138.4048 74.1858
" />
<path d="M138.4048 74.1858
L138.5000 74.1382
" />
<path d="M138.5000 74.1382
L138.6429 74.1382
" />
<path d="M138.6429 74.1382
L138.7381 74.1858
" />
<path d="M138.7381 74.1858
L138.7857 74.2810
" />
<path d="M138.7857 74.2810
L138.7857 74.8048
" />
<path d="M139.2619 74.8048
L139.2619 74.1382
" />
<path d="M139.2619 74.2334
L139.3095 74.1858
" />
<path d="M139.3095 74.1858
L139.4048 74.1382
" />
<path d="M139.4048 74.1382
L139.5476 74.1382
" />
<path d="M139.5476 74.1382
L139.6429 74.1858
" />
<path d="M139.6429 74.1858
L139.6905 74.2810
" />
<path d="M139.6905 74.2810
L139.6905 74.8048
" />
<path d="M139.6905 74.2810
L139.7381 74.1858
" />
<path d="M139.7381 74.1858
L139.8333 74.1382
" />
<path d="M139.8333 74.1382
L139.9762 74.1382
" />
<path d="M139.9762 74.1382
L140.0714 74.1858
" />
<path d="M140.0714 74.1858
L140.1190 74.2810
" />
<path d="M140.1190 74.2810
L140.1190 74.8048
" />
</g></g>
<g style="fill:none; 
stroke:#000000; stroke-width:0.1000; stroke-opacity:1; 
stroke-linecap:round; stroke-linejoin:round;">
<path d="M146.0459 105.5459
L146.0459 74.9136
" />
<path d="M126.9541 105.5459
L126.9541 74.9136
" />
<path d="M146.0459 75.5000
L126.9541 75.5000
" />
<path d="M146.0459 75.5000
L126.9541 75.5000
" />
<path d="M146.0459 75.5000
L144.9194 76.0864
" />
<path d="M146.0459 75.5000
L144.9194 74.9136
" />
<path d="M126.9541 75.5000
L128.0806 74.9136
" />
<path d="M126.9541 75.5000
L128.0806 76.0864
" />
</g>
<g style="fill:none; 
stroke:#000000; stroke-width:0.1500; stroke-opacity:1; 
stroke-linecap:round; stroke-linejoin:round;">
<g transform="rotate(-90.000000 160.3500 96.5000)">
<text x="160.3500" y="97.0000"
textLength="7.9643" font-size="1.3333" lengthAdjust="spacingAndGlyphs"
text-anchor="middle" opacity="0" stroke-opacity="0">33,00 mm</text>
</g>
<g class="stroked-text"><desc>33,00 mm</desc>
<path d="M159.8048 100.2143
L159.8048 99.5952
" />
<path d="M159.8048 99.5952
L160.1858 99.9286
" />
<path d="M160.1858 99.9286
L160.1858 99.7857
" />
<path d="M160.1858 99.7857
L160.2334 99.6905
" />
<path d="M160.2334 99.6905
L160.2810 99.6429
" />
<path d="M160.2810 99.6429
L160.3762 99.5952
" />
<path d="M160.3762 99.5952
L160.6143 99.5952
" />
<path d="M160.6143 99.5952
L160.7096 99.6429
" />
<path d="M160.7096 99.6429
L160.7572 99.6905
" />
<path d="M160.7572 99.6905
L160.8048 99.7857
" />
<path d="M160.8048 99.7857
L160.8048 100.0714
" />
<path d="M160.8048 100.0714
L160.7572 100.1667
" />
<path d="M160.7572 100.1667
L160.7096 100.2143
" />
<path d="M159.8048 99.2619
L159.8048 98.6429
" />
<path d="M159.8048 98.6429
L160.1858 98.9762
" />
<path d="M160.1858 98.9762
L160.1858 98.8333
" />
<path d="M160.1858 98.8333
L160.2334 98.7381
" />
<path d="M160.2334 98.7381
L160.2810 98.6905
" />
<path d="M160.2810 98.6905
L160.3762 98.6429
" />
<path d="M160.3762 98.6429
L160.6143 98.6429
" />
<path d="M160.6143 98.6429
L160.7096 98.6905
" />
<path d="M160.7096 98.6905
L160.7572 98.7381
" />
<path d="M160.7572 98.7381
L160.8048 98.8333
" />
<path d="M160.8048 98.8333
L160.8048 99.1190
" />
<path d="M160.8048 99.1190
L160.7572 99.2143
" />
<path d="M160.7572 99.2143
L160.7096 99.2619
" />
<path d="M160.7572 98.1667
L160.8048 98.1667
" />
<path d="M160.8048 98.1667
L160.9001 98.2143
" />
<path d="M160.9001 98.2143
L160.9477 98.2619
" />
<path d="M159.8048 97.5476
L159.8048 97.4524
" />
<path d="M159.8048 97.4524
L159.8524 97.3571
" />
<path d="M159.8524 97.3571
L159.9001 97.3095
" />
<path d="M159.9001 97.3095
L159.9953 97.2619
" />
<path d="M159.9953 97.2619
L160.1858 97.2143
" />
<path d="M160.1858 97.2143
L160.4239 97.2143
" />
<path d="M160.4239 97.2143
L160.6143 97.2619
" />
<path d="M160.6143 97.2619
L160.7096 97.3095
" />
<path d="M160.7096 97.3095
L160.7572 97.3571
" />
<path d="M160.7572 97.3571
L160.8048 97.4524
" />
<path d="M160.8048 97.4524
L160.8048 97.5476
" />
<path d="M160.8048 97.5476
L160.7572 97.6429
" />
<path d="M160.7572 97.6429
L160.7096 97.6905
" />
<path d="M160.7096 97.6905
L160.6143 97.7381
" />
<path d="M160.6143 97.7381
L160.4239 97.7857
" />
<path d="M160.4239 97.7857
L160.1858 97.7857
" />
<path d="M160.1858 97.7857
L159.9953 97.7381
" />
<path d="M159.9953 97.7381
L159.9001 97.6905
" />
<path d="M159.9001 97.6905
L159.8524 97.6429
" />
<path d="M159.8524 97.6429
L159.8048 97.5476
" />
<path d="M159.8048 96.5952
L159.8048 96.5000
" />
<path d="M159.8048 96.5000
L159.8524 96.4048
" />
<path d="M159.8524 96.4048
L159.9001 96.3571
" />
<path d="M159.9001 96.3571
L159.9953 96.3095
" />
<path d="M159.9953 96.3095
L160.1858 96.2619
" />
<path d="M160.1858 96.2619
L160.4239 96.2619
" />
<path d="M160.4239 96.2619
L160.6143 96.3095
" />
<path d="M160.6143 96.3095
L160.7096 96.3571
" />
<path d="M160.7096 96.3571
L160.7572 96.4048
" />
<path d="M160.7572 96.4048
L160.8048 96.5000
" />
<path d="M160.8048 96.5000
L160.8048 96.5952
" />
<path d="M160.8048 96.5952
L160.7572 96.6905
" />
<path d="M160.7572 96.6905
L160.7096 96.7381
" />
<path d="M160.7096 96.7381
L160.6143 96.7857
" />
<path d="M160.6143 96.7857
L160.4239 96.8333
" />
<path d="M160.4239 96.8333
L160.1858 96.8333
" />
<path d="M160.1858 96.8333
L159.9953 96.7857
" />
<path d="M159.9953 96.7857
L159.9001 96.7381
" />
<path d="M159.9001 96.7381
L159.8524 96.6905
" />
<path d="M159.8524 96.6905
L159.8048 96.5952
" />
<path d="M160.8048 95.0714
L160.1382 95.0714
" />
<path d="M160.2334 95.0714
L160.1858 95.0238
" />
<path d="M160.1858 95.0238
L160.1382 94.9286
" />
<path d="M160.1382 94.9286
L160.1382 94.7857
" />
<path d="M160.1382 94.7857
L160.1858 94.6905
" />
<path d="M160.1858 94.6905
L160.2810 94.6429
" />
<path d="M160.2810 94.6429
L160.8048 94.6429
" />
<path d="M160.2810 94.6429
L160.1858 94.5952
" />
<path d="M160.1858 94.5952
L160.1382 94.5000
" />
<path d="M160.1382 94.5000
L160.1382 94.3571
" />
<path d="M160.1382 94.3571
L160.1858 94.2619
" />
<path d="M160.1858 94.2619
L160.2810 94.2143
" />
<path d="M160.2810 94.2143
L160.8048 94.2143
" />
<path d="M160.8048 93.7381
L160.1382 93.7381
" />
<path d="M160.2334 93.7381
L160.1858 93.6905
" />
<path d="M160.1858 93.6905
L160.1382 93.5952
" />
<path d="M160.1382 93.5952
L160.1382 93.4524
" />
<path d="M160.1382 93.4524
L160.1858 93.3571
" />
<path d="M160.1858 93.3571
L160.2810 93.3095
" />
<path d="M160.2810 93.3095
L160.8048 93.3095
" />
<path d="M160.2810 93.3095
L160.1858 93.2619
" />
<path d="M160.1858 93.2619
L160.1382 93.1667
" />
<path d="M160.1382 93.1667
L160.1382 93.0238
" />
<path d="M160.1382 93.0238
L160.1858 92.9286
" />
<path d="M160.1858 92.9286
L160.2810 92.8810
" />
<path d="M160.2810 92.8810
L160.8048 92.8810
" />
</g></g>
<g style="fill:none; 
stroke:#000000; stroke-width:0.1000; stroke-opacity:1; 
stroke-linecap:round; stroke-linejoin:round;">
<path d="M122.5000 80.0000
L162.0864 80.0000
" />
<path d="M122.5000 113.0000
L162.0864 113.0000
" />
<path d="M161.5000 80.0000
L161.5000 113.0000
" />
<path d="M161.5000 80.0000
L161.5000 113.0000
" />
<path d="M161.5000 80.0000
L162.0864 81.1265
" />
<path d="M161.5000 80.0000
L160.9136 81.1265
" />
<path d="M161.5000 113.0000
L160.9136 111.8735
" />
<path d="M161.5000 113.0000
L162.0864 111.8735
" />
</g> 
</svg>
